<svg width="135" height="27" viewBox="0 0 135 27" fill="none" xmlns="http://www.w3.org/2000/svg">
<path d="M8.64 22.72C6.77333 22.72 5.42667 22.2533 4.6 21.32C3.8 20.3867 3.4 19.2 3.4 17.76C3.4 16.4267 3.68 15 4.24 13.48C3.65333 13.0267 3.14667 12.5467 2.72 12.04C2.32 11.5333 2.09333 11 2.04 10.44C2.01333 10.3067 2 10.1733 2 10.04C2 9.88 2 9.74667 2 9.64C2 8.41333 2.37333 7.34667 3.12 6.44C3.86667 5.53333 4.82667 4.77333 6 4.16C7.17333 3.54667 8.4 3.08 9.68 2.76C10.9867 2.41333 12.1867 2.2 13.28 2.12C13.6 1.90667 14.0533 1.66667 14.64 1.4C15.2267 1.10667 15.8533 0.853332 16.52 0.639998C17.1867 0.426665 17.7733 0.319998 18.28 0.319998C18.7333 0.319998 19.08 0.426665 19.32 0.639998C19.5867 0.826666 19.6933 1.16 19.64 1.64C19.6133 1.8 19.5333 1.89333 19.4 1.92C19.2667 1.94666 19.2 1.88 19.2 1.72C19.2 1.21333 18.9733 0.959999 18.52 0.959999C18.1733 0.959999 17.76 1.08 17.28 1.32C16.8267 1.53333 16.3867 1.77333 15.96 2.04C17.88 2.30667 19.2667 3.08 20.12 4.36C21 5.61333 21.44 7.04 21.44 8.64C21.44 10.4267 20.9867 12.1467 20.08 13.8C19.52 14.84 18.8533 15.8933 18.08 16.96C17.3067 18 16.44 18.96 15.48 19.84C14.52 20.72 13.4667 21.4267 12.32 21.96C11.1733 22.4667 9.94667 22.72 8.64 22.72ZM8.52 22.12C9.64 22.12 10.7333 21.8267 11.8 21.24C12.8933 20.6267 13.92 19.8533 14.88 18.92C15.84 17.96 16.6933 16.96 17.44 15.92C18.1867 14.8533 18.7733 13.8667 19.2 12.96C19.6267 12.0533 19.9333 11.1867 20.12 10.36C20.3067 9.53333 20.4 8.74667 20.4 8C20.4 6.50667 20.0267 5.29333 19.28 4.36C18.56 3.4 17.5333 2.92 16.2 2.92C15.9333 2.92 15.64 2.94667 15.32 3C15 3.02667 14.68 3.09333 14.36 3.2C13.4533 3.76 12.3333 4.70667 11 6.04C9.66667 7.37333 8.41333 9.14667 7.24 11.36C7 11.8133 6.77333 12.2533 6.56 12.68C6.37333 13.1067 6.21333 13.5333 6.08 13.96C6.69333 14.3867 7.29333 14.7467 7.88 15.04C8.46667 15.3333 8.97333 15.6 9.4 15.84C9.45333 15.8933 9.48 15.9467 9.48 16C9.48 16.08 9.45333 16.16 9.4 16.24C9.34667 16.2933 9.29333 16.3067 9.24 16.28C8.86667 16.12 8.37333 15.8933 7.76 15.6C7.14667 15.3067 6.50667 14.96 5.84 14.56C5.44 15.84 5.24 17 5.24 18.04C5.24 19.2933 5.52 20.2933 6.08 21.04C6.64 21.76 7.45333 22.12 8.52 22.12ZM4.56 12.72L4.88 11.96C5.6 10.2533 6.49333 8.70667 7.56 7.32C8.65333 5.90667 9.81333 4.69333 11.04 3.68C10.1867 3.86667 9.28 4.13333 8.32 4.48C7.38667 4.82667 6.49333 5.24 5.64 5.72C4.81333 6.17333 4.13333 6.70667 3.6 7.32C3.06667 7.93333 2.8 8.61333 2.8 9.36C2.8 10.24 3.29333 11.2533 4.28 12.4L4.56 12.72ZM20.55 21.96C20.55 21.88 20.5767 21.8 20.63 21.72C20.6833 21.64 20.7233 21.5733 20.75 21.52C20.83 21.3333 20.91 21.1067 20.99 20.84C21.0967 20.5733 21.2433 20.2667 21.43 19.92C21.6433 19.52 21.87 19.0267 22.11 18.44C22.3767 17.8533 22.63 17.2667 22.87 16.68C23.11 16.0667 23.31 15.5867 23.47 15.24C23.5233 15.0533 23.5767 14.88 23.63 14.72C23.71 14.56 23.7633 14.4 23.79 14.24C23.8167 14.1333 23.83 14 23.83 13.84C23.83 13.5733 23.7633 13.36 23.63 13.2C23.4967 13.04 23.2433 12.96 22.87 12.96C22.6033 12.96 22.2967 13.0267 21.95 13.16C21.63 13.2667 21.3367 13.3867 21.07 13.52C21.07 13.4667 21.0833 13.3867 21.11 13.28C21.1633 13.1733 21.2167 13.1067 21.27 13.08C21.3767 13.0267 21.71 12.9067 22.27 12.72C22.83 12.5067 23.35 12.3067 23.83 12.12C24.23 11.96 24.6433 11.7467 25.07 11.48C25.1233 11.4533 25.2433 11.3867 25.43 11.28C25.6433 11.1733 25.7767 11.12 25.83 11.12H25.91C26.1233 11.12 26.23 11.2667 26.23 11.56C26.23 11.7467 26.19 11.9867 26.11 12.28C26.0567 12.5733 25.9633 12.8933 25.83 13.24C25.59 13.8267 25.3233 14.4 25.03 14.96C24.7633 15.52 24.6033 15.8667 24.55 16L23.43 18.52C24.55 17.4 25.59 16.32 26.55 15.28C27.51 14.24 28.43 13.2133 29.31 12.2C29.8433 11.5867 30.51 11.28 31.31 11.28C31.63 11.28 31.8967 11.3333 32.11 11.44C32.2433 11.4933 32.27 11.5467 32.19 11.6C32.1367 11.6533 32.0567 11.6933 31.95 11.72C31.5767 11.8267 31.1367 12.1867 30.63 12.8C30.1233 13.4133 29.6433 14.1467 29.19 15C28.7633 15.8267 28.43 16.6267 28.19 17.4C27.9767 18.0933 27.87 18.7333 27.87 19.32C27.87 19.6933 27.9367 20 28.07 20.24C28.2033 20.48 28.4167 20.6 28.71 20.6C29.1367 20.6 29.6967 20.36 30.39 19.88C30.7633 19.6133 31.23 19.1867 31.79 18.6C32.35 17.9867 32.8967 17.3467 33.43 16.68C33.9633 16.0133 34.39 15.48 34.71 15.08C34.71 15.08 34.7367 15.1067 34.79 15.16C34.8433 15.2933 34.83 15.4 34.75 15.48C34.5633 15.7467 34.3233 16.08 34.03 16.48C33.7367 16.88 33.4033 17.3067 33.03 17.76C32.6567 18.1867 32.2567 18.6267 31.83 19.08C31.43 19.5333 31.03 19.92 30.63 20.24C30.2567 20.56 29.8433 20.8267 29.39 21.04C28.9367 21.2533 28.4967 21.36 28.07 21.36C27.4567 21.36 27.03 21.1733 26.79 20.8C26.55 20.4 26.43 19.9333 26.43 19.4C26.43 18.9467 26.4833 18.48 26.59 18C26.7233 17.52 26.8567 17.0667 26.99 16.64C27.1233 16.24 27.3767 15.68 27.75 14.96C26.9233 15.6267 26.1233 16.3067 25.35 17C24.6033 17.6933 24.0033 18.3867 23.55 19.08C23.3633 19.3467 23.19 19.68 23.03 20.08C22.87 20.48 22.7367 20.8667 22.63 21.24C22.6033 21.32 22.4967 21.4 22.31 21.48C22.15 21.5333 21.9633 21.5867 21.75 21.64C21.5633 21.6667 21.3633 21.7067 21.15 21.76C20.9367 21.8133 20.7367 21.8933 20.55 22V21.96ZM35.4269 22.48C34.3602 22.48 33.6002 22.24 33.1469 21.76C32.7202 21.28 32.5069 20.68 32.5069 19.96C32.5069 19.5333 32.5735 19.0933 32.7069 18.64C32.8402 18.1867 33.0135 17.7333 33.2269 17.28C33.0402 17.1733 32.9469 17.04 32.9469 16.88C32.9469 16.64 33.2269 16.4267 33.7869 16.24C34.0269 15.8933 34.3202 15.4267 34.6669 14.84C35.0402 14.2267 35.4402 13.6133 35.8669 13C36.3202 12.3867 36.7869 11.8667 37.2669 11.44C37.7469 11.0133 38.2135 10.8 38.6669 10.8C39.0402 10.8 39.2802 10.9467 39.3869 11.24C39.4935 11.2133 39.6402 11.2 39.8269 11.2C40.6002 11.2 40.9869 11.6 40.9869 12.4C40.9869 13.0133 40.7735 13.6 40.3469 14.16C39.9202 14.6933 39.4135 15.0267 38.8269 15.16L38.8669 15.36C38.8669 15.36 39.0002 15.3467 39.2669 15.32C39.5335 15.2667 39.7602 15.2267 39.9469 15.2C40.4002 15.1733 40.8935 15.1733 41.4269 15.2C41.9602 15.2267 42.3069 15.3467 42.4669 15.56C42.5202 15.6133 42.5069 15.6533 42.4269 15.68C42.3735 15.7067 42.3202 15.7067 42.2669 15.68C42.0535 15.5733 41.7069 15.52 41.2269 15.52C40.5869 15.52 39.8269 15.6 38.9469 15.76C38.0935 15.92 37.3069 16.12 36.5869 16.36C35.8669 16.5733 35.3735 16.7733 35.1069 16.96C34.8669 17.3333 34.6269 17.8133 34.3869 18.4C34.1469 18.96 34.0269 19.5067 34.0269 20.04C34.0269 20.52 34.1602 20.9333 34.4269 21.28C34.7202 21.6 35.2402 21.76 35.9869 21.76C36.7869 21.76 37.5202 21.56 38.1869 21.16C38.8802 20.76 39.5202 20.2667 40.1069 19.68C40.6935 19.0667 41.2135 18.4933 41.6669 17.96C41.7202 17.9067 41.9069 17.6933 42.2269 17.32C42.5469 16.9467 42.8802 16.5467 43.2269 16.12C43.6002 15.6667 43.8669 15.32 44.0269 15.08C44.0269 15.08 44.0535 15.1067 44.1069 15.16C44.1602 15.2667 44.1469 15.3733 44.0669 15.48C43.7202 15.9067 43.3735 16.36 43.0269 16.84C42.6802 17.32 42.3202 17.7867 41.9469 18.24C41.4135 18.9067 40.8135 19.5733 40.1469 20.24C39.5069 20.88 38.8002 21.4133 38.0269 21.84C37.2535 22.2667 36.3869 22.48 35.4269 22.48ZM35.5069 16.16C36.0135 15.9733 36.4135 15.84 36.7069 15.76C37.0002 15.68 37.2669 15.5867 37.5069 15.48C37.7469 15.3467 37.9735 15.2 38.1869 15.04C38.4269 14.8533 38.6802 14.6 38.9469 14.28C39.1869 13.9867 39.3869 13.6667 39.5469 13.32C39.7069 12.9467 39.7869 12.6133 39.7869 12.32C39.7869 12.0533 39.7069 11.84 39.5469 11.68C39.3869 11.52 39.1069 11.6267 38.7069 12C38.3069 12.3467 37.8802 12.7867 37.4269 13.32C37.0002 13.8533 36.6002 14.3867 36.2269 14.92C35.8802 15.4533 35.6402 15.8667 35.5069 16.16ZM67.1659 24.68C65.3259 24.68 63.4726 24.2933 61.6059 23.52C59.7393 22.7733 57.9259 21.9467 56.1659 21.04C55.9793 21.3867 55.8193 21.7067 55.6859 22C55.5526 22.32 55.4193 22.5867 55.2859 22.8C54.5659 24.0267 53.7259 24.64 52.7659 24.64C51.8859 24.64 51.0726 24.1333 50.3259 23.12C49.8993 22.5067 49.5526 21.8133 49.2859 21.04C49.0193 20.2667 48.8859 19.5467 48.8859 18.88C48.8859 18.2667 48.9926 17.76 49.2059 17.36C49.4459 16.96 49.8193 16.76 50.3259 16.76C50.8593 16.76 51.6193 17.0133 52.6059 17.52C53.5926 18.0267 54.7259 18.64 56.0059 19.36C56.9659 16.9867 57.8726 14.5867 58.7259 12.16C59.5793 9.73333 60.5259 7.34667 61.5659 5C61.8859 4.28 62.3126 3.56 62.8459 2.84C63.3793 2.09333 63.9926 1.48 64.6859 0.999999C65.3793 0.493332 66.1126 0.239999 66.8859 0.239999C67.4726 0.239999 68.0859 0.439999 68.7259 0.839998C69.3659 1.26667 69.8593 1.90667 70.2059 2.76C70.5793 3.58667 70.8326 4.44 70.9659 5.32C71.1259 6.17333 71.1926 6.86667 71.1659 7.4C71.1393 7.50667 71.0593 7.61333 70.9259 7.72C70.7926 7.8 70.7393 7.74667 70.7659 7.56C70.7126 6.81333 70.5393 6.04 70.2459 5.24C69.9793 4.41333 69.5659 3.70667 69.0059 3.12C68.4726 2.53333 67.7526 2.24 66.8459 2.24C66.1793 2.24 65.5126 2.54667 64.8459 3.16C64.1793 3.74667 63.5393 4.53333 62.9259 5.52C62.3126 6.56 61.6993 7.76 61.0859 9.12C60.4726 10.4533 59.8993 11.8133 59.3659 13.2C58.8326 14.56 58.3393 15.8267 57.8859 17C57.4326 18.1467 57.0593 19.0533 56.7659 19.72C57.9659 20.36 59.2326 21 60.5659 21.64C61.9259 22.28 63.2859 22.8133 64.6459 23.24C66.0059 23.6667 67.3126 23.88 68.5659 23.88C69.3659 23.8533 70.0326 23.6133 70.5659 23.16C71.0993 22.7067 71.2993 22.0267 71.1659 21.12C71.0859 20.7467 70.9259 20.44 70.6859 20.2C70.4726 19.96 70.3793 19.7867 70.4059 19.68C70.4593 19.5467 70.5259 19.4933 70.6059 19.52C70.7126 19.5467 70.8059 19.5867 70.8859 19.64C71.7659 20.28 72.2059 20.9733 72.2059 21.72C72.2059 22.4133 71.8459 23.0267 71.1259 23.56C70.4326 24.12 69.5793 24.4667 68.5659 24.6C68.3259 24.6267 68.0859 24.64 67.8459 24.64C67.6326 24.6667 67.4059 24.68 67.1659 24.68ZM52.7259 24.12C53.0726 24.12 53.4193 23.96 53.7659 23.64C54.1126 23.32 54.4193 22.9067 54.6859 22.4C54.8993 22.0267 55.1659 21.4533 55.4859 20.68C55.0059 20.44 54.5393 20.2 54.0859 19.96C53.6593 19.72 53.2193 19.5067 52.7659 19.32C52.1793 19.0267 51.7126 18.88 51.3659 18.88C50.9126 18.88 50.6859 19.1867 50.6859 19.8C50.6859 19.9067 50.6859 20.04 50.6859 20.2C50.7126 20.3333 50.7393 20.4933 50.7659 20.68C50.9259 21.9067 51.1793 22.7867 51.5259 23.32C51.8993 23.8533 52.2993 24.12 52.7259 24.12ZM86.7134 22.76C86.8468 22.6 86.9801 22.32 87.1134 21.92C87.2468 21.4933 87.3401 21.0667 87.3934 20.64C87.4734 20.0533 87.5401 19.4667 87.5934 18.88C87.6468 18.2667 87.6734 17.6667 87.6734 17.08C87.6734 16.84 87.6601 16.6 87.6334 16.36C87.6334 16.12 87.6201 15.88 87.5934 15.64C87.5668 15.1333 87.4601 14.7867 87.2734 14.6C87.0868 14.4133 86.8601 14.32 86.5934 14.32C86.2468 14.32 85.8868 14.44 85.5134 14.68C85.1668 14.8933 84.8601 15.1467 84.5934 15.44C84.4068 15.6533 84.2201 15.8667 84.0334 16.08C83.8734 16.2933 83.7001 16.4933 83.5134 16.68C83.4334 16.76 83.3268 16.8 83.1934 16.8C83.1668 16.8 83.1668 16.76 83.1934 16.68L84.6334 14.88C84.9268 14.5067 85.3134 14.0667 85.7934 13.56C86.3001 13.0533 86.7934 12.8 87.2734 12.8C87.9401 12.8 88.3934 13.0533 88.6334 13.56C88.9001 14.0667 89.0334 14.6933 89.0334 15.44C89.0334 16.08 88.9668 16.7733 88.8334 17.52C88.7001 18.2667 88.5401 18.9733 88.3534 19.64C88.1668 20.28 88.0068 20.8133 87.8734 21.24C89.2334 19.5067 90.5934 17.64 91.9534 15.64C93.3401 13.6133 94.5668 11.7867 95.6334 10.16C95.7668 9.94667 95.9934 9.78667 96.3134 9.68C96.6334 9.54667 96.9401 9.46667 97.2334 9.44H97.5134C97.7268 9.44 97.8734 9.45333 97.9534 9.48C98.0334 9.53333 98.0334 9.6 97.9534 9.68L93.6334 14.8C92.7534 15.8667 91.9001 16.9333 91.0734 18C90.2734 19.04 89.6868 19.88 89.3134 20.52C89.2334 20.6533 89.1534 20.8 89.0734 20.96C89.0201 21.12 88.9668 21.2667 88.9134 21.4C88.8334 21.5333 88.7534 21.6533 88.6734 21.76C88.6201 21.8667 88.5401 21.9467 88.4334 22C88.2468 22.1067 88.0334 22.2133 87.7934 22.32C87.5801 22.4533 87.3668 22.56 87.1534 22.64C86.9668 22.72 86.8201 22.76 86.7134 22.76ZM98.005 22.48C96.9383 22.48 96.1783 22.24 95.725 21.76C95.2983 21.28 95.085 20.68 95.085 19.96C95.085 19.5333 95.1517 19.0933 95.285 18.64C95.4183 18.1867 95.5917 17.7333 95.805 17.28C95.6183 17.1733 95.525 17.04 95.525 16.88C95.525 16.64 95.805 16.4267 96.365 16.24C96.605 15.8933 96.8983 15.4267 97.245 14.84C97.6183 14.2267 98.0183 13.6133 98.445 13C98.8983 12.3867 99.365 11.8667 99.845 11.44C100.325 11.0133 100.792 10.8 101.245 10.8C101.618 10.8 101.858 10.9467 101.965 11.24C102.072 11.2133 102.218 11.2 102.405 11.2C103.178 11.2 103.565 11.6 103.565 12.4C103.565 13.0133 103.352 13.6 102.925 14.16C102.498 14.6933 101.992 15.0267 101.405 15.16L101.445 15.36C101.445 15.36 101.578 15.3467 101.845 15.32C102.112 15.2667 102.338 15.2267 102.525 15.2C102.978 15.1733 103.472 15.1733 104.005 15.2C104.538 15.2267 104.885 15.3467 105.045 15.56C105.098 15.6133 105.085 15.6533 105.005 15.68C104.952 15.7067 104.898 15.7067 104.845 15.68C104.632 15.5733 104.285 15.52 103.805 15.52C103.165 15.52 102.405 15.6 101.525 15.76C100.672 15.92 99.885 16.12 99.165 16.36C98.445 16.5733 97.9517 16.7733 97.685 16.96C97.445 17.3333 97.205 17.8133 96.965 18.4C96.725 18.96 96.605 19.5067 96.605 20.04C96.605 20.52 96.7383 20.9333 97.005 21.28C97.2983 21.6 97.8183 21.76 98.565 21.76C99.365 21.76 100.098 21.56 100.765 21.16C101.458 20.76 102.098 20.2667 102.685 19.68C103.272 19.0667 103.792 18.4933 104.245 17.96C104.298 17.9067 104.485 17.6933 104.805 17.32C105.125 16.9467 105.458 16.5467 105.805 16.12C106.178 15.6667 106.445 15.32 106.605 15.08C106.605 15.08 106.632 15.1067 106.685 15.16C106.738 15.2667 106.725 15.3733 106.645 15.48C106.298 15.9067 105.952 16.36 105.605 16.84C105.258 17.32 104.898 17.7867 104.525 18.24C103.992 18.9067 103.392 19.5733 102.725 20.24C102.085 20.88 101.378 21.4133 100.605 21.84C99.8317 22.2667 98.965 22.48 98.005 22.48ZM98.085 16.16C98.5917 15.9733 98.9917 15.84 99.285 15.76C99.5783 15.68 99.845 15.5867 100.085 15.48C100.325 15.3467 100.552 15.2 100.765 15.04C101.005 14.8533 101.258 14.6 101.525 14.28C101.765 13.9867 101.965 13.6667 102.125 13.32C102.285 12.9467 102.365 12.6133 102.365 12.32C102.365 12.0533 102.285 11.84 102.125 11.68C101.965 11.52 101.685 11.6267 101.285 12C100.885 12.3467 100.458 12.7867 100.005 13.32C99.5783 13.8533 99.1783 14.3867 98.805 14.92C98.4583 15.4533 98.2183 15.8667 98.085 16.16ZM112.034 22.16C111.947 22.16 111.857 22.1433 111.764 22.11C111.671 22.0767 111.574 22.0233 111.474 21.95C111.314 21.8367 111.187 21.6767 111.094 21.47C111.007 21.2567 110.944 21.0433 110.904 20.83C110.871 20.6167 110.857 20.4433 110.864 20.31C110.871 20.2767 110.887 20.25 110.914 20.23C110.947 20.21 110.961 20.2233 110.954 20.27C110.974 20.45 111.014 20.65 111.074 20.87C111.141 21.0833 111.241 21.27 111.374 21.43C111.507 21.5833 111.684 21.66 111.904 21.66C112.044 21.66 112.177 21.6333 112.304 21.58C112.437 21.52 112.564 21.4167 112.684 21.27C112.837 21.0833 112.981 20.86 113.114 20.6C113.247 20.3333 113.367 20.06 113.474 19.78C113.387 19.7 113.324 19.61 113.284 19.51C113.277 19.4967 113.274 19.4767 113.274 19.45C113.274 19.43 113.281 19.42 113.294 19.42C113.314 19.42 113.344 19.4433 113.384 19.49C113.417 19.5367 113.467 19.5833 113.534 19.63C113.647 19.3367 113.744 19.06 113.824 18.8C113.911 18.54 113.977 18.3367 114.024 18.19C114.044 18.13 114.077 18.0333 114.124 17.9C114.171 17.76 114.194 17.6567 114.194 17.59C114.194 17.4167 114.207 17.29 114.234 17.21C114.027 17.2033 113.827 17.2067 113.634 17.22C113.447 17.2333 113.287 17.25 113.154 17.27C112.867 17.31 112.594 17.39 112.334 17.51C112.074 17.6233 111.861 17.77 111.694 17.95C111.527 18.1233 111.444 18.3233 111.444 18.55C111.444 18.69 111.484 18.84 111.564 19C111.644 19.1533 111.777 19.3167 111.964 19.49C112.037 19.55 112.111 19.61 112.184 19.67C112.257 19.73 112.321 19.79 112.374 19.85C112.387 19.8633 112.384 19.8767 112.364 19.89C112.351 19.9033 112.334 19.9067 112.314 19.9C112.247 19.8667 112.151 19.81 112.024 19.73C111.904 19.6433 111.777 19.5367 111.644 19.41C111.511 19.2833 111.397 19.1367 111.304 18.97C111.211 18.7967 111.164 18.6 111.164 18.38C111.164 18.1 111.257 17.87 111.444 17.69C111.631 17.5033 111.871 17.36 112.164 17.26C112.464 17.1533 112.781 17.08 113.114 17.04C113.447 16.9933 113.764 16.97 114.064 16.97C114.117 16.97 114.171 16.9733 114.224 16.98C114.277 16.98 114.327 16.98 114.374 16.98C114.407 16.9467 114.447 16.9133 114.494 16.88C114.541 16.84 114.594 16.7967 114.654 16.75C114.741 16.6833 114.831 16.5933 114.924 16.48C114.984 16.44 115.014 16.4533 115.014 16.52C115.014 16.58 114.994 16.6567 114.954 16.75C114.914 16.8433 114.877 16.9033 114.844 16.93L114.764 17.01C114.817 17.0167 114.871 17.0233 114.924 17.03C114.977 17.0367 115.027 17.0467 115.074 17.06C115.614 17.1467 116.001 17.3067 116.234 17.54C116.474 17.7733 116.594 18.0267 116.594 18.3C116.594 18.5333 116.517 18.7667 116.364 19C116.217 19.2333 116.014 19.44 115.754 19.62C115.494 19.7933 115.194 19.9133 114.854 19.98C114.787 19.9867 114.714 19.9967 114.634 20.01C114.561 20.0167 114.481 20.02 114.394 20.02C114.267 20.02 114.141 20.01 114.014 19.99C113.887 19.97 113.771 19.9367 113.664 19.89C113.597 20.07 113.531 20.25 113.464 20.43C113.397 20.6033 113.327 20.7667 113.254 20.92C113.181 21.0933 113.084 21.2767 112.964 21.47C112.851 21.6633 112.714 21.8267 112.554 21.96C112.401 22.0933 112.227 22.16 112.034 22.16ZM114.354 19.83C114.427 19.83 114.497 19.8267 114.564 19.82C114.631 19.8067 114.697 19.7967 114.764 19.79C115.017 19.7433 115.247 19.6467 115.454 19.5C115.667 19.3467 115.837 19.1667 115.964 18.96C116.091 18.7467 116.154 18.5333 116.154 18.32C116.154 18.0867 116.064 17.8733 115.884 17.68C115.704 17.4867 115.401 17.3533 114.974 17.28C114.921 17.2667 114.864 17.2567 114.804 17.25C114.751 17.2433 114.694 17.2367 114.634 17.23C114.621 17.27 114.601 17.3167 114.574 17.37C114.554 17.4167 114.534 17.47 114.514 17.53C114.467 17.6567 114.411 17.8067 114.344 17.98C114.284 18.1467 114.217 18.34 114.144 18.56L113.724 19.73C113.817 19.7633 113.917 19.79 114.024 19.81C114.137 19.8233 114.247 19.83 114.354 19.83ZM116.435 22.12C116.168 22.12 115.978 22.06 115.865 21.94C115.758 21.82 115.705 21.67 115.705 21.49C115.705 21.3833 115.722 21.2733 115.755 21.16C115.788 21.0467 115.832 20.9333 115.885 20.82C115.838 20.7933 115.815 20.76 115.815 20.72C115.815 20.66 115.885 20.6067 116.025 20.56C116.085 20.4733 116.158 20.3567 116.245 20.21C116.338 20.0567 116.438 19.9033 116.545 19.75C116.658 19.5967 116.775 19.4667 116.895 19.36C117.015 19.2533 117.132 19.2 117.245 19.2C117.338 19.2 117.398 19.2367 117.425 19.31C117.452 19.3033 117.488 19.3 117.535 19.3C117.728 19.3 117.825 19.4 117.825 19.6C117.825 19.7533 117.772 19.9 117.665 20.04C117.558 20.1733 117.432 20.2567 117.285 20.29L117.295 20.34C117.295 20.34 117.328 20.3367 117.395 20.33C117.462 20.3167 117.518 20.3067 117.565 20.3C117.678 20.2933 117.802 20.2933 117.935 20.3C118.068 20.3067 118.155 20.3367 118.195 20.39C118.208 20.4033 118.205 20.4133 118.185 20.42C118.172 20.4267 118.158 20.4267 118.145 20.42C118.092 20.3933 118.005 20.38 117.885 20.38C117.725 20.38 117.535 20.4 117.315 20.44C117.102 20.48 116.905 20.53 116.725 20.59C116.545 20.6433 116.422 20.6933 116.355 20.74C116.295 20.8333 116.235 20.9533 116.175 21.1C116.115 21.24 116.085 21.3767 116.085 21.51C116.085 21.63 116.118 21.7333 116.185 21.82C116.258 21.9 116.388 21.94 116.575 21.94C116.775 21.94 116.958 21.89 117.125 21.79C117.298 21.69 117.458 21.5667 117.605 21.42C117.752 21.2667 117.882 21.1233 117.995 20.99C118.008 20.9767 118.055 20.9233 118.135 20.83C118.215 20.7367 118.298 20.6367 118.385 20.53C118.478 20.4167 118.545 20.33 118.585 20.27C118.585 20.27 118.592 20.2767 118.605 20.29C118.618 20.3167 118.615 20.3433 118.595 20.37C118.508 20.4767 118.422 20.59 118.335 20.71C118.248 20.83 118.158 20.9467 118.065 21.06C117.932 21.2267 117.782 21.3933 117.615 21.56C117.455 21.72 117.278 21.8533 117.085 21.96C116.892 22.0667 116.675 22.12 116.435 22.12ZM116.455 20.54C116.582 20.4933 116.682 20.46 116.755 20.44C116.828 20.42 116.895 20.3967 116.955 20.37C117.015 20.3367 117.072 20.3 117.125 20.26C117.185 20.2133 117.248 20.15 117.315 20.07C117.375 19.9967 117.425 19.9167 117.465 19.83C117.505 19.7367 117.525 19.6533 117.525 19.58C117.525 19.5133 117.505 19.46 117.465 19.42C117.425 19.38 117.355 19.4067 117.255 19.5C117.155 19.5867 117.048 19.6967 116.935 19.83C116.828 19.9633 116.728 20.0967 116.635 20.23C116.548 20.3633 116.488 20.4667 116.455 20.54ZM118.678 22.01C118.498 22.01 118.372 21.9667 118.298 21.88C118.225 21.7933 118.188 21.68 118.188 21.54C118.188 21.4667 118.195 21.39 118.208 21.31C118.228 21.23 118.252 21.1467 118.278 21.06C118.312 20.94 118.352 20.8233 118.398 20.71C118.452 20.59 118.508 20.4733 118.568 20.36L118.938 19.65C118.945 19.6367 118.952 19.6233 118.958 19.61C118.972 19.5967 118.982 19.5833 118.988 19.57C118.948 19.5767 118.908 19.59 118.868 19.61C118.828 19.6233 118.792 19.6367 118.758 19.65C118.712 19.67 118.662 19.69 118.608 19.71C118.562 19.7233 118.522 19.7367 118.488 19.75C118.468 19.7567 118.442 19.76 118.408 19.76C118.362 19.76 118.338 19.7433 118.338 19.71C118.338 19.6567 118.365 19.6 118.418 19.54C118.478 19.48 118.532 19.4467 118.578 19.44C118.652 19.4267 118.735 19.4067 118.828 19.38C118.928 19.3533 119.025 19.33 119.118 19.31C119.212 19.1367 119.295 18.96 119.368 18.78C119.448 18.6 119.508 18.4167 119.548 18.23C119.562 18.1967 119.568 18.1667 119.568 18.14C119.568 18.1067 119.568 18.0767 119.568 18.05C119.568 17.9633 119.548 17.9067 119.508 17.88C119.475 17.8467 119.432 17.83 119.378 17.83C119.332 17.83 119.275 17.84 119.208 17.86C119.142 17.88 119.082 17.9067 119.028 17.94L119.038 17.92C119.038 17.8733 119.048 17.85 119.068 17.85L119.588 17.64L119.898 17.49C119.952 17.4633 119.998 17.44 120.038 17.42C120.078 17.4 120.102 17.39 120.108 17.39H120.118C120.185 17.39 120.218 17.4367 120.218 17.53C120.218 17.5967 120.198 17.68 120.158 17.78C120.058 18.0267 119.942 18.2733 119.808 18.52C119.682 18.7667 119.552 19.0133 119.418 19.26C119.525 19.2467 119.622 19.24 119.708 19.24C119.802 19.24 119.892 19.2433 119.978 19.25C120.072 19.2567 120.138 19.29 120.178 19.35C120.225 19.4033 120.248 19.46 120.248 19.52C120.248 19.5467 120.242 19.58 120.228 19.62C120.222 19.6467 120.212 19.66 120.198 19.66C120.158 19.66 120.145 19.6333 120.158 19.58C120.192 19.5 120.182 19.4433 120.128 19.41C120.075 19.3767 120.002 19.36 119.908 19.36C119.882 19.36 119.852 19.3633 119.818 19.37C119.785 19.37 119.752 19.3733 119.718 19.38C119.645 19.3867 119.572 19.4 119.498 19.42C119.425 19.44 119.362 19.4567 119.308 19.47L119.078 19.91C119.052 19.9567 119.008 20.0433 118.948 20.17C118.895 20.29 118.835 20.43 118.768 20.59C118.708 20.75 118.655 20.91 118.608 21.07C118.568 21.2233 118.548 21.36 118.548 21.48C118.548 21.6133 118.588 21.7067 118.668 21.76C118.715 21.7867 118.765 21.8 118.818 21.8C118.945 21.8 119.078 21.75 119.218 21.65C119.358 21.5433 119.488 21.4267 119.608 21.3C119.728 21.1667 119.818 21.0667 119.878 21C119.892 20.9867 119.938 20.9333 120.018 20.84C120.098 20.7467 120.182 20.6467 120.268 20.54C120.362 20.4267 120.428 20.34 120.468 20.28C120.468 20.28 120.475 20.2867 120.488 20.3C120.502 20.3267 120.498 20.3533 120.478 20.38C120.398 20.4867 120.312 20.6 120.218 20.72C120.132 20.8333 120.042 20.9467 119.948 21.06C119.855 21.18 119.738 21.3167 119.598 21.47C119.465 21.6167 119.318 21.7433 119.158 21.85C119.005 21.9567 118.845 22.01 118.678 22.01ZM123.655 22.39C123.328 22.39 123.032 22.3267 122.765 22.2C122.498 22.08 122.285 21.8967 122.125 21.65C121.965 21.4033 121.885 21.0933 121.885 20.72C121.885 20.4733 121.925 20.2 122.005 19.9C122.118 19.5067 122.285 19.1333 122.505 18.78C122.732 18.42 123.002 18.1 123.315 17.82C123.635 17.54 123.985 17.32 124.365 17.16C124.745 17 125.145 16.92 125.565 16.92C125.618 16.92 125.668 16.9233 125.715 16.93C125.768 16.93 125.822 16.9333 125.875 16.94C125.975 16.9467 126.065 16.9633 126.145 16.99C126.225 17.01 126.285 17.0433 126.325 17.09C126.378 17.0233 126.418 16.9533 126.445 16.88C126.472 16.8067 126.508 16.7533 126.555 16.72C126.608 16.6733 126.665 16.65 126.725 16.65C126.825 16.65 126.875 16.69 126.875 16.77C126.875 16.7967 126.865 16.8267 126.845 16.86C126.625 17.1333 126.445 17.4 126.305 17.66C126.172 17.92 126.048 18.2067 125.935 18.52C125.915 18.5733 125.882 18.6 125.835 18.6C125.808 18.6 125.785 18.59 125.765 18.57C125.745 18.5433 125.745 18.51 125.765 18.47L126.035 17.84C126.095 17.7 126.125 17.5867 126.125 17.5C126.125 17.3467 126.052 17.2433 125.905 17.19C125.745 17.1233 125.572 17.09 125.385 17.09C125.118 17.09 124.858 17.1567 124.605 17.29C124.352 17.4233 124.112 17.6033 123.885 17.83C123.658 18.05 123.452 18.2933 123.265 18.56C123.085 18.8267 122.928 19.0933 122.795 19.36C122.668 19.62 122.575 19.86 122.515 20.08C122.428 20.3667 122.385 20.6367 122.385 20.89C122.385 21.3167 122.505 21.6333 122.745 21.84C122.992 22.04 123.302 22.14 123.675 22.14C124.075 22.14 124.515 22.0333 124.995 21.82C125.308 21.68 125.565 21.51 125.765 21.31C125.972 21.11 126.195 20.8633 126.435 20.57C126.455 20.5433 126.482 20.53 126.515 20.53C126.562 20.53 126.568 20.5567 126.535 20.61C126.288 20.95 126.052 21.24 125.825 21.48C125.598 21.72 125.335 21.9133 125.035 22.06C124.575 22.28 124.115 22.39 123.655 22.39ZM127.824 22.09C127.637 22.09 127.544 21.9467 127.544 21.66C127.544 21.48 127.571 21.31 127.624 21.15C127.677 20.9833 127.727 20.8167 127.774 20.65C127.667 20.7633 127.564 20.8733 127.464 20.98C127.371 21.0867 127.267 21.1933 127.154 21.3C127.047 21.4 126.937 21.5 126.824 21.6C126.711 21.6933 126.597 21.7767 126.484 21.85C126.277 21.9833 126.121 22.05 126.014 22.05C125.907 22.05 125.854 21.9867 125.854 21.86C125.854 21.7133 125.911 21.5167 126.024 21.27C126.091 21.1233 126.181 20.9633 126.294 20.79C126.414 20.6167 126.537 20.4467 126.664 20.28C126.784 20.1333 126.924 19.9833 127.084 19.83C127.251 19.6767 127.431 19.5467 127.624 19.44C127.817 19.3333 128.011 19.28 128.204 19.28C128.357 19.28 128.484 19.3167 128.584 19.39C128.691 19.4567 128.744 19.5667 128.744 19.72C128.744 19.88 128.714 19.9767 128.654 20.01C128.634 20.03 128.621 20.0367 128.614 20.03C128.607 20.0233 128.604 20.02 128.604 20.02C128.597 19.9533 128.567 19.8867 128.514 19.82C128.461 19.7467 128.394 19.6967 128.314 19.67C128.227 19.6433 128.131 19.63 128.024 19.63C127.777 19.63 127.544 19.7033 127.324 19.85C127.111 19.99 126.927 20.1567 126.774 20.35C126.647 20.5167 126.544 20.69 126.464 20.87C126.391 21.0433 126.354 21.1967 126.354 21.33C126.354 21.53 126.407 21.63 126.514 21.63C126.581 21.63 126.654 21.6 126.734 21.54C126.814 21.48 126.881 21.4267 126.934 21.38C127.127 21.2067 127.307 21.0167 127.474 20.81C127.647 20.5967 127.767 20.4467 127.834 20.36C127.847 20.3467 127.884 20.3267 127.944 20.3C128.011 20.2667 128.081 20.24 128.154 20.22L128.364 20.17C128.404 20.17 128.424 20.1733 128.424 20.18C128.384 20.2333 128.327 20.3433 128.254 20.51C128.187 20.6767 128.127 20.8567 128.074 21.05C128.021 21.2367 127.994 21.3967 127.994 21.53C127.994 21.6367 128.014 21.7067 128.054 21.74C128.074 21.76 128.101 21.77 128.134 21.77C128.187 21.77 128.244 21.7533 128.304 21.72C128.364 21.68 128.427 21.6367 128.494 21.59C128.727 21.4167 128.947 21.2033 129.154 20.95C129.367 20.6967 129.547 20.47 129.694 20.27C129.694 20.27 129.701 20.2767 129.714 20.29C129.727 20.3233 129.727 20.35 129.714 20.37C129.627 20.4833 129.537 20.6033 129.444 20.73C129.351 20.85 129.257 20.97 129.164 21.09C129.064 21.2033 128.961 21.3167 128.854 21.43C128.754 21.5367 128.647 21.6367 128.534 21.73C128.401 21.8367 128.271 21.9233 128.144 21.99C128.024 22.0567 127.917 22.09 127.824 22.09ZM130.322 22.02C130.215 22.0067 130.139 21.9633 130.092 21.89C130.045 21.8167 130.022 21.73 130.022 21.63C130.022 21.49 130.049 21.3367 130.102 21.17C130.162 20.9967 130.225 20.8367 130.292 20.69C130.365 20.5433 130.422 20.4333 130.462 20.36L130.632 20.08C130.545 20.1133 130.469 20.13 130.402 20.13C130.242 20.13 130.125 20.05 130.052 19.89C130.025 19.9233 129.995 19.9667 129.962 20.02C129.929 20.0733 129.905 20.1133 129.892 20.14C129.792 20.28 129.672 20.4433 129.532 20.63C129.392 20.81 129.252 20.9833 129.112 21.15C128.972 21.31 128.845 21.4367 128.732 21.53H128.722C128.715 21.53 128.709 21.52 128.702 21.5C128.695 21.48 128.699 21.4633 128.712 21.45C128.805 21.3567 128.899 21.2567 128.992 21.15C129.085 21.0367 129.172 20.9267 129.252 20.82C129.325 20.7267 129.409 20.6133 129.502 20.48C129.595 20.3467 129.682 20.2133 129.762 20.08C129.842 19.94 129.899 19.82 129.932 19.72C129.925 19.6667 129.929 19.5833 129.942 19.47C129.955 19.35 130.012 19.1933 130.112 19C130.152 18.9133 130.222 18.87 130.322 18.87C130.389 18.87 130.452 18.89 130.512 18.93C130.579 18.9633 130.622 19.0067 130.642 19.06C130.522 19.16 130.419 19.2667 130.332 19.38C130.299 19.4267 130.262 19.49 130.222 19.57C130.182 19.6433 130.162 19.7167 130.162 19.79C130.162 19.8367 130.175 19.88 130.202 19.92C130.229 19.9533 130.282 19.97 130.362 19.97C130.469 19.97 130.575 19.9433 130.682 19.89C130.795 19.8367 130.899 19.7933 130.992 19.76C131.039 19.7467 131.082 19.7333 131.122 19.72C131.162 19.7067 131.199 19.7 131.232 19.7C131.325 19.7 131.369 19.75 131.362 19.85C131.215 19.9967 131.082 20.16 130.962 20.34C130.842 20.5133 130.735 20.6967 130.642 20.89C130.622 20.9367 130.592 21.01 130.552 21.11C130.512 21.2033 130.475 21.3033 130.442 21.41C130.415 21.51 130.402 21.6 130.402 21.68C130.402 21.8067 130.445 21.87 130.532 21.87C130.565 21.87 130.605 21.8633 130.652 21.85C130.705 21.83 130.765 21.7967 130.832 21.75C130.985 21.6433 131.142 21.5067 131.302 21.34C131.462 21.1667 131.609 20.9933 131.742 20.82C131.882 20.64 131.995 20.4867 132.082 20.36C132.095 20.3467 132.109 20.34 132.122 20.34C132.135 20.34 132.145 20.3533 132.152 20.38C132.165 20.4067 132.159 20.4367 132.132 20.47C131.925 20.7633 131.719 21.0267 131.512 21.26C131.305 21.4867 131.105 21.67 130.912 21.81C130.799 21.8967 130.689 21.9567 130.582 21.99C130.482 22.0167 130.395 22.0267 130.322 22.02ZM132.363 22.12C132.096 22.12 131.906 22.06 131.793 21.94C131.686 21.82 131.633 21.67 131.633 21.49C131.633 21.3833 131.649 21.2733 131.683 21.16C131.716 21.0467 131.759 20.9333 131.813 20.82C131.766 20.7933 131.743 20.76 131.743 20.72C131.743 20.66 131.813 20.6067 131.953 20.56C132.013 20.4733 132.086 20.3567 132.173 20.21C132.266 20.0567 132.366 19.9033 132.473 19.75C132.586 19.5967 132.703 19.4667 132.823 19.36C132.943 19.2533 133.059 19.2 133.173 19.2C133.266 19.2 133.326 19.2367 133.353 19.31C133.379 19.3033 133.416 19.3 133.463 19.3C133.656 19.3 133.753 19.4 133.753 19.6C133.753 19.7533 133.699 19.9 133.593 20.04C133.486 20.1733 133.359 20.2567 133.213 20.29L133.223 20.34C133.223 20.34 133.256 20.3367 133.323 20.33C133.389 20.3167 133.446 20.3067 133.493 20.3C133.606 20.2933 133.729 20.2933 133.863 20.3C133.996 20.3067 134.083 20.3367 134.123 20.39C134.136 20.4033 134.133 20.4133 134.113 20.42C134.099 20.4267 134.086 20.4267 134.073 20.42C134.019 20.3933 133.933 20.38 133.813 20.38C133.653 20.38 133.463 20.4 133.243 20.44C133.029 20.48 132.833 20.53 132.653 20.59C132.473 20.6433 132.349 20.6933 132.283 20.74C132.223 20.8333 132.163 20.9533 132.103 21.1C132.043 21.24 132.013 21.3767 132.013 21.51C132.013 21.63 132.046 21.7333 132.113 21.82C132.186 21.9 132.316 21.94 132.503 21.94C132.703 21.94 132.886 21.89 133.053 21.79C133.226 21.69 133.386 21.5667 133.533 21.42C133.679 21.2667 133.809 21.1233 133.923 20.99C133.936 20.9767 133.983 20.9233 134.063 20.83C134.143 20.7367 134.226 20.6367 134.313 20.53C134.406 20.4167 134.473 20.33 134.513 20.27C134.513 20.27 134.519 20.2767 134.533 20.29C134.546 20.3167 134.543 20.3433 134.523 20.37C134.436 20.4767 134.349 20.59 134.263 20.71C134.176 20.83 134.086 20.9467 133.993 21.06C133.859 21.2267 133.709 21.3933 133.543 21.56C133.383 21.72 133.206 21.8533 133.013 21.96C132.819 22.0667 132.603 22.12 132.363 22.12ZM132.383 20.54C132.509 20.4933 132.609 20.46 132.683 20.44C132.756 20.42 132.823 20.3967 132.883 20.37C132.943 20.3367 132.999 20.3 133.053 20.26C133.113 20.2133 133.176 20.15 133.243 20.07C133.303 19.9967 133.353 19.9167 133.393 19.83C133.433 19.7367 133.453 19.6533 133.453 19.58C133.453 19.5133 133.433 19.46 133.393 19.42C133.353 19.38 133.283 19.4067 133.183 19.5C133.083 19.5867 132.976 19.6967 132.863 19.83C132.756 19.9633 132.656 20.0967 132.563 20.23C132.476 20.3633 132.416 20.4667 132.383 20.54Z" fill="black"/>
<path d="M74.8592 23.1194L74.8532 23.1133L74.8469 23.1074C72.8784 21.2589 71.2838 19.7586 70.1755 18.3546C69.0733 16.9581 68.5 15.7148 68.5 14.3886C68.5 12.2144 70.1329 10.5557 72.1843 10.5557C74.391 10.5557 75.4723 11.9719 76.3067 13.0649C76.4457 13.247 76.5779 13.4201 76.7073 13.5762L77.0479 13.9871L77.4357 13.6204C77.9468 13.1372 78.4094 12.8679 78.8806 12.7136C79.3586 12.5572 79.8752 12.5092 80.5157 12.5092C81.4742 12.5092 82.2673 13.0297 82.804 13.8763C83.3451 14.7297 83.6038 15.8905 83.4614 17.0632C83.3833 17.7061 82.9771 18.6832 82.0664 19.9859C81.1639 21.2768 79.7949 22.8468 77.8531 24.6702L77.8524 24.6709L77.1035 25.3768L74.8592 23.1194Z" fill="black" stroke="black"/>
</svg>
