<svg width="151" height="170" viewBox="0 0 151 170" fill="none" xmlns="http://www.w3.org/2000/svg">
<path d="M55.914 165.108C56.264 165.108 56.558 165.066 56.796 164.982C57.034 164.898 57.223 164.786 57.363 164.646C57.5077 164.506 57.6103 164.343 57.671 164.156C57.7363 163.969 57.769 163.771 57.769 163.561C57.769 163.342 57.734 163.146 57.664 162.973C57.594 162.796 57.4843 162.646 57.335 162.525C57.1857 162.399 56.992 162.303 56.754 162.238C56.5207 162.173 56.2383 162.14 55.907 162.14H54.01V165.108H55.914ZM54.01 157.912V160.838H55.508C56.152 160.838 56.6373 160.721 56.964 160.488C57.2953 160.255 57.461 159.884 57.461 159.375C57.461 158.848 57.3117 158.472 57.013 158.248C56.7143 158.024 56.2477 157.912 55.613 157.912H54.01ZM55.613 156.456C56.2757 156.456 56.8427 156.519 57.314 156.645C57.7853 156.771 58.1703 156.951 58.469 157.184C58.7723 157.417 58.994 157.7 59.134 158.031C59.274 158.362 59.344 158.736 59.344 159.151C59.344 159.389 59.309 159.618 59.239 159.837C59.169 160.052 59.0593 160.255 58.91 160.446C58.7653 160.633 58.5787 160.803 58.35 160.957C58.126 161.111 57.8577 161.242 57.545 161.349C58.9357 161.662 59.631 162.413 59.631 163.603C59.631 164.032 59.5493 164.429 59.386 164.793C59.2227 165.157 58.9847 165.472 58.672 165.738C58.3593 165.999 57.9743 166.205 57.517 166.354C57.0597 166.503 56.537 166.578 55.949 166.578H52.127V156.456H55.613ZM64.7535 163.512C64.2541 163.535 63.8341 163.58 63.4935 163.645C63.1528 163.706 62.8798 163.785 62.6745 163.883C62.4691 163.981 62.3221 164.095 62.2335 164.226C62.1448 164.357 62.1005 164.499 62.1005 164.653C62.1005 164.956 62.1891 165.173 62.3665 165.304C62.5485 165.435 62.7841 165.5 63.0735 165.5C63.4281 165.5 63.7338 165.437 63.9905 165.311C64.2518 165.18 64.5061 164.984 64.7535 164.723V163.512ZM60.7915 160.397C61.6175 159.641 62.6115 159.263 63.7735 159.263C64.1935 159.263 64.5691 159.333 64.9005 159.473C65.2318 159.608 65.5118 159.8 65.7405 160.047C65.9691 160.29 66.1418 160.581 66.2585 160.922C66.3798 161.263 66.4405 161.636 66.4405 162.042V166.578H65.6565C65.4931 166.578 65.3671 166.555 65.2785 166.508C65.1898 166.457 65.1198 166.356 65.0685 166.207L64.9145 165.689C64.7325 165.852 64.5551 165.997 64.3825 166.123C64.2098 166.244 64.0301 166.347 63.8435 166.431C63.6568 166.515 63.4561 166.578 63.2415 166.62C63.0315 166.667 62.7981 166.69 62.5415 166.69C62.2381 166.69 61.9581 166.65 61.7015 166.571C61.4448 166.487 61.2231 166.363 61.0365 166.2C60.8498 166.037 60.7051 165.834 60.6025 165.591C60.4998 165.348 60.4485 165.066 60.4485 164.744C60.4485 164.562 60.4788 164.382 60.5395 164.205C60.6001 164.023 60.6981 163.85 60.8335 163.687C60.9735 163.524 61.1531 163.37 61.3725 163.225C61.5918 163.08 61.8601 162.954 62.1775 162.847C62.4995 162.74 62.8728 162.653 63.2975 162.588C63.7221 162.518 64.2075 162.476 64.7535 162.462V162.042C64.7535 161.561 64.6508 161.207 64.4455 160.978C64.2401 160.745 63.9438 160.628 63.5565 160.628C63.2765 160.628 63.0431 160.661 62.8565 160.726C62.6745 160.791 62.5135 160.866 62.3735 160.95C62.2335 161.029 62.1051 161.102 61.9885 161.167C61.8765 161.232 61.7505 161.265 61.6105 161.265C61.4891 161.265 61.3865 161.235 61.3025 161.174C61.2185 161.109 61.1508 161.034 61.0995 160.95L60.7915 160.397ZM70.3671 166.69C69.7418 166.69 69.2611 166.515 68.9251 166.165C68.5938 165.81 68.4281 165.323 68.4281 164.702V160.691H67.6931C67.5998 160.691 67.5205 160.661 67.4551 160.6C67.3898 160.539 67.3571 160.448 67.3571 160.327V159.641L68.5121 159.452L68.8761 157.492C68.8995 157.399 68.9438 157.326 69.0091 157.275C69.0745 157.224 69.1585 157.198 69.2611 157.198H70.1571V159.459H72.0751V160.691H70.1571V164.583C70.1571 164.807 70.2108 164.982 70.3181 165.108C70.4301 165.234 70.5818 165.297 70.7731 165.297C70.8805 165.297 70.9691 165.285 71.0391 165.262C71.1138 165.234 71.1768 165.206 71.2281 165.178C71.2841 165.15 71.3331 165.124 71.3751 165.101C71.4171 165.073 71.4591 165.059 71.5011 165.059C71.5525 165.059 71.5945 165.073 71.6271 165.101C71.6598 165.124 71.6948 165.162 71.7321 165.213L72.2501 166.053C71.9981 166.263 71.7088 166.422 71.3821 166.529C71.0555 166.636 70.7171 166.69 70.3671 166.69ZM74.9111 160.166C75.1911 159.905 75.4991 159.692 75.8351 159.529C76.1711 159.366 76.5655 159.284 77.0181 159.284C77.4101 159.284 77.7578 159.352 78.0611 159.487C78.3645 159.618 78.6165 159.804 78.8171 160.047C79.0225 160.285 79.1765 160.572 79.2791 160.908C79.3865 161.239 79.4401 161.606 79.4401 162.007V166.578H77.7111V162.007C77.7111 161.568 77.6108 161.23 77.4101 160.992C77.2095 160.749 76.9038 160.628 76.4931 160.628C76.1945 160.628 75.9145 160.696 75.6531 160.831C75.3918 160.966 75.1445 161.151 74.9111 161.384V166.578H73.1821V156.176H74.9111V160.166ZM82.8765 159.396V166.578H81.1405V159.396H82.8765ZM83.1145 157.303C83.1145 157.452 83.0841 157.592 83.0235 157.723C82.9628 157.854 82.8811 157.968 82.7785 158.066C82.6805 158.164 82.5638 158.243 82.4285 158.304C82.2931 158.36 82.1485 158.388 81.9945 158.388C81.8451 158.388 81.7028 158.36 81.5675 158.304C81.4368 158.243 81.3225 158.164 81.2245 158.066C81.1265 157.968 81.0471 157.854 80.9865 157.723C80.9305 157.592 80.9025 157.452 80.9025 157.303C80.9025 157.149 80.9305 157.004 80.9865 156.869C81.0471 156.734 81.1265 156.617 81.2245 156.519C81.3225 156.421 81.4368 156.344 81.5675 156.288C81.7028 156.227 81.8451 156.197 81.9945 156.197C82.1485 156.197 82.2931 156.227 82.4285 156.288C82.5638 156.344 82.6805 156.421 82.7785 156.519C82.8811 156.617 82.9628 156.734 83.0235 156.869C83.0841 157.004 83.1145 157.149 83.1145 157.303ZM86.2562 160.278C86.4008 160.133 86.5525 160 86.7112 159.879C86.8745 159.753 87.0448 159.648 87.2222 159.564C87.4042 159.475 87.5978 159.408 87.8032 159.361C88.0085 159.31 88.2325 159.284 88.4752 159.284C88.8672 159.284 89.2148 159.352 89.5182 159.487C89.8215 159.618 90.0735 159.804 90.2742 160.047C90.4795 160.285 90.6335 160.572 90.7362 160.908C90.8435 161.239 90.8972 161.606 90.8972 162.007V166.578H89.1682V162.007C89.1682 161.568 89.0678 161.23 88.8672 160.992C88.6665 160.749 88.3608 160.628 87.9502 160.628C87.6515 160.628 87.3715 160.696 87.1102 160.831C86.8488 160.966 86.6015 161.151 86.3682 161.384V166.578H84.6392V159.396H85.6962C85.9202 159.396 86.0672 159.501 86.1372 159.711L86.2562 160.278ZM95.1665 162.812C95.3812 162.812 95.5678 162.784 95.7265 162.728C95.8852 162.667 96.0158 162.586 96.1185 162.483C96.2258 162.38 96.3052 162.257 96.3565 162.112C96.4125 161.967 96.4405 161.809 96.4405 161.636C96.4405 161.281 96.3332 161.001 96.1185 160.796C95.9085 160.586 95.5912 160.481 95.1665 160.481C94.7418 160.481 94.4222 160.586 94.2075 160.796C93.9975 161.001 93.8925 161.281 93.8925 161.636C93.8925 161.804 93.9182 161.96 93.9695 162.105C94.0255 162.25 94.1048 162.376 94.2075 162.483C94.3148 162.586 94.4478 162.667 94.6065 162.728C94.7698 162.784 94.9565 162.812 95.1665 162.812ZM97.1195 166.9C97.1195 166.76 97.0775 166.646 96.9935 166.557C96.9095 166.468 96.7952 166.401 96.6505 166.354C96.5058 166.303 96.3355 166.265 96.1395 166.242C95.9482 166.219 95.7428 166.202 95.5235 166.193C95.3088 166.179 95.0848 166.167 94.8515 166.158C94.6228 166.149 94.3988 166.13 94.1795 166.102C93.9882 166.209 93.8318 166.335 93.7105 166.48C93.5938 166.625 93.5355 166.793 93.5355 166.984C93.5355 167.11 93.5658 167.227 93.6265 167.334C93.6918 167.446 93.7922 167.542 93.9275 167.621C94.0675 167.7 94.2472 167.761 94.4665 167.803C94.6858 167.85 94.9542 167.873 95.2715 167.873C95.5935 167.873 95.8712 167.847 96.1045 167.796C96.3378 167.749 96.5292 167.682 96.6785 167.593C96.8325 167.509 96.9445 167.406 97.0145 167.285C97.0845 167.168 97.1195 167.04 97.1195 166.9ZM98.8415 159.641V160.285C98.8415 160.49 98.7178 160.616 98.4705 160.663L97.8265 160.782C97.9245 161.029 97.9735 161.3 97.9735 161.594C97.9735 161.949 97.9012 162.271 97.7565 162.56C97.6165 162.845 97.4205 163.087 97.1685 163.288C96.9165 163.489 96.6178 163.645 96.2725 163.757C95.9318 163.864 95.5632 163.918 95.1665 163.918C95.0265 163.918 94.8912 163.911 94.7605 163.897C94.6298 163.883 94.5015 163.864 94.3755 163.841C94.1515 163.976 94.0395 164.128 94.0395 164.296C94.0395 164.441 94.1048 164.548 94.2355 164.618C94.3708 164.683 94.5482 164.73 94.7675 164.758C94.9868 164.786 95.2365 164.805 95.5165 164.814C95.7965 164.819 96.0835 164.833 96.3775 164.856C96.6715 164.879 96.9585 164.921 97.2385 164.982C97.5185 165.038 97.7682 165.129 97.9875 165.255C98.2068 165.381 98.3818 165.554 98.5125 165.773C98.6478 165.988 98.7155 166.265 98.7155 166.606C98.7155 166.923 98.6362 167.231 98.4775 167.53C98.3235 167.829 98.0972 168.095 97.7985 168.328C97.5045 168.561 97.1405 168.748 96.7065 168.888C96.2772 169.033 95.7872 169.105 95.2365 169.105C94.6952 169.105 94.2238 169.051 93.8225 168.944C93.4212 168.841 93.0875 168.701 92.8215 168.524C92.5555 168.351 92.3572 168.151 92.2265 167.922C92.0958 167.693 92.0305 167.455 92.0305 167.208C92.0305 166.872 92.1308 166.592 92.3315 166.368C92.5368 166.139 92.8168 165.957 93.1715 165.822C92.9802 165.724 92.8285 165.593 92.7165 165.43C92.6045 165.267 92.5485 165.052 92.5485 164.786C92.5485 164.679 92.5672 164.569 92.6045 164.457C92.6465 164.34 92.7048 164.226 92.7795 164.114C92.8588 164.002 92.9568 163.897 93.0735 163.799C93.1902 163.696 93.3278 163.605 93.4865 163.526C93.1225 163.33 92.8355 163.069 92.6255 162.742C92.4202 162.415 92.3175 162.033 92.3175 161.594C92.3175 161.239 92.3875 160.92 92.5275 160.635C92.6722 160.346 92.8705 160.101 93.1225 159.9C93.3792 159.695 93.6802 159.538 94.0255 159.431C94.3755 159.324 94.7558 159.27 95.1665 159.27C95.4745 159.27 95.7638 159.303 96.0345 159.368C96.3052 159.429 96.5525 159.52 96.7765 159.641H98.8415Z" fill="black"/>
<rect x="0.5" y="0.328125" width="150" height="150" rx="75" fill="#BEC8FF"/>
<path d="M43.0092 97.6128L41.668 118.847L45.357 119.123L45.6924 96.5972L43.0092 97.6128Z" fill="#2E0B06"/>
<path d="M43.8652 82.218C42.7416 87.919 42.2051 98.6276 42.2051 98.6276H49.5835L48.0408 83.2099L43.8652 82.218Z" fill="#F0CAC5"/>
<path d="M44.3526 80.5351L43.8649 82.2199C45.7783 84.2972 43.7148 119.263 43.7148 119.263C43.7148 119.263 62.2616 120.233 62.4627 119.863C62.2616 107.678 56.3587 70.6552 56.3587 70.6552L51.0606 63.6406L44.3526 80.5351Z" fill="#C191E8"/>
<path d="M53.1311 96.8731C53.1261 97.4336 53.2015 97.9901 53.3528 98.5106C53.5041 99.0311 53.7284 99.5055 54.0129 99.9067C54.2974 100.308 54.6366 100.628 55.011 100.849C55.3854 101.07 55.7878 101.187 56.1951 101.193L60.7384 101.269C60.1801 96.7982 59.5491 92.1691 58.9432 87.9051L53.211 87.8096L53.1311 96.8731Z" fill="#008B91"/>
<path d="M59.104 100.656L58.0591 100.639C58.0475 100.64 58.0359 100.637 58.025 100.632C58.014 100.626 58.0041 100.618 57.9957 100.606C57.9873 100.595 57.9806 100.582 57.9762 100.567C57.9717 100.552 57.9694 100.536 57.9696 100.52C57.9697 100.504 57.9723 100.489 57.977 100.474C57.9818 100.459 57.9887 100.446 57.9973 100.435C58.0059 100.425 58.0161 100.416 58.0271 100.411C58.0381 100.406 58.0498 100.404 58.0614 100.405L59.1059 100.422C59.1175 100.421 59.1292 100.423 59.1401 100.429C59.1511 100.434 59.1612 100.443 59.1697 100.454C59.1782 100.465 59.185 100.478 59.1896 100.493C59.1943 100.507 59.1967 100.523 59.1967 100.539C59.1967 100.555 59.1943 100.571 59.1896 100.586C59.185 100.601 59.1782 100.614 59.1697 100.625C59.1612 100.636 59.1511 100.644 59.1401 100.65C59.1292 100.655 59.1175 100.657 59.1059 100.656H59.104ZM57.0147 100.622L56.1994 100.608C56.1207 100.608 56.0411 100.6 55.9631 100.589C55.9407 100.586 55.9201 100.571 55.9059 100.547C55.8916 100.523 55.8849 100.493 55.8871 100.462C55.8893 100.431 55.9004 100.403 55.9178 100.383C55.9352 100.363 55.9576 100.354 55.98 100.357C56.0531 100.367 56.1278 100.373 56.2017 100.374L57.0166 100.388C57.0282 100.387 57.0398 100.389 57.0508 100.395C57.0617 100.4 57.0717 100.409 57.0801 100.42C57.0885 100.431 57.0952 100.444 57.0997 100.459C57.1042 100.474 57.1065 100.49 57.1063 100.506C57.1062 100.522 57.1037 100.538 57.0989 100.552C57.0942 100.567 57.0873 100.58 57.0787 100.591C57.0701 100.602 57.06 100.61 57.049 100.615C57.038 100.621 57.0263 100.623 57.0147 100.622ZM54.9801 100.165C54.9661 100.165 54.9523 100.16 54.94 100.15C54.6243 99.9098 54.347 99.5844 54.1248 99.1933C54.1179 99.1812 54.1128 99.1674 54.1098 99.1526C54.1068 99.1379 54.106 99.1224 54.1073 99.1072C54.1087 99.092 54.1122 99.0773 54.1176 99.0639C54.1231 99.0505 54.1304 99.0388 54.1392 99.0293C54.148 99.0199 54.158 99.0129 54.1687 99.0088C54.1795 99.0047 54.1907 99.0035 54.2018 99.0053C54.2128 99.0072 54.2235 99.012 54.2332 99.0195C54.2429 99.0271 54.2514 99.0372 54.2583 99.0492C54.4665 99.4158 54.7265 99.7205 55.0225 99.9451C55.039 99.9578 55.052 99.9777 55.0593 100.002C55.0667 100.026 55.0681 100.052 55.0632 100.077C55.0583 100.103 55.0475 100.125 55.0325 100.141C55.0175 100.156 54.999 100.165 54.9801 100.165ZM53.7263 97.9613C53.7078 97.9609 53.6899 97.9522 53.6753 97.9366C53.6606 97.9209 53.6501 97.8992 53.6453 97.8745C53.5824 97.5501 53.5519 97.2153 53.5549 96.8795L53.559 96.4148C53.5584 96.3988 53.5601 96.3828 53.5642 96.3677C53.5682 96.3527 53.5745 96.339 53.5825 96.3274C53.5906 96.3158 53.6003 96.3066 53.611 96.3004C53.6218 96.2942 53.6333 96.291 53.645 96.2912C53.6566 96.2914 53.6681 96.2949 53.6788 96.3014C53.6894 96.308 53.699 96.3174 53.7068 96.3293C53.7147 96.3411 53.7207 96.355 53.7245 96.3702C53.7283 96.3853 53.7299 96.4014 53.729 96.4174L53.7248 96.8821C53.7223 97.1957 53.7507 97.5084 53.8092 97.8115C53.8122 97.8264 53.813 97.8418 53.8115 97.8571C53.8101 97.8723 53.8065 97.887 53.8009 97.9003C53.7953 97.9136 53.7879 97.9252 53.779 97.9346C53.7701 97.9439 53.76 97.9507 53.7492 97.9546C53.7419 97.9583 53.7342 97.9606 53.7263 97.9613ZM53.6558 95.0961C53.6333 95.0956 53.6118 95.083 53.596 95.0608C53.5803 95.0387 53.5716 95.0088 53.5718 94.9778L53.5845 93.5403C53.586 93.5106 53.5955 93.4828 53.6113 93.4625C53.6271 93.4422 53.6479 93.4308 53.6695 93.4308C53.6911 93.4308 53.7119 93.4422 53.7277 93.4625C53.7435 93.4828 53.753 93.5106 53.7545 93.5403L53.7417 94.9783C53.7419 94.9938 53.7398 95.0092 53.7355 95.0236C53.7313 95.038 53.725 95.0511 53.717 95.062C53.709 95.073 53.6995 95.0817 53.6891 95.0875C53.6786 95.0934 53.6675 95.0963 53.6562 95.0961H53.6558ZM53.6809 92.2205C53.6698 92.2204 53.6588 92.2172 53.6485 92.2112C53.6383 92.2051 53.629 92.1964 53.6212 92.1854C53.6134 92.1744 53.6073 92.1614 53.6032 92.1471C53.5991 92.1328 53.5971 92.1176 53.5973 92.1022L53.6097 90.6647C53.6089 90.6487 53.6105 90.6327 53.6144 90.6175C53.6183 90.6024 53.6245 90.5886 53.6324 90.5769C53.6404 90.5652 53.65 90.5558 53.6607 90.5494C53.6714 90.543 53.683 90.5397 53.6946 90.5397C53.7063 90.5397 53.7178 90.543 53.7285 90.5494C53.7392 90.5558 53.7489 90.5652 53.7568 90.5769C53.7648 90.5886 53.7709 90.6024 53.7748 90.6175C53.7788 90.6327 53.7804 90.6487 53.7796 90.6647L53.7672 92.1028C53.7673 92.1183 53.7651 92.1337 53.7608 92.148C53.7565 92.1624 53.7501 92.1754 53.7422 92.1864C53.7342 92.1973 53.7247 92.206 53.7142 92.2118C53.7038 92.2177 53.6926 92.2206 53.6813 92.2205H53.6809ZM53.7068 89.3356C53.6843 89.3352 53.6628 89.3226 53.6471 89.3004C53.6313 89.2782 53.6226 89.2484 53.6228 89.2174L53.6292 88.5157C53.6306 88.486 53.6402 88.4582 53.656 88.4379C53.6717 88.4176 53.6925 88.4062 53.7141 88.4062C53.7357 88.4062 53.7565 88.4176 53.7723 88.4379C53.7881 88.4582 53.7977 88.486 53.7991 88.5157L53.7927 89.2174C53.7928 89.233 53.7907 89.2484 53.7864 89.2628C53.7821 89.2772 53.7758 89.2903 53.7678 89.3013C53.7598 89.3123 53.7503 89.321 53.7398 89.3269C53.7294 89.3328 53.7181 89.3358 53.7068 89.3356Z" fill="#00A3AB"/>
<path d="M47.9918 48.8452C44.8895 52.0068 42.5417 60.4078 43.4808 67.0553C44.4198 73.7028 44.3527 80.5321 44.3527 80.5321C49.2493 79.4261 51.8654 68.0705 51.8654 68.0705L57.2985 73.2407C58.8416 72.225 59.9817 65.8569 59.9817 65.8569C59.3109 65.3028 57.2985 64.2877 56.1584 61.7948C55.0183 59.3018 53.7101 56.7175 52.3182 55.5634C50.9263 54.4094 49.2493 49.5165 49.2493 49.5165L47.9918 48.8452Z" fill="#F0CAC5"/>
<path d="M50.1667 45.0187C46.0399 37.8641 49.1605 34.5636 49.915 34.2172C48.5062 33.9404 49.8647 33.1788 50.6695 33.5939C53.0844 32.0015 54.6271 32.648 55.8348 34.0788C57.0424 35.5096 57.8806 35.4636 58.1822 35.8344C58.4838 36.2051 58.3837 38.65 56.9749 39.5273C55.5661 40.4046 51.6254 45.1571 50.1667 45.0187Z" fill="#2E0B06"/>
<path d="M51.954 37.0558C52.2541 39.133 52.0125 40.5638 52.0125 40.7735C51.8624 41.3962 51.4591 41.154 51.434 41.0156C51.258 39.873 50.2518 39.0076 49.623 40.4962C48.9943 41.9848 49.8995 43.8525 50.1261 43.9583C50.2267 45.4124 48.125 48.7976 48.125 48.7976C49.9611 51.844 51.2246 53.6058 51.2246 53.6058C51.2246 52.7404 51.6017 50.8015 52.2811 50.2495C52.9605 49.6976 53.3376 48.8265 53.3376 48.8265C53.7127 49.033 55.5008 49.727 55.8276 49.3459C56.1543 48.9649 56.1547 46.9227 56.2301 46.7125C56.5302 46.3666 56.7081 45.7433 56.7835 45.6742C57.0604 45.5709 57.8902 45.0163 57.7394 44.7396C57.5886 44.4628 56.8086 42.7315 57.0855 41.8315C57.3624 40.9315 57.4607 40.1693 57.2356 38.7504C57.0105 37.3315 56.833 36.8115 56.833 36.8115C56.0039 37.6444 52.5576 37.7828 51.954 37.0558Z" fill="#FF8863"/>
<path d="M108.136 117.878H68.9477C66.588 117.878 64.2992 116.768 62.4607 114.732C60.6223 112.696 59.3446 109.856 58.8396 106.684L57.6016 98.9072H119.481L118.243 106.684C117.738 109.856 116.461 112.696 114.622 114.732C112.784 116.768 110.495 117.878 108.136 117.878Z" fill="#C191E8"/>
<g style="mix-blend-mode:multiply">
<path d="M69.6738 99.1833L112 116.847C113.563 115.98 114.949 114.601 116.036 112.83C117.124 111.059 117.881 108.949 118.241 106.684L119.456 99.0491L69.6738 99.1833Z" fill="#C191E8" fill-opacity="0.78"/>
</g>
<path d="M121.205 95.5134H56.4624C55.4714 95.5134 54.668 96.6191 54.668 97.9831V98.2367C54.668 99.6006 55.4714 100.706 56.4624 100.706H121.205C122.196 100.706 122.999 99.6006 122.999 98.2367V97.9831C122.999 96.6191 122.196 95.5134 121.205 95.5134Z" fill="#CCF3FF"/>
<path d="M84.2652 58.4012C89.4973 59.9936 90.2521 61.7936 90.4532 61.7936C93.9749 66.5022 94.58 67.9563 94.6288 70.7265C94.6776 73.4967 94.9976 75.0638 94.5617 75.0421C93.9749 75.0189 91.9625 73.7729 92.1133 73.7729C92.717 74.8805 93.3713 77.927 93.3713 77.927C98.6536 79.5891 112.689 81.3865 115.356 95.5144H98.5527C97.5465 100.361 93.2703 101.746 93.2703 101.746C91.0569 103.338 89.8496 101.815 89.8496 101.815C88.29 101.331 88.1238 97.1528 88.1238 97.1528H86.9499C87.1345 99.5992 85.4744 102.3 84.6693 101.746C83.7133 103.477 82.3552 102.369 82.3552 102.576C81.2485 103.823 78.2284 101.676 77.8273 100.43C73.5328 99.1836 71.5872 95.5825 71.5872 95.5825C70.6493 93.2745 73.3985 82.427 74.2032 80.0032C75.0079 77.5795 75.7789 74.5335 75.7789 74.5335C75.7789 74.5335 74.916 75.3643 74.2741 75.0411C73.6322 74.7179 74.1019 73.6562 74.3702 72.7795C74.6384 71.9027 71.8565 65.8552 77.6908 60.3163C80.3747 57.2694 84.2652 58.4012 84.2652 58.4012Z" fill="#3D2C2C"/>
<path d="M80.2874 73.5987C79.6335 73.2889 79.1556 73.9447 79.4572 75.0874C79.7588 76.23 79.91 77.5106 79.5832 77.6144C79.2565 77.7182 79.3315 78.3414 79.0295 78.6182C78.7275 78.8949 77.8474 78.7214 77.596 79.1722C77.3446 79.623 77.6965 80.0376 77.2959 80.4187C76.8952 80.7997 76.1891 81.9073 76.5665 82.7727C76.9439 83.6381 79.8616 82.7727 80.1636 82.9792C80.4656 83.1858 82.8048 84.5025 82.9556 84.3295C83.1064 84.1565 83.4587 81.6987 83.509 80.4176C83.5593 79.1366 80.2874 73.5987 80.2874 73.5987ZM88.7662 72.2139C89.4201 71.9041 89.8981 72.5598 89.5965 73.7025C89.2948 74.8452 89.1436 76.1257 89.4704 76.2295C89.7972 76.3333 89.7221 76.9565 90.0238 77.2338C90.3254 77.5111 91.4892 76.5295 91.7409 76.9798C91.9927 77.43 91.6404 77.8452 92.0411 78.2262C92.4417 78.6073 93.7601 79.0225 93.3827 79.8879C93.0052 80.7533 89.1924 81.3853 88.8904 81.5954C88.5884 81.8056 86.2492 83.1192 86.0984 82.9457C85.9476 82.7722 85.5953 80.3123 85.545 79.0338C85.4948 77.7553 88.7662 72.2139 88.7662 72.2139Z" fill="#E6844A"/>
<path d="M84.2295 63.7776C83.5587 63.6857 83.0222 65.7624 83.0556 68.2554C83.089 70.7483 80.2385 70.3786 80.1713 72.3635C80.1041 74.3483 80.4062 76.2877 82.2509 78.5488C82.8545 81.6877 82.5863 83.5807 80.9753 82.7034C79.3643 81.8261 79.8352 82.2418 78.6279 81.965C77.4206 81.6882 76.079 82.4266 76.7494 83.119C77.4198 83.8115 78.4602 82.9342 78.8623 84.5034C79.2645 86.0726 78.829 87.7347 79.8003 88.4276C80.7716 89.1206 81.0409 90.0892 81.1752 90.0892C86.5401 91.9357 86.9438 97.1519 86.9438 97.1519H88.1177C88.1511 96.1362 88.4179 88.8433 92.9139 88.7049C94.4232 87.1352 93.8518 85.0579 94.3222 84.5963C94.7927 84.1347 91.2031 82.7963 92.1759 81.9629C93.1487 81.1295 93.8529 79.6084 93.1821 79.6084C92.5113 79.6084 90.2641 80.624 89.8281 80.3932C89.3922 80.1624 88.2183 81.5473 87.8495 80.4397C87.4807 79.3321 87.2792 78.316 87.4469 77.9008C88.2183 76.6099 89.1239 73.7922 88.6542 71.4846C88.1845 69.1771 86.0382 70.9766 85.6022 68.9457C85.1663 66.9149 85.2706 64.1008 84.2295 63.7776Z" fill="#FFDEBC"/>
<path d="M87.6264 74.4201C87.6201 74.4546 87.419 74.7748 87.419 74.7748L87.1421 75.1471C87.1421 75.1471 86.842 75.4502 86.6581 75.5018C86.4743 75.5534 86.0417 75.6836 85.6077 75.4672C85.1803 75.2509 84.8198 74.749 84.6015 74.5151C84.5388 74.7314 83.6962 75.4414 83.608 75.4672C83.5199 75.493 82.9102 75.7254 82.5077 75.5276C82.1051 75.3299 81.5896 74.5497 81.3945 73.9326C81.6084 75.0861 82.3377 78.857 84.5936 79.1359L84.6919 79.1307C86.9162 78.8126 87.6384 75.0794 87.8508 73.9326C87.8508 73.9326 87.6328 74.3855 87.6264 74.4201Z" fill="#2E0B06"/>
<path d="M82.5273 75.4916C82.5525 77.4418 83.5756 79.4158 84.2797 79.0575C84.9839 78.6991 85.1685 79.3229 85.6885 79.0802C86.2085 78.8375 86.6024 76.6802 86.309 75.6413C85.6799 75.538 85.3238 75.4053 84.6208 74.5193C84.3375 74.7991 84.2287 74.9721 84.2287 74.9721C84.2287 74.9721 83.3238 75.9759 82.5273 75.4916Z" fill="#FA6274"/>
<path d="M83.5371 71.4975C83.6755 72.1496 84.1494 72.3686 84.1494 72.3686C84.1494 72.3686 84.9166 72.3686 85.1556 72.2823C85.3946 72.1961 85.5957 71.6069 85.5957 71.6069C85.5957 71.6069 85.5957 71.4107 85.5788 71.388C85.5619 71.3653 84.971 71.0994 84.9459 71.0994C84.9207 71.0994 83.5371 71.4975 83.5371 71.4975Z" fill="#1A0603"/>
<path d="M86.7044 68.2672C86.8711 68.2672 87.0064 67.9532 87.0064 67.5659C87.0064 67.1787 86.8711 66.8647 86.7044 66.8647C86.5376 66.8647 86.4023 67.1787 86.4023 67.5659C86.4023 67.9532 86.5376 68.2672 86.7044 68.2672Z" fill="#2E0B06"/>
<path d="M87.0328 68.8906C86.9094 68.8906 86.7627 68.8225 86.6126 68.6888C86.6015 68.6786 86.5937 68.6629 86.5909 68.6449C86.5882 68.6269 86.5907 68.6081 86.598 68.5927C86.6015 68.5851 86.6062 68.5785 86.6116 68.5734C86.617 68.5682 86.6232 68.5646 86.6296 68.5627C86.6361 68.5608 86.6427 68.5607 86.6492 68.5624C86.6557 68.5641 86.6619 68.5676 86.6674 68.5726C86.9206 68.7987 87.1138 68.7858 87.1926 68.6727C87.2808 68.5462 87.2459 68.2932 87.1018 68.0129C87.0941 67.9979 87.091 67.9793 87.0933 67.9611C87.0955 67.943 87.1029 67.9269 87.1138 67.9163C87.1247 67.9057 87.1382 67.9015 87.1514 67.9046C87.1645 67.9077 87.1763 67.9178 87.184 67.9328C87.3603 68.2762 87.3907 68.5886 87.265 68.7688C87.2344 68.8099 87.198 68.8419 87.1581 68.8628C87.1181 68.8838 87.0755 68.8932 87.0328 68.8906Z" fill="#2E0B06"/>
<path d="M82.0051 68.2672C82.1719 68.2672 82.3071 67.9532 82.3071 67.5659C82.3071 67.1787 82.1719 66.8647 82.0051 66.8647C81.8383 66.8647 81.7031 67.1787 81.7031 67.5659C81.7031 67.9532 81.8383 68.2672 82.0051 68.2672Z" fill="#2E0B06"/>
<path d="M81.6799 68.8906C81.8033 68.8906 81.9504 68.8225 82.1001 68.6888C82.1056 68.6838 82.1104 68.6774 82.1142 68.6698C82.1179 68.6623 82.1206 68.6538 82.1219 68.6449C82.1233 68.636 82.1233 68.6268 82.1221 68.6178C82.1209 68.6089 82.1184 68.6003 82.1147 68.5927C82.1112 68.5851 82.1065 68.5785 82.1011 68.5734C82.0956 68.5682 82.0895 68.5646 82.0831 68.5627C82.0766 68.5608 82.07 68.5607 82.0635 68.5624C82.057 68.5641 82.0508 68.5676 82.0453 68.5726C81.7921 68.7987 81.5989 68.7858 81.5201 68.6727C81.4319 68.5462 81.4668 68.2932 81.6109 68.0129C81.6186 67.9979 81.6217 67.9793 81.6194 67.9611C81.6171 67.943 81.6098 67.9269 81.5989 67.9163C81.588 67.9057 81.5745 67.9015 81.5613 67.9046C81.5481 67.9077 81.5364 67.9178 81.5287 67.9328C81.3524 68.2762 81.322 68.5886 81.4477 68.7688C81.4783 68.8098 81.5147 68.8418 81.5546 68.8628C81.5946 68.8837 81.6372 68.8932 81.6799 68.8906ZM84.5822 70.3209C83.2571 70.3209 83.0643 71.3252 83.1401 71.7058C83.2158 72.0863 83.6934 72.1906 83.6683 71.8442C83.6432 71.4977 84.1076 71.3795 84.1879 71.8214C84.2382 72.0982 84.1129 72.1906 83.9628 72.2485C83.8127 72.3063 84.2562 73.1717 84.5833 73.0906C84.9101 73.1717 85.3547 72.3058 85.2035 72.2485C85.0523 72.1912 84.927 72.0982 84.9784 71.8214C85.0587 71.3784 85.5235 71.4982 85.4984 71.8442C85.4732 72.1901 85.9512 72.0869 86.0266 71.7058C86.102 71.3247 85.9069 70.3209 84.5822 70.3209Z" fill="#2E0B06"/>
<path d="M84.5813 70.3198C83.2562 70.3198 83.0634 71.3241 83.1392 71.7047C83.6269 70.3544 85.7969 70.5739 86.0235 71.7047C86.0989 71.3241 85.906 70.3198 84.5813 70.3198Z" fill="#572018"/>
<path d="M82.9989 75.6778C82.8639 75.6778 82.7296 75.6534 82.5993 75.605C81.9338 75.3571 81.3988 74.4799 81.1643 73.2582C81.1623 73.2493 81.1617 73.2399 81.1624 73.2306C81.1631 73.2213 81.1652 73.2124 81.1685 73.2042C81.1718 73.1961 81.1762 73.1889 81.1816 73.1832C81.1869 73.1775 81.1931 73.1733 81.1996 73.171C81.2062 73.1686 81.213 73.1681 81.2197 73.1694C81.2264 73.1708 81.2328 73.174 81.2386 73.1789C81.2444 73.1837 81.2494 73.1902 81.2533 73.1977C81.2573 73.2053 81.26 73.214 81.2615 73.2231C81.4866 74.3957 81.9953 75.2368 82.626 75.4712C83.2371 75.699 83.9199 75.3484 84.5479 74.484C84.5526 74.4775 84.5582 74.4724 84.5643 74.4689C84.5704 74.4653 84.577 74.4635 84.5836 74.4635C84.5902 74.4635 84.5968 74.4653 84.6029 74.4688C84.609 74.4723 84.6146 74.4775 84.6193 74.4839C84.6239 74.4904 84.6276 74.4981 84.6302 74.5065C84.6327 74.515 84.6339 74.524 84.6339 74.5331C84.6339 74.5423 84.6325 74.5513 84.6299 74.5597C84.6273 74.5681 84.6236 74.5757 84.6189 74.5821C84.0966 75.3009 83.5339 75.6778 82.9989 75.6778Z" fill="#2E0B06"/>
<path d="M80.8917 74.1648C80.8793 74.1649 80.8673 74.1586 80.8581 74.1471C80.8488 74.1357 80.8431 74.1199 80.8418 74.1028C80.8043 73.6335 80.9465 72.907 81.2433 72.5538C81.3186 72.4595 81.4101 72.393 81.5091 72.3605C81.6082 72.328 81.7116 72.3306 81.8098 72.3679C81.8227 72.3725 81.8338 72.384 81.8406 72.3998C81.8474 72.4156 81.8493 72.4345 81.846 72.4523C81.8426 72.4701 81.8343 72.4854 81.8228 72.4947C81.8113 72.5041 81.7976 72.5067 81.7846 72.5022C81.7023 72.4698 81.6154 72.4671 81.5321 72.4942C81.4488 72.5213 81.372 72.5774 81.3089 72.6571C81.0215 73.0009 80.9112 73.7089 80.9416 74.0884C80.9431 74.1066 80.9393 74.1249 80.931 74.1392C80.9227 74.1535 80.9106 74.1627 80.8974 74.1648H80.8917ZM86.1932 75.6787C86.3282 75.6789 86.4625 75.6544 86.5928 75.6059C87.2583 75.3581 87.7933 74.4808 88.0282 73.2591C88.0302 73.2502 88.0308 73.2408 88.0301 73.2316C88.0294 73.2223 88.0273 73.2133 88.024 73.2052C88.0207 73.197 88.0163 73.1899 88.0109 73.1842C88.0056 73.1784 87.9994 73.1743 87.9929 73.1719C87.9863 73.1695 87.9795 73.169 87.9728 73.1704C87.9661 73.1717 87.9596 73.175 87.9539 73.1798C87.9481 73.1847 87.9431 73.1911 87.9392 73.1987C87.9352 73.2063 87.9325 73.2149 87.931 73.224C87.7059 74.3966 87.1968 75.2378 86.5665 75.4722C85.9554 75.6999 85.2726 75.3493 84.6445 74.4849C84.6351 74.4719 84.6223 74.4646 84.6089 74.4646C84.5955 74.4646 84.5827 74.4719 84.5733 74.4849C84.5638 74.4979 84.5585 74.5156 84.5585 74.534C84.5585 74.5524 84.5638 74.57 84.5733 74.583C85.0959 75.3018 85.6582 75.6787 86.1932 75.6787Z" fill="#2E0B06"/>
<path d="M88.3 74.1648C88.3123 74.1646 88.3243 74.1583 88.3334 74.1468C88.3426 74.1354 88.3485 74.1198 88.3499 74.1028C88.3874 73.6335 88.2452 72.907 87.9484 72.5538C87.873 72.4595 87.7815 72.393 87.6824 72.3605C87.5832 72.328 87.4798 72.3306 87.3816 72.3679C87.3686 72.3725 87.3575 72.384 87.3507 72.3998C87.344 72.4156 87.342 72.4345 87.3453 72.4523C87.3487 72.4701 87.357 72.4854 87.3685 72.4947C87.38 72.5041 87.3937 72.5067 87.4067 72.5021C87.489 72.4698 87.5759 72.4671 87.6592 72.4942C87.7425 72.5213 87.8193 72.5774 87.8824 72.6571C88.1698 73.0009 88.2805 73.7089 88.2497 74.0884C88.2483 74.1066 88.2522 74.1249 88.2606 74.1392C88.269 74.1535 88.2811 74.1627 88.2943 74.1648H88.3Z" fill="#2E0B06"/>
<path d="M84.6446 73.0317H84.5391V74.5162H84.6446V73.0317Z" fill="#2E0B06"/>
<path d="M84.7901 77.7764H84.7848C84.7782 77.7754 84.7718 77.7727 84.766 77.7683C84.7602 77.7639 84.7551 77.758 84.751 77.7509C84.7468 77.7438 84.7437 77.7357 84.7419 77.7269C84.74 77.7182 84.7394 77.709 84.7402 77.7C84.8193 76.6827 84.7345 75.4389 84.2341 75.2824C84.2212 75.2782 84.21 75.2672 84.203 75.2517C84.1959 75.2363 84.1936 75.2176 84.1966 75.1998C84.198 75.1909 84.2006 75.1825 84.2044 75.1751C84.2082 75.1677 84.2131 75.1614 84.2187 75.1566C84.2243 75.1518 84.2305 75.1486 84.237 75.1471C84.2435 75.1457 84.2502 75.146 84.2566 75.1482C84.8193 75.3242 84.9281 76.5898 84.8407 77.7154C84.8391 77.7324 84.8331 77.7479 84.8238 77.7592C84.8145 77.7704 84.8025 77.7765 84.7901 77.7764Z" fill="#D65462"/>
<path d="M84.7296 80.0184C84.2808 80.0202 83.8356 79.9078 83.4165 79.687C83.4041 79.6801 83.3941 79.6667 83.3888 79.6498C83.3836 79.6328 83.3834 79.6137 83.3884 79.5966C83.3934 79.5795 83.4031 79.5658 83.4154 79.5585C83.4277 79.5513 83.4416 79.551 83.454 79.5579C84.6778 80.2105 85.9106 79.719 86.1672 79.3658C86.1767 79.3529 86.1894 79.3457 86.2027 79.3457C86.216 79.3457 86.2287 79.353 86.2381 79.3658C86.2475 79.3787 86.2528 79.3962 86.2529 79.4145C86.253 79.4328 86.2478 79.4503 86.2385 79.4634C86.0412 79.7329 85.4518 80.0184 84.7296 80.0184Z" fill="#E6B17C"/>
<path d="M94.5599 75.0406C93.1849 74.8563 92.4135 72.872 92.4135 72.872C91.138 72.7331 89.5623 67.4709 89.4955 65.8093C89.1601 70.332 91.7761 75.4098 94.5599 75.0406ZM74.2734 75.0406C75.6484 74.8563 76.4198 72.872 76.4198 72.872C77.6953 72.7331 79.271 67.4709 79.3378 65.8093C79.6732 70.332 77.0572 75.4098 74.2734 75.0406Z" fill="#FFDEBC"/>
<path d="M80.8377 58.8862C80.3346 56.9478 79.1776 58.817 79.1776 58.817C78.2209 57.7786 78.0709 59.4387 78.0709 59.4387C74.5994 57.4306 74.2978 61.7927 74.9517 62.9008C73.9455 62.9008 73.8952 64.9089 73.8952 64.9089C71.8318 65.6013 72.2351 69.7553 73.6938 69.3402C74.1969 71.3478 75.4548 70.4478 75.4548 70.4478C77.2155 71.4175 77.316 66.7781 77.316 66.7781C81.19 68.1629 80.6366 63.6624 80.6366 63.6624C83.3029 63.3175 83.3029 59.3018 80.8377 58.8862Z" fill="#E6ECFF"/>
<path d="M80.0704 57.5926C80.7187 57.5926 81.2443 56.8693 81.2443 55.977C81.2443 55.0847 80.7187 54.3613 80.0704 54.3613C79.4221 54.3613 78.8965 55.0847 78.8965 55.977C78.8965 56.8693 79.4221 57.5926 80.0704 57.5926Z" fill="#E6ECFF"/>
<path d="M81.8665 57.8247C82.0333 57.8247 82.1685 57.6386 82.1685 57.4091C82.1685 57.1795 82.0333 56.9934 81.8665 56.9934C81.6997 56.9934 81.5645 57.1795 81.5645 57.4091C81.5645 57.6386 81.6997 57.8247 81.8665 57.8247Z" fill="#E6ECFF"/>
<path d="M83.5262 61.1703C84.2116 61.1703 84.7673 60.4056 84.7673 59.4622C84.7673 58.5189 84.2116 57.7542 83.5262 57.7542C82.8408 57.7542 82.2852 58.5189 82.2852 59.4622C82.2852 60.4056 82.8408 61.1703 83.5262 61.1703Z" fill="#E6ECFF"/>
<path d="M73.3818 59.1997C74.323 58.6631 74.77 57.1779 74.3801 55.8824C73.9902 54.587 72.9111 53.9718 71.9699 54.5084C71.0287 55.045 70.5817 56.5302 70.9716 57.8256C71.3614 59.1211 72.4405 59.7362 73.3818 59.1997Z" fill="#E6ECFF"/>
<path d="M74.0448 62.0104C74.1692 61.8392 74.1692 61.5617 74.0448 61.3905C73.9204 61.2193 73.7188 61.2193 73.5944 61.3905C73.47 61.5617 73.47 61.8392 73.5944 62.0104C73.7188 62.1816 73.9204 62.1816 74.0448 62.0104Z" fill="#E6ECFF"/>
<path d="M97.6262 79.0002C97.8645 77.6108 97.2393 76.2186 96.2298 75.8907C95.2203 75.5628 94.2087 76.4232 93.9705 77.8126C93.7322 79.202 94.3574 80.5942 95.3669 80.9221C96.3764 81.2501 97.3879 80.3896 97.6262 79.0002Z" fill="#E6ECFF"/>
<path d="M98.8355 80.4702C98.9036 80.0733 98.725 79.6756 98.4366 79.5819C98.1482 79.4883 97.8593 79.7341 97.7912 80.131C97.7231 80.5279 97.9017 80.9255 98.1901 81.0192C98.4785 81.1129 98.7674 80.8671 98.8355 80.4702Z" fill="#E6ECFF"/>
<path d="M100.496 83.074C101.459 83.074 102.24 81.9992 102.24 80.6735C102.24 79.3477 101.459 78.2729 100.496 78.2729C99.5328 78.2729 98.752 79.3477 98.752 80.6735C98.752 81.9992 99.5328 83.074 100.496 83.074Z" fill="#E6ECFF"/>
<path d="M102.913 88.4733C104.599 88.4733 105.965 86.5926 105.965 84.2728C105.965 81.9529 104.599 80.0723 102.913 80.0723C101.228 80.0723 99.8613 81.9529 99.8613 84.2728C99.8613 86.5926 101.228 88.4733 102.913 88.4733Z" fill="#E6ECFF"/>
<path d="M99.1555 91.6129C100.397 91.6129 101.403 90.2281 101.403 88.5199C101.403 86.8118 100.397 85.427 99.1555 85.427C97.9143 85.427 96.9082 86.8118 96.9082 88.5199C96.9082 90.2281 97.9143 91.6129 99.1555 91.6129Z" fill="#E6ECFF"/>
<path d="M103.11 91.4747C103.554 91.4747 103.915 90.9786 103.915 90.3666C103.915 89.7547 103.554 89.2585 103.11 89.2585C102.665 89.2585 102.305 89.7547 102.305 90.3666C102.305 90.9786 102.665 91.4747 103.11 91.4747Z" fill="#E6ECFF"/>
<path d="M104.454 89.998C105.88 89.998 107.036 88.4066 107.036 86.4435C107.036 84.4803 105.88 82.8889 104.454 82.8889C103.027 82.8889 101.871 84.4803 101.871 86.4435C101.871 88.4066 103.027 89.998 104.454 89.998Z" fill="#E6ECFF"/>
<path d="M107.85 82.0258C108.82 80.6919 108.82 78.5293 107.85 77.1954C106.881 75.8615 105.31 75.8615 104.341 77.1954C103.372 78.5293 103.372 80.6919 104.341 82.0258C105.31 83.3597 106.881 83.3597 107.85 82.0258Z" fill="#E6ECFF"/>
<path d="M110.772 84.9403C111.243 84.2914 111.243 83.2393 110.772 82.5904C110.301 81.9415 109.536 81.9415 109.065 82.5904C108.593 83.2393 108.593 84.2914 109.065 84.9403C109.536 85.5892 110.301 85.5892 110.772 84.9403Z" fill="#E6ECFF"/>
<path d="M107.676 84.3704C108.475 83.2708 108.475 81.488 107.676 80.3884C106.877 79.2888 105.581 79.2888 104.783 80.3884C103.984 81.488 103.984 83.2708 104.783 84.3704C105.581 85.4699 106.877 85.4699 107.676 84.3704Z" fill="#E6ECFF"/>
<path d="M109.05 91.2446C110.643 91.2446 111.935 89.4673 111.935 87.2749C111.935 85.0825 110.643 83.3052 109.05 83.3052C107.457 83.3052 106.166 85.0825 106.166 87.2749C106.166 89.4673 107.457 91.2446 109.05 91.2446Z" fill="#E6ECFF"/>
<path d="M112.335 95.2135C113.687 95.2135 114.783 93.7049 114.783 91.8438C114.783 89.9828 113.687 88.4741 112.335 88.4741C110.983 88.4741 109.887 89.9828 109.887 91.8438C109.887 93.7049 110.983 95.2135 112.335 95.2135Z" fill="#E6ECFF"/>
<path d="M105.993 92.0286C107.234 92.0286 108.241 90.6439 108.241 88.9357C108.241 87.2275 107.234 85.8428 105.993 85.8428C104.752 85.8428 103.746 87.2275 103.746 88.9357C103.746 90.6439 104.752 92.0286 105.993 92.0286Z" fill="#E6ECFF"/>
<path d="M108.981 94.7975C109.87 94.7975 110.591 93.8055 110.591 92.5819C110.591 91.3582 109.87 90.3662 108.981 90.3662C108.092 90.3662 107.371 91.3582 107.371 92.5819C107.371 93.8055 108.092 94.7975 108.981 94.7975Z" fill="#E6ECFF"/>
<path d="M105.448 95.7524C106.535 94.2561 106.535 91.8303 105.448 90.3341C104.361 88.8378 102.598 88.8378 101.511 90.3341C100.424 91.8303 100.424 94.2561 101.511 95.7524C102.598 97.2486 104.361 97.2486 105.448 95.7524Z" fill="#E6ECFF"/>
<path d="M114.597 86.7864C115.383 85.7047 115.383 83.951 114.597 82.8694C113.811 81.7878 112.537 81.7878 111.751 82.8694C110.965 83.951 110.965 85.7047 111.751 86.7864C112.537 87.868 113.811 87.868 114.597 86.7864Z" fill="#E6ECFF"/>
<path d="M115.855 88.5197C116.151 88.5197 116.391 88.1891 116.391 87.7814C116.391 87.3736 116.151 87.043 115.855 87.043C115.559 87.043 115.318 87.3736 115.318 87.7814C115.318 88.1891 115.559 88.5197 115.855 88.5197Z" fill="#E6ECFF"/>
<path d="M112.556 74.6031C112.752 73.4618 112.239 72.3183 111.409 72.0489C110.58 71.7795 109.749 72.4864 109.554 73.6276C109.358 74.7689 109.871 75.9125 110.701 76.1818C111.53 76.4512 112.361 75.7444 112.556 74.6031Z" fill="#E6ECFF"/>
<path d="M102.139 74.7652C103.436 72.9806 103.436 70.0872 102.139 68.3027C100.842 66.5181 98.7401 66.5181 97.4435 68.3027C96.1468 70.0872 96.1468 72.9806 97.4435 74.7652C98.7401 76.5498 100.842 76.5498 102.139 74.7652Z" fill="#E6ECFF"/>
<path d="M73.127 90.3672C74.0902 90.3672 74.8711 89.2924 74.8711 87.9667C74.8711 86.6409 74.0902 85.5662 73.127 85.5662C72.1637 85.5662 71.3828 86.6409 71.3828 87.9667C71.3828 89.2924 72.1637 90.3672 73.127 90.3672Z" fill="#E6ECFF"/>
<path d="M76.016 91.4288C76.4607 91.4288 76.8212 90.9327 76.8212 90.3207C76.8212 89.7088 76.4607 89.2126 76.016 89.2126C75.5714 89.2126 75.2109 89.7088 75.2109 90.3207C75.2109 90.9327 75.5714 91.4288 76.016 91.4288Z" fill="#E6ECFF"/>
<path d="M74.8521 80.7985C75.1074 79.3097 74.4375 77.818 73.3558 77.4666C72.2741 77.1153 71.1902 78.0373 70.9349 79.526C70.6796 81.0148 71.3495 82.5065 72.4312 82.8579C73.5129 83.2093 74.5968 82.2873 74.8521 80.7985Z" fill="#E6ECFF"/>
<path d="M83.1209 90.0425C83.8618 90.0425 84.4625 89.2159 84.4625 88.1961C84.4625 87.1763 83.8618 86.3496 83.1209 86.3496C82.38 86.3496 81.7793 87.1763 81.7793 88.1961C81.7793 89.2159 82.38 90.0425 83.1209 90.0425Z" fill="#E6ECFF"/>
<path d="M84.5144 101.365H84.5125C84.4991 101.365 84.4865 101.356 84.4775 101.343C84.4684 101.329 84.4636 101.311 84.4641 101.293C84.5436 98.4795 84.0788 97.4246 83.722 96.8762C83.7176 96.8694 83.7142 96.8615 83.712 96.8529C83.7098 96.8443 83.7089 96.8352 83.7093 96.8262C83.7096 96.8171 83.7113 96.8082 83.7142 96.8C83.717 96.7918 83.721 96.7844 83.726 96.7784C83.7309 96.7723 83.7366 96.7676 83.7429 96.7646C83.7491 96.7616 83.7557 96.7603 83.7623 96.7608C83.7689 96.7613 83.7754 96.7636 83.7814 96.7675C83.7873 96.7715 83.7927 96.777 83.7971 96.7838C84.1655 97.3518 84.6457 98.4361 84.5647 101.299C84.5642 101.317 84.5587 101.334 84.5493 101.346C84.5399 101.358 84.5274 101.365 84.5144 101.365ZM82.2506 102.057C82.2396 102.057 82.2289 102.051 82.2201 102.042C82.2114 102.033 82.2051 102.02 82.2022 102.005C81.6342 99.4559 80.912 98.3029 80.9045 98.2915C80.897 98.2776 80.8935 98.2603 80.8948 98.243C80.8961 98.2258 80.902 98.2098 80.9115 98.1983C80.9209 98.1868 80.9332 98.1806 80.9458 98.1809C80.9584 98.1813 80.9704 98.1881 80.9796 98.2001C80.9867 98.2115 81.7228 99.3836 82.2979 101.964C82.3018 101.982 82.3004 102.001 82.2942 102.017C82.2879 102.033 82.2773 102.046 82.2645 102.051C82.2601 102.054 82.2554 102.056 82.2506 102.057ZM89.7967 101.191C89.7856 101.191 89.7748 101.186 89.7659 101.176C89.7571 101.167 89.7508 101.154 89.748 101.139C89.2205 98.4077 90.0218 96.4667 90.0297 96.4471C90.0366 96.4314 90.0477 96.42 90.0606 96.4154C90.0735 96.4107 90.0872 96.4132 90.0987 96.4223C90.1102 96.4316 90.1186 96.4467 90.1219 96.4645C90.1253 96.4822 90.1234 96.501 90.1168 96.5168C90.1089 96.5359 89.3289 98.4304 89.8451 101.104C89.8468 101.113 89.8472 101.122 89.8462 101.131C89.8452 101.14 89.8429 101.149 89.8394 101.157C89.8359 101.165 89.8313 101.172 89.8258 101.177C89.8203 101.182 89.8142 101.186 89.8076 101.188C89.8041 101.19 89.8004 101.191 89.7967 101.191ZM92.6641 101.503H92.6619C92.6486 101.502 92.6361 101.494 92.6271 101.48C92.6181 101.467 92.6134 101.449 92.6139 101.43C92.6889 99.0459 93.183 98.2043 93.204 98.1691C93.2129 98.1566 93.2249 98.1491 93.2376 98.1482C93.2503 98.1473 93.2628 98.153 93.2726 98.1642C93.2824 98.1754 93.2888 98.1913 93.2904 98.2087C93.2921 98.226 93.289 98.2436 93.2817 98.258C93.2764 98.2662 92.7879 99.1063 92.7144 101.436C92.7139 101.454 92.7084 101.471 92.699 101.483C92.6897 101.496 92.6772 101.503 92.6641 101.503Z" fill="#241919"/>
<path d="M36.2246 117.999H114.184C115.039 117.999 115.859 118.466 116.464 119.298C117.069 120.131 117.408 121.259 117.408 122.436V122.664H33V122.436C33 121.259 33.3397 120.131 33.9443 119.298C34.549 118.466 35.3691 117.999 36.2242 117.999H36.2246Z" fill="#5C5C5C"/>
<path d="M54.6055 40.7591C55.4106 40.3977 56.5563 40.361 56.5563 40.361C56.0517 39.461 55.0208 39.807 54.6055 40.7591ZM55.1859 41.7418C55.1266 42.1058 55.1859 42.4332 55.3157 42.4739C55.4455 42.5147 55.6012 42.2524 55.6604 41.8884C55.7197 41.5244 55.6604 41.197 55.5306 41.1567C55.4008 41.1165 55.2451 41.3783 55.1859 41.7418ZM55.2556 42.8251C55.2494 42.8251 55.2431 42.8235 55.2372 42.8204C54.945 42.6655 54.8865 42.4239 54.8865 42.0862C54.8865 42.0771 54.8878 42.0681 54.8903 42.0597C54.8928 42.0513 54.8965 42.0437 54.9012 42.0372C54.9059 42.0308 54.9114 42.0257 54.9175 42.0222C54.9236 42.0188 54.9301 42.017 54.9367 42.017C54.9433 42.017 54.9499 42.0188 54.956 42.0222C54.9621 42.0257 54.9676 42.0308 54.9723 42.0372C54.977 42.0437 54.9807 42.0513 54.9832 42.0597C54.9857 42.0681 54.987 42.0771 54.987 42.0862C54.987 42.3862 55.0313 42.5622 55.2736 42.6913C55.2861 42.6979 55.2961 42.711 55.3015 42.7278C55.3069 42.7445 55.3073 42.7635 55.3025 42.7807C55.2988 42.7936 55.2924 42.8048 55.284 42.8127C55.2756 42.8206 55.2658 42.8249 55.2556 42.8251Z" fill="#2E0B06"/>
<g style="mix-blend-mode:multiply">
<path d="M50.7865 43.4725C50.7829 43.4731 50.7792 43.4731 50.7756 43.4725C50.4957 43.3884 50.3119 43.1684 50.2583 42.8529C50.233 42.6791 50.2428 42.4992 50.2866 42.3325C50.3304 42.1658 50.4065 42.0189 50.5066 41.9075C50.5721 41.8316 50.6503 41.7793 50.7341 41.7554C50.8179 41.7314 50.9048 41.7365 50.9868 41.7701C50.9227 41.4557 50.6841 40.8051 50.3768 40.5825C50.3096 40.5304 50.2334 40.5044 50.1564 40.5074C50.0793 40.5104 50.0043 40.5423 49.9394 40.5996C49.9337 40.6042 49.9274 40.6073 49.9208 40.6086C49.9143 40.6099 49.9076 40.6094 49.9012 40.6071C49.8948 40.6049 49.8888 40.6009 49.8835 40.5954C49.8782 40.59 49.8737 40.5831 49.8703 40.5753C49.867 40.5675 49.8647 40.5588 49.8638 40.5498C49.8629 40.5408 49.8632 40.5316 49.8648 40.5228C49.8665 40.5139 49.8694 40.5056 49.8733 40.4984C49.8773 40.4911 49.8823 40.4849 49.888 40.4803C49.9674 40.4103 50.0592 40.3714 50.1536 40.3677C50.2479 40.3641 50.3411 40.3959 50.4233 40.4596C50.8304 40.7524 51.0915 41.6348 51.1039 41.8739C51.1045 41.886 51.1028 41.8981 51.0989 41.909C51.0951 41.9199 51.0892 41.9292 51.0819 41.936C51.0746 41.9428 51.0662 41.9469 51.0574 41.9478C51.0486 41.9486 51.0398 41.9463 51.0318 41.941C50.9582 41.8882 50.8749 41.8666 50.7923 41.8792C50.7098 41.8918 50.6319 41.938 50.5685 42.0118C50.3978 42.1992 50.3081 42.5379 50.3554 42.8178C50.3869 43.0021 50.4886 43.2417 50.7962 43.3342C50.8091 43.3385 50.8202 43.3495 50.8272 43.3649C50.8342 43.3804 50.8366 43.399 50.8338 43.4168C50.8317 43.4321 50.8259 43.446 50.8173 43.4562C50.8087 43.4663 50.7978 43.4721 50.7865 43.4725Z" fill="#EBBEB0"/>
</g>
<path d="M56.0691 46.5647H56.0668C55.0539 46.4945 54.5771 45.8331 54.5572 45.8052C54.5479 45.792 54.5428 45.7742 54.543 45.7558C54.5432 45.7374 54.5487 45.7199 54.5583 45.7071C54.5679 45.6943 54.5808 45.6872 54.5942 45.6875C54.6075 45.6878 54.6203 45.6954 54.6296 45.7086C54.6341 45.7153 55.0997 46.3592 56.0717 46.4263C56.0851 46.4268 56.0977 46.4346 56.1069 46.4479C56.1161 46.4612 56.121 46.479 56.1207 46.4973C56.1203 46.5157 56.1147 46.5331 56.105 46.5457C56.0954 46.5584 56.0824 46.5652 56.0691 46.5647ZM56.3542 45.1799C56.3424 45.1799 56.3309 45.1742 56.3218 45.1638C56.3127 45.1533 56.3066 45.1388 56.3046 45.1227C56.3025 45.1067 56.3046 45.0902 56.3106 45.0761C56.3165 45.062 56.3258 45.0512 56.337 45.0456C56.6709 44.8763 56.8374 44.9739 56.8442 44.978C56.8564 44.9855 56.8659 44.9993 56.8707 45.0164C56.8755 45.0336 56.8751 45.0526 56.8697 45.0694C56.8643 45.0862 56.8542 45.0993 56.8418 45.1059C56.8293 45.1125 56.8155 45.112 56.8033 45.1045C56.8033 45.1045 56.6622 45.0281 56.3719 45.1757C56.3662 45.1784 56.3602 45.1798 56.3542 45.1799Z" fill="#2E0B06"/>
<g style="mix-blend-mode:multiply">
<path d="M56.2355 45.4342C56.2271 45.434 56.2189 45.431 56.2115 45.4254C56.204 45.4203 56.0258 45.2845 55.9995 45.0335C55.9811 44.8626 56.037 44.6855 56.1665 44.5079C56.1759 44.4949 56.1887 44.4875 56.2021 44.4875C56.2155 44.4875 56.2283 44.4949 56.2377 44.5079C56.2472 44.5209 56.2525 44.5385 56.2525 44.5569C56.2525 44.5753 56.2472 44.593 56.2377 44.606C56.1323 44.7511 56.0858 44.8879 56.0989 45.0134C56.1184 45.1967 56.2584 45.303 56.2595 45.3041C56.2694 45.3114 56.2772 45.323 56.2817 45.3372C56.2862 45.3513 56.2872 45.3671 56.2844 45.382C56.2816 45.397 56.2753 45.4103 56.2665 45.4197C56.2576 45.4292 56.2467 45.4343 56.2355 45.4342Z" fill="#EBBEB0"/>
</g>
<path d="M51.582 42.1179C51.5422 42.1179 51.5024 42.1152 51.4627 42.1097C51.4558 42.1095 51.449 42.1073 51.4427 42.1033C51.4365 42.0993 51.4309 42.0935 51.4263 42.0864C51.4217 42.0793 51.4182 42.0709 51.4161 42.0619C51.4139 42.0528 51.4132 42.0432 51.4139 42.0338C51.4145 42.0243 51.4166 42.0151 51.42 42.0068C51.4234 41.9985 51.4279 41.9912 51.4334 41.9855C51.4389 41.9797 51.4452 41.9756 51.452 41.9733C51.4587 41.971 51.4657 41.9707 51.4725 41.9723C52.0198 42.0462 52.2419 41.5789 52.2978 41.4338C52.3687 41.2479 52.3699 41.0868 52.3354 41.03C52.2978 41.0207 52.2164 41.125 52.1504 41.2081C51.9519 41.4575 51.6529 41.835 51.25 41.6388C51.2433 41.6363 51.2371 41.6319 51.2317 41.626C51.2263 41.62 51.2219 41.6126 51.2186 41.6041C51.2154 41.5957 51.2135 41.5865 51.213 41.577C51.2125 41.5675 51.2135 41.5579 51.2158 41.5489C51.2181 41.54 51.2217 41.5317 51.2264 41.5248C51.2311 41.5178 51.2368 41.5123 51.2432 41.5085C51.2495 41.5047 51.2564 41.5028 51.2633 41.5028C51.2702 41.5028 51.2771 41.5048 51.2834 41.5086C51.6267 41.6749 51.8893 41.3465 52.0817 41.1069C52.1864 40.9753 52.263 40.8813 52.3354 40.887C52.3499 40.8886 52.3641 40.8943 52.377 40.9037C52.3899 40.9131 52.4013 40.926 52.4104 40.9417C52.4798 41.0543 52.4697 41.2784 52.3853 41.4994C52.2682 41.8081 51.9981 42.1179 51.582 42.1179ZM51.8949 42.6353C51.8883 42.6356 51.8817 42.6341 51.8755 42.6309C51.8694 42.6278 51.8637 42.6229 51.8589 42.6167C51.8491 42.6042 51.8434 42.5868 51.843 42.5685C51.8425 42.5501 51.8474 42.5323 51.8565 42.5189C51.8656 42.5054 51.8782 42.4976 51.8915 42.4969C51.9065 42.4969 52.2592 42.4551 52.4918 41.9078C52.4985 41.892 52.5095 41.8805 52.5224 41.8759C52.5353 41.8712 52.549 41.8738 52.5605 41.883C52.572 41.8924 52.5803 41.9076 52.5837 41.9254C52.5871 41.9432 52.5852 41.9621 52.5785 41.978C52.3159 42.5909 51.9137 42.6338 51.8968 42.6353H51.8949Z" fill="#2E0B06"/>
<g style="mix-blend-mode:multiply">
<path d="M53.0672 48.6668C53.058 48.6666 53.0491 48.663 53.0413 48.6565C52.9843 48.609 51.6348 47.4844 51.2968 46.6943C51.0559 46.1305 51.0341 45.4618 51.0195 45.0193C51.0194 44.8793 51.0096 44.7396 50.9903 44.6021C50.9651 44.4895 50.8972 44.4632 50.7697 44.4229C50.6522 44.3852 50.507 44.3393 50.3679 44.1725C50.3623 44.1668 50.3576 44.1595 50.3542 44.1512C50.3508 44.1429 50.3486 44.1336 50.3479 44.1241C50.3472 44.1146 50.3479 44.105 50.3501 44.0959C50.3522 44.0868 50.3557 44.0784 50.3603 44.0712C50.3649 44.064 50.3705 44.0582 50.3768 44.0542C50.3832 44.0502 50.39 44.048 50.397 44.0479C50.4039 44.0477 50.4108 44.0495 50.4172 44.0532C50.4237 44.0568 50.4294 44.0623 50.4343 44.0692C50.5536 44.2128 50.6804 44.253 50.7922 44.2887C50.9212 44.33 51.0428 44.3687 51.0863 44.5623C51.1084 44.6615 51.1133 44.8169 51.1201 45.0136C51.1339 45.4427 51.1553 46.0912 51.3827 46.6251C51.7079 47.3857 53.0788 48.5279 53.0927 48.5398C53.1022 48.5476 53.1095 48.5594 53.1136 48.5736C53.1177 48.5877 53.1183 48.6033 53.1153 48.6179C53.1123 48.6325 53.1059 48.6454 53.0971 48.6545C53.0882 48.6636 53.0775 48.6685 53.0664 48.6683L53.0672 48.6668Z" fill="#EBBEB0"/>
</g>
<path d="M52.3147 55.5614C51.1828 54.5571 50.8557 54.696 50.7803 54.4879C49.2222 50.6798 47.9883 48.8452 47.9883 48.8452L48.5469 48.0774C50.8354 50.844 52.3147 55.5614 52.3147 55.5614Z" fill="#00A3AB"/>
<path d="M47.9914 48.6291C48.2066 48.6291 48.3812 48.3889 48.3812 48.0926C48.3812 47.7963 48.2066 47.5562 47.9914 47.5562C47.7761 47.5562 47.6016 47.7963 47.6016 48.0926C47.6016 48.3889 47.7761 48.6291 47.9914 48.6291Z" fill="#00A3AB"/>
<path d="M47.7466 47.9021C46.5521 46.5173 45.2188 48.0756 45.2188 48.0756C46.4763 48.9756 47.7466 47.9021 47.7466 47.9021Z" fill="#00A3AB"/>
<path d="M47.8257 47.7276C47.8764 46.3081 46.9959 45.2522 46.9959 45.2522C46.7066 46.083 46.8953 47.3295 47.8257 47.7276Z" fill="#00A3AB"/>
<path d="M44.0144 81.4411C44.1666 81.2316 44.1666 80.8919 44.0144 80.6824C43.8622 80.4729 43.6154 80.4729 43.4631 80.6824C43.3109 80.8919 43.3109 81.2316 43.4631 81.4411C43.6154 81.6506 43.8622 81.6506 44.0144 81.4411Z" fill="#00A3AB"/>
<path d="M43.468 81.1159C41.9065 81.0488 41.5625 83.409 41.5625 83.409C42.9547 83.0419 43.468 81.1159 43.468 81.1159Z" fill="#00A3AB"/>
<path d="M43.4499 80.9184C42.8496 79.7618 41.6836 79.6848 41.6836 79.6848C41.8307 80.5812 42.5401 81.3981 43.4499 80.9184Z" fill="#00A3AB"/>
<path d="M47.8395 59.508H47.8324C47.8258 59.5067 47.8195 59.5036 47.8138 59.499C47.8081 59.4944 47.8031 59.4882 47.7991 59.4809C47.7951 59.4737 47.7923 59.4653 47.7906 59.4565C47.789 59.4477 47.7886 59.4385 47.7896 59.4295C47.9397 57.9754 48.4675 56.7217 49.2359 55.9906C49.9352 55.325 50.7898 55.1216 51.7071 55.4019C51.7201 55.4059 51.7315 55.4168 51.7386 55.4323C51.7458 55.4478 51.7482 55.4666 51.7453 55.4846C51.7425 55.5025 51.7345 55.5181 51.7233 55.528C51.712 55.5379 51.6984 55.5412 51.6853 55.5372C50.7958 55.2651 49.9686 55.4613 49.2929 56.1052C48.5478 56.8147 48.0361 58.0338 47.889 59.4501C47.8871 59.4663 47.8811 59.481 47.872 59.4916C47.8629 59.5022 47.8514 59.508 47.8395 59.508Z" fill="#CCA29A"/>
<path d="M59.6767 67.148L60.7163 68.2097C63.4663 68.3021 65.8141 68.1637 67.5582 68.8102C69.3024 69.4566 71.3144 69.4561 71.5159 68.9945C71.7173 68.5329 72.1867 66.3172 72.6226 66.1329C73.0586 65.9486 74.1319 64.842 74.333 64.0556C74.5341 63.2692 75.0372 64.4687 74.2996 65.5324C73.562 66.5961 73.7628 67.6561 74.7018 67.0097C75.6408 66.3632 76.7476 65.1632 77.1168 65.5324C77.4859 65.9016 75.2721 68.2561 75.8085 68.0713C76.345 67.8864 77.0841 65.994 77.3178 66.7804C77.3873 67.0068 77.4231 67.2501 77.4231 67.4958C77.4231 67.7416 77.3873 67.9848 77.3178 68.2112C77.2507 69.3193 74.9367 71.7224 74.0648 72.0425C73.1929 72.3627 71.8175 71.9506 71.0796 72.0425C70.3416 72.1344 66.3172 74.5355 59.945 74.2112C59.1907 73.8271 58.4794 73.2988 57.832 72.642C58.8589 70.6794 59.6767 67.148 59.6767 67.148Z" fill="#FF8863"/>
<g style="mix-blend-mode:multiply">
<path d="M59.9165 73.7843C59.8144 73.7861 59.7129 73.7636 59.6164 73.7176C59.4228 73.6216 59.281 73.4228 59.1951 73.1275C59.1926 73.119 59.1913 73.11 59.1914 73.1009C59.1915 73.0918 59.1929 73.0828 59.1955 73.0744C59.1981 73.0661 59.2019 73.0585 59.2067 73.0522C59.2114 73.0459 59.217 73.0409 59.2232 73.0376C59.2356 73.031 59.2494 73.0313 59.2616 73.0386C59.2738 73.0458 59.2835 73.0594 59.2885 73.0763C59.3635 73.3345 59.4851 73.5054 59.6505 73.587C60.0745 73.7972 60.6541 73.3686 60.6597 73.3645C60.6655 73.3601 60.6719 73.3573 60.6784 73.3563C60.685 73.3553 60.6916 73.3561 60.698 73.3587C60.7043 73.3612 60.7102 73.3655 60.7154 73.3711C60.7205 73.3768 60.7248 73.3839 60.728 73.3918C60.7312 73.3998 60.7332 73.4085 60.7339 73.4176C60.7346 73.4266 60.7341 73.4358 60.7322 73.4445C60.7304 73.4532 60.7273 73.4613 60.7232 73.4684C60.719 73.4755 60.7139 73.4814 60.7081 73.4858C60.6886 73.5008 60.3059 73.7843 59.9165 73.7843ZM75.6094 69.8244C75.5987 69.8243 75.5883 69.8196 75.5797 69.8108C75.5711 69.8021 75.5648 69.7898 75.5616 69.7757C75.5584 69.7617 75.5586 69.7466 75.562 69.7327C75.5655 69.7188 75.5721 69.7068 75.5809 69.6984C75.5895 69.6901 76.4494 68.8609 76.9574 67.5984C76.9642 67.5833 76.9749 67.5724 76.9874 67.5679C76.9999 67.5634 77.0132 67.5658 77.0245 67.5744C77.0358 67.583 77.0442 67.5973 77.0481 67.6143C77.0519 67.6312 77.0509 67.6496 77.0452 67.6655C76.5255 68.9564 75.6469 69.8037 75.6379 69.812C75.6296 69.8202 75.6196 69.8245 75.6094 69.8244Z" fill="#EBBEB0"/>
</g>
</svg>
