 
  <svg
    width="151"
    height="174"
    viewBox="0 0 151 174"
    fill="none"
    xmlns="http://www.w3.org/2000/svg"
  >
    <path
      d="M52.914 168.608C53.264 168.608 53.558 168.566 53.796 168.482C54.034 168.398 54.223 168.286 54.363 168.146C54.5077 168.006 54.6103 167.843 54.671 167.656C54.7363 167.469 54.769 167.271 54.769 167.061C54.769 166.842 54.734 166.646 54.664 166.473C54.594 166.296 54.4843 166.146 54.335 166.025C54.1857 165.899 53.992 165.803 53.754 165.738C53.5207 165.673 53.2383 165.64 52.907 165.64H51.01V168.608H52.914ZM51.01 161.412V164.338H52.508C53.152 164.338 53.6373 164.221 53.964 163.988C54.2953 163.755 54.461 163.384 54.461 162.875C54.461 162.348 54.3117 161.972 54.013 161.748C53.7143 161.524 53.2477 161.412 52.613 161.412H51.01ZM52.613 159.956C53.2757 159.956 53.8427 160.019 54.314 160.145C54.7853 160.271 55.1703 160.451 55.469 160.684C55.7723 160.917 55.994 161.2 56.134 161.531C56.274 161.862 56.344 162.236 56.344 162.651C56.344 162.889 56.309 163.118 56.239 163.337C56.169 163.552 56.0593 163.755 55.91 163.946C55.7653 164.133 55.5787 164.303 55.35 164.457C55.126 164.611 54.8577 164.742 54.545 164.849C55.9357 165.162 56.631 165.913 56.631 167.103C56.631 167.532 56.5493 167.929 56.386 168.293C56.2227 168.657 55.9847 168.972 55.672 169.238C55.3593 169.499 54.9743 169.705 54.517 169.854C54.0597 170.003 53.537 170.078 52.949 170.078H49.127V159.956H52.613ZM59.5631 164.142C59.7871 163.713 60.0531 163.377 60.3611 163.134C60.6691 162.887 61.0331 162.763 61.4531 162.763C61.7845 162.763 62.0505 162.835 62.2511 162.98L62.1391 164.275C62.1158 164.359 62.0808 164.42 62.0341 164.457C61.9921 164.49 61.9338 164.506 61.8591 164.506C61.7891 164.506 61.6841 164.494 61.5441 164.471C61.4088 164.448 61.2758 164.436 61.1451 164.436C60.9538 164.436 60.7835 164.464 60.6341 164.52C60.4848 164.576 60.3495 164.658 60.2281 164.765C60.1115 164.868 60.0065 164.994 59.9131 165.143C59.8245 165.292 59.7405 165.463 59.6611 165.654V170.078H57.9321V162.896H58.9471C59.1245 162.896 59.2481 162.929 59.3181 162.994C59.3881 163.055 59.4348 163.167 59.4581 163.33L59.5631 164.142ZM69.3428 162.896V170.078H68.2858C68.0571 170.078 67.9124 169.973 67.8518 169.763L67.7328 169.189C67.4388 169.488 67.1144 169.73 66.7598 169.917C66.4051 170.099 65.9874 170.19 65.5068 170.19C65.1148 170.19 64.7671 170.125 64.4638 169.994C64.1651 169.859 63.9131 169.67 63.7078 169.427C63.5024 169.184 63.3461 168.897 63.2388 168.566C63.1361 168.23 63.0848 167.861 63.0848 167.46V162.896H64.8138V167.46C64.8138 167.899 64.9141 168.239 65.1148 168.482C65.3201 168.72 65.6258 168.839 66.0318 168.839C66.3304 168.839 66.6104 168.774 66.8718 168.643C67.1331 168.508 67.3804 168.323 67.6138 168.09V162.896H69.3428ZM75.4391 164.296C75.3925 164.371 75.3435 164.424 75.2921 164.457C75.2408 164.485 75.1755 164.499 75.0961 164.499C75.0121 164.499 74.9211 164.476 74.8231 164.429C74.7298 164.382 74.6201 164.331 74.4941 164.275C74.3681 164.214 74.2235 164.161 74.0601 164.114C73.9015 164.067 73.7125 164.044 73.4931 164.044C73.1525 164.044 72.8841 164.116 72.6881 164.261C72.4968 164.406 72.4011 164.595 72.4011 164.828C72.4011 164.982 72.4501 165.113 72.5481 165.22C72.6508 165.323 72.7838 165.414 72.9471 165.493C73.1151 165.572 73.3041 165.645 73.5141 165.71C73.7241 165.771 73.9365 165.838 74.1511 165.913C74.3705 165.988 74.5851 166.074 74.7951 166.172C75.0051 166.265 75.1918 166.387 75.3551 166.536C75.5231 166.681 75.6561 166.856 75.7541 167.061C75.8568 167.266 75.9081 167.514 75.9081 167.803C75.9081 168.148 75.8451 168.468 75.7191 168.762C75.5978 169.051 75.4158 169.303 75.1731 169.518C74.9305 169.728 74.6295 169.894 74.2701 170.015C73.9155 170.132 73.5048 170.19 73.0381 170.19C72.7908 170.19 72.5481 170.167 72.3101 170.12C72.0768 170.078 71.8505 170.017 71.6311 169.938C71.4165 169.859 71.2158 169.765 71.0291 169.658C70.8471 169.551 70.6861 169.434 70.5461 169.308L70.9451 168.65C70.9965 168.571 71.0571 168.51 71.1271 168.468C71.1971 168.426 71.2858 168.405 71.3931 168.405C71.5005 168.405 71.6008 168.435 71.6941 168.496C71.7921 168.557 71.9041 168.622 72.0301 168.692C72.1561 168.762 72.3031 168.827 72.4711 168.888C72.6438 168.949 72.8608 168.979 73.1221 168.979C73.3275 168.979 73.5025 168.956 73.6471 168.909C73.7965 168.858 73.9178 168.792 74.0111 168.713C74.1091 168.634 74.1791 168.543 74.2211 168.44C74.2678 168.333 74.2911 168.223 74.2911 168.111C74.2911 167.943 74.2398 167.805 74.1371 167.698C74.0391 167.591 73.9061 167.497 73.7381 167.418C73.5748 167.339 73.3858 167.269 73.1711 167.208C72.9611 167.143 72.7441 167.073 72.5201 166.998C72.3008 166.923 72.0838 166.837 71.8691 166.739C71.6591 166.636 71.4701 166.508 71.3021 166.354C71.1388 166.2 71.0058 166.011 70.9031 165.787C70.8051 165.563 70.7561 165.292 70.7561 164.975C70.7561 164.681 70.8145 164.401 70.9311 164.135C71.0478 163.869 71.2181 163.638 71.4421 163.442C71.6708 163.241 71.9531 163.083 72.2891 162.966C72.6298 162.845 73.0218 162.784 73.4651 162.784C73.9598 162.784 74.4101 162.866 74.8161 163.029C75.2221 163.192 75.5605 163.407 75.8311 163.673L75.4391 164.296ZM78.9385 163.666C79.2185 163.405 79.5265 163.192 79.8625 163.029C80.1985 162.866 80.5928 162.784 81.0455 162.784C81.4375 162.784 81.7851 162.852 82.0885 162.987C82.3918 163.118 82.6438 163.304 82.8445 163.547C83.0498 163.785 83.2038 164.072 83.3065 164.408C83.4138 164.739 83.4675 165.106 83.4675 165.507V170.078H81.7385V165.507C81.7385 165.068 81.6381 164.73 81.4375 164.492C81.2368 164.249 80.9311 164.128 80.5205 164.128C80.2218 164.128 79.9418 164.196 79.6805 164.331C79.4191 164.466 79.1718 164.651 78.9385 164.884V170.078H77.2095V159.676H78.9385V163.666ZM86.9038 162.896V170.078H85.1678V162.896H86.9038ZM87.1418 160.803C87.1418 160.952 87.1115 161.092 87.0508 161.223C86.9901 161.354 86.9085 161.468 86.8058 161.566C86.7078 161.664 86.5911 161.743 86.4558 161.804C86.3205 161.86 86.1758 161.888 86.0218 161.888C85.8725 161.888 85.7301 161.86 85.5948 161.804C85.4641 161.743 85.3498 161.664 85.2518 161.566C85.1538 161.468 85.0745 161.354 85.0138 161.223C84.9578 161.092 84.9298 160.952 84.9298 160.803C84.9298 160.649 84.9578 160.504 85.0138 160.369C85.0745 160.234 85.1538 160.117 85.2518 160.019C85.3498 159.921 85.4641 159.844 85.5948 159.788C85.7301 159.727 85.8725 159.697 86.0218 159.697C86.1758 159.697 86.3205 159.727 86.4558 159.788C86.5911 159.844 86.7078 159.921 86.8058 160.019C86.9085 160.117 86.9901 160.234 87.0508 160.369C87.1115 160.504 87.1418 160.649 87.1418 160.803ZM90.2835 163.778C90.4282 163.633 90.5798 163.5 90.7385 163.379C90.9018 163.253 91.0722 163.148 91.2495 163.064C91.4315 162.975 91.6252 162.908 91.8305 162.861C92.0358 162.81 92.2598 162.784 92.5025 162.784C92.8945 162.784 93.2422 162.852 93.5455 162.987C93.8488 163.118 94.1008 163.304 94.3015 163.547C94.5068 163.785 94.6608 164.072 94.7635 164.408C94.8708 164.739 94.9245 165.106 94.9245 165.507V170.078H93.1955V165.507C93.1955 165.068 93.0952 164.73 92.8945 164.492C92.6938 164.249 92.3882 164.128 91.9775 164.128C91.6788 164.128 91.3988 164.196 91.1375 164.331C90.8762 164.466 90.6288 164.651 90.3955 164.884V170.078H88.6665V162.896H89.7235C89.9475 162.896 90.0945 163.001 90.1645 163.211L90.2835 163.778ZM99.1938 166.312C99.4085 166.312 99.5952 166.284 99.7538 166.228C99.9125 166.167 100.043 166.086 100.146 165.983C100.253 165.88 100.333 165.757 100.384 165.612C100.44 165.467 100.468 165.309 100.468 165.136C100.468 164.781 100.361 164.501 100.146 164.296C99.9358 164.086 99.6185 163.981 99.1938 163.981C98.7692 163.981 98.4495 164.086 98.2348 164.296C98.0248 164.501 97.9198 164.781 97.9198 165.136C97.9198 165.304 97.9455 165.46 97.9968 165.605C98.0528 165.75 98.1322 165.876 98.2348 165.983C98.3422 166.086 98.4752 166.167 98.6338 166.228C98.7972 166.284 98.9838 166.312 99.1938 166.312ZM101.147 170.4C101.147 170.26 101.105 170.146 101.021 170.057C100.937 169.968 100.823 169.901 100.678 169.854C100.533 169.803 100.363 169.765 100.167 169.742C99.9755 169.719 99.7702 169.702 99.5508 169.693C99.3362 169.679 99.1122 169.667 98.8788 169.658C98.6502 169.649 98.4262 169.63 98.2068 169.602C98.0155 169.709 97.8592 169.835 97.7378 169.98C97.6212 170.125 97.5628 170.293 97.5628 170.484C97.5628 170.61 97.5932 170.727 97.6538 170.834C97.7192 170.946 97.8195 171.042 97.9548 171.121C98.0948 171.2 98.2745 171.261 98.4938 171.303C98.7132 171.35 98.9815 171.373 99.2988 171.373C99.6208 171.373 99.8985 171.347 100.132 171.296C100.365 171.249 100.557 171.182 100.706 171.093C100.86 171.009 100.972 170.906 101.042 170.785C101.112 170.668 101.147 170.54 101.147 170.4ZM102.869 163.141V163.785C102.869 163.99 102.745 164.116 102.498 164.163L101.854 164.282C101.952 164.529 102.001 164.8 102.001 165.094C102.001 165.449 101.929 165.771 101.784 166.06C101.644 166.345 101.448 166.587 101.196 166.788C100.944 166.989 100.645 167.145 100.3 167.257C99.9592 167.364 99.5905 167.418 99.1938 167.418C99.0538 167.418 98.9185 167.411 98.7878 167.397C98.6572 167.383 98.5288 167.364 98.4028 167.341C98.1788 167.476 98.0668 167.628 98.0668 167.796C98.0668 167.941 98.1322 168.048 98.2628 168.118C98.3982 168.183 98.5755 168.23 98.7948 168.258C99.0142 168.286 99.2638 168.305 99.5438 168.314C99.8238 168.319 100.111 168.333 100.405 168.356C100.699 168.379 100.986 168.421 101.266 168.482C101.546 168.538 101.796 168.629 102.015 168.755C102.234 168.881 102.409 169.054 102.54 169.273C102.675 169.488 102.743 169.765 102.743 170.106C102.743 170.423 102.664 170.731 102.505 171.03C102.351 171.329 102.125 171.595 101.826 171.828C101.532 172.061 101.168 172.248 100.734 172.388C100.305 172.533 99.8145 172.605 99.2638 172.605C98.7225 172.605 98.2512 172.551 97.8498 172.444C97.4485 172.341 97.1148 172.201 96.8488 172.024C96.5828 171.851 96.3845 171.651 96.2538 171.422C96.1232 171.193 96.0578 170.955 96.0578 170.708C96.0578 170.372 96.1582 170.092 96.3588 169.868C96.5642 169.639 96.8442 169.457 97.1988 169.322C97.0075 169.224 96.8558 169.093 96.7438 168.93C96.6318 168.767 96.5758 168.552 96.5758 168.286C96.5758 168.179 96.5945 168.069 96.6318 167.957C96.6738 167.84 96.7322 167.726 96.8068 167.614C96.8862 167.502 96.9842 167.397 97.1008 167.299C97.2175 167.196 97.3552 167.105 97.5138 167.026C97.1498 166.83 96.8628 166.569 96.6528 166.242C96.4475 165.915 96.3448 165.533 96.3448 165.094C96.3448 164.739 96.4148 164.42 96.5548 164.135C96.6995 163.846 96.8978 163.601 97.1498 163.4C97.4065 163.195 97.7075 163.038 98.0528 162.931C98.4028 162.824 98.7832 162.77 99.1938 162.77C99.5018 162.77 99.7912 162.803 100.062 162.868C100.333 162.929 100.58 163.02 100.804 163.141H102.869Z"
      fill="black"
    />
    <rect
      x="0.5"
      y="0.828125"
      width="150"
      height="150"
      rx="75"
      fill="#BEC8FF"
    />
    <path
      opacity="0.44"
      d="M31.8111 103.484C34.6168 97.161 42.2165 94.6131 48.5179 97.6547C58.2805 102.367 69.3461 100.779 77.1461 94.4791C82.3702 90.2599 88.8029 87.7515 95.5663 87.7515H96.7358C103.808 87.9444 110.567 90.6594 115.75 95.3896C117.251 96.7632 118.448 98.4261 119.265 100.274C120.082 102.123 120.503 104.116 120.5 106.132C120.5 114.248 113.801 120.828 105.537 120.828H42.6552C33.9061 120.828 28.0296 112.014 31.5243 104.135L31.8111 103.484Z"
      fill="#C191E8"
    />
    <path
      d="M110.232 111.828C109.091 112.836 107.816 113.69 106.442 114.364C106.35 116.27 105.721 118.114 104.625 119.69L103.836 120.825H104.951C106.509 120.825 108.038 120.409 109.374 119.622C110.711 118.835 111.804 117.706 112.538 116.355C113.563 114.469 112.383 112.153 110.232 111.828Z"
      fill="#CEC6B2"
    />
    <path
      d="M99.6198 116.122L96.0587 116.291C94.873 116.347 93.7548 116.849 92.9359 117.694C92.117 118.538 91.6602 119.659 91.6602 120.825H103.835L104.624 119.689C105.72 118.113 106.349 116.27 106.441 114.364C104.317 115.409 101.993 116.008 99.6198 116.122Z"
      fill="#0E0F2D"
    />
    <path
      d="M63.2358 115.832H73.1972C74.5456 115.832 75.8387 116.358 76.7922 117.294C77.7456 118.231 78.2812 119.501 78.2812 120.825H58.1523C58.1523 120.17 58.2837 119.52 58.5392 118.914C58.7946 118.309 59.169 117.758 59.6411 117.294C60.1131 116.831 60.6735 116.463 61.2903 116.212C61.9071 115.961 62.5682 115.832 63.2358 115.832Z"
      fill="#CEC6B2"
    />
    <path
      d="M77.5996 120.825H73.2001C70.9932 120.825 68.8372 120.175 67.0108 118.958C65.1844 117.741 63.7717 116.014 62.9554 114L61.4939 110.395C60.3516 107.577 62.4651 104.515 65.554 104.515H77.5996V120.825Z"
      fill="#CEC6B2"
    />
    <path
      d="M87.0925 119.669L83.0916 120.825H74.9032L67.7408 105.543C66.7582 104.521 65.6427 103.57 64.4072 102.926C61.8998 101.617 60.0226 99.3856 59.0544 96.7619L55.6473 87.5314C53.128 80.711 52.7077 73.3133 54.4386 66.2599L57.0913 55.4492L72.5003 55.9045L72.9226 57.7255C74.1313 62.9482 76.3309 67.9006 79.4063 72.3234L95.7521 95.8311C98.0086 99.0765 98.939 103.037 98.3584 106.926C97.9172 109.885 96.6215 112.659 94.6248 114.917C92.6281 117.176 90.0141 118.825 87.0925 119.669Z"
      fill="#93511B"
    />
    <path
      d="M70.6914 111.838L76.8908 98.8454C79.8957 92.5485 81.4532 85.6795 81.4531 78.7253V75.2734L95.7508 95.8352C98.0073 99.0806 98.9377 103.041 98.3571 106.93C97.9153 109.889 96.6193 112.661 94.6227 114.919C92.626 117.177 90.0123 118.826 87.0912 119.67L84.127 120.526H74.7624L70.6914 111.838Z"
      fill="#0E0F2D"
    />
    <path
      d="M64.7464 92.0994H55.9844L58.7772 98.0576C59.7294 100.09 61.3964 101.7 63.4476 102.671C64.7158 103.272 65.7314 104.287 66.3197 105.543L73.4827 120.825H87.7994L83.9668 106.624C82.843 102.46 80.3486 98.7771 76.8722 96.15C73.3958 93.523 69.1326 92.0988 64.7464 92.0994Z"
      fill="#CEC6B2"
    />
    <path
      d="M49.0078 120.825H53.6978C54.2776 120.825 54.8375 120.618 55.2726 120.241C55.7077 119.865 55.9882 119.346 56.0616 118.781L57.7307 105.932V77.6006H50.4534L51.8104 107.66C52.0138 112.17 50.6434 114.899 49.719 116.302C49.2526 117.015 49.0056 117.844 49.0078 118.691V120.825Z"
      fill="#E5DFDA"
    />
    <path
      d="M57.7319 78.2177V77.6006H50.4551L51.3398 97.2007C52.1566 96.7331 52.8649 96.103 53.4193 95.3509C53.9736 94.5987 54.3619 93.741 54.559 92.8328L57.7319 78.2177Z"
      fill="#93511B"
    />
    <path
      d="M71.7849 51.3427L71.4502 48.3931L63.9905 48.3137C61.9025 48.2914 59.8804 49.0311 58.3158 50.3896C56.7513 51.748 55.7558 53.6284 55.5221 55.6666L54.7733 62.2004C54.4941 64.6335 53.4575 66.9047 51.9001 68.8142C50.2146 70.881 49.2963 73.4502 49.2969 76.0983V77.288C49.2968 79.2075 49.7794 81.0973 50.7018 82.7895L57.8941 95.9893C58.475 97.0562 59.3399 97.9482 60.3966 98.57C61.4532 99.1918 62.6619 99.5202 63.8937 99.52C65.1252 99.52 66.3335 99.1917 67.3899 98.5702C68.4463 97.9487 69.3112 97.0572 69.8923 95.9908L77.0842 82.7915C78.0065 81.0995 78.489 79.2099 78.489 77.2905C78.489 73.732 77.682 70.2255 76.1803 66.9877C73.882 62.0338 72.3984 56.7532 71.7849 51.3427Z"
      fill="#E5DFDA"
    />
    <path
      d="M71.7884 51.3427L71.4536 48.3931L63.994 48.3137C61.906 48.2914 59.8838 49.0311 58.3193 50.3896C56.7548 51.748 55.7592 53.6284 55.5255 55.6666L54.7767 62.2004C54.6057 63.6482 54.1761 65.0551 53.5078 66.3564C54.092 67.412 54.9553 68.2934 56.0066 68.9076C57.0579 69.5219 58.2584 69.8463 59.4817 69.8467C60.7131 69.8466 61.9214 69.5183 62.9778 68.8968C64.0342 68.2752 64.8991 67.3838 65.4803 66.3174L72.171 54.0454C72.0206 53.151 71.8931 52.2501 71.7884 51.3427Z"
      fill="#CEC6B2"
    />
    <path
      d="M62.5422 64.4096C60.8929 64.4117 59.2595 64.0943 57.7354 63.4754C56.2113 62.8565 54.8264 61.9484 53.6602 60.803C54.4532 64.9129 58.1267 68.0218 62.5422 68.0218C66.9572 68.0218 70.6311 64.9129 71.4237 60.803C70.2575 61.9483 68.8727 62.8564 67.3487 63.4753C65.8247 64.0942 64.1913 64.4117 62.5422 64.4096Z"
      fill="#DB3333"
    />
    <path
      d="M98.4761 116.843H96.9579C96.4255 116.843 95.8982 116.946 95.4063 117.146C94.9144 117.346 94.4674 117.639 94.091 118.009C93.7145 118.379 93.4159 118.818 93.2122 119.301C93.0086 119.785 92.9038 120.303 92.9039 120.826H87.7994C86.1535 120.826 84.5751 120.183 83.4113 119.04C82.2476 117.897 81.5938 116.347 81.5938 114.73C81.5938 107.555 87.2046 101.666 94.3516 101.066C96.6062 100.876 98.5359 102.644 98.5266 104.867L98.4761 116.843Z"
      fill="#7E451E"
    />
    <path
      d="M94.3516 101.065C95.1958 100.994 96.0401 101.202 96.7504 101.656L89.9299 114.173C89.2161 115.488 88.0742 116.53 86.6866 117.133C85.299 117.735 83.7458 117.864 82.2751 117.498C81.8274 116.641 81.5939 115.693 81.5938 114.73C81.5938 107.554 87.2046 101.665 94.3516 101.065Z"
      fill="#93511B"
    />
    <path
      d="M80.6633 116.842H83.9958C84.5283 116.842 85.0556 116.945 85.5475 117.146C86.0395 117.346 86.4865 117.639 86.863 118.009C87.2395 118.379 87.5381 118.818 87.7419 119.301C87.9456 119.784 88.0504 120.302 88.0503 120.825H76.6088C76.6088 120.302 76.7136 119.784 76.9173 119.301C77.121 118.818 77.4197 118.379 77.7962 118.009C78.1727 117.639 78.6197 117.346 79.1116 117.146C79.6036 116.945 80.1308 116.842 80.6633 116.842ZM66.4558 119.087L66.3945 120.825H72.1593C72.9068 120.825 73.627 120.549 74.1766 120.051C74.7262 119.554 75.065 118.871 75.1257 118.139L78.333 79.4656C78.3527 79.228 78.3221 78.989 78.243 78.7636C78.164 78.5382 78.0382 78.3314 77.8737 78.1561C77.7092 77.9809 77.5094 77.8411 77.2871 77.7454C77.0648 77.6498 76.8247 77.6005 76.582 77.6006H72.9019C72.4473 77.6004 72.0103 77.7735 71.6829 78.0834C71.3556 78.3934 71.1634 78.816 71.1468 79.2623L70.0298 109.069C69.9278 111.784 68.9916 114.406 67.3442 116.588C66.7974 117.314 66.4876 118.185 66.4558 119.087Z"
      fill="#E5DFDA"
    />
    <path
      d="M67.2485 33.2048L68.5143 61.0551C68.6328 63.6647 71.0893 65.6628 73.6972 65.2738L74.7225 65.122C80.2957 64.2909 84.5073 59.9721 85.1186 54.463L85.9684 46.8006C86.1656 45.0186 85.2232 43.2507 83.5937 42.3493L81.3026 41.0766C77.0253 38.703 73.1206 35.7335 69.7101 32.2604C69.2899 31.8324 68.6627 31.6792 68.1183 31.885C67.8501 31.9867 67.6215 32.1691 67.4652 32.4062C67.309 32.6432 67.2331 32.9228 67.2485 33.2048ZM55.3929 32.2604C55.8188 31.8324 56.4481 31.6792 56.9894 31.885C57.2563 31.9869 57.483 32.1699 57.6364 32.4074C57.7899 32.6448 57.862 32.9242 57.8422 33.2048L56.2133 61.0551C56.0588 63.6647 53.5797 65.6628 50.9754 65.2738L49.9521 65.122C44.3902 64.2909 40.2332 59.9721 39.6945 54.463L38.9648 47.0004C38.8005 45.3206 39.5905 43.6341 41.0247 42.5997L55.3929 32.2604Z"
      fill="#7E451E"
    />
    <path
      d="M57.7139 31.1684C60.9042 30.7166 64.1437 30.7147 67.3345 31.1629C68.3992 31.318 69.3677 31.855 70.0531 32.6703L70.3621 33.0329C70.7293 33.4659 70.9656 33.9814 71.1346 34.5201C71.253 34.9005 71.4653 35.2463 71.7526 35.5267L72.525 36.2779C74.2482 37.9578 75.203 40.2801 75.0444 42.66C74.9427 44.2273 74.5384 45.7613 73.8532 47.1802C72.7419 49.477 71.9619 51.9148 71.5357 54.4232C71.0723 57.1239 68.675 59.0906 65.8868 59.0906H59.1992C56.411 59.0906 54.0117 57.1239 53.5503 54.4232C53.1239 51.9149 52.3439 49.4771 51.2328 47.1802C50.5475 45.7612 50.1429 44.2273 50.0406 42.66C49.8815 40.2826 50.8368 37.9557 52.5599 36.2779L53.3324 35.5267C53.6198 35.2464 53.8321 34.9006 53.9504 34.5201C54.1183 33.9809 54.3547 33.4639 54.7229 33.0294L55.0319 32.6632C55.7067 31.856 56.6624 31.3233 57.7139 31.1684Z"
      fill="#93511B"
    />
    <path
      d="M54.7168 53.3396C54.7249 52.5216 54.9107 51.7147 55.2617 50.9728C55.6126 50.2309 56.1207 49.5711 56.752 49.0375C58.4134 47.6333 59.636 45.7961 60.1257 43.6984L61.1325 39.3988C61.2597 38.855 61.68 38.4018 62.2356 38.2859C62.6042 38.2077 62.9894 38.2753 63.3075 38.4742C63.6257 38.673 63.8512 38.9871 63.9351 39.3482L64.9429 43.6888C65.4259 45.764 66.5902 47.6256 68.2564 48.9869C68.9051 49.5171 69.4293 50.179 69.793 50.927C70.1567 51.675 70.3512 52.4915 70.3632 53.3204V55.5334C70.3632 56.9286 69.7989 58.2667 68.7945 59.2533C67.7901 60.2399 66.4278 60.7941 65.0073 60.7941H60.0742C58.6538 60.7941 57.2915 60.2399 56.287 59.2533C55.2826 58.2667 54.7183 56.9286 54.7183 55.5334L54.7168 53.3396Z"
      fill="#E5DFDA"
    />
    <path
      d="M60.9854 55.439L59.1783 53.057C58.0773 51.6058 59.132 49.542 60.9751 49.542H64.1094C65.952 49.542 67.0067 51.6058 65.9056 53.057L64.1016 55.439C63.921 55.6778 63.6861 55.8718 63.4155 56.0054C63.145 56.139 62.8464 56.2086 62.5435 56.2086C62.2407 56.2086 61.9421 56.139 61.6715 56.0054C61.401 55.8718 61.166 55.6778 60.9854 55.439Z"
      fill="#0E0F2D"
    />
    <path
      d="M64.1053 49.5437H60.9809C60.5534 49.5409 60.1343 49.6594 59.7737 49.8849C59.4131 50.1104 59.1265 50.4333 58.9482 50.8149C58.7057 51.3253 59.3721 51.7952 59.7835 51.4032C60.1508 51.0535 60.6435 50.86 61.155 50.8645H63.9307C64.5348 50.8645 64.9803 51.0921 65.296 51.4022C65.7116 51.8099 66.3903 51.3602 66.1473 50.8352C65.9713 50.4484 65.6846 50.1203 65.322 49.891C64.9593 49.6616 64.5366 49.541 64.1053 49.5437Z"
      fill="#2E2B33"
    />
    <path
      d="M62.9554 114L61.4939 110.395C60.3516 107.577 62.4651 104.515 65.554 104.515L62.9554 114Z"
      fill="#E5DFDA"
    />
    <path
      d="M60.9744 59.6549H64.1086C64.4909 59.6524 64.8674 59.7475 65.201 59.931C65.5346 60.1145 65.8139 60.38 66.0115 60.7015C66.8833 60.5394 67.7001 60.1663 68.3881 59.616H66.6851C66.1041 59.6163 65.5311 59.4832 65.0118 59.2274C64.4925 58.9716 64.0412 58.6 63.694 58.1425L63.4417 57.8097C63.3372 57.6715 63.2013 57.5594 63.0448 57.4821C62.8883 57.4048 62.7156 57.3645 62.5404 57.3645C62.3653 57.3645 62.1925 57.4048 62.0361 57.4821C61.8796 57.5594 61.7437 57.6715 61.6392 57.8097L61.3869 58.1425C61.0399 58.6004 60.5887 58.9723 60.0694 59.2285C59.5501 59.4846 58.9769 59.618 58.3958 59.618H56.6953C57.3832 60.1683 58.1999 60.5413 59.0715 60.7035C59.2688 60.3816 59.548 60.1157 59.8816 59.9318C60.2152 59.748 60.5918 59.6526 60.9744 59.6549Z"
      fill="#CEC6B2"
    />
    <path
      d="M63.0393 67.8995C63.0393 67.8353 63.0264 67.7717 63.0014 67.7124C62.9764 67.653 62.9397 67.5991 62.8935 67.5537C62.8472 67.5082 62.7923 67.4722 62.7319 67.4476C62.6715 67.4231 62.6067 67.4104 62.5413 67.4104C62.4759 67.4103 62.4111 67.4229 62.3506 67.4475C62.2901 67.472 62.2352 67.5081 62.1889 67.5535C62.1426 67.5989 62.1058 67.6529 62.0808 67.7122C62.0557 67.7716 62.0428 67.8353 62.0428 67.8995C62.0418 68.0483 61.9959 68.1935 61.9108 68.3166C61.8257 68.4397 61.7053 68.5352 61.5649 68.591C61.096 68.7823 60.6961 69.1069 60.4165 69.5231C60.137 69.9394 59.9906 70.4283 59.9962 70.927C60.0107 72.2421 61.105 73.3474 62.4414 73.3975C63.0381 73.4212 63.6244 73.238 64.0975 72.88C64.5706 72.522 64.9004 72.012 65.0293 71.4393C65.1582 70.8665 65.078 70.2674 64.8026 69.7469C64.5272 69.2264 64.0742 68.8176 63.5229 68.592C63.3818 68.5362 63.2607 68.4407 63.1747 68.3175C63.0887 68.1943 63.0416 68.0489 63.0393 67.8995Z"
      fill="#BBBDBF"
    />
    <path
      d="M70.7771 42.4801C70.6403 42.1598 70.4098 41.8867 70.1149 41.6951C69.8199 41.5036 69.4737 41.4023 69.1201 41.4041C68.7666 41.4059 68.4214 41.5106 68.1285 41.7052C67.8356 41.8997 67.608 42.1752 67.4745 42.4968M57.4837 42.3101C57.3245 42.0274 57.0888 41.7934 56.8028 41.6339C56.5168 41.4743 56.1915 41.3954 55.8627 41.4059C55.5339 41.4163 55.2145 41.5157 54.9396 41.6931C54.6647 41.8706 54.445 42.1191 54.3047 42.4113"
      stroke="#0E0F2D"
      stroke-miterlimit="10"
      stroke-linecap="round"
    />
    <path
      d="M61.1665 61.8452H63.9392C65.0503 61.8453 66.1196 61.4292 66.9292 60.6818C67.9504 59.7379 68.4474 59.3717 69.2343 58.0843C69.2799 58.0099 69.3095 57.9271 69.3212 57.841C69.333 57.7549 69.3265 57.6674 69.3024 57.5838C69.2783 57.5002 69.2369 57.4224 69.1809 57.3552C69.1249 57.288 69.0554 57.2328 68.9768 57.193C68.6678 57.0382 68.2929 57.1723 68.1116 57.4611C67.4087 58.5805 66.0233 59.096 64.6421 58.6246C63.9819 58.3995 63.4736 57.8987 63.1394 57.2957C63.0974 57.2119 63.0386 57.1373 62.9665 57.0764C62.8943 57.0156 62.8104 56.9697 62.7197 56.9416C62.5765 56.903 62.4242 56.9139 62.2883 56.9726C62.1524 57.0313 62.0413 57.1341 61.9735 57.2639C61.2525 58.6468 59.4984 59.2644 57.9051 58.4C57.5271 58.1951 57.2495 57.8617 57.0151 57.5056C56.9683 57.4345 56.9073 57.3732 56.8359 57.3256C56.7645 57.278 56.6841 57.2449 56.5994 57.2284C56.5147 57.2118 56.4276 57.2121 56.343 57.2292C56.2585 57.2464 56.1783 57.28 56.1072 57.3281C55.8111 57.5304 55.7601 57.9412 55.9584 58.2356C56.7767 59.4496 57.1212 59.6903 58.162 60.6636C58.9722 61.4213 60.0478 61.8443 61.1665 61.8452Z"
      fill="#0E0F2D"
    />
    <path
      d="M62.5406 65.3953C63.4901 65.3951 64.4007 65.0246 65.0721 64.3652C65.7435 63.7057 66.1207 62.8113 66.1208 61.8787V60.7917C66.1208 60.6293 66.0883 60.4686 66.025 60.3186C65.9618 60.1687 65.869 60.0324 65.7522 59.9177C65.6353 59.8029 65.4965 59.7119 65.3438 59.6498C65.1911 59.5878 65.0275 59.5558 64.8622 59.5559H60.2191C59.8854 59.5559 59.5654 59.6861 59.3294 59.9179C59.0935 60.1496 58.9609 60.4639 58.9609 60.7917V61.8787C58.9609 62.8113 59.3381 63.7057 60.0094 64.3651C60.6807 65.0246 61.5912 65.3951 62.5406 65.3953Z"
      fill="#F77A7A"
    />
    <path
      d="M60.2197 59.5552C59.9906 59.5553 59.766 59.6173 59.5703 59.7342C59.8979 60.2126 60.3403 60.6045 60.8583 60.8754C61.3764 61.1464 61.9543 61.2881 62.5413 61.2881C63.1282 61.2881 63.7062 61.1464 64.2242 60.8754C64.7423 60.6045 65.1846 60.2126 65.5123 59.7342C65.3166 59.6172 65.0919 59.5553 64.8629 59.5552H60.2197Z"
      fill="#C1697C"
    />
    <path
      d="M50.9688 60.9087H43.2887V58.033C43.2887 57.8318 43.3701 57.6388 43.515 57.4965C43.6598 57.3542 43.8563 57.2743 44.0612 57.2743H50.1896C50.3944 57.2743 50.5909 57.3542 50.7358 57.4965C50.8807 57.6388 50.9621 57.8318 50.9621 58.033V60.9087H50.9688Z"
      fill="#E5DFDA"
    />
    <path
      d="M45.0173 60.9087H45.9648V57.2722H45.0173V60.9087Z"
      fill="#BBBDBF"
    />
    <path
      d="M50.9688 60.9087H47.9452V57.2722H50.1937C50.3986 57.2722 50.595 57.3522 50.7399 57.4945C50.8848 57.6368 50.9662 57.8298 50.9662 58.031V60.9087H50.9688Z"
      fill="#BBBDBF"
    />
    <path
      d="M81.4379 58.8306H60.104C58.1633 58.8307 56.2392 59.1829 54.4288 59.8696C52.6188 60.5565 50.6951 60.9089 48.7546 60.909H43.2891"
      stroke="#2BAC82"
      stroke-width="1.28"
      stroke-miterlimit="10"
      stroke-linecap="round"
    />
    <path
      d="M57.012 57.506C57.2463 57.8601 57.527 58.1955 57.9019 58.4004C59.4984 59.2648 61.2494 58.6472 61.9703 57.2642C62.0381 57.1345 62.1493 57.0317 62.2852 56.973C62.4211 56.9143 62.5734 56.9034 62.7166 56.942C62.8073 56.9701 62.8912 57.016 62.9634 57.0768C63.0355 57.1377 63.0943 57.2123 63.1363 57.2961C63.4705 57.8991 63.9788 58.3998 64.639 58.6249C66.0202 59.0954 67.4055 58.5799 68.1085 57.4615C68.1675 57.3688 68.2481 57.2912 68.3436 57.2352C68.4392 57.1792 68.5469 57.1463 68.658 57.1393V56.2065H56.6953V57.2688C56.8242 57.3123 56.9353 57.3955 57.012 57.506Z"
      fill="#E5DFDA"
    />
  </svg>
 
