<svg width="500" height="500" viewBox="0 0 500 500" fill="none" xmlns="http://www.w3.org/2000/svg">
<path d="M141.369 460.217C141.369 454.193 181.288 449.311 230.528 449.311C279.77 449.311 319.687 454.193 319.687 460.217C319.687 466.241 279.77 471.122 230.528 471.122C181.288 471.122 141.369 466.241 141.369 460.217Z" fill="#E9EFFF"/>
<path d="M380.705 419.904C390.797 412.896 400.315 419.517 405.62 423.912C402.37 425.823 388.767 432.778 380.705 419.904Z" fill="#807DFB"/>
<path d="M279.443 381.929C300.01 397.144 338.255 414.999 382.555 420.281" stroke="#807DFB" stroke-linecap="round" stroke-linejoin="round"/>
<path d="M290.62 395.799C303.376 417.081 290.321 429.802 280.746 439.9C277.336 433.092 263.588 410.302 290.62 395.799ZM311.274 407.578C325.443 421.579 317.832 434.077 312.405 443.841C308.395 439.229 293.154 424.255 311.274 407.578ZM335.86 415.69C350.516 424.538 346.671 436.512 344.1 445.762C339.822 442.716 324.074 433.27 335.86 415.69ZM360.193 421.583C370.474 424.326 370.251 432.139 370.319 438.105C367.237 437.027 356.203 434.116 360.193 421.583ZM298.839 385.794C320.476 389.138 326.529 374.236 331.596 363.053C324.896 362.53 301.698 358.877 298.839 385.794ZM321.542 398.184C339.53 403.938 346.687 392.053 352.508 383.203C346.871 381.86 327.592 375.631 321.542 398.184ZM350.458 408.731C363.358 409.109 365.811 399.952 367.957 393.042C364.003 393.225 350.169 392.78 350.458 408.731ZM370.443 414.466C377.79 416.061 380.173 411.078 382.142 407.35C379.857 407.032 371.982 405.297 370.443 414.466Z" fill="#807DFB"/>
<path d="M254.538 403.01C247.93 426.477 263.904 442.765 292.356 446.646C294.088 424.273 280.845 398.716 254.538 403.01Z" fill="#BBC0E6"/>
<path d="M182.699 400.876C192.725 417.511 183.888 433.392 162.849 442.369C156.802 425.549 161.587 403.123 182.699 400.876Z" fill="#362E94"/>
<path d="M246.867 402.23C249.137 406.85 296.543 416.805 299.042 407.862C300.986 400.899 293.642 398.679 290.914 398.082C286.614 397.143 276.124 395.56 277.323 392.487C279.493 386.928 305.51 394.32 311.958 395.73C318.407 397.14 331.316 398.125 336.473 392.955C341.632 387.786 343.129 385.096 331.707 383.255C320.285 381.414 297.335 380.596 303.844 375.196C310.351 369.796 328.017 374.576 339.146 373.6C350.275 372.62 371.128 366.98 365.781 360.528C361 354.761 328.881 362.302 330.113 356.668C331.097 352.161 340.562 353.443 355.037 350.834C369.51 348.227 383.146 345.616 382.387 336.872C381.778 329.851 372.864 333.479 365.042 334.786C357.221 336.092 346.256 337.503 348.303 333.487C350.349 329.476 389.214 326.779 390.759 315.22C391.78 307.573 383.672 310.784 374.484 311.793C365.299 312.803 361.993 312.474 362.402 310.595C362.814 308.718 374.986 305.344 381.719 303.667C388.453 301.99 397.536 297.285 396.192 290.956C394.846 284.629 384.335 288.43 380.778 290.736C377.22 293.04 372.848 293.725 372.171 292.66C371.494 291.593 382.694 283.152 377.44 278.068C372.184 272.984 362.266 282.097 360.705 289.234C359.147 296.371 356.79 305.958 354.186 305.388C351.582 304.818 353.387 296.556 354.81 290.045C356.235 283.533 355.311 280.621 353.575 280.242C347.789 278.976 341.058 286.383 340.019 291.14C338.978 295.899 336.62 323.327 332.776 322.486C328.932 321.645 330.9 311.449 332.05 306.19C333.2 300.932 335.883 288.663 329.434 287.253C322.985 285.843 315.899 301.612 314.331 311.763C312.761 321.915 311.464 338.555 308.487 337.904C305.51 337.252 304.306 323.74 305.702 317.355C307.099 310.969 312.814 300.28 304.876 298.545C296.938 296.81 293.195 306.208 290.455 318.743C289.31 323.983 286.607 336.978 289.473 344.974C292.737 354.076 292.87 359.149 290.79 360.01C286.647 361.729 284.844 353.333 284.917 347.052C284.991 340.77 286.395 321.268 276.7 322.821C267.005 324.376 269.878 340.354 270.399 346.894C270.917 353.437 274.752 376.314 269.753 377.19C264.754 378.065 265.947 365.469 265.902 361.522C265.854 357.577 263.149 349.443 260.046 351.454C256.942 353.466 242.821 393.992 246.867 402.23Z" fill="#DDE2F8"/>
<path d="M189.068 389.826C177.575 400.273 151.784 402.255 140.231 392.276C128.679 382.297 134.877 369.185 127.12 365.519C119.362 361.852 102.142 368.057 94.7167 359.016C81.5215 342.949 111.446 326.249 102.937 313.415C94.4287 300.58 78.3458 310.943 68.5125 300.194C58.6792 289.446 84.1765 277.093 78.1861 260.365C72.1958 243.637 65.9581 205.815 88.221 204.832C105.817 204.055 97.834 224.902 104.09 229.224C111.225 234.153 118.564 225.85 125.238 233.006C134.669 243.116 124.288 258.204 133.399 265.221C142.509 272.239 153.988 262.298 159.101 276.578C165.432 294.257 137.066 302.881 155.076 319.754C173.086 336.628 183.609 306.615 196.195 315.463C209.934 325.121 189.933 347.907 200.57 352.103C215.044 357.813 206.895 373.623 189.068 389.826Z" fill="#807DFB"/>
<path d="M185.786 392.342C182.578 389.695 171.654 387.47 169.024 380.126C166.394 372.781 166.733 364.348 162.027 357.16C151.529 341.125 134.836 342.501 128.02 333.106C122.957 326.128 130.989 321.477 127.288 311.14C123.588 300.804 117.505 305.673 112.998 293.087C109.005 281.935 116.6 280.006 113.009 268.264C107.615 250.632 93.72 248.587 91.8635 242.425C90.2364 237.024 93.5697 234.165 93.5697 234.165" stroke="#6B67E9" stroke-linecap="round" stroke-linejoin="round"/>
<path d="M185.579 392.927C175.512 428.923 141.604 437.501 101.266 419.884C116.844 389.215 154.57 366.322 185.579 392.927Z" fill="#5652CC"/>
<path d="M185.581 392.927C170.36 396.85 134.887 410.999 111.746 417.068" stroke="#423EAF" stroke-linecap="round" stroke-linejoin="round"/>
<path d="M194.722 149.249C184.261 137.847 153.996 91.8811 141.31 63.7946M143.266 93.4676C143.364 92.7896 143.259 92.0977 142.964 91.4794C142.669 90.8611 142.197 90.3442 141.608 89.994C141.019 89.6439 140.339 89.4763 139.655 89.5123C138.971 89.5483 138.313 89.7865 137.764 90.1965C137.215 90.6066 136.8 91.1702 136.572 91.8161C136.343 92.462 136.312 93.1611 136.48 93.8251C136.649 94.4891 137.011 95.0881 137.52 95.5464C138.03 96.0047 138.663 96.3017 139.341 96.3998C140.251 96.5313 141.175 96.2963 141.911 95.7464C142.647 95.1965 143.134 94.3768 143.266 93.4676ZM143.266 93.4676C145.633 93.8101 154.692 95.6555 160.3 98.9641M174.505 102.378C173.735 102.267 173.016 101.93 172.438 101.41C171.86 100.89 171.449 100.21 171.258 99.4562C171.066 98.7026 171.102 97.9091 171.361 97.176C171.621 96.443 172.091 95.8032 172.714 95.3377C173.337 94.8722 174.084 94.6019 174.861 94.5609C175.637 94.5199 176.408 94.7101 177.077 95.1075C177.745 95.5048 178.281 96.0914 178.616 96.7931C178.951 97.4948 179.07 98.2801 178.959 99.0497C178.81 100.082 178.256 101.012 177.421 101.636C176.586 102.26 175.537 102.527 174.505 102.378ZM174.505 102.378C173.37 104.269 171.041 113.888 171.73 117.26M150.904 64.8174C150.356 67.4609 148.212 75.8786 148.862 78.9305M166.408 127.123C168.859 127.951 180.552 132.163 182.631 133.454M139.09 64.1961C138.39 64.0947 137.736 63.7881 137.21 63.3148C136.684 62.8415 136.31 62.223 136.136 61.5373C135.961 60.8516 135.994 60.1296 136.23 59.4626C136.466 58.7956 136.895 58.2136 137.462 57.7901C138.028 57.3666 138.708 57.1208 139.414 57.0836C140.121 57.0464 140.823 57.2195 141.431 57.5811C142.039 57.9427 142.526 58.4765 142.831 59.1151C143.136 59.7536 143.244 60.4681 143.143 61.1683C143.076 61.6333 142.917 62.0804 142.677 62.4842C142.437 62.888 142.12 63.2405 141.744 63.5217C141.367 63.8028 140.939 64.0071 140.484 64.1228C140.029 64.2385 139.555 64.2634 139.09 64.1961ZM161.73 129.515C160.839 129.387 160.006 128.996 159.337 128.394C158.668 127.792 158.192 127.005 157.97 126.133C157.749 125.261 157.79 124.342 158.091 123.493C158.391 122.645 158.936 121.904 159.657 121.366C160.378 120.827 161.243 120.514 162.142 120.467C163.041 120.419 163.933 120.64 164.707 121.1C165.481 121.56 166.101 122.239 166.488 123.051C166.876 123.864 167.014 124.773 166.885 125.664C166.712 126.858 166.072 127.935 165.105 128.657C164.138 129.379 162.924 129.688 161.73 129.515ZM151.315 64.9104C150.734 64.8262 150.191 64.5717 149.754 64.1788C149.318 63.786 149.008 63.2726 148.863 62.7034C148.718 62.1343 148.746 61.535 148.941 60.9814C149.137 60.4278 149.493 59.9447 149.963 59.5932C150.434 59.2417 150.998 59.0375 151.584 59.0066C152.171 58.9756 152.753 59.1193 153.258 59.4194C153.763 59.7194 154.167 60.1624 154.42 60.6924C154.673 61.2223 154.763 61.8154 154.679 62.3966C154.624 62.7825 154.492 63.1537 154.293 63.489C154.094 63.8242 153.831 64.1169 153.518 64.3503C153.206 64.5837 152.85 64.7533 152.472 64.8494C152.094 64.9455 151.701 64.9662 151.315 64.9104Z" stroke="#807DFB" stroke-linecap="round" stroke-linejoin="round"/>
<path d="M283.578 135.592C282.864 138.198 281.818 141.061 281.818 141.061C283 141.713 288.782 144.952 288.782 144.952C289.838 142.759 294.521 134.855 294.521 134.855L283.578 135.592Z" fill="#F0CCC0"/>
<path d="M262.467 116.188C261.622 116.556 261.829 118.896 262.929 121.414C264.029 123.931 265.605 125.672 266.45 125.303L271.234 123.213L267.251 114.097L262.467 116.188Z" fill="#362E94"/>
<path d="M290.934 95.1487L267.128 105.55C264.945 106.504 265.48 112.551 268.323 119.057C271.165 125.563 275.239 130.063 277.422 129.11L301.229 118.708C303.412 117.754 302.877 111.707 300.034 105.201C297.191 98.695 293.118 94.1941 290.934 95.1487Z" fill="#5652CC"/>
<path d="M293.898 98.5213C292.442 99.1579 292.798 103.193 294.695 107.533C296.592 111.874 299.309 114.877 300.766 114.241L343.232 114.591L323.204 67.6279L293.898 98.5213Z" fill="#807DFB"/>
<path d="M326.304 94.2569C320.625 81.2597 319.556 69.179 323.917 67.2742C328.277 65.369 336.415 74.36 342.094 87.3573C347.773 100.354 348.841 112.434 344.481 114.34C340.121 116.245 331.982 107.253 326.304 94.2569Z" fill="#5652CC"/>
<path d="M323.656 87.2741C325.19 92.0168 327.191 96.5956 329.629 100.943C331.347 100.091 332.672 98.611 333.329 96.8088C333.985 95.0066 333.923 93.0208 333.155 91.2632C332.387 89.5056 330.972 88.1108 329.204 87.3681C327.435 86.6254 325.449 86.5918 323.656 87.2741Z" fill="#FCBA06"/>
<path d="M273.132 115.077C270.876 109.205 270.585 104.039 272.588 103.164L270.866 103.917C268.863 104.792 269.154 109.958 271.411 115.829L273.132 115.077ZM276.851 113.452C274.595 107.581 274.303 102.415 276.306 101.54L274.584 102.292C272.581 103.167 272.872 108.333 275.129 114.205L276.851 113.452ZM280.57 111.827C278.313 105.956 278.022 100.79 280.025 99.9149L278.301 100.668C276.299 101.543 276.591 106.708 278.848 112.58L280.57 111.827ZM284.288 110.203C282.032 104.331 281.74 99.1656 283.743 98.29L282.021 99.043C280.017 99.918 280.308 105.085 282.566 110.955L284.288 110.203ZM281.76 127.214C283.638 131.514 291.991 145.87 297.123 148.867C299.322 147.905 301.275 147.052 302.111 146.687C302.947 146.322 303.529 145.625 302.449 144.547C301.37 143.469 294.818 132.107 291.364 123.018C290.063 123.587 281.76 127.214 281.76 127.214Z" fill="#362E94"/>
<path d="M352.586 83.8755L388.152 68.3359" stroke="#FCBA06" stroke-width="1.5" stroke-linecap="round" stroke-linejoin="round"/>
<path d="M346.475 75.3673L375.33 49.4082" stroke="#FCBA06" stroke-width="1.5" stroke-linecap="round" stroke-linejoin="round"/>
<path d="M354.678 94.14L393.329 90.6055" stroke="#FCBA06" stroke-width="1.5" stroke-linecap="round" stroke-linejoin="round"/>
<path d="M293.149 127.333C291.937 127.959 290.813 128.59 289.806 129.227C290.469 128.06 290.828 127.105 290.518 126.898C289.697 126.352 287.144 128.197 284.343 130.09C281.901 131.785 284.177 134.374 283.006 137.53C284.278 137.521 285.639 137.086 286.045 137.567C287.737 139.578 295.604 139.811 298.102 137.353C300.872 134.628 295.777 125.977 293.149 127.333Z" fill="#F0CCC0"/>
<path d="M89.5362 368.145L87.7488 369.534C85.1601 366.593 81.6333 363.339 77.1684 359.772L68.175 352.556C62.7776 348.237 59.1847 344.926 57.3963 342.623C55.7763 340.537 55.0947 338.374 55.3515 336.132C55.6087 333.892 56.7393 331.993 58.7435 330.435C59.625 329.709 60.646 329.172 61.7434 328.855C62.8408 328.539 63.9914 328.451 65.1241 328.597C66.2568 328.743 67.3476 329.119 68.3293 329.703C69.311 330.286 70.1627 331.065 70.8318 331.99C72.4309 334.049 74.7416 338.421 77.7638 345.107L82.491 355.637C84.5155 359.981 86.8709 364.163 89.5362 368.145ZM93.1967 374.618C94.5001 373.597 96.077 372.986 97.7279 372.862C99.3788 372.738 101.029 373.106 102.471 373.92C103.912 374.734 105.08 375.958 105.826 377.436C106.572 378.914 106.863 380.58 106.661 382.223C106.46 383.866 105.776 385.413 104.695 386.667C103.615 387.922 102.186 388.827 100.591 389.269C98.9956 389.712 97.3049 389.671 95.7327 389.152C94.1606 388.633 92.7778 387.659 91.7593 386.354C91.0729 385.496 90.5668 384.509 90.2711 383.452C89.9755 382.394 89.8965 381.287 90.0389 380.198C90.1497 379.1 90.4877 378.037 91.0313 377.076C91.5749 376.116 92.3123 375.278 93.1967 374.618Z" fill="#FCBA06"/>
<path d="M172.627 161.71C168.224 179.228 147.267 189.467 130.365 185.219C113.462 180.971 100.153 163.059 104.401 146.156L109.776 124.772C110.334 122.546 111.325 120.451 112.693 118.608C114.06 116.765 115.778 115.209 117.747 114.03C119.716 112.851 121.899 112.072 124.169 111.736C126.44 111.401 128.754 111.516 130.98 112.076C133.206 112.635 135.3 113.628 137.142 114.997C138.985 116.366 140.539 118.085 141.717 120.055C142.894 122.025 143.672 124.207 144.006 126.478C144.34 128.749 144.223 131.063 143.662 133.289L140.014 147.966L172.627 161.71Z" fill="#CED3F8"/>
<path d="M119.266 124.922C119.183 125.252 119.004 125.551 118.751 125.779C118.499 126.008 118.184 126.156 117.847 126.206C117.51 126.256 117.166 126.205 116.858 126.059C116.55 125.913 116.292 125.679 116.117 125.387C115.942 125.094 115.858 124.757 115.875 124.416C115.892 124.076 116.01 123.748 116.213 123.475C116.416 123.202 116.696 122.994 117.017 122.88C117.337 122.765 117.685 122.749 118.015 122.832C118.235 122.887 118.441 122.985 118.623 123.119C118.804 123.254 118.958 123.424 119.074 123.618C119.19 123.812 119.267 124.027 119.3 124.251C119.333 124.474 119.321 124.703 119.266 124.922Z" fill="#5652CC"/>
<path d="M108.584 129.508L99.3776 131.579C99.2925 131.598 99.2167 131.646 99.1631 131.715C99.1096 131.784 99.0817 131.869 99.0841 131.956C99.0866 132.044 99.1193 132.127 99.1767 132.193C99.234 132.259 99.3124 132.303 99.3985 132.317L107.538 133.67L108.584 129.508ZM108.584 129.508L101.451 123.33C101.385 123.273 101.341 123.195 101.326 123.109C101.312 123.023 101.327 122.934 101.371 122.858C101.414 122.783 101.483 122.725 101.564 122.694C101.646 122.663 101.736 122.661 101.818 122.689L109.63 125.346L108.584 129.508Z" fill="#423EAF"/>
<path d="M173.835 151.52L137.862 142.479C136.258 142.076 134.573 142.134 133.001 142.648C131.428 143.161 130.033 144.108 128.976 145.38L120.165 155.984C119.238 157.099 118.788 158.534 118.913 159.978C119.039 161.423 119.729 162.759 120.834 163.697C122.351 164.977 124.124 165.918 126.033 166.458L147.444 171.839C147.95 171.976 148.488 171.934 148.966 171.719C149.445 171.505 149.834 171.131 150.069 170.662C150.272 170.235 150.333 169.753 150.243 169.288C150.153 168.823 149.917 168.399 149.569 168.078L153.457 169.055C154.093 169.228 154.77 169.174 155.371 168.905C155.973 168.635 156.463 168.166 156.758 167.576C157.013 167.038 157.089 166.433 156.976 165.849C156.863 165.265 156.566 164.732 156.128 164.329L159.811 165.255C160.447 165.427 161.124 165.373 161.725 165.103C162.326 164.834 162.816 164.364 163.111 163.775C163.366 163.237 163.442 162.632 163.329 162.048C163.216 161.463 162.919 160.931 162.482 160.527L163.578 160.802C164.214 160.974 164.89 160.921 165.491 160.652C166.093 160.383 166.582 159.914 166.878 159.325C167.134 158.788 167.211 158.182 167.098 157.598C166.985 157.014 166.688 156.481 166.25 156.077C170.384 156.685 173.324 153.552 173.835 151.52Z" fill="#DDE2F8"/>
<path d="M291.598 48.1917L241.475 28.876L230.718 56.7896L280.841 76.1052L291.598 48.1917Z" fill="#FCBA06"/>
<path d="M241.473 28.8774L261.157 52.492L291.597 48.1911L241.473 28.8774Z" fill="#FFD03E"/>
<path d="M241.473 28.8774L258.418 59.5984L291.597 48.1911L261.157 52.492L241.473 28.8774Z" fill="#ED9F00"/>
<path d="M384.506 167.468L385.856 184.665L403.054 183.314C406.455 183.047 409.7 181.777 412.38 179.665C415.059 177.554 417.053 174.695 418.107 171.45C419.162 168.206 419.231 164.721 418.305 161.438C417.38 158.154 415.501 155.218 412.907 153.002C410.314 150.786 407.121 149.389 403.733 148.988C400.345 148.586 396.914 149.198 393.874 150.747C390.834 152.295 388.321 154.71 386.654 157.687C384.986 160.663 384.239 164.067 384.506 167.468ZM396.957 162.065C397.759 161.126 398.821 160.447 400.009 160.112C401.197 159.777 402.457 159.801 403.631 160.183C404.805 160.564 405.839 161.285 406.603 162.255C407.367 163.224 407.827 164.398 407.924 165.629C408.02 166.859 407.75 168.091 407.146 169.168C406.543 170.244 405.634 171.118 404.534 171.678C403.434 172.238 402.193 172.46 400.967 172.314C399.742 172.169 398.587 171.663 397.648 170.862C396.39 169.787 395.611 168.256 395.481 166.606C395.351 164.957 395.883 163.323 396.957 162.065Z" fill="#CED3F8"/>
<path d="M382.691 261.271L288.352 242.508C287.42 242.323 286.535 241.956 285.745 241.429C284.956 240.901 284.278 240.223 283.75 239.434C283.222 238.644 282.855 237.758 282.67 236.827C282.485 235.896 282.485 234.937 282.67 234.006L293.039 181.872C293.413 179.991 294.519 178.336 296.114 177.27C297.708 176.205 299.661 175.816 301.542 176.19L309.482 177.77L312.69 161.639L324.148 180.686L395.881 194.953C397.762 195.327 399.417 196.433 400.482 198.028C401.548 199.623 401.936 201.575 401.562 203.456L391.194 255.59C390.819 257.471 389.713 259.126 388.119 260.191C386.524 261.257 384.572 261.645 382.691 261.271Z" fill="#5652CC"/>
<g style="mix-blend-mode:screen">
<path d="M375.747 221.625C374.438 222.498 372.836 222.816 371.293 222.509C369.75 222.203 368.392 221.296 367.518 219.988C366.643 218.681 365.285 217.775 363.743 217.468C362.201 217.161 360.599 217.479 359.291 218.352C357.984 219.226 356.383 219.544 354.841 219.237C353.298 218.931 351.941 218.024 351.067 216.716C350.193 215.41 348.836 214.503 347.293 214.196C345.751 213.89 344.15 214.208 342.842 215.081C341.534 215.954 339.932 216.272 338.389 215.965C336.846 215.658 335.488 214.752 334.613 213.444C333.739 212.137 332.381 211.231 330.839 210.924C329.296 210.617 327.695 210.935 326.387 211.808C325.08 212.681 323.479 213 321.936 212.693C320.394 212.386 319.037 211.479 318.163 210.172C317.289 208.865 315.931 207.959 314.389 207.652C312.847 207.345 311.246 207.663 309.938 208.536M373.99 230.455C372.682 231.329 371.08 231.647 369.537 231.34C367.994 231.033 366.636 230.126 365.761 228.819C364.887 227.512 363.529 226.605 361.987 226.298C360.444 225.992 358.843 226.31 357.535 227.183C356.228 228.056 354.627 228.374 353.084 228.068C351.542 227.761 350.185 226.854 349.311 225.547C348.437 224.24 347.079 223.334 345.537 223.027C343.995 222.72 342.394 223.038 341.086 223.911C339.777 224.784 338.176 225.102 336.633 224.796C335.09 224.489 333.732 223.582 332.857 222.274C331.982 220.967 330.625 220.061 329.082 219.754C327.54 219.447 325.939 219.765 324.631 220.638C323.323 221.512 321.722 221.83 320.18 221.523C318.638 221.217 317.281 220.31 316.407 219.003C315.532 217.696 314.175 216.789 312.633 216.483C311.091 216.176 309.49 216.494 308.182 217.367M372.383 238.535C371.075 239.408 369.473 239.726 367.93 239.419C366.387 239.112 365.029 238.205 364.155 236.898C363.28 235.591 361.922 234.685 360.38 234.378C358.838 234.071 357.236 234.389 355.928 235.262C354.621 236.135 353.02 236.454 351.478 236.147C349.935 235.84 348.578 234.933 347.704 233.626C346.83 232.319 345.472 231.413 343.93 231.106C342.388 230.799 340.787 231.117 339.479 231.99" stroke="#E19100" stroke-width="1.5" stroke-linecap="round"/>
</g>
<g style="mix-blend-mode:screen">
<path d="M334.059 200.653C334.143 200.232 334.35 199.845 334.653 199.541C334.957 199.238 335.343 199.031 335.764 198.947C336.185 198.864 336.621 198.907 337.018 199.071C337.414 199.235 337.753 199.513 337.992 199.87C338.23 200.227 338.358 200.647 338.358 201.076C338.358 201.505 338.23 201.924 337.992 202.281C337.753 202.638 337.415 202.916 337.018 203.081C336.622 203.245 336.185 203.288 335.764 203.204C335.2 203.092 334.703 202.76 334.383 202.281C334.064 201.803 333.947 201.217 334.059 200.653ZM343.14 202.459C343.224 202.038 343.43 201.651 343.734 201.347C344.037 201.044 344.424 200.837 344.845 200.754C345.266 200.67 345.702 200.713 346.099 200.877C346.495 201.041 346.834 201.319 347.072 201.676C347.311 202.033 347.438 202.453 347.438 202.882C347.438 203.311 347.311 203.731 347.072 204.087C346.834 204.444 346.495 204.722 346.099 204.887C345.702 205.051 345.266 205.094 344.845 205.01C344.28 204.898 343.784 204.566 343.464 204.087C343.144 203.609 343.028 203.023 343.14 202.459ZM352.221 204.265C352.304 203.844 352.511 203.457 352.814 203.154C353.118 202.85 353.505 202.643 353.925 202.56C354.346 202.476 354.783 202.519 355.179 202.683C355.576 202.847 355.915 203.125 356.153 203.482C356.392 203.839 356.519 204.259 356.519 204.688C356.519 205.117 356.392 205.536 356.153 205.893C355.915 206.25 355.576 206.528 355.179 206.693C354.783 206.857 354.347 206.9 353.926 206.816C353.361 206.704 352.864 206.372 352.545 205.893C352.225 205.415 352.108 204.829 352.221 204.265Z" fill="#DC8B00"/>
</g>
<path d="M280.204 140.733C276.622 151.176 269.952 164.842 263.355 177.738C256.168 167.56 246.307 149.763 237.523 144.418C237.523 144.418 226.897 175.633 236.178 184.689C245.459 193.747 254.258 202.187 265.85 205.149C279 200.755 287.71 150.109 288.776 142.561C285.864 142.246 282.991 141.634 280.204 140.733Z" fill="#ED9F00"/>
<path d="M291.008 142.088C291.008 142.088 281.055 138.421 280.437 138.086C279.348 139.783 277.209 144.007 277.027 144.065C278.77 145.013 288.808 149.808 289.13 149.705C289.602 148.746 291.008 142.088 291.008 142.088Z" fill="#FCBA06"/>
<path d="M256.947 249.304C256.947 274.192 256.86 385.76 256.86 436.719H247.816C242.737 424.086 208.879 273.338 205.443 249.304H256.947Z" fill="#362E94"/>
<path d="M247.816 440.028V436.719H256.861C256.929 438.763 257.277 440.788 257.896 442.737C255.547 443.64 252.107 441.308 247.816 440.028Z" fill="#F8D8D0"/>
<path d="M247.816 440.028C252.106 441.308 255.546 443.64 257.896 442.737C259.141 443.64 277.481 450.237 279.348 451.511C281.256 452.82 280.977 454.849 278.956 454.849C275.999 454.849 251.647 453.777 251.647 453.777C251.153 454.311 250.755 454.849 250.755 454.849H245.189C243.528 451.973 243.978 443.337 247.816 440.028Z" fill="#423EAF"/>
<path d="M181.322 440.028V436.719H190.365C190.434 438.763 190.783 440.788 191.401 442.737C189.05 443.64 185.612 441.308 181.322 440.028Z" fill="#F8D8D0"/>
<path d="M181.322 440.028C185.612 441.308 189.05 443.64 191.401 442.737C192.648 443.64 210.986 450.237 212.853 451.511C214.761 452.82 214.482 454.849 212.46 454.849C209.505 454.849 185.152 453.777 185.152 453.777C184.66 454.311 184.261 454.849 184.261 454.849H178.693C177.034 451.973 177.485 443.337 181.322 440.028ZM190.248 249.304C189.736 258.746 181.322 385.76 181.322 436.719H190.364C195.444 424.086 238.322 273.338 241.753 249.304H190.248Z" fill="#423EAF"/>
<path d="M190.249 249.304H256.947C255.208 225.194 254.686 163.871 243.626 150.38C235.624 140.618 229.146 139.698 221.179 139.554C215.59 139.453 198.96 138.912 194.31 144.208C180.279 160.187 192.517 215.453 190.249 249.304Z" fill="#FCBA06"/>
<path d="M187.504 180.201C187.585 184.199 187.767 188.349 188.005 192.584C190.858 188.319 196.069 180.195 197.174 176.167L187.504 180.201Z" fill="#ED9F00"/>
<path d="M208.563 120.657C209.297 123.819 211.128 136.257 208.397 139.764C210.366 141.26 220.754 143.363 228.525 140.25C226.856 138.193 223.816 135.151 225.546 131.294C227.431 127.093 231.9 131.996 234.303 125.184C237.108 117.241 236.613 102.216 232.596 98.4425C228.099 94.2185 219.512 89.3825 209.393 96.8655C201.134 102.97 207.07 114.231 208.563 120.657Z" fill="#F8D8D0"/>
<path d="M215.908 112.476C218.361 112.252 216.427 105.961 218.065 104.24C220 102.205 227.001 100.403 233.978 100.432C240.953 100.456 244.3 91.0052 239.498 87.7351C234.689 84.467 231.225 90.0433 227.82 89.295C223.858 88.4239 224.035 83.6778 218.398 84.773C213.188 85.7823 216.093 90.421 212.844 91.6435C209.496 92.9032 203.95 88.8727 200.317 94.7167C197.621 99.0526 202.562 100.894 202.535 105.402C202.519 108.217 196.463 117.166 204.304 119.854C212.149 122.54 209.61 115.087 208.879 111.974C208.154 108.861 209.359 106.63 210.932 106.399C212.499 106.164 212.405 112.8 215.908 112.476Z" fill="#20196F"/>
<path d="M188.359 252.844C195.112 260.426 212.126 263.737 213.898 259.637C216.581 253.427 201.551 250.601 201.551 250.601C207.72 250.465 210.374 249.937 210.173 248.604C208.391 247.415 198.839 248.306 193.117 245.799C186.648 244.445 184.622 248.648 188.359 252.844Z" fill="#F0CCC0"/>
<path d="M196.671 143.606C180.983 149.863 142.055 187.573 143.459 202.017C144.863 216.462 187.692 253.48 187.692 253.48C189.747 250.604 192.098 247.951 194.705 245.565C185.885 236.093 168.907 202.017 168.907 202.017C175.347 196.467 196.671 178.022 196.671 178.022V143.606Z" fill="#FCBA06"/>
<path d="M187.278 254.217C187.278 254.217 195.225 245.093 195.832 244.571C194.465 242.721 190.83 238.727 190.842 238.511C189.124 239.983 179.941 248.74 179.92 249.125C180.751 250.018 187.278 254.217 187.278 254.217Z" fill="#ED9F00"/>
<path d="M285.36 357.087C298.537 351.628 304.795 336.521 299.337 323.343C293.878 310.165 278.771 303.907 265.593 309.366C252.415 314.824 246.157 329.932 251.616 343.109C257.074 356.287 272.182 362.545 285.36 357.087Z" fill="#FCBA06"/>
<path d="M269.05 338.264C269.749 338.887 270.247 339.704 270.482 340.611C270.717 341.518 270.677 342.474 270.368 343.359C270.06 344.243 269.496 345.016 268.748 345.58C268 346.144 267.101 346.473 266.166 346.527C265.231 346.58 264.301 346.355 263.493 345.879C262.686 345.404 262.038 344.7 261.631 343.856C261.224 343.013 261.076 342.067 261.206 341.139C261.336 340.212 261.739 339.344 262.362 338.645C262.777 338.18 263.278 337.802 263.838 337.532C264.398 337.262 265.006 337.104 265.627 337.069C266.248 337.034 266.87 337.121 267.457 337.326C268.045 337.531 268.586 337.85 269.05 338.264ZM291.581 336.981C292.28 337.605 292.778 338.422 293.013 339.328C293.248 340.235 293.208 341.191 292.899 342.076C292.591 342.96 292.027 343.733 291.279 344.297C290.531 344.861 289.632 345.191 288.697 345.244C287.762 345.297 286.832 345.072 286.024 344.596C285.217 344.121 284.569 343.417 284.162 342.573C283.755 341.73 283.607 340.784 283.737 339.857C283.867 338.929 284.27 338.061 284.893 337.362C285.73 336.424 286.904 335.858 288.158 335.786C289.412 335.715 290.644 336.145 291.581 336.981ZM274.072 315.588C274.771 316.211 275.269 317.028 275.504 317.935C275.738 318.842 275.699 319.798 275.39 320.683C275.081 321.567 274.517 322.34 273.769 322.904C273.021 323.468 272.123 323.797 271.188 323.851C270.252 323.904 269.322 323.678 268.515 323.203C267.708 322.728 267.06 322.024 266.653 321.18C266.245 320.336 266.098 319.391 266.228 318.463C266.358 317.536 266.761 316.667 267.384 315.968C267.798 315.504 268.3 315.126 268.86 314.856C269.42 314.586 270.028 314.428 270.649 314.393C271.27 314.358 271.892 314.445 272.479 314.65C273.066 314.855 273.608 315.173 274.072 315.588Z" fill="white"/>
<path d="M269.987 323.324L266.826 337.596" stroke="white" stroke-linecap="round" stroke-linejoin="round"/>
<path d="M270.195 341.553L284.129 340.76" stroke="white" stroke-linecap="round" stroke-linejoin="round"/>
<path d="M72.8421 407.915L64.2515 404.503C64.054 404.424 63.8394 404.399 63.6291 404.43C63.4189 404.461 63.2204 404.546 63.0538 404.678L55.8032 410.409C55.6366 410.541 55.5076 410.714 55.4292 410.912C55.3508 411.109 55.3257 411.323 55.3565 411.533L56.6963 420.68C56.7271 420.89 56.8126 421.088 56.9441 421.254C57.0757 421.421 57.2488 421.55 57.4459 421.628L66.0355 425.042C66.2328 425.121 66.4472 425.146 66.6573 425.115C66.8674 425.084 67.0657 424.999 67.2322 424.867L74.4841 419.134C74.6506 419.002 74.7795 418.829 74.8579 418.632C74.9362 418.435 74.9613 418.22 74.9306 418.011L73.5919 408.864C73.5612 408.654 73.4757 408.456 73.3441 408.289C73.2125 408.123 73.0393 407.994 72.8421 407.915Z" fill="#DDE2F8"/>
<path d="M434.187 274.026L439.907 289.146C440.048 289.519 440.286 289.849 440.595 290.101C440.904 290.354 441.274 290.521 441.668 290.585C442.062 290.65 442.466 290.609 442.839 290.467C443.213 290.326 443.542 290.089 443.795 289.78L454.029 277.266C454.282 276.957 454.449 276.587 454.514 276.193C454.578 275.799 454.538 275.395 454.397 275.022C454.255 274.649 454.018 274.319 453.709 274.066C453.4 273.814 453.03 273.647 452.636 273.583L436.679 270.975C436.285 270.911 435.881 270.952 435.508 271.093C435.135 271.235 434.805 271.472 434.552 271.781C434.3 272.09 434.133 272.46 434.069 272.855C434.004 273.249 434.045 273.653 434.187 274.026Z" fill="#FCBA06"/>
<path d="M45.9222 93.9764L45.456 110.93C45.4443 111.348 45.543 111.763 45.7423 112.131C45.9417 112.5 46.2345 112.809 46.5914 113.029C46.9483 113.248 47.3567 113.369 47.7755 113.381C48.1942 113.392 48.6086 113.293 48.9769 113.093L63.8919 105.02C64.2604 104.821 64.5698 104.528 64.7892 104.171C65.0086 103.814 65.1303 103.406 65.1419 102.987C65.1534 102.568 65.0546 102.154 64.8553 101.785C64.656 101.417 64.3632 101.107 64.0063 100.888L49.556 92.0094C49.1993 91.7897 48.791 91.6679 48.3722 91.6562C47.9535 91.6445 47.539 91.7433 47.1706 91.9428C46.8022 92.1422 46.4929 92.4351 46.2737 92.7922C46.0545 93.1492 45.9333 93.5576 45.9222 93.9764Z" fill="#5652CC"/>
</svg>
