<svg width="151" height="178" viewBox="0 0 151 178" fill="none" xmlns="http://www.w3.org/2000/svg">
<rect x="0.5" y="0.898438" width="150" height="150" rx="75" fill="#BEC8FF"/>
<path d="M100.193 49.86C101.307 49.7461 102.309 49.8907 102.976 51.4277C103.369 52.3334 103.391 52.5565 103.349 53.6836C103.262 56.0029 102.443 57.5006 100.632 58.2913C99.452 58.8064 98.1728 58.8267 96.9289 58.6979C94.1206 58.4071 86.6097 54.7656 86.0694 53.8231C85.1333 52.1903 86.0587 49.595 87.6838 48.9031C88.1519 48.7039 88.6527 48.6709 89.1462 48.6534C92.7428 48.5253 96.5935 50.2283 100.193 49.86Z" fill="#FFA385"/>
<path d="M84.7436 52.3506C85.2875 53.0516 85.8641 53.7412 86.5787 54.2097C87.2934 54.6781 88.1722 54.9047 88.9673 54.6244C90.1236 54.2166 90.8443 52.7885 90.8322 51.4272C90.8201 50.0659 90.2004 48.7969 89.3969 47.7898C88.5934 46.7827 87.6071 45.988 86.6795 45.1271C84.8902 43.4664 83.2992 41.5357 81.9615 39.4014C81.7675 39.092 81.5734 38.7718 81.3005 38.5506C80.6474 38.0211 78.0166 39.2186 78.7514 40.8719C79.0577 41.5608 83.1893 50.3469 84.7436 52.3506Z" fill="#FFA385"/>
<path d="M89.8584 50.3774C89.8414 50.3774 89.824 50.3732 89.8073 50.3642C89.7413 50.3282 89.7108 50.2314 89.739 50.1478C89.8873 49.7091 89.9266 49.2105 89.8498 48.7435C89.8351 48.6544 89.8802 48.5672 89.9504 48.5486C90.0205 48.5294 90.0895 48.5871 90.1042 48.6762C90.1918 49.2087 90.147 49.7774 89.978 50.2776C89.9568 50.34 89.9088 50.3774 89.8584 50.3774Z" fill="#E28065"/>
<path d="M82.8257 42.0424C82.8501 42.0226 83.3259 41.3925 83.3259 41.3925C83.3259 41.3925 82.413 39.5558 82.2147 38.9621C81.817 37.7714 81.476 36.5489 81.2274 35.2941C81.0152 34.2232 80.8684 33.1232 80.5291 32.1064C80.1541 30.9823 79.5568 29.9984 78.9653 29.027C78.5061 28.2728 78.0451 27.5161 77.5051 26.8458C77.361 26.6669 77.1755 26.4812 76.9683 26.5348C76.7342 26.5953 76.6148 26.9477 76.6628 27.227C76.7107 27.5062 76.8733 27.7278 77.0224 27.9449C77.7409 28.9908 78.2693 30.2295 78.5621 31.5548C77.9626 31.6815 77.4613 32.3662 77.4322 33.0982C76.9351 33.3087 76.6273 34.0453 76.7894 34.6363C76.4682 34.6723 76.1995 35.0102 76.1064 35.3866C76.0132 35.763 76.0674 36.1655 76.1734 36.5279C76.5868 37.9423 77.9302 39.3147 78.5973 40.5705C79.0461 41.4151 80.2782 44.0877 80.2782 44.0877C80.2782 44.0877 80.2658 43.4273 80.4444 43.3098C81.095 42.8815 81.7731 42.5203 82.4698 42.2309C82.5923 42.1799 82.7181 42.1293 82.8257 42.0424Z" fill="#FFA385"/>
<path d="M78.6835 36.303C78.6409 36.303 78.6055 36.2603 78.6037 36.2059C78.6018 36.15 78.6361 36.1028 78.6802 36.1005C78.9293 36.0873 79.1163 36.0508 79.2542 35.6993C79.3612 35.4267 79.2914 35.0995 79.2 34.7866C79.1468 34.6044 79.0899 34.4224 79.0329 34.2401C78.7913 33.4669 78.5414 32.6675 78.5662 31.8163C78.5678 31.7604 78.6064 31.7163 78.649 31.7189C78.6931 31.7209 78.7275 31.7679 78.7259 31.8239C78.7024 32.6324 78.946 33.4117 79.1815 34.1654C79.239 34.3492 79.2963 34.5326 79.35 34.7162C79.4537 35.0719 79.5314 35.448 79.3974 35.7895C79.2213 36.2383 78.9608 36.2885 78.6869 36.3029C78.6857 36.303 78.6847 36.303 78.6835 36.303Z" fill="#E28065"/>
<path d="M78.361 37.3851C77.488 37.3851 76.8175 35.5062 76.682 35.0975C76.665 35.0459 76.6841 34.9865 76.7248 34.9648C76.7655 34.9431 76.8123 34.9675 76.8294 35.019C76.9144 35.2756 77.6851 37.5162 78.5649 37.1388C78.6317 37.1102 78.7215 37.0557 78.7705 36.958C78.8519 36.7961 78.805 36.5812 78.6186 36.2616C78.0871 35.3499 77.5721 34.3489 77.4045 33.2079C77.3964 33.1528 77.4251 33.1 77.4684 33.0896C77.5124 33.0794 77.5536 33.1156 77.5617 33.1706C77.7233 34.2715 78.227 35.2488 78.7472 36.1411C78.8909 36.3875 79.0636 36.7517 78.9054 37.0668C78.8313 37.2143 78.7072 37.2917 78.6161 37.3309C78.5295 37.368 78.4443 37.3851 78.361 37.3851Z" fill="#E28065"/>
<path d="M77.3237 37.7703C77.2572 37.7703 77.1937 37.7535 77.1376 37.7193C77.0527 37.6675 76.9917 37.5828 76.9364 37.5006C76.7101 37.1638 76.5144 36.7951 76.3547 36.4048C76.3344 36.3552 76.3496 36.294 76.3889 36.2682C76.428 36.2425 76.4763 36.2618 76.4966 36.3115C76.6507 36.6882 76.8396 37.0441 77.0581 37.3692C77.1041 37.4378 77.1502 37.5021 77.207 37.5368C77.2996 37.5933 77.4349 37.571 77.5516 37.4801C77.6676 37.3897 77.7579 37.25 77.8452 37.1148C77.8731 37.0716 77.9235 37.0652 77.9577 37.1006C77.9919 37.136 77.9969 37.1999 77.9689 37.2433C77.8777 37.3845 77.7742 37.5446 77.6353 37.6528C77.5356 37.7303 77.4262 37.7703 77.3237 37.7703Z" fill="#E28065"/>
<path d="M79.7211 38.459C79.6133 37.8246 80.055 37.1443 79.888 36.5314C79.7757 36.1192 79.4272 35.8908 79.1065 35.6995C78.6845 35.448 78.2626 35.1964 77.8406 34.9449C77.673 34.8449 77.4998 34.7396 77.386 34.5613C77.2721 34.3829 77.2359 34.1092 77.3545 33.925C77.4937 33.7089 77.7579 33.714 77.9774 33.7482C78.7865 33.8745 79.5811 34.1074 80.3426 34.4417C80.6505 34.5769 80.987 34.7724 81.0762 35.1544C81.1914 35.6475 81.1029 36.1641 80.965 36.66C80.827 37.156 80.6103 37.6176 80.3737 38.0593C80.2577 38.2759 80.0962 38.5149 79.8871 38.502C79.8403 38.499 79.7305 38.5143 79.7211 38.459Z" fill="#FFA385"/>
<path d="M79.7217 38.5441C79.691 38.5441 79.6633 38.517 79.6566 38.4773C79.6017 38.1541 79.6784 37.8269 79.7525 37.5104C79.8316 37.1733 79.9061 36.855 79.8256 36.5596C79.7243 36.1877 79.4011 35.9689 79.0788 35.7767L77.8129 35.022C77.6477 34.9235 77.4604 34.8119 77.3348 34.6151C77.2087 34.4176 77.1575 34.099 77.3036 33.8721C77.4681 33.6164 77.7719 33.6313 77.9862 33.6648C78.7993 33.7917 79.5997 34.0263 80.3651 34.3622C80.6745 34.498 81.0422 34.7081 81.1409 35.1309C81.1514 35.1757 81.1312 35.2228 81.0959 35.2361C81.0601 35.2494 81.0235 35.2238 81.013 35.179C80.9315 34.8301 80.6006 34.6447 80.3215 34.5222C79.5649 34.19 78.7737 33.9582 77.9699 33.8327C77.7873 33.8042 77.5298 33.7883 77.407 33.9791C77.3071 34.1344 77.3487 34.3678 77.4386 34.5087C77.5449 34.6754 77.7175 34.7782 77.8697 34.8689L79.1356 35.6236C79.4838 35.8311 79.8335 36.0701 79.9517 36.5043C80.0462 36.8511 79.9619 37.2108 79.8804 37.5586C79.8078 37.8684 79.7392 38.1609 79.7869 38.4418C79.7946 38.4874 79.7717 38.5324 79.7356 38.5422C79.7311 38.5434 79.7264 38.5441 79.7217 38.5441Z" fill="#E28065"/>
<path d="M106.217 34.5955C106.089 35.699 106.313 36.8619 106.828 37.7666C106.814 37.7429 107.529 35.8145 107.577 35.5787C107.74 34.7915 107.807 33.9724 107.774 33.1596C107.742 32.3806 107.56 31.5612 106.981 32.4431C106.579 33.0552 106.309 33.8071 106.217 34.5955Z" fill="#7F454B"/>
<path d="M107.957 59.8063C106.679 59.532 104.845 58.5662 104.971 56.5383C105.102 54.4348 105.744 52.3868 106.787 50.7429C106.904 50.5588 107.029 50.3757 107.192 50.2602C107.603 49.9688 108.111 50.18 108.582 50.1683C108.905 50.1603 109.533 50.0097 109.756 49.7125C110.043 49.3282 109.8 46.9574 109.902 46.9192C110.022 46.8741 116.06 45.3516 116.06 45.3516C116.06 45.3516 115.783 48.8766 116.202 49.8525C116.512 50.571 117.536 50.9165 119.878 51.7323C120.675 52.0099 119.879 52.1559 120.495 52.8697C121.573 54.1194 121.282 56.5185 120.248 57.827C119.215 59.1355 117.7 59.5977 116.254 59.8609C113.586 60.3463 110.863 60.344 108.196 59.8539C108.117 59.8394 108.037 59.8236 107.957 59.8063Z" fill="#FFA385"/>
<path opacity="0.33" d="M109.901 48.3997C109.901 48.3997 109.766 53.1112 114.126 46.9189L109.901 48.3997Z" fill="#606060"/>
<path d="M117.744 42.5128C116.225 47.0307 111.302 48.4872 108.891 48.4631C107.098 48.4453 105.857 44.7254 106.393 37.853C107.071 29.1627 109.118 29.3281 114.326 31.1684C117.508 32.2928 119.494 37.3042 117.744 42.5128Z" fill="#FFA385"/>
<path d="M114.823 36.9003C114.91 36.3441 114.997 35.7879 115.084 35.2316C115.137 34.8921 115.432 34.0985 115.08 33.8922C114.775 33.7142 114.175 34.0157 113.867 34.0826C113.117 34.2457 112.494 34.3185 111.745 34.1926C110.881 34.0475 110.008 33.999 109.137 34.0483C108.538 34.0822 107.916 34.1586 107.354 33.8896C106.928 33.6858 106.552 33.242 106.208 32.8764C105.839 32.4854 105.557 31.9626 105.41 31.3824C105.308 30.9828 105.27 30.5474 105.357 30.1423C105.444 29.7373 105.67 29.3682 105.981 29.2237C106.283 29.0832 106.673 29.1312 106.865 28.8038C106.993 28.5867 106.974 28.2891 106.956 28.0195C106.93 27.6321 106.916 27.2352 106.999 26.8609C107.082 26.4866 107.278 26.1339 107.564 25.9941C107.882 25.839 108.251 25.9747 108.524 26.2325C108.797 26.4904 108.993 26.855 109.183 27.2125C109.239 26.4287 109.878 25.7939 110.492 25.9128C110.837 25.9798 111.145 26.2496 111.361 26.5977C111.577 26.9457 111.709 27.3674 111.795 27.7967C111.736 27.5014 112.587 27.7058 112.656 27.7572C112.882 27.9234 112.959 27.9954 113.244 27.9203C113.565 27.8351 113.868 27.641 114.202 27.6393C114.53 27.6375 114.855 27.8438 115.051 28.1779C115.084 28.2345 115.116 28.2969 115.166 28.3277C115.265 28.3889 115.377 28.2996 115.478 28.2413C115.83 28.0366 116.262 28.2281 116.538 28.572C116.724 28.8042 116.846 29.0891 116.961 29.383C117.076 29.6796 117.155 29.7525 117.355 29.9462C117.795 30.3735 118.154 30.9919 118.361 31.6407C118.533 32.1813 118.584 32.7574 118.544 33.3358C118.505 33.8967 118.355 34.288 118.197 34.7973C118.393 35.0516 118.592 35.3098 118.73 35.62C118.868 35.9302 118.94 36.3039 118.864 36.6466C118.803 36.923 118.648 37.1806 118.679 37.465C118.698 37.6485 118.792 37.8026 118.866 37.9627C119.073 38.4151 119.126 38.9823 118.99 39.4769C118.856 39.9693 118.593 40.4 118.434 40.8816C118.243 41.4636 118.022 42.0388 117.802 42.6084C117.589 43.1628 117.412 43.9822 117.109 44.4552C117.025 44.5864 116.918 44.605 116.856 44.7669C116.798 44.9158 116.801 45.0929 116.742 45.2426C116.643 45.4909 116.411 45.5948 116.201 45.6763C116.147 45.6973 116.074 45.7099 116.046 45.6476C116.033 45.6171 116.036 45.5793 116.04 45.5447C116.108 44.9349 116.142 44.3189 116.142 43.7029C116.141 43.1851 116.115 42.6458 116.244 42.1463C116.361 41.6963 116.652 41.4461 116.914 41.1328C117.111 40.898 117.295 40.6252 117.364 40.2937C117.434 39.9624 117.358 39.5626 117.129 39.3816C117.049 39.3192 116.958 39.2861 116.865 39.2712C116.394 39.1949 115.941 39.5846 115.668 40.0776C115.395 40.5705 115.259 41.16 115.083 41.7195C114.925 41.7136 114.727 41.6691 114.688 41.4749C114.669 41.3819 114.697 41.2852 114.725 41.1958C114.877 40.701 115.029 40.2062 115.181 39.7115C115.286 39.3686 115.393 39.0153 115.391 38.6473C115.391 38.5698 115.385 38.4882 115.35 38.4246C115.309 38.3508 115.239 38.3156 115.174 38.2777C114.978 38.1623 114.794 37.9645 114.75 37.6964C114.724 37.5389 114.748 37.3757 114.773 37.2179C114.79 37.1121 114.806 37.0062 114.823 36.9003Z" fill="#7F454B"/>
<path d="M118.256 39.1225C118.238 39.1225 118.22 39.1161 118.204 39.1026C118.162 39.0666 118.151 38.9941 118.179 38.9405C118.43 38.469 118.358 37.8605 118.293 37.5398C118.232 37.2373 118.134 36.9401 118.039 36.6526C117.979 36.4734 117.918 36.288 117.865 36.1006C117.689 35.4728 117.659 34.9519 117.774 34.5079C117.79 34.4467 117.842 34.4137 117.891 34.4336C117.939 34.4539 117.965 34.5198 117.949 34.5811C117.847 34.9737 117.876 35.4451 118.039 36.0221C118.09 36.2034 118.15 36.3859 118.209 36.5623C118.306 36.8574 118.407 37.1626 118.472 37.4817C118.544 37.8404 118.623 38.5237 118.332 39.071C118.314 39.1045 118.285 39.1225 118.256 39.1225ZM116.051 38.521C116.02 38.521 115.991 38.5018 115.973 38.4666C115.377 37.2675 115.075 35.3202 115.27 33.9369C115.279 33.8735 115.327 33.8315 115.377 33.8426C115.427 33.854 115.461 33.9147 115.452 33.9781C115.263 35.3106 115.554 37.1866 116.129 38.342C116.156 38.3966 116.143 38.4687 116.1 38.5031C116.085 38.5153 116.068 38.521 116.051 38.521Z" fill="#6B373F"/>
<path d="M111.905 40.2095C111.778 40.7605 111.458 41.127 111.191 41.0279C110.923 40.9289 110.809 40.4018 110.936 39.8507C111.063 39.2996 111.383 38.9332 111.651 39.0323C111.918 39.1314 112.032 39.6584 111.905 40.2095ZM108.03 39.0889C107.926 39.6126 107.635 39.971 107.381 39.8895C107.127 39.8079 107.005 39.3173 107.11 38.7936C107.214 38.2699 107.505 37.9115 107.759 37.993C108.014 38.0745 108.135 38.5652 108.03 39.0889Z" fill="#512229"/>
<path d="M109.116 42.1593C108.993 42.1594 108.862 42.1253 108.777 42.051C108.64 41.9316 108.559 41.7206 108.572 41.5132C108.583 41.321 108.614 41.0763 108.758 40.8889C108.808 40.8235 108.89 40.8221 108.942 40.8853C108.993 40.9487 108.994 41.053 108.945 41.1183C108.877 41.2065 108.843 41.332 108.831 41.5379C108.825 41.6291 108.863 41.7261 108.924 41.7793C108.989 41.8361 109.17 41.845 109.239 41.8083C109.305 41.7733 109.381 41.8126 109.409 41.8963C109.437 41.9802 109.405 42.0768 109.339 42.1121C109.281 42.1429 109.201 42.1593 109.116 42.1593Z" fill="#E28065"/>
<path d="M112.927 38.4226C112.845 38.4226 112.763 38.3814 112.702 38.3C112.312 37.7766 111.663 37.5701 111.124 37.7975C110.963 37.8658 110.788 37.7549 110.734 37.5498C110.68 37.3448 110.768 37.1231 110.929 37.0548C111.7 36.7295 112.593 37.0138 113.151 37.7625C113.268 37.9197 113.262 38.1674 113.138 38.3158C113.079 38.3872 113.003 38.4226 112.927 38.4226ZM108.695 37.164C108.615 37.164 108.536 37.1251 108.475 37.0475C108.205 36.6995 107.753 36.6886 107.545 36.8139C107.391 36.9063 107.206 36.8231 107.133 36.6279C107.06 36.4326 107.126 36.1991 107.28 36.1066C107.726 35.839 108.459 35.9119 108.915 36.4976C109.035 36.6514 109.033 36.8992 108.912 37.0511C108.852 37.1263 108.773 37.164 108.695 37.164Z" fill="#7F454B"/>
<path d="M109.178 44.22C109.058 44.22 108.938 44.2096 108.819 44.1881C108.748 44.1753 108.698 44.0919 108.708 44.0018C108.718 43.9117 108.785 43.8497 108.855 43.8619C109.586 43.994 110.368 43.6677 110.896 43.0112C110.947 42.9473 111.029 42.9483 111.079 43.0132C111.13 43.0781 111.129 43.1824 111.078 43.2461C110.58 43.8662 109.877 44.22 109.178 44.22Z" fill="#E28065"/>
<path d="M110.147 33.3667C110.094 33.3667 110.041 33.363 109.99 33.3562C109.652 33.3109 109.377 33.1616 109.194 32.924C109.029 32.7102 108.948 32.4198 108.966 32.1519C108.613 32.3623 108.159 32.3286 107.822 32.0411C107.436 31.7115 107.211 31.0741 107.263 30.4548C107.312 29.8755 107.586 29.3239 107.997 28.9794C108.039 28.944 108.096 28.9586 108.125 29.0124C108.153 29.0661 108.141 29.1386 108.099 29.1742C107.733 29.4808 107.489 29.9687 107.446 30.4796C107.401 31.0152 107.594 31.5649 107.925 31.8475C108.27 32.1421 108.76 32.1216 109.063 31.7997C109.097 31.7634 109.146 31.7634 109.181 31.7994C109.215 31.8354 109.224 31.8974 109.202 31.9465C109.097 32.1829 109.15 32.5331 109.326 32.7608C109.519 33.0112 109.804 33.0965 110.009 33.1241C110.307 33.1642 110.677 33.0846 110.821 32.7419C110.844 32.6849 110.9 32.6631 110.945 32.6935C110.99 32.7238 111.007 32.7945 110.983 32.8514C110.823 33.2333 110.47 33.3667 110.147 33.3667ZM118.127 34.2706C118.122 34.2706 118.118 34.2701 118.113 34.2692C117.385 34.1271 116.642 34.0659 115.905 34.0856L115.796 34.0889C115.405 34.1016 115 34.1143 114.628 33.9216C114.259 33.7299 113.932 33.2559 113.944 32.7419C113.53 32.8586 113.066 32.5829 112.892 32.0853C112.696 31.5273 112.908 30.8132 113.345 30.557C113.391 30.5298 113.446 30.5555 113.467 30.614C113.489 30.6726 113.468 30.7419 113.422 30.769C113.079 30.9701 112.906 31.5523 113.06 31.9904C113.214 32.4285 113.67 32.6556 114.018 32.4674C114.05 32.4502 114.087 32.4573 114.114 32.4858C114.141 32.5145 114.152 32.5599 114.144 32.6029C114.053 33.0661 114.354 33.5273 114.698 33.7055C115.034 33.8798 115.419 33.8675 115.792 33.8556L115.901 33.8523C116.649 33.8314 117.402 33.8946 118.141 34.0386C118.191 34.0484 118.225 34.108 118.218 34.1718C118.211 34.2292 118.172 34.2705 118.127 34.2706ZM111.283 30.8875C111.15 30.8875 111.004 30.8548 110.835 30.7879C110.518 30.6621 110.306 30.4796 110.186 30.2301C110.053 29.9548 110.048 29.6247 110.061 29.3091C110.068 29.1519 110.081 28.9866 110.158 28.8476C110.209 28.7557 110.291 28.6896 110.378 28.6711C110.45 28.6561 110.519 28.6747 110.574 28.7244C110.616 28.762 110.625 28.8349 110.596 28.8874C110.566 28.9398 110.509 28.9518 110.467 28.9143C110.452 28.9006 110.432 28.8963 110.409 28.9013C110.371 28.9095 110.331 28.9412 110.309 28.9821C110.259 29.0705 110.25 29.1984 110.245 29.3218C110.233 29.5999 110.237 29.8878 110.343 30.1087C110.438 30.3077 110.617 30.4569 110.89 30.565C111.09 30.6443 111.25 30.6697 111.392 30.6445C111.795 30.5735 112.081 30.1087 112.339 29.6387C112.368 29.5859 112.425 29.5728 112.467 29.6097C112.509 29.6465 112.519 29.7192 112.49 29.7722C112.221 30.2621 111.894 30.7919 111.418 30.8759C111.374 30.8835 111.33 30.8875 111.283 30.8875Z" fill="#6B373F"/>
<path d="M90.0911 109.804C89.6592 111.131 89.274 112.516 89.2564 113.951C89.2315 115.992 90.004 118.023 91.2785 119.27C92.5531 120.516 94.2994 120.947 95.8498 120.398C96.4879 120.173 97.0849 119.795 97.6774 119.42C102.646 116.273 107.618 113.122 112.413 109.569C113.76 108.57 115.28 107.073 115.056 105.115C114.991 104.544 114.775 104.02 114.557 103.513C113.356 100.716 111.964 98.0038 110.112 95.8514C108.26 93.699 105.901 92.1325 103.393 91.9476C101.765 91.8276 100.081 92.3455 98.7077 93.4733C97.3629 94.5781 96.9637 96.1061 96.0445 97.6295C93.7063 101.504 91.5726 105.252 90.0911 109.804Z" fill="#CC6A5A"/>
<path d="M96.3865 114.865C96.2839 114.865 96.1762 114.858 96.0788 114.793C96.0281 114.759 96.0087 114.679 96.0355 114.615C96.0624 114.551 96.1252 114.526 96.1759 114.56C96.234 114.599 96.3137 114.601 96.3951 114.602C96.8941 114.6 97.5433 114.566 98.1393 114.318C99.2553 113.855 99.9289 113.059 100.47 112.42C100.664 112.192 100.846 111.977 101.026 111.804C102.804 110.096 104.655 108.448 106.445 106.854C106.492 106.812 106.556 106.827 106.589 106.886C106.622 106.946 106.611 107.028 106.564 107.069C104.776 108.662 102.927 110.308 101.151 112.014C100.98 112.179 100.801 112.39 100.612 112.613C100.056 113.27 99.3634 114.087 98.204 114.569C97.5804 114.828 96.9101 114.863 96.3957 114.865C96.3928 114.865 96.3897 114.865 96.3865 114.865Z" fill="#B24A3F"/>
<path d="M98.4657 114.085C97.716 114.085 96.9678 113.786 96.3591 113.223C96.3127 113.181 96.3026 113.098 96.3364 113.039C96.3702 112.981 96.4353 112.968 96.4815 113.011C97.2676 113.738 98.3012 113.997 99.2465 113.703C99.3021 113.687 99.3584 113.729 99.3721 113.8C99.3858 113.871 99.3517 113.942 99.2959 113.959C99.0237 114.044 98.7446 114.085 98.4657 114.085Z" fill="#B24A3F"/>
<path d="M120.056 104.405C120.465 104.707 120.884 105.025 121.163 105.509C121.742 106.514 121.528 108.015 120.866 108.934C120.205 109.852 119.204 110.267 118.227 110.385C117.696 110.449 117.152 110.436 116.639 110.248C116.149 110.069 115.703 109.737 115.263 109.409C113.765 108.29 109.278 106.936 109.816 104.3C110.097 102.922 113.162 100.539 114.512 100.601C115.293 100.637 116.453 101.838 117.13 102.308C118.112 102.991 119.088 103.69 120.056 104.405Z" fill="#EA8E75"/>
<path d="M118.826 102.109C118.753 101.943 118.672 101.75 118.723 101.571C118.778 101.383 118.949 101.305 119.101 101.251C120.243 100.846 121.402 100.516 122.572 100.261C122.801 100.212 123.04 100.165 123.264 100.246C123.528 100.341 123.735 100.6 123.897 100.881C124.492 101.912 124.595 103.288 124.441 104.551C124.286 105.813 123.901 107.008 123.595 108.225C123.202 109.787 122.936 111.4 122.803 113.031C122.706 114.22 122.666 115.471 122.181 116.496C121.726 117.461 120.923 118.098 120.078 118.441C119.234 118.783 118.339 118.864 117.454 118.942C116.771 119.002 115.732 119.133 115.214 118.435C114.754 117.814 114.901 116.811 115.16 116.025C115.42 115.239 115.769 114.416 115.62 113.585C115.51 112.971 115.146 112.492 114.868 111.969C114.581 111.429 114.378 110.817 114.275 110.178C114.21 109.772 114.189 109.325 114.352 108.965C114.696 108.207 115.813 108.086 116.36 108.506C116.587 108.68 116.779 108.92 117.014 109.077C117.58 109.456 118.317 109.261 118.8 108.727C120.209 107.169 119.608 103.881 118.826 102.109Z" fill="#7696D6"/>
<path d="M118.067 117.875C117.45 117.875 116.802 117.701 116.156 117.359C116.104 117.332 116.08 117.257 116.102 117.192C116.123 117.127 116.182 117.096 116.234 117.123C116.858 117.454 117.814 117.791 118.827 117.521C119.738 117.278 120.499 116.566 120.865 115.615C121.205 114.729 121.193 113.743 121.181 112.699C121.175 112.214 121.169 111.711 121.203 111.224C121.286 110.007 121.622 108.844 121.947 107.718C122.119 107.119 122.298 106.5 122.436 105.881C122.664 104.86 123.062 102.317 121.845 100.769C121.806 100.719 121.806 100.638 121.845 100.588C121.885 100.538 121.948 100.538 121.988 100.588C123.28 102.232 122.867 104.886 122.63 105.951C122.49 106.579 122.31 107.203 122.136 107.806C121.816 108.916 121.485 110.063 121.404 111.246C121.371 111.72 121.377 112.216 121.383 112.695C121.395 113.723 121.408 114.786 121.046 115.727C120.654 116.748 119.84 117.512 118.869 117.772C118.61 117.841 118.341 117.875 118.067 117.875Z" fill="#FFF5E9"/>
<path opacity="0.33" d="M92.7676 103.423C92.7676 103.423 92.8186 103.359 96.2082 107.076C99.5977 110.792 103.067 111.481 104.35 112.585C105.632 113.688 105.737 114.232 105.737 114.232C105.737 114.232 112.261 110.076 114.065 108.044C114.725 107.301 115.194 105.892 115.194 105.892L101.536 104.397L92.7676 103.423Z" fill="#606060"/>
<path opacity="0.33" d="M113.396 107.495C115.203 108.753 117.358 109.068 119.113 110.438C119.487 110.729 119.839 111.066 120.22 111.342C120.674 111.672 121.166 111.914 121.61 112.265C122.054 112.615 122.468 113.099 122.618 113.734C122.765 114.353 122.592 115.424 122.301 116.217C122.147 116.636 121.987 116.918 121.722 117.236C121.15 117.926 120.64 118.231 119.86 118.536C119.505 118.675 119.133 118.732 118.766 118.81C118.483 118.87 118.177 118.917 117.922 118.749C117.614 118.546 117.474 118.093 117.343 117.686C116.678 115.619 115.609 113.809 114.551 112.025C113.705 110.598 112.859 109.17 112.029 107.728C111.855 107.424 111.051 106.285 111.777 106.364C112.292 106.42 112.95 107.184 113.396 107.495Z" fill="#606060"/>
<path d="M115.899 109.558C116.308 109.86 116.727 110.178 117.006 110.662C117.585 111.667 117.371 113.169 116.709 114.087C116.047 115.005 115.046 115.42 114.07 115.538C113.538 115.603 112.994 115.589 112.482 115.401C111.991 115.222 111.545 114.89 111.105 114.562C109.607 113.443 107.065 112.416 107.603 109.78C107.884 108.402 109.004 105.692 110.354 105.754C111.135 105.79 112.295 106.991 112.972 107.462C113.955 108.144 114.93 108.843 115.899 109.558Z" fill="#FFA385"/>
<path d="M109.021 112.898C109.28 112.601 109.658 112.507 110.01 112.525C111.277 112.589 112.354 113.688 113.651 113.886C114.188 113.968 114.776 113.958 115.212 113.553C115.704 113.096 115.87 112.256 115.885 111.482C115.901 110.708 115.802 109.924 115.917 109.164C117.366 110.097 118.31 111.938 119.635 113.129C120.105 113.551 120.653 113.937 120.866 114.614C121.058 115.226 120.918 115.94 120.63 116.488C120.342 117.036 119.925 117.45 119.516 117.855C118.669 118.69 117.823 119.525 116.977 120.36C115.308 122.006 113.608 123.676 111.633 124.636C109.659 125.596 107.334 125.758 105.498 124.427C105.092 124.133 104.688 123.714 104.606 123.129C104.513 122.463 104.883 121.819 105.326 121.441C106.244 120.659 107.477 120.083 108.13 118.882C108.852 117.554 108.689 116.005 108.658 114.499C108.647 113.959 108.676 113.366 108.965 112.969C108.983 112.944 109.002 112.921 109.021 112.898Z" fill="#7696D6"/>
<path d="M107.868 124.835C106.7 124.835 105.652 124.244 105.056 123.245C105.022 123.189 105.031 123.109 105.075 123.066C105.119 123.023 105.183 123.034 105.216 123.091C105.785 124.042 106.8 124.607 107.927 124.579C109.029 124.559 110.102 124.021 110.915 123.554C113.085 122.306 115.057 120.614 116.778 118.525C118.124 116.891 119.066 115.292 119.659 113.639C119.682 113.574 119.742 113.546 119.793 113.575C119.843 113.604 119.866 113.68 119.843 113.744C119.239 115.428 118.283 117.053 116.917 118.71C115.18 120.819 113.189 122.527 110.998 123.787C110.168 124.264 109.069 124.814 107.93 124.835C107.909 124.835 107.889 124.835 107.868 124.835Z" fill="#FFF5E9"/>
<path d="M125.133 90.8536C125.174 90.883 124.972 91.9107 124.955 92.0222C124.89 92.4471 124.825 92.8721 124.76 93.297C124.633 94.1292 124.506 94.9613 124.379 95.7935C124.257 96.5943 124.155 97.4007 124.003 98.1938C123.866 98.9087 123.718 99.7302 123.352 100.307C123.005 100.852 122.743 101.476 122.383 102.015C122.022 102.554 121.624 103.053 121.195 103.506C120.261 104.492 119.181 105.259 118.023 105.73C115.641 106.701 114.019 107.009 111.797 105.551C111.356 106.031 111.06 106.256 111.035 106.993C111.007 107.793 110.15 107.978 109.647 108.464C108.576 109.498 109.063 112.169 107.827 112.848C107.011 113.296 106.146 112.454 105.45 111.752C104.188 110.478 102.748 109.489 101.216 108.847C100.131 108.391 98.999 108.107 97.9454 107.545C96.6376 106.846 95.4939 105.744 94.3658 104.652C92.257 102.612 89.559 102.276 87.8716 99.6812C86.1842 97.0864 85.6705 92.9308 87.4637 90.4526C89.7922 87.2347 94.1064 88.0798 97.1799 88.0103C100.157 87.943 103.136 87.973 106.112 88.1113C108.763 88.2346 110.909 88.7708 113.482 87.7533C114.473 87.3615 115.218 86.6471 116.31 86.6465C117.954 86.6455 119.344 87.1008 120.863 87.8977C122.239 88.6192 123.757 90.1319 125.133 90.8536Z" fill="#CC6A5A"/>
<path d="M111.798 105.683C111.781 105.683 111.764 105.677 111.748 105.666C111.009 105.157 109.968 104.42 108.961 103.707C107.954 102.994 106.913 102.257 106.174 101.747C102.763 99.3946 98.5186 96.4683 94.1258 96.9119C94.0676 96.9178 94.0185 96.8636 94.014 96.7911C94.0094 96.7187 94.0521 96.6551 94.1093 96.6494C98.5636 96.1997 102.838 99.1465 106.273 101.516C107.013 102.026 108.055 102.764 109.063 103.477C110.069 104.189 111.109 104.926 111.848 105.435C111.898 105.47 111.917 105.55 111.889 105.614C111.87 105.658 111.835 105.683 111.798 105.683Z" fill="#B24A3F"/>
<path d="M106.819 102.217C106.807 102.217 106.794 102.214 106.782 102.208L105.24 101.452C104.275 100.979 103.277 100.489 102.257 100.165C101.219 99.8351 100.133 99.6691 99.0825 99.5084C97.8622 99.3219 96.6004 99.1289 95.3999 98.6779C94.7151 98.4208 94.1556 98.1148 93.6895 97.7426C93.2609 97.4003 93.0194 97.0358 92.9513 96.6277C92.8992 96.3153 92.9515 95.9555 93.0987 95.6144C93.3919 94.9348 93.9713 94.44 94.87 94.1017C95.7722 93.7619 96.7068 93.6116 97.6474 93.655C98.2249 93.6816 98.8027 93.7823 99.3615 93.8797L102.845 94.4864C103.566 94.6117 104.311 94.7415 105.042 94.9123C106.111 95.1618 107.179 95.5056 108.211 95.838C108.582 95.9574 108.935 96.0863 109.277 96.211C110.085 96.5061 110.848 96.7847 111.733 96.9003L113.367 97.1141C113.939 97.1888 114.527 97.2665 115.106 97.2589C116.138 97.2473 117.038 96.9719 117.778 96.4401C118.63 95.829 119.244 94.8687 119.465 93.8056C119.615 93.0798 119.604 92.2486 119.431 91.1901C119.419 91.1189 119.455 91.0491 119.511 91.0343C119.567 91.0185 119.622 91.0651 119.634 91.1363C119.815 92.2364 119.825 93.1059 119.666 93.8725C119.431 95.004 118.78 96.0233 117.881 96.6693C117.109 97.2233 116.176 97.5102 115.108 97.5223C114.518 97.5267 113.923 97.4513 113.348 97.3764L111.711 97.1621C110.809 97.0442 110.037 96.7624 109.22 96.464C108.88 96.34 108.528 96.2115 108.16 96.0932C107.131 95.7618 106.067 95.4191 105.005 95.1711C104.278 95.0015 103.535 94.8722 102.817 94.7472L99.3333 94.1405C98.7796 94.044 98.2071 93.9442 97.6399 93.9181C96.722 93.8766 95.8098 94.0227 94.9294 94.3541C94.0858 94.6717 93.5467 95.1253 93.2811 95.7409C93.1578 96.0267 93.1129 96.3223 93.1547 96.5732C93.2113 96.9125 93.4165 97.2134 93.8004 97.5199C94.2502 97.8789 94.7927 98.1751 95.459 98.4256C96.6427 98.8702 97.8958 99.0618 99.1076 99.2472C100.164 99.4087 101.257 99.5759 102.308 99.91C103.34 100.238 104.344 100.731 105.315 101.207L106.857 101.963C106.91 101.989 106.937 102.065 106.916 102.133C106.9 102.185 106.861 102.217 106.819 102.217ZM111.797 105.683C111.775 105.683 111.753 105.674 111.734 105.655C111.689 105.611 111.68 105.529 111.715 105.471C111.865 105.222 111.923 104.973 111.984 104.709C112.047 104.434 112.113 104.15 112.287 103.862C112.408 103.661 112.546 103.434 112.748 103.305C112.933 103.188 113.134 103.175 113.329 103.163L113.352 103.161C115.853 103.001 118.3 101.811 120.245 99.8113C120.59 99.4564 120.914 99.3977 121.089 99.6582C121.166 99.7719 121.186 99.9124 121.205 100.036C121.307 100.734 121.554 101.515 121.96 102.431C121.988 102.494 121.971 102.575 121.921 102.61C121.871 102.646 121.807 102.624 121.779 102.56C121.362 101.619 121.107 100.811 121.001 100.091C120.986 99.9843 120.972 99.8893 120.931 99.8294C120.783 99.6086 120.417 99.9735 120.376 100.016C118.397 102.05 115.907 103.261 113.363 103.425L113.34 103.426C113.166 103.437 112.987 103.448 112.841 103.541C112.682 103.642 112.56 103.844 112.452 104.022C112.302 104.271 112.244 104.52 112.183 104.784C112.12 105.059 112.054 105.343 111.88 105.631C111.859 105.665 111.829 105.683 111.797 105.683Z" fill="#B24A3F"/>
<path d="M117.866 95.7111C117.86 95.7111 117.855 95.7103 117.85 95.7086C117.832 95.703 117.816 95.6878 117.807 95.6669C117.037 93.8887 116.103 92.6539 115.03 91.9963C114.592 91.7283 114.126 91.5518 113.644 91.4717C113.609 91.4658 113.584 91.4263 113.586 91.3815C113.589 91.3319 113.626 91.3026 113.665 91.3018C115.82 91.3018 117.787 92.2265 119.204 93.9065C119.245 93.9556 119.314 93.977 119.332 93.9678C119.333 93.9207 119.356 93.8888 119.397 93.8888C119.435 93.89 119.46 93.9333 119.46 93.9803C119.458 94.0476 119.431 94.1003 119.384 94.1252C119.302 94.1686 119.179 94.1107 119.112 94.0312C117.888 92.5798 116.244 91.7021 114.422 91.5117C114.65 91.6001 114.873 91.7106 115.088 91.8428C116.15 92.4935 117.077 93.6915 117.846 95.4051C117.851 95.3953 117.859 95.3869 117.868 95.381C117.9 95.3588 117.941 95.3741 117.959 95.4158C117.999 95.511 117.974 95.637 117.903 95.6969C117.892 95.7062 117.879 95.7111 117.866 95.7111Z" fill="#CC6A5A"/>
<path d="M101.573 108.982C101.378 108.982 101.181 108.973 100.985 108.942C100.605 108.881 100.237 108.737 99.8812 108.599L98.214 107.948C98.1591 107.927 98.1284 107.853 98.1452 107.784C98.1622 107.714 98.2206 107.676 98.275 107.697L99.9423 108.347C100.29 108.482 100.649 108.622 101.011 108.68C101.326 108.731 101.653 108.72 101.97 108.71L104.113 108.641C104.198 108.638 104.286 108.635 104.352 108.591C104.487 108.502 104.535 108.258 104.498 107.846C104.492 107.774 104.533 107.709 104.59 107.7C104.648 107.693 104.698 107.744 104.705 107.817C104.722 108.012 104.775 108.609 104.448 108.825C104.34 108.897 104.217 108.901 104.119 108.904L101.975 108.973C101.843 108.977 101.708 108.982 101.573 108.982ZM107.7 109.941C107.663 109.941 107.628 109.917 107.609 109.873C107.581 109.81 107.599 109.729 107.649 109.694C107.92 109.503 108.166 109.23 108.404 108.965C108.764 108.563 109.137 108.148 109.617 107.994C109.737 107.956 109.86 107.934 109.98 107.914C110.194 107.878 110.397 107.843 110.563 107.716L110.573 107.63C110.581 107.558 110.633 107.508 110.69 107.519C110.747 107.529 110.786 107.596 110.778 107.668L110.755 107.87L110.718 107.902C110.505 108.091 110.252 108.134 110.007 108.175C109.888 108.195 109.776 108.215 109.668 108.249C109.237 108.388 108.899 108.764 108.541 109.163C108.295 109.437 108.041 109.72 107.75 109.925C107.734 109.936 107.717 109.941 107.7 109.941ZM105.094 111.275C104.87 111.275 104.647 111.185 104.483 110.969C104.443 110.917 104.444 110.833 104.485 110.783C104.527 110.732 104.592 110.734 104.632 110.786C104.858 111.084 105.258 111.055 105.52 110.878C105.827 110.669 106.045 110.28 106.217 109.927C106.387 109.58 106.541 109.215 106.675 108.843C106.718 108.722 106.76 108.599 106.802 108.476C106.968 107.992 107.139 107.491 107.419 107.08C107.792 106.533 108.322 106.203 108.79 105.912C108.842 105.88 108.904 105.907 108.929 105.972C108.955 106.037 108.933 106.116 108.882 106.148C108.432 106.429 107.922 106.746 107.576 107.253C107.317 107.633 107.152 108.115 106.993 108.581C106.95 108.705 106.908 108.83 106.864 108.952C106.726 109.334 106.568 109.709 106.394 110.065C106.207 110.448 105.968 110.872 105.618 111.11C105.465 111.213 105.28 111.275 105.094 111.275Z" fill="#B24A3F"/>
<path opacity="0.33" d="M114.602 89.8783C114.745 89.95 114.886 90.0278 115.035 90.0758C115.238 90.1415 115.45 90.1497 115.66 90.1613C116.693 90.2182 117.723 90.3669 118.74 90.6057C119.809 90.8571 120.92 91.2478 121.684 92.2292C122.034 92.6782 122.293 93.2304 122.646 93.6752C123.214 94.3921 124.046 94.7617 124.397 95.6766C124.528 94.7323 124.893 93.374 124.461 92.0279C124.057 90.7648 123.234 89.764 122.26 89.1862C121.715 88.8628 121.13 88.6481 120.533 88.5522C119.65 88.4105 118.755 88.5281 117.87 88.6458C116.224 88.8647 114.532 88.9688 112.902 89.3154C113.485 89.4295 114.053 89.6022 114.602 89.8783Z" fill="#606060"/>
<path d="M97.3223 49.7009C97.3744 49.5142 97.4696 49.366 97.6273 49.2834C98.4849 48.8345 99.4192 49.5746 100.34 49.7209C101.055 49.8346 101.789 49.5818 102.497 49.7474C102.846 49.8288 103.177 50.0092 103.526 50.0845C104.245 50.2394 105.017 49.9892 105.737 49.9602C106.594 49.9257 107.422 49.9197 108.271 50.1102C108.246 50.1046 108.302 51.7571 108.326 51.9208C108.472 52.9356 109.002 54.2231 109.56 54.9774C110.339 56.0315 111.548 56.5001 112.678 56.3135C113.808 56.127 114.847 55.3281 115.59 54.2327C116.284 53.209 116.73 51.9411 116.966 50.6229C116.989 50.4953 117.094 50.4234 117.19 50.4737C117.762 50.7756 119.532 51.4524 119.73 51.5356C120.605 51.9031 121.575 52.3767 121.945 53.4467C122.282 54.423 122.188 55.6266 122.449 56.6436C122.752 57.8249 122.895 59.0465 122.994 60.2847C123.201 62.8753 123.194 65.5369 123.871 68.026C124.216 69.2964 124.157 70.6805 124.273 71.9992C124.331 72.6477 124.293 73.2802 124.377 73.9298C124.475 74.6937 124.653 75.4378 124.737 76.205C124.891 77.6059 124.737 79.0175 124.736 80.4231C124.736 81.7119 125.103 82.9685 125.242 84.2571C125.435 86.0389 125.52 87.8394 125.496 89.6376C125.484 90.5543 125.444 91.4704 125.375 92.3831C125.319 93.1236 125.356 93.6335 125.006 94.2745C124.982 94.3201 124.953 94.3676 124.912 94.3853C124.843 94.4149 124.771 94.35 124.722 94.2825C124.573 94.0806 124.483 93.8219 124.399 93.5669C124.257 93.1349 123.946 92.9336 123.671 92.6696C123.356 92.3677 123.124 91.9872 122.922 91.559C122.817 91.3354 122.711 91.0973 122.537 90.9598C122.293 90.7674 121.979 90.8187 121.701 90.7277C121.231 90.574 120.877 90.0196 120.396 89.9373C120.238 89.9101 120.076 89.9376 119.918 89.9651C119.334 90.0659 118.887 90.1199 118.312 89.9961C117.742 89.8736 117.169 89.7744 116.596 89.6861C115.476 89.5136 114.352 89.3875 113.23 89.2354C110.616 88.8809 106.084 90.1363 105.979 85.2421C105.958 84.2929 106.171 83.2982 105.888 82.419C105.511 81.2491 104.371 80.6652 104.064 79.463C103.767 78.3005 104.368 77.09 104.422 75.8702C104.517 73.7071 103.502 71.7131 102.792 69.8587C102.165 68.2232 101.734 66.3434 101.581 64.5327C101.463 63.1368 101.615 61.7634 100.457 60.9502C99.8942 60.5548 99.2156 60.4912 98.6515 60.0985C98.5182 60.0055 98.3884 59.8896 98.3111 59.7235C98.1977 59.4803 98.2156 59.1781 98.2275 58.8961C98.2664 57.9735 98.1753 57.0858 98.0712 56.1763C97.9673 55.2693 97.9403 54.3546 97.7991 53.4503C97.7127 52.8971 97.6035 52.35 97.5137 51.7978C97.4326 51.2992 97.1548 50.3009 97.3223 49.7009Z" fill="#C191E8"/>
<path d="M111.159 80.0508C111.119 80.0508 111.08 80.0204 111.064 79.9699C108.841 73.2332 107.981 65.8334 108.576 58.5703C108.582 58.498 108.633 58.4459 108.69 58.4529C108.747 58.4604 108.789 58.5252 108.783 58.5976C108.191 65.8168 109.046 73.1721 111.255 79.8683C111.277 79.9354 111.252 80.0125 111.199 80.0406C111.186 80.0475 111.173 80.0508 111.159 80.0508ZM109.931 80.2115C109.902 80.2115 109.874 80.1969 109.853 80.1681C106.785 75.8624 104.922 70.3031 104.607 64.5141C104.603 64.4416 104.646 64.3787 104.704 64.3737C104.76 64.3685 104.81 64.4234 104.814 64.496C105.126 70.2264 106.97 75.7295 110.008 79.9916C110.046 80.0455 110.043 80.1288 110 80.1776C109.98 80.2003 109.955 80.2115 109.931 80.2115ZM103.534 66.6082C103.494 66.6082 103.455 66.5785 103.438 66.529C102.975 65.1764 102.436 63.8496 101.836 62.5854C101.627 62.1435 101.412 61.7265 101.092 61.4807C101.043 61.4431 101.027 61.362 101.057 61.2998C101.087 61.2377 101.151 61.2179 101.2 61.2554C101.56 61.5323 101.8 61.9973 102.014 62.4498C102.618 63.7238 103.161 65.0609 103.629 66.424C103.652 66.4907 103.628 66.5684 103.575 66.5973C103.562 66.6047 103.548 66.6082 103.534 66.6082ZM103.26 59.2392C103.211 59.2392 103.167 59.1948 103.158 59.1315C102.681 55.8792 101.787 52.7713 100.501 49.8938C100.456 49.7933 100.381 49.7036 100.334 49.6937C100.325 49.6916 100.321 49.6934 100.314 49.7013C100.271 49.7497 100.205 49.7446 100.167 49.6904C100.129 49.6361 100.133 49.5529 100.175 49.5045C100.229 49.4442 100.297 49.419 100.368 49.4339C100.503 49.4622 100.621 49.6294 100.681 49.7639C101.979 52.6668 102.881 55.8023 103.362 59.0834C103.373 59.1549 103.335 59.2236 103.279 59.2369C103.273 59.2384 103.266 59.2392 103.26 59.2392ZM104.253 77.0559C104.232 77.0559 104.211 77.0481 104.193 77.0318C104.146 76.9899 104.135 76.9078 104.168 76.8483C104.24 76.7202 104.276 76.5567 104.312 76.3983C104.441 75.828 104.574 75.238 104.624 74.6431C104.679 73.9872 104.634 73.3135 104.59 72.6619C104.585 72.5895 104.628 72.5258 104.685 72.5196C104.742 72.5123 104.792 72.5672 104.797 72.6396C104.842 73.3035 104.888 73.99 104.83 74.6708C104.779 75.2885 104.643 75.8895 104.512 76.4707C104.473 76.6418 104.43 76.8356 104.338 77.0002C104.318 77.0365 104.285 77.0559 104.253 77.0559ZM122.5 86.1175C122.479 86.1175 122.458 86.1098 122.44 86.0935C122.393 86.0516 122.382 85.9694 122.415 85.91C123.68 83.635 124.483 80.9711 124.738 78.2065C124.745 78.1342 124.797 78.0818 124.853 78.091C124.91 78.0993 124.951 78.1648 124.944 78.237C124.686 81.0452 123.87 83.7511 122.585 86.0618C122.564 86.0982 122.532 86.1175 122.5 86.1175ZM119.499 90.0463C119.45 90.0463 119.406 90.0024 119.397 89.9394C119.386 89.868 119.423 89.799 119.479 89.7853C120.008 89.6562 120.546 89.3426 121.08 88.853C121.587 88.3885 122.035 87.8185 122.415 87.3206C122.455 87.2684 122.521 87.2672 122.562 87.3176C122.603 87.3682 122.604 87.4516 122.564 87.5039C122.178 88.0097 121.722 88.5893 121.202 89.0664C120.643 89.5787 120.077 89.9075 119.518 90.0438C119.512 90.0455 119.505 90.0463 119.499 90.0463ZM124.06 91.0513C124.035 91.0513 124.011 91.0401 123.991 91.0172C123.802 90.8005 123.513 90.7066 123.131 90.7371C123.012 90.7467 122.89 90.7664 122.771 90.7854C122.563 90.819 122.347 90.8535 122.128 90.8381C122.071 90.834 122.027 90.7718 122.03 90.6992C122.034 90.6267 122.081 90.5738 122.14 90.5751C122.339 90.5895 122.537 90.5577 122.745 90.5241C122.867 90.5046 122.992 90.4845 123.118 90.4743C123.558 90.4389 123.898 90.5559 124.13 90.822C124.173 90.8707 124.176 90.9541 124.137 91.008C124.117 91.0367 124.089 91.0513 124.06 91.0513Z" fill="#DD843A"/>
<path d="M106.355 123.109C106.137 123.109 105.957 122.888 105.952 122.609L105.744 111.198C105.712 109.424 105.679 107.589 105.383 105.846C105.362 105.721 105.339 105.595 105.315 105.469C105.297 105.497 105.279 105.523 105.259 105.549C105.067 105.798 104.814 105.894 104.64 105.945C103.442 106.295 102.077 105.685 101.079 104.352C100.207 103.187 99.7165 101.699 99.3167 100.264C99.0618 99.3491 98.8296 98.4113 98.605 97.5042C98.1743 95.7644 97.729 93.9655 97.1138 92.3042C96.3717 90.3 95.0332 87.6576 92.8705 86.4506C90.8375 85.316 88.4286 85.9195 87.2675 87.8543C86.7072 88.7878 86.3785 90.0857 86.2906 91.712C86.1607 94.1125 86.5353 96.5641 86.8976 98.9349L86.9763 99.4514C87.0519 99.9493 87.1343 100.45 87.2138 100.934C87.6578 103.632 88.0772 106.18 87.5353 109.014C87.1534 111.011 86.3377 112.64 85.2384 113.6C83.7811 114.873 81.6933 115.05 79.7899 114.061C78.3291 113.303 76.9746 111.947 75.5273 109.794C74.1793 107.788 73.0351 105.57 72.1268 103.199C71.1034 100.529 70.3824 97.6651 69.6852 94.8959C69.5925 94.5277 69.4999 94.1597 69.4065 93.7923C68.6707 90.8946 67.8787 87.9771 67.0526 85.1207C66.3628 82.7356 65.5512 80.3147 63.8994 79.2137C63.7021 79.0821 63.6263 78.7727 63.73 78.5226C63.8339 78.2725 64.0778 78.1765 64.2752 78.3078C66.1807 79.5782 67.0991 82.3086 67.8104 84.7682C68.6403 87.6375 69.4358 90.5681 70.175 93.4785C70.2685 93.8468 70.3613 94.2156 70.4543 94.5845C71.1428 97.3193 71.8548 100.147 72.8529 102.752C73.7314 105.044 74.838 107.19 76.1418 109.13C77.5022 111.154 78.7587 112.42 80.0957 113.114C81.75 113.973 83.5449 113.836 84.7803 112.757C85.7159 111.94 86.4155 110.525 86.7506 108.773C87.2496 106.163 86.8483 103.724 86.4234 101.143C86.3431 100.655 86.2601 100.15 86.1834 99.6446L86.1049 99.1295C85.7327 96.6941 85.3479 94.1758 85.485 91.6419C85.5839 89.8127 85.9675 88.3299 86.6247 87.2346C87.7663 85.3325 89.8949 84.4974 91.9342 85.0105C91.6853 84.744 91.4424 84.4676 91.2085 84.1786C91.1025 84.0477 90.9051 83.8038 90.8745 83.4342C90.8534 83.1794 90.9173 82.9305 91.0544 82.7333C91.277 82.4131 91.6416 82.2912 91.9086 82.2838C93.4539 82.2414 94.6373 83.7315 95.6271 85.1314C99.0661 89.9951 102.622 95.0245 104.891 101.08C105.526 102.776 105.933 104.222 106.172 105.631C106.484 107.469 106.518 109.353 106.551 111.175L106.759 122.586C106.764 122.868 106.588 123.103 106.365 123.109C106.362 123.109 106.359 123.109 106.355 123.109ZM97.1837 90.2915C97.4411 90.8361 97.6603 91.3711 97.8446 91.8691C98.4829 93.593 98.9366 95.4255 99.3753 97.1977C99.5978 98.0962 99.8277 99.0253 100.078 99.9228C100.448 101.251 100.896 102.621 101.664 103.647C102.455 104.702 103.551 105.212 104.459 104.947C104.574 104.914 104.649 104.875 104.682 104.833C104.697 104.814 104.733 104.752 104.754 104.583C104.855 103.79 104.437 102.96 104.001 102.178L99.2618 93.6831C98.6166 92.5266 97.9519 91.335 97.1837 90.2915ZM99.7391 92.7666C99.8 92.8753 99.8606 92.9839 99.921 93.0924L102.598 97.8905C101.732 96.1105 100.764 94.4115 99.7391 92.7666ZM91.7124 83.3681C91.7279 83.3897 91.748 83.4156 91.7723 83.4456C92.6037 84.4727 93.5802 85.355 94.5246 86.2083C95.3652 86.9678 96.2298 87.749 97.0159 88.6489C96.3553 87.6939 95.6886 86.751 95.0262 85.8143C94.1563 84.584 93.1265 83.2718 91.9265 83.3069C91.8406 83.3092 91.7624 83.3386 91.7124 83.3681Z" fill="#7F454B"/>
<path opacity="0.33" d="M121.318 84.7016C121.089 85.1638 120.849 85.6258 120.53 85.9908C120.095 86.4866 119.541 86.7736 118.993 87.0313C114.859 88.9747 109.09 90.5323 104.693 90.124C103.683 90.0301 102.676 89.8731 101.664 89.7907C100.324 89.6814 98.979 89.7034 97.6357 89.7254C97.0933 89.7342 96.5422 89.7448 96.0239 89.9474C95.3416 90.2142 94.5157 90.7671 94.0078 90.1309C93.6854 89.7273 93.7312 89.016 93.9937 88.5478C94.2563 88.0797 94.6784 87.8032 95.0924 87.57C100.58 84.4793 107.262 86.024 112.535 82.3841C114.441 81.0687 116.047 79.1389 117.424 77.0128C119.096 74.4314 120.528 71.456 122.783 69.7297C123.082 69.5016 124.089 69.251 124.089 69.251C124.089 69.251 123.846 74.107 123.614 75.1498C123.097 77.4717 121.886 83.5514 121.318 84.7016Z" fill="#606060"/>
<path d="M114.136 79.8077C114.091 81.5963 114.234 83.6764 115.603 84.7025C116.749 85.5624 118.61 85.4575 118.869 85.0216C122.439 79.0211 123.49 70.7719 123.821 63.665C123.893 62.1333 123.893 60.5418 123.31 59.1411C122.727 57.7405 121.411 56.581 119.985 56.7135C118.371 56.8634 117.243 58.5353 116.753 60.1899C114.929 66.3557 114.296 73.3806 114.136 79.8077Z" fill="#FFA385"/>
<path d="M100.693 84.7984C100.291 84.9438 99.852 85.1257 99.6115 85.6343C99.4205 86.038 99.3999 86.5575 99.3863 87.0453C99.3647 87.8161 99.3499 88.2534 99.7123 88.7846C100.041 89.2668 99.9148 89.2915 100.382 89.295C104.186 89.3235 108.995 88.8794 112.783 88.1455C114.831 87.7485 117.062 87.7294 118.56 85.5492C119.35 84.399 119.674 82.6669 119.445 81.0887C118.793 76.582 113.228 80.2612 111.388 80.9271C107.823 82.2174 104.258 83.5079 100.693 84.7984Z" fill="#FFA385"/>
<path d="M101.524 84.8599C101.382 85.6632 101.27 86.4752 101.19 87.2921C101.148 87.7106 101.115 88.1303 101.09 88.5509C101.074 88.8022 101.147 89.2796 100.858 89.2874C100.617 89.2938 100.375 89.3002 100.134 89.2915C99.6873 89.2755 99.2413 89.2073 98.8038 89.0886C98.4204 88.9846 98.0767 88.7333 97.6875 88.6605C97.3028 88.5885 96.9549 88.716 96.5816 88.787C96.2048 88.8588 95.8122 88.7849 95.4312 88.844C95.2616 88.8703 95.0868 88.9132 94.9451 89.0523C94.8034 89.1913 94.7036 89.4505 94.7474 89.692C94.7821 89.883 94.8985 90.0365 94.903 90.234C94.2436 90.7963 93.4371 89.8946 93.3498 88.891C93.1218 88.9525 92.8925 88.9401 92.6844 88.7698C92.4223 88.5552 92.191 88.0892 92.2902 87.6369C92.1078 87.6699 91.9161 87.5496 91.8066 87.3332C91.6971 87.1169 91.674 86.8131 91.7486 86.5669C91.5498 86.6514 91.314 86.7261 91.1534 86.5347C90.9594 86.3032 91.0104 85.858 91.0794 85.5055C91.1375 85.2089 91.1955 84.9122 91.2536 84.6156C91.2929 84.4149 91.334 84.2089 91.4213 84.0439C91.5431 83.8139 91.7367 83.6963 91.9211 83.5883C92.4394 83.2851 92.9578 82.9818 93.48 82.6934C93.9058 82.4582 94.3505 82.2293 94.8042 82.2821C95.2501 82.3339 95.6578 82.652 96.0592 82.9412C97.0361 83.6451 98.0585 84.2134 99.1081 84.6362C99.4527 84.775 99.8062 84.899 100.163 84.8748C100.574 84.8468 100.968 84.6239 101.378 84.5778C101.425 84.5725 101.477 84.5729 101.51 84.6221C101.55 84.6819 101.538 84.7792 101.524 84.8599Z" fill="#FFA385"/>
<path d="M93.3656 89.0702C93.3405 89.0702 93.3163 89.0529 93.3041 89.0228C93.1552 88.6578 93.3195 88.2178 93.456 87.9187C93.9364 86.8664 94.4819 85.7841 95.2143 84.9971C95.2436 84.9657 95.2872 84.9705 95.3118 85.0072C95.3365 85.0442 95.3329 85.0994 95.3038 85.1308C94.5874 85.9005 94.0499 86.9679 93.5757 88.0066C93.4555 88.27 93.3092 88.6537 93.4269 88.9422C93.4444 88.9852 93.4312 89.0381 93.3973 89.0604C93.3871 89.067 93.3762 89.0702 93.3656 89.0702ZM92.3116 87.8038C92.2981 87.8038 92.2845 87.7988 92.2725 87.7884C92.241 87.761 92.233 87.7065 92.2546 87.6666L93.8308 84.7522C94.0255 84.3893 94.1662 84.127 94.4592 83.8479C94.4896 83.8189 94.5331 83.8266 94.556 83.8654C94.5789 83.9041 94.5727 83.959 94.5422 83.9882C94.2676 84.2496 94.1393 84.4888 93.9452 84.8508L93.8764 84.9787L92.3686 87.7657C92.3553 87.7905 92.3336 87.8038 92.3116 87.8038ZM91.659 86.7623C91.6501 86.7623 91.6411 86.7601 91.6324 86.7555C91.5971 86.7368 91.5805 86.6855 91.5952 86.6408C91.9834 85.4614 92.6596 84.4 93.723 83.3004C93.7526 83.2702 93.7962 83.2755 93.8204 83.313C93.8445 83.3505 93.84 83.4057 93.8105 83.4364C92.7653 84.5169 92.102 85.5566 91.7228 86.7083C91.7117 86.7421 91.686 86.7623 91.659 86.7623ZM115.857 80.7419C115.822 80.7419 115.788 80.7241 115.762 80.6891C115.36 80.1388 114.744 79.8437 114.154 79.9181C114.084 79.928 114.019 79.8611 114.012 79.7705C114.005 79.6801 114.057 79.5992 114.129 79.5902C114.797 79.505 115.496 79.8407 115.953 80.4651C116.001 80.5319 115.998 80.6361 115.946 80.6979C115.921 80.7273 115.889 80.7419 115.857 80.7419Z" fill="#E28065"/>
<path d="M114.528 61.7411C113.956 64.8548 113.488 67.3808 113.623 70.2134C116.605 70.8134 120.024 71.9516 123.006 72.5516C123.173 72.5852 123.357 72.6157 123.503 72.5221C123.665 72.4178 123.72 72.1987 123.759 72.0006C124.273 69.3993 124.665 60.8196 124.239 58.126C123.897 55.9686 123.8 54.0949 122.197 52.7268C121.501 52.1323 120.308 51.6816 119.228 51.3251C118.402 51.0524 118.034 52.5317 117.588 53.3226C116.849 54.6324 114.76 60.4817 114.528 61.7411Z" fill="#C191E8"/>
<path d="M114.436 70.744C114.401 70.744 114.367 70.7218 114.348 70.6813C114.301 70.5847 114.201 70.5673 114.041 70.5502C113.926 70.5377 113.795 70.5236 113.684 70.4464C113.415 70.2604 113.384 69.8193 113.385 69.5037C113.39 65.9108 114.048 62.3042 115.289 59.0741C115.314 59.0085 115.376 58.9816 115.428 59.0133C115.479 59.0451 115.501 59.1239 115.476 59.1893C114.248 62.3839 113.597 65.9507 113.592 69.5041C113.592 69.7524 113.612 70.0964 113.783 70.2151C113.856 70.2657 113.955 70.2764 114.059 70.2876C114.228 70.3058 114.419 70.3264 114.524 70.543C114.554 70.6049 114.539 70.686 114.49 70.7242C114.473 70.7376 114.455 70.744 114.436 70.744Z" fill="#DD843A"/>
<path d="M60.6668 108.059C61.0558 109.142 61.5029 110.201 62.1148 110.906C62.8712 111.777 63.855 112.083 64.4499 113.275C64.5909 113.558 64.7085 113.91 64.6949 114.284C64.6634 115.153 64.0268 115.461 63.5282 115.539C62.8148 115.65 62.0713 115.755 61.4042 115.301C60.9038 114.96 60.4878 114.331 60.1007 113.682C59.5903 112.827 59.1059 111.905 58.7566 110.832C58.4466 109.879 58.2499 108.828 58.0913 107.768C57.7539 105.515 57.5805 103.188 57.5762 100.859C57.575 100.222 57.6233 97.608 58.2662 97.7381C58.6753 97.8209 58.7768 100.342 58.8745 100.956C59.2724 103.457 59.8766 105.859 60.6668 108.059Z" fill="#B56350"/>
<path d="M51.4749 113.983C51.8709 113.954 52.2955 113.953 52.6283 114.226C53.0801 114.597 53.2206 115.41 53.0345 116.05C52.8484 116.691 52.3983 117.163 51.9043 117.434C51.4103 117.706 50.8696 117.803 50.3364 117.899C49.792 117.996 49.2389 118.094 48.6942 117.998C47.6831 117.82 46.3739 116.243 47.4006 115.053C48.2547 114.063 50.4081 114.06 51.4749 113.983ZM33.3782 110.921C31.1382 114.207 25.0294 114.622 25.5289 120.539C25.7089 122.671 27.0389 124.514 28.6567 125.142C30.3065 125.782 32.172 126.05 33.8695 125.815C34.8651 125.677 35.8505 125.435 36.8187 125.112C37.1863 124.99 38.6069 124.676 37.8374 123.81C37.5922 123.534 37.231 123.519 36.9033 123.536C35.3377 123.615 33.7718 124.069 32.2175 123.818C31.4853 123.7 30.7072 123.369 30.3116 122.579C29.788 121.534 30.171 120.072 30.9021 119.251C32.3509 117.624 34.6954 117.532 36.5176 117.569C37.2879 117.585 38.0583 117.6 38.8286 117.616C38.2879 115.819 37.6557 114.066 36.9371 112.372C36.5237 111.398 35.0403 106.816 35.0403 106.816C35.4374 106.233 35.6526 107.583 33.3782 110.921Z" fill="#AD5945"/>
<path d="M64.2183 85.1456C63.8946 84.2991 63.8355 83.3358 63.7542 82.4007C63.5118 79.6121 63.0224 76.8456 62.1662 74.2586C61.8431 73.2821 61.4154 72.2643 60.6599 71.8125C59.7835 71.2886 58.5907 71.6052 57.9423 70.6926C57.7816 70.4663 57.6828 70.1988 57.6251 69.9102C57.6004 70.1193 57.5732 70.3278 57.5366 70.5339C57.3506 71.5815 56.9357 72.538 56.5119 73.4677C55.8761 74.8628 55.2088 76.235 54.5112 77.5818C53.8205 78.9152 53.0529 79.8097 52.0962 80.848C50.1238 82.9884 48.1179 85.0791 46.08 87.1184C44.0564 89.1435 41.9838 91.1388 40.3226 93.6382C39.0516 95.5505 38.0467 97.7211 37.1074 99.9198C35.964 102.596 34.881 105.48 34.9744 108.522C35.043 110.756 35.7503 112.89 36.6682 114.8C37.3523 116.224 37.5705 117.128 38.8282 117.616C39.6774 117.945 41.2599 118.314 42.148 118.321C45.7097 118.35 49.2394 120.677 52.7098 119.66C53.2507 119.501 53.8349 119.198 54.0514 118.55C54.4038 117.494 53.5025 116.38 52.611 116.19C51.7197 116 50.8009 116.333 49.9054 116.177C49.757 116.152 49.5892 116.092 49.5265 115.92C49.4591 115.734 49.5491 115.523 49.6362 115.351C50.6695 113.311 51.7028 111.27 52.7361 109.23C52.7746 109.154 52.8199 109.072 52.8893 109.051C52.9196 109.043 52.9483 109.047 52.9753 109.06C52.7729 107.846 52.5444 106.64 52.2738 105.447C51.8786 103.704 51.6227 102.564 51.5728 100.751C51.5552 100.11 51.6189 99.4432 51.8802 98.8934C52.1415 98.3437 52.6335 97.9376 53.1368 98.007C54.3904 98.1801 54.5781 100.74 55.7815 101.218C56.2698 101.412 56.8166 101.186 57.2122 100.774C57.6078 100.363 57.8756 99.7887 58.1026 99.2073C58.4451 98.3298 58.7138 97.4059 58.9026 96.4566C59.0215 95.8584 59.1123 95.2387 59.3556 94.7046C59.5989 94.1704 60.0388 93.7274 60.5248 93.759C60.9941 93.7894 61.3728 94.2343 61.707 94.6531C61.7459 94.702 61.7849 94.7508 61.8239 94.7996C62.4025 93.0891 62.9786 91.377 63.4711 89.6252C63.8537 88.2647 64.186 86.8806 64.5323 85.5037C64.4914 85.4989 64.4511 85.4842 64.4121 85.456C64.3201 85.3897 64.2643 85.2662 64.2183 85.1456Z" fill="#D1775E"/>
<path d="M60.525 93.7584C60.0391 93.7269 59.5992 94.1699 59.3558 94.704C59.1125 95.2382 59.0217 95.8579 58.9028 96.456C58.714 97.4054 58.4454 98.3292 58.1028 99.2067C57.8758 99.7881 57.608 100.362 57.2124 100.774C56.8168 101.185 56.27 101.411 55.7817 101.217C54.5783 100.739 54.3906 98.1795 53.137 98.0064C52.6337 97.937 52.1417 98.343 51.8804 98.8928C51.6192 99.4425 51.5554 100.109 51.5731 100.751C51.6229 102.563 51.8788 103.703 52.274 105.446C52.5446 106.639 52.7732 107.846 52.9755 109.06C53.0491 109.096 53.1093 109.198 53.1503 109.293C53.546 110.202 53.6342 111.155 53.886 112.114C54.4027 114.082 55.0658 116.061 56.2407 117.504C56.4707 117.787 56.8502 118.112 57.0452 118.434C57.3454 118.93 57.6457 119.426 57.946 119.922C58.5216 120.873 59.1219 121.852 59.9521 122.426C60.7361 122.967 61.6506 123.096 62.5386 123.215C63.377 123.327 64.4329 123.296 64.7966 122.332C65.0874 121.561 64.7095 120.618 64.1725 120.102C63.6355 119.585 62.9663 119.351 62.368 118.957C60.9854 118.048 60.0358 116.314 59.4722 114.474C58.2342 110.43 58.659 105.851 59.6895 101.716C60.2781 99.3532 61.0535 97.0776 61.8242 94.799C61.7852 94.7502 61.7463 94.7014 61.7073 94.6525C61.3731 94.2337 60.9943 93.7888 60.525 93.7584Z" fill="#AD5945"/>
<path d="M74.6687 68.6966C74.4663 68.0853 73.9012 67.8184 73.3854 67.709C71.6991 67.3511 69.8733 67.9493 68.3155 67.0559C67.8323 66.7787 67.4041 66.3709 66.9449 66.0344C66.2961 65.559 65.585 65.226 64.8626 64.9814C64.2472 64.773 63.6785 64.9217 63.2584 64.2459C62.7482 63.4253 62.3495 62.5108 61.919 61.6233C61.6197 61.0066 61.029 59.4186 60.4508 59.1769C59.1357 58.6272 59.4101 63.2687 59.2484 64.2367C59.2123 64.4533 59.1628 64.6643 59.1055 64.8719C59.1703 65.4799 59.2746 66.0813 59.4193 66.6669C59.5424 67.1653 59.7 67.6651 59.98 68.048C60.2601 68.4309 60.6861 68.6781 61.0879 68.5629C61.7316 68.3783 62.1774 67.3491 62.8269 67.4977C63.2154 67.5866 63.4624 68.0848 63.5631 68.5686C63.6637 69.0525 63.6694 69.5688 63.8209 70.0308C63.9724 70.4929 64.3444 70.9042 64.7288 70.7904C64.9869 70.714 65.1679 70.4318 65.3694 70.2134C65.6636 69.8945 66.0356 69.6924 66.4207 69.6425C66.5624 69.6241 66.7116 69.6275 66.8389 69.7086C66.9545 69.7822 67.041 69.9132 67.1114 70.0507C67.6591 71.1193 67.367 72.5399 66.9743 73.713C66.5816 74.8861 66.0929 76.1274 66.3057 77.3729C66.3608 77.6953 66.4615 78.0013 66.5605 78.3078C66.5715 78.2843 66.5812 78.2618 66.5929 78.2378C67.7784 78.4691 69.6788 78.2845 70.8716 78.1242C71.3469 78.0603 71.8531 77.6761 72.2281 77.3239C72.7459 76.8378 73.2931 75.713 72.4683 75.1601C72.1723 74.9617 71.8144 75.0861 71.4949 75.1098C70.5419 75.1805 69.5309 75.1247 68.6921 74.4816C68.6071 74.4165 68.5144 74.2847 68.5739 74.1838C68.6035 74.1337 68.6581 74.122 68.7072 74.1142C69.8791 73.9287 71.096 73.9593 72.1381 73.2138C73.0531 72.5593 73.8423 71.6174 74.3911 70.4794C74.6501 69.9423 74.8611 69.2774 74.6687 68.6966Z" fill="#D1775E"/>
<path d="M66.9735 73.7132C67.3663 72.5401 67.6584 71.1194 67.1107 70.0508C67.0402 69.9133 66.9537 69.7824 66.8382 69.7088C66.7109 69.6277 66.5616 69.6243 66.42 69.6427C66.0349 69.6926 65.6629 69.8946 65.3686 70.2136C65.1672 70.432 64.9862 70.7142 64.7281 70.7906C64.3437 70.9044 63.9716 70.4931 63.8201 70.031C63.6687 69.5689 63.663 69.0526 63.5623 68.5688C63.4617 68.0849 63.2147 67.5868 62.8262 67.4979C62.1767 67.3493 61.7309 68.3785 61.0872 68.563C60.6854 68.6782 60.2594 68.431 59.9793 68.0482C59.6992 67.6653 59.5417 67.1653 59.4186 66.667C59.2739 66.0814 59.1697 65.4802 59.1047 64.8721C58.7639 66.1064 58.109 67.2069 57.8278 68.4763C57.7242 68.9442 57.6819 69.4291 57.625 69.9102C57.6828 70.1988 57.7815 70.4664 57.9422 70.6926C58.5906 71.6053 59.7835 71.2886 60.6598 71.8126C61.4153 72.2643 61.843 73.2821 62.1661 74.2586C63.0223 76.8457 63.5117 79.6122 63.7541 82.4008C63.8354 83.3359 63.8945 84.2991 64.2182 85.1457C64.2643 85.2663 64.3201 85.3897 64.412 85.4559C64.4511 85.4841 64.4913 85.4987 64.5321 85.5036C64.9272 83.9321 65.3405 82.37 65.8682 80.8635C66.2409 79.7993 66.1056 79.2758 66.5596 78.3078C66.4606 78.0014 66.3598 77.6953 66.3048 77.3729C66.0921 76.1275 66.5808 74.8864 66.9735 73.7132Z" fill="#D1775E"/>
<path d="M61.5592 75.774C61.3901 75.4582 61.1439 75.071 60.8595 75.1959C60.7497 75.244 60.6691 75.3628 60.6036 75.4844C59.8598 76.8636 60.4624 78.656 60.6721 80.1248C60.9349 81.9663 60.5468 83.4071 60.1472 85.1787C59.4645 88.2065 59.5139 91.411 59.5686 94.5593C59.6 96.3664 59.6362 98.2086 60.1068 99.915C60.0558 99.73 60.6284 98.7155 60.714 98.5074C60.9334 97.9739 61.1435 97.4342 61.344 96.8888C61.6988 95.9238 62.0716 94.9909 62.4341 94.0443C63.2188 91.9949 63.7711 89.8175 64.2971 87.6441C64.9603 84.9032 66.4611 81.1868 66.4431 78.3706C64.5351 78.4588 62.7055 77.9145 61.5592 75.774ZM52.8976 109.282C52.8533 109.282 52.8125 109.244 52.7999 109.188C52.12 106.12 51.7085 102.952 51.5771 99.7695C51.5742 99.6986 51.6172 99.6379 51.6732 99.6342C51.7299 99.6277 51.7771 99.6851 51.78 99.7562C51.9107 102.919 52.3196 106.069 52.9954 109.118C53.0106 109.186 52.9791 109.257 52.9251 109.277C52.916 109.28 52.9068 109.282 52.8976 109.282ZM49.6364 116.344C49.3247 116.345 48.9333 116.235 48.6807 116.021C48.5254 115.89 48.4342 115.727 48.4172 115.55C48.361 114.969 48.574 114.401 48.745 113.945C49.5908 111.689 50.4395 109.274 50.7143 106.724C51.015 103.932 50.5277 101.309 49.3774 99.5286C48.4491 98.0916 47.0801 97.1657 45.6215 96.9883C44.1631 96.8123 42.68 97.3903 41.5533 98.5778C41.5101 98.623 41.446 98.6158 41.4102 98.561C41.3743 98.5062 41.3802 98.425 41.4234 98.3795C42.5916 97.1488 44.1289 96.5481 45.6409 96.732C47.1531 96.9157 48.5723 97.8757 49.5346 99.3656C50.7206 101.201 51.224 103.896 50.9156 106.759C50.6371 109.345 49.7812 111.782 48.9287 114.055C48.7605 114.504 48.5699 115.012 48.619 115.519C48.6312 115.645 48.7207 115.745 48.7937 115.807C49.0882 116.057 49.6183 116.145 49.878 116.054C49.9318 116.034 49.9879 116.075 50.003 116.143C50.0179 116.212 49.9862 116.283 49.9321 116.302C49.8507 116.33 49.7487 116.344 49.6364 116.344Z" fill="#AD5945"/>
<path d="M55.8682 87.1198C57.0047 88.6115 58.3773 89.7976 59.4676 91.3438C60.4492 92.7357 61.1842 94.4054 61.6034 96.1952C61.6347 96.3293 61.6909 96.4916 61.8011 96.4945C61.87 96.4964 61.9271 96.431 61.9754 96.3689C63.5214 94.3815 64.1273 91.5403 64.6428 88.8268C64.9609 87.1531 65.2686 85.4595 65.2838 83.7381C65.2845 83.6501 65.2826 83.5545 65.2393 83.4857C65.1882 83.4043 65.0976 83.3877 65.016 83.3761C63.704 83.1896 62.4239 82.7617 61.1777 82.2182C60.2538 81.8153 59.2139 81.0327 58.2251 81.1323C58.0572 81.1492 57.8855 81.1856 57.7228 81.1307C57.4349 81.0336 57.2519 80.6828 57.0033 80.4746C56.6805 80.2043 56.2629 80.1875 55.9208 79.9588C55.5248 79.6941 55.2852 79.2027 55.0442 78.7454C54.8843 78.442 54.4683 77.5156 54.0807 77.7288C53.9669 77.7914 53.9371 77.9722 53.8918 78.1185C53.8404 78.2842 53.7534 78.4275 53.6675 78.5683C53.5384 78.7799 53.4092 78.9915 53.2801 79.2032C53.197 79.3394 53.1124 79.479 53.0699 79.6425C52.9914 79.9439 53.1779 80.319 53.2114 80.6291C53.2425 80.9163 53.2764 81.2063 53.3325 81.4877C53.7546 83.6075 54.6745 85.553 55.8682 87.1198Z" fill="#B7AE6C"/>
<path d="M59.5449 90.4803C59.43 90.3867 59.3609 90.2096 59.372 90.0371C59.383 89.8645 59.4738 89.7039 59.5991 89.635C59.771 89.5407 60.0108 89.5926 60.1303 89.3827C60.2398 89.1902 60.1837 88.9085 60.3136 88.7228C60.4252 88.563 60.6346 88.5635 60.7756 88.6801C60.9167 88.7967 60.9985 89.0004 61.0447 89.2056C61.0909 89.4109 61.1077 89.6253 61.153 89.8308C61.3262 90.6166 61.9161 91.3615 62.4941 91.6862C62.6331 91.7642 62.7818 91.8135 62.9179 91.8994C63.054 91.9852 63.1816 92.1175 63.2301 92.3001C63.2739 92.4648 63.2438 92.6576 63.1538 92.7888C63.0285 92.9716 62.8688 92.9851 62.7125 92.889C62.5959 92.8172 62.4505 92.7448 62.3377 92.8886C62.1856 93.0824 62.3559 93.4106 62.2332 93.625C62.1514 93.7679 61.9946 93.8216 61.859 93.7818C61.7233 93.7421 61.6088 93.6223 61.5267 93.4797C61.3621 93.1937 61.3176 92.8286 61.2381 92.4892C61.0973 91.8884 60.8321 91.3463 60.4808 90.907C60.3676 90.7654 60.2775 90.677 60.1206 90.635C59.9323 90.5845 59.7129 90.6173 59.5449 90.4803ZM63.4089 87.1524C63.4632 87.086 63.5475 87.0769 63.6199 87.1297C63.6922 87.1824 63.7495 87.2947 63.7632 87.4108C63.782 87.57 63.7299 87.7452 63.8047 87.8927C63.8732 88.0279 64.0005 88.0558 64.0636 88.2053C64.1179 88.3339 64.0915 88.4983 64.0241 88.5793C63.9566 88.6604 63.8594 88.6727 63.7659 88.6567C63.6724 88.6406 63.5788 88.599 63.4853 88.5821C63.128 88.5177 62.736 88.7911 62.525 89.1627C62.4743 89.252 62.4347 89.3563 62.381 89.4413C62.3273 89.5263 62.2549 89.5929 62.1708 89.5844C62.0949 89.5767 62.0163 89.5038 61.9715 89.3996C61.9091 89.2545 61.9232 89.1254 61.9839 89.0272C62.0291 88.9539 62.0782 88.8581 62.0309 88.7328C61.9672 88.5638 61.8057 88.6138 61.7294 88.4626C61.6786 88.3619 61.6753 88.2249 61.7092 88.1284C61.7432 88.0319 61.8086 87.9725 61.8798 87.9444C62.0226 87.888 62.1841 87.9462 62.339 87.9704C62.6133 88.013 62.878 87.943 63.1096 87.7791C63.1842 87.7262 63.2333 87.678 63.2708 87.5654C63.316 87.4303 63.3294 87.2495 63.4089 87.1524ZM57.9904 87.6321C57.9024 87.6394 57.8166 87.5748 57.7756 87.4704C57.7345 87.3659 57.74 87.2262 57.7892 87.1206C57.8568 86.9757 58.0012 86.8786 58.0088 86.6954C58.0158 86.5276 57.9085 86.3963 57.9283 86.2215C57.9453 86.0712 58.0592 85.9607 58.1676 85.9527C58.276 85.9447 58.376 86.0178 58.4571 86.1105C58.5382 86.2034 58.6058 86.3169 58.6865 86.4104C58.9949 86.7677 59.5185 86.8811 59.9211 86.7608C60.0178 86.7318 60.112 86.6813 60.2094 86.6584C60.3067 86.6356 60.4121 86.6435 60.4883 86.7221C60.557 86.7931 60.5933 86.9192 60.5802 87.0417C60.5621 87.2123 60.479 87.3046 60.3679 87.3323C60.285 87.3529 60.1863 87.3885 60.1642 87.5303C60.1345 87.7214 60.3165 87.8188 60.3084 88.0063C60.303 88.1312 60.2324 88.2447 60.1479 88.2938C60.0634 88.3429 59.9685 88.3351 59.885 88.297C59.7176 88.2207 59.5938 88.0357 59.458 87.8839C59.2176 87.6153 58.9257 87.4459 58.6151 87.3807C58.5149 87.3597 58.4419 87.3569 58.3451 87.4159C58.2292 87.4867 58.119 87.6215 57.9904 87.6321ZM56.2509 82.519C56.2015 82.4166 56.2002 82.2795 56.2474 82.1761C56.2947 82.0726 56.3886 82.007 56.4824 82.012C56.6111 82.0188 56.7476 82.1431 56.8709 82.0577C56.9839 81.9795 57.0151 81.7822 57.1391 81.7159C57.2457 81.6589 57.3755 81.7393 57.4357 81.8662C57.4958 81.993 57.4989 82.1515 57.4795 82.2973C57.4601 82.4431 57.4203 82.5834 57.4003 82.7291C57.3238 83.286 57.5153 83.9769 57.7977 84.401C57.8657 84.503 57.9463 84.5906 58.0106 84.6964C58.0749 84.8021 58.1231 84.9335 58.1104 85.0661C58.099 85.1857 58.0352 85.2946 57.9487 85.3421C57.8282 85.4082 57.726 85.3555 57.6516 85.2356C57.5961 85.1463 57.5228 85.0453 57.4192 85.0919C57.2795 85.1547 57.3083 85.4248 57.182 85.5117C57.0979 85.5696 56.988 85.543 56.9132 85.4663C56.8384 85.3896 56.7954 85.271 56.7779 85.1505C56.7428 84.9089 56.8007 84.6639 56.8307 84.4215C56.884 83.9925 56.8465 83.5525 56.7315 83.1438C56.6945 83.012 56.6593 82.9224 56.5718 82.836C56.4667 82.7323 56.323 82.6689 56.2509 82.519ZM62.9629 83.6526C63.0626 83.5967 63.1863 83.614 63.2726 83.6959C63.359 83.7778 63.4043 83.9208 63.386 84.0538C63.3609 84.2361 63.2288 84.4131 63.2875 84.6007C63.3414 84.7726 63.5148 84.8448 63.5562 85.0307C63.5919 85.1906 63.5003 85.3642 63.3771 85.4319C63.254 85.4998 63.1106 85.4819 62.982 85.4337C62.8534 85.3855 62.7329 85.3091 62.6045 85.2601C62.1137 85.0726 61.4627 85.2481 61.0389 85.5908C60.937 85.6732 60.8461 85.7757 60.7413 85.8524C60.6365 85.9292 60.511 85.9793 60.3933 85.9425C60.2872 85.9094 60.1984 85.8032 60.1683 85.6733C60.1264 85.4924 60.189 85.3542 60.308 85.2651C60.3967 85.1987 60.4985 85.1085 60.4718 84.9544C60.4357 84.7466 60.188 84.7496 60.1282 84.5574C60.0883 84.4294 60.1285 84.2766 60.2086 84.1809C60.2889 84.0851 60.402 84.0406 60.5132 84.0326C60.7363 84.0166 60.9485 84.1335 61.1626 84.2105C61.5416 84.3468 61.9437 84.3553 62.3291 84.2491C62.4533 84.2149 62.5393 84.1773 62.63 84.0649C62.7388 83.93 62.8172 83.7343 62.9629 83.6526Z" fill="#F3E3CA"/>
<path d="M62.2063 67.5813C62.1845 67.5813 62.1625 67.5725 62.144 67.5542C61.178 66.6026 60.5759 65.048 60.5728 63.4972C60.5724 63.2709 60.5832 63.0388 60.5937 62.8143C60.6242 62.1649 60.653 61.5515 60.4366 61.0161C60.4002 60.9261 60.3574 60.8403 60.3122 60.7496C60.2435 60.6117 60.1725 60.4692 60.1243 60.3084C60.0395 60.025 60.0441 59.6421 60.2461 59.4258C60.289 59.3802 60.353 59.3867 60.3893 59.4411C60.4255 59.4955 60.4201 59.5768 60.3772 59.6226C60.2519 59.7569 60.2567 60.0248 60.3143 60.217C60.3552 60.3535 60.4178 60.4791 60.484 60.612C60.5297 60.7036 60.577 60.7984 60.6175 60.8988C60.8591 61.4966 60.8273 62.1743 60.7966 62.8297C60.7863 63.0502 60.7756 63.2782 60.7761 63.4967C60.779 64.9701 61.351 66.447 62.2687 67.351C62.313 67.3947 62.321 67.4755 62.2866 67.5317C62.2665 67.5642 62.2365 67.5813 62.2063 67.5813Z" fill="#AD5945"/>
<path d="M73.3837 68.5983C73.3699 68.7144 73.3777 68.8394 73.4275 68.9384C73.4931 69.069 73.6157 69.1294 73.7236 69.202C74.1102 69.462 74.379 69.9842 74.411 70.5375C74.6072 70.3067 74.7626 70.0204 74.8626 69.7057C74.9885 69.3096 75.0221 68.8441 74.8695 68.4634C74.5844 67.7523 73.4938 67.6684 73.3837 68.5983ZM67.2687 69.2427C67.0029 69.2981 66.7394 69.2676 66.4766 69.2159C66.6538 68.7626 67.001 67.779 67.4793 67.7705C67.5415 67.7695 67.5964 67.8192 67.6444 67.8694C67.7557 67.9859 67.8573 68.1172 67.9471 68.2604C67.9995 68.3441 68.0502 68.4411 68.0454 68.5478C68.042 68.6252 68.0095 68.6958 67.9723 68.7573C67.8062 69.0329 67.5385 69.1864 67.2687 69.2427Z" fill="#512229"/>
<path d="M68.1349 74.7034C68.6819 75.0318 69.2266 75.4413 69.8314 75.472C69.9892 75.4801 70.1471 75.4616 70.3044 75.4432C70.6295 75.405 70.9628 75.3642 71.2564 75.1832C71.307 75.1521 71.3566 75.117 71.4072 75.0857C70.9992 75.0912 70.5913 75.0976 70.1862 75.0412C69.7566 74.9814 69.3241 74.846 68.9446 74.5772C68.7994 74.4744 68.6506 74.2411 68.4981 74.1835C68.2925 74.106 67.9453 74.2167 67.7325 74.2333C67.4398 74.2562 67.0897 74.3273 66.9731 74.6684C66.9729 74.6689 66.9729 74.6694 66.9727 74.6699C67.1416 74.5246 67.3484 74.4508 67.5521 74.4692C67.7565 74.4877 67.9496 74.5921 68.1349 74.7034Z" fill="#7F454B"/>
<path d="M71.8471 75.1121C71.8396 75.1005 71.8293 75.0936 71.8206 75.0839C71.7498 75.0058 71.6432 74.9883 71.5499 75.0168C71.4998 75.0322 71.4525 75.0576 71.4061 75.0862C71.3555 75.1174 71.3059 75.1525 71.2553 75.1837C70.9617 75.3646 70.6284 75.4055 70.3033 75.4436C70.146 75.4621 69.9881 75.4805 69.8303 75.4725C69.2256 75.4418 68.6808 75.0322 68.1338 74.7038C67.9485 74.5926 67.7554 74.4881 67.5509 74.4696C67.3472 74.4511 67.1405 74.525 66.9715 74.6703C66.8932 74.9017 66.9606 75.1736 67.0685 75.3851C67.2838 75.8073 67.6416 76.0771 68.0029 76.2848C68.8323 76.7618 69.7504 76.994 70.6602 76.9422C70.9084 76.8142 71.1448 76.6499 71.3607 76.4485C71.6445 76.1839 71.9121 75.8081 71.9061 75.3616C71.905 75.2732 71.8913 75.1807 71.8471 75.1121Z" fill="#C14F56"/>
<path d="M72.4438 75.2395C72.3268 75.106 72.1555 75.0904 71.9982 75.0863C71.9389 75.0848 71.8797 75.0844 71.8204 75.084C71.8292 75.0937 71.8395 75.1005 71.8469 75.1122C71.8911 75.1808 71.9048 75.2733 71.9061 75.3619C71.912 75.8083 71.6444 76.1841 71.3607 76.4487C71.1448 76.65 70.9083 76.8143 70.6602 76.9425C70.6783 76.9414 70.6964 76.9422 70.7146 76.9409C72.5242 76.8152 72.6597 75.9578 72.7034 75.7645C72.7471 75.5712 72.5617 75.3742 72.4438 75.2395Z" fill="#7F454B"/>
<path d="M70.5541 77.0948C70.459 77.0948 70.3642 77.0935 70.2701 77.0923C70.1139 77.0923 68.6874 77.0497 67.0583 75.5745C66.893 75.4248 66.7206 75.1281 66.7331 74.8308C66.7406 74.6506 66.842 74.5178 66.9091 74.4298C66.9481 74.3786 67.0125 74.3775 67.0528 74.4269C67.0931 74.4763 67.0941 74.5579 67.0551 74.609C66.9942 74.6888 66.9392 74.7669 66.936 74.8444C66.9281 75.0338 67.054 75.2539 67.1764 75.3647C68.7541 76.7933 70.1206 76.8347 70.2712 76.8347C70.7186 76.8409 71.1796 76.8465 71.6167 76.7169C72.0922 76.576 72.4787 76.2777 72.7053 75.877C72.738 75.8191 72.8014 75.8058 72.847 75.8473C72.8927 75.8887 72.9032 75.9691 72.8704 76.0269C72.6153 76.4785 72.1864 76.8125 71.663 76.9677C71.2966 77.0763 70.9223 77.0948 70.5541 77.0948Z" fill="#AD5945"/>
<path d="M55.078 83.8854C55.052 83.8854 55.026 83.8733 55.0057 83.8488C54.4995 83.2387 54.2443 82.3999 54.0785 81.7373C54.0206 81.5062 53.968 81.2726 53.9154 81.0391C53.7988 80.5223 53.6784 79.9877 53.5007 79.4961C53.4561 79.3729 53.3902 79.2858 53.3525 79.3024C53.2978 79.3271 53.238 79.2904 53.2188 79.2211C53.1997 79.1519 53.2283 79.076 53.2829 79.0517C53.4354 78.9837 53.592 79.1114 53.6912 79.3853C53.8755 79.8954 53.9982 80.4397 54.1169 80.9662C54.1689 81.1972 54.2211 81.4283 54.2783 81.657C54.4365 82.2893 54.6786 83.088 55.1502 83.6564C55.1921 83.7069 55.1938 83.791 55.1539 83.8442C55.1334 83.8715 55.1057 83.8854 55.078 83.8854ZM56.5132 83.578C56.4951 83.578 56.4767 83.572 56.46 83.5595C55.8363 83.0926 55.1293 82.5635 54.7017 81.7173C54.5468 81.4109 54.4379 81.0822 54.3308 80.7442C54.0756 79.9382 53.8057 78.9974 53.8329 78.0307C53.8351 77.9573 53.8841 77.8981 53.9414 77.9026C53.9993 77.9052 54.0445 77.9669 54.0424 78.0401C54.0166 78.955 54.2782 79.8645 54.5253 80.6453C54.6285 80.9709 54.733 81.2869 54.8781 81.5739C55.2788 82.3668 55.963 82.8788 56.5666 83.3306C56.6164 83.3679 56.633 83.4494 56.6036 83.5126C56.584 83.5546 56.5491 83.578 56.5132 83.578ZM62.5586 88.6658C62.52 88.6658 62.4828 88.6386 62.4645 88.5916C61.7764 86.8195 61.0471 85.6499 60.1695 84.9109C60.0779 84.8337 59.984 84.7608 59.89 84.6878C59.6889 84.5315 59.481 84.3699 59.2967 84.1676C58.9245 83.7591 58.6617 83.204 58.4078 82.6672C58.0542 81.9199 57.7202 81.214 57.1267 80.9298C57.0725 80.9039 57.0452 80.8271 57.0657 80.7585C57.0862 80.6899 57.1468 80.6554 57.2008 80.6812C57.8626 80.9981 58.2311 81.7771 58.5876 82.5305C58.8331 83.0494 59.087 83.586 59.434 83.9668C59.6053 84.1548 59.7968 84.3037 59.9997 84.4612C60.0957 84.536 60.1919 84.6106 60.2856 84.6896C61.1953 85.4558 61.9474 86.6584 62.6526 88.4744C62.6782 88.5402 62.6568 88.6199 62.6049 88.6522C62.5899 88.6614 62.5742 88.6658 62.5586 88.6658Z" fill="#968B4B"/>
<path d="M66.4434 79.6854C66.4434 79.6854 60.8351 79.555 56.819 72.7764L56.2129 74.1155C56.2129 74.1155 59.1993 80.2951 66.037 81.4385L66.4434 79.6854Z" fill="#7F454B"/>
<path d="M37.865 169.04C37.865 169.782 37.7413 170.463 37.494 171.084C37.2467 171.704 36.899 172.239 36.451 172.687C36.003 173.135 35.464 173.482 34.834 173.73C34.204 173.977 33.504 174.101 32.734 174.101H28.877V163.979H32.734C33.504 163.979 34.204 164.105 34.834 164.357C35.464 164.604 36.003 164.952 36.451 165.4C36.899 165.843 37.2467 166.375 37.494 166.996C37.7413 167.616 37.865 168.298 37.865 169.04ZM35.933 169.04C35.933 168.484 35.8583 167.987 35.709 167.549C35.5643 167.105 35.352 166.732 35.072 166.429C34.7967 166.121 34.4607 165.885 34.064 165.722C33.672 165.558 33.2287 165.477 32.734 165.477H30.767V172.603H32.734C33.2287 172.603 33.672 172.521 34.064 172.358C34.4607 172.194 34.7967 171.961 35.072 171.658C35.352 171.35 35.5643 170.976 35.709 170.538C35.8583 170.094 35.933 169.595 35.933 169.04ZM42.8707 171.035C42.3713 171.058 41.9513 171.102 41.6107 171.168C41.27 171.228 40.997 171.308 40.7917 171.406C40.5863 171.504 40.4393 171.618 40.3507 171.749C40.262 171.879 40.2177 172.022 40.2177 172.176C40.2177 172.479 40.3063 172.696 40.4837 172.827C40.6657 172.957 40.9013 173.023 41.1907 173.023C41.5453 173.023 41.851 172.96 42.1077 172.834C42.369 172.703 42.6233 172.507 42.8707 172.246V171.035ZM38.9087 167.92C39.7347 167.164 40.7287 166.786 41.8907 166.786C42.3107 166.786 42.6863 166.856 43.0177 166.996C43.349 167.131 43.629 167.322 43.8577 167.57C44.0863 167.812 44.259 168.104 44.3757 168.445C44.497 168.785 44.5577 169.159 44.5577 169.565V174.101H43.7737C43.6103 174.101 43.4843 174.077 43.3957 174.031C43.307 173.979 43.237 173.879 43.1857 173.73L43.0317 173.212C42.8497 173.375 42.6723 173.52 42.4997 173.646C42.327 173.767 42.1473 173.87 41.9607 173.954C41.774 174.038 41.5733 174.101 41.3587 174.143C41.1487 174.189 40.9153 174.213 40.6587 174.213C40.3553 174.213 40.0753 174.173 39.8187 174.094C39.562 174.01 39.3403 173.886 39.1537 173.723C38.967 173.559 38.8223 173.356 38.7197 173.114C38.617 172.871 38.5657 172.589 38.5657 172.267C38.5657 172.085 38.596 171.905 38.6567 171.728C38.7173 171.546 38.8153 171.373 38.9507 171.21C39.0907 171.046 39.2703 170.892 39.4897 170.748C39.709 170.603 39.9773 170.477 40.2947 170.37C40.6167 170.262 40.99 170.176 41.4147 170.111C41.8393 170.041 42.3247 169.999 42.8707 169.985V169.565C42.8707 169.084 42.768 168.729 42.5627 168.501C42.3573 168.267 42.061 168.151 41.6737 168.151C41.3937 168.151 41.1603 168.183 40.9737 168.249C40.7917 168.314 40.6307 168.389 40.4907 168.473C40.3507 168.552 40.2223 168.624 40.1057 168.69C39.9937 168.755 39.8677 168.788 39.7277 168.788C39.6063 168.788 39.5037 168.757 39.4197 168.697C39.3357 168.631 39.268 168.557 39.2167 168.473L38.9087 167.92ZM52.505 166.919L48.592 176.075C48.5406 176.196 48.473 176.287 48.389 176.348C48.3096 176.413 48.186 176.446 48.018 176.446H46.73L48.074 173.562L45.169 166.919H46.688C46.8233 166.919 46.9283 166.951 47.003 167.017C47.0823 167.082 47.1406 167.157 47.178 167.241L48.704 170.965C48.7553 171.091 48.7973 171.217 48.83 171.343C48.8673 171.469 48.9023 171.597 48.935 171.728C48.977 171.597 49.019 171.469 49.061 171.343C49.103 171.212 49.1496 171.084 49.201 170.958L50.643 167.241C50.6803 167.147 50.741 167.07 50.825 167.01C50.9136 166.949 51.0116 166.919 51.119 166.919H52.505ZM66.3805 166.919L64.0985 174.101H62.7125C62.5538 174.101 62.4442 173.998 62.3835 173.793L61.0955 169.642C61.0535 169.502 61.0138 169.364 60.9765 169.229C60.9438 169.089 60.9158 168.949 60.8925 168.809C60.8645 168.949 60.8318 169.091 60.7945 169.236C60.7618 169.376 60.7245 169.516 60.6825 169.656L59.3735 173.793C59.3175 173.998 59.1938 174.101 59.0025 174.101H57.6725L55.3975 166.919H56.7765C56.9025 166.919 57.0098 166.949 57.0985 167.01C57.1872 167.07 57.2455 167.147 57.2735 167.241L58.3025 171.077C58.3538 171.287 58.3982 171.492 58.4355 171.693C58.4775 171.893 58.5125 172.094 58.5405 172.295C58.5918 172.094 58.6455 171.893 58.7015 171.693C58.7622 171.492 58.8252 171.287 58.8905 171.077L60.0805 167.227C60.1085 167.133 60.1622 167.056 60.2415 166.996C60.3255 166.935 60.4258 166.905 60.5425 166.905H61.3055C61.4268 166.905 61.5295 166.935 61.6135 166.996C61.7022 167.056 61.7605 167.133 61.7885 167.227L62.9435 171.077C63.0042 171.287 63.0602 171.494 63.1115 171.7C63.1675 171.9 63.2212 172.101 63.2725 172.302C63.3332 171.905 63.4195 171.497 63.5315 171.077L64.5885 167.241C64.6212 167.147 64.6795 167.07 64.7635 167.01C64.8475 166.949 64.9478 166.919 65.0645 166.919H66.3805ZM69.1558 166.919V174.101H67.4198V166.919H69.1558ZM69.3938 164.826C69.3938 164.975 69.3634 165.115 69.3028 165.246C69.2421 165.376 69.1604 165.491 69.0578 165.589C68.9598 165.687 68.8431 165.766 68.7078 165.827C68.5724 165.883 68.4278 165.911 68.2738 165.911C68.1244 165.911 67.9821 165.883 67.8468 165.827C67.7161 165.766 67.6018 165.687 67.5038 165.589C67.4058 165.491 67.3264 165.376 67.2658 165.246C67.2098 165.115 67.1818 164.975 67.1818 164.826C67.1818 164.672 67.2098 164.527 67.2658 164.392C67.3264 164.256 67.4058 164.14 67.5038 164.042C67.6018 163.944 67.7161 163.867 67.8468 163.811C67.9821 163.75 68.1244 163.72 68.2738 163.72C68.4278 163.72 68.5724 163.75 68.7078 163.811C68.8431 163.867 68.9598 163.944 69.0578 164.042C69.1604 164.14 69.2421 164.256 69.3028 164.392C69.3634 164.527 69.3938 164.672 69.3938 164.826ZM75.3005 168.319C75.2538 168.393 75.2048 168.447 75.1535 168.48C75.1021 168.508 75.0368 168.522 74.9575 168.522C74.8735 168.522 74.7825 168.498 74.6845 168.452C74.5911 168.405 74.4815 168.354 74.3555 168.298C74.2295 168.237 74.0848 168.183 73.9215 168.137C73.7628 168.09 73.5738 168.067 73.3545 168.067C73.0138 168.067 72.7455 168.139 72.5495 168.284C72.3581 168.428 72.2625 168.617 72.2625 168.851C72.2625 169.005 72.3115 169.135 72.4095 169.243C72.5121 169.345 72.6451 169.436 72.8085 169.516C72.9765 169.595 73.1655 169.667 73.3755 169.733C73.5855 169.793 73.7978 169.861 74.0125 169.936C74.2318 170.01 74.4465 170.097 74.6565 170.195C74.8665 170.288 75.0531 170.409 75.2165 170.559C75.3845 170.703 75.5175 170.878 75.6155 171.084C75.7181 171.289 75.7695 171.536 75.7695 171.826C75.7695 172.171 75.7065 172.491 75.5805 172.785C75.4591 173.074 75.2771 173.326 75.0345 173.541C74.7918 173.751 74.4908 173.916 74.1315 174.038C73.7768 174.154 73.3661 174.213 72.8995 174.213C72.6521 174.213 72.4095 174.189 72.1715 174.143C71.9381 174.101 71.7118 174.04 71.4925 173.961C71.2778 173.881 71.0771 173.788 70.8905 173.681C70.7085 173.573 70.5475 173.457 70.4075 173.331L70.8065 172.673C70.8578 172.593 70.9185 172.533 70.9885 172.491C71.0585 172.449 71.1471 172.428 71.2545 172.428C71.3618 172.428 71.4621 172.458 71.5555 172.519C71.6535 172.579 71.7655 172.645 71.8915 172.715C72.0175 172.785 72.1645 172.85 72.3325 172.911C72.5051 172.971 72.7221 173.002 72.9835 173.002C73.1888 173.002 73.3638 172.978 73.5085 172.932C73.6578 172.88 73.7791 172.815 73.8725 172.736C73.9705 172.656 74.0405 172.565 74.0825 172.463C74.1291 172.355 74.1525 172.246 74.1525 172.134C74.1525 171.966 74.1011 171.828 73.9985 171.721C73.9005 171.613 73.7675 171.52 73.5995 171.441C73.4361 171.361 73.2471 171.291 73.0325 171.231C72.8225 171.165 72.6055 171.095 72.3815 171.021C72.1621 170.946 71.9451 170.86 71.7305 170.762C71.5205 170.659 71.3315 170.531 71.1635 170.377C71.0001 170.223 70.8671 170.034 70.7645 169.81C70.6665 169.586 70.6175 169.315 70.6175 168.998C70.6175 168.704 70.6758 168.424 70.7925 168.158C70.9091 167.892 71.0795 167.661 71.3035 167.465C71.5321 167.264 71.8145 167.105 72.1505 166.989C72.4911 166.867 72.8831 166.807 73.3265 166.807C73.8211 166.807 74.2715 166.888 74.6775 167.052C75.0835 167.215 75.4218 167.43 75.6925 167.696L75.3005 168.319ZM81.6978 169.684C81.6978 169.46 81.6651 169.25 81.5998 169.054C81.5391 168.853 81.4458 168.678 81.3198 168.529C81.1938 168.379 81.0328 168.263 80.8368 168.179C80.6455 168.09 80.4215 168.046 80.1648 168.046C79.6655 168.046 79.2711 168.188 78.9818 168.473C78.6971 168.757 78.5151 169.161 78.4358 169.684H81.6978ZM78.4008 170.727C78.4288 171.095 78.4941 171.415 78.5968 171.686C78.6995 171.952 78.8348 172.173 79.0028 172.351C79.1708 172.523 79.3691 172.654 79.5978 172.743C79.8311 172.827 80.0878 172.869 80.3678 172.869C80.6478 172.869 80.8881 172.836 81.0888 172.771C81.2941 172.705 81.4715 172.633 81.6208 172.554C81.7748 172.474 81.9078 172.402 82.0198 172.337C82.1365 172.271 82.2485 172.239 82.3558 172.239C82.5005 172.239 82.6078 172.292 82.6778 172.4L83.1748 173.03C82.9835 173.254 82.7688 173.443 82.5308 173.597C82.2928 173.746 82.0431 173.867 81.7818 173.961C81.5251 174.049 81.2615 174.112 80.9908 174.15C80.7248 174.187 80.4658 174.206 80.2138 174.206C79.7145 174.206 79.2501 174.124 78.8208 173.961C78.3915 173.793 78.0181 173.548 77.7008 173.226C77.3835 172.899 77.1338 172.498 76.9518 172.022C76.7698 171.541 76.6788 170.986 76.6788 170.356C76.6788 169.866 76.7581 169.406 76.9168 168.977C77.0755 168.543 77.3018 168.167 77.5958 167.85C77.8945 167.528 78.2561 167.273 78.6808 167.087C79.1101 166.9 79.5931 166.807 80.1298 166.807C80.5825 166.807 81.0001 166.879 81.3828 167.024C81.7655 167.168 82.0945 167.381 82.3698 167.661C82.6451 167.936 82.8598 168.277 83.0138 168.683C83.1725 169.084 83.2518 169.544 83.2518 170.062C83.2518 170.323 83.2238 170.5 83.1678 170.594C83.1118 170.682 83.0045 170.727 82.8458 170.727H78.4008ZM92.0136 172.631C92.3636 172.631 92.6576 172.589 92.8956 172.505C93.1336 172.421 93.3226 172.309 93.4626 172.169C93.6073 172.029 93.7099 171.865 93.7706 171.679C93.8359 171.492 93.8686 171.294 93.8686 171.084C93.8686 170.864 93.8336 170.668 93.7636 170.496C93.6936 170.318 93.5839 170.169 93.4346 170.048C93.2853 169.922 93.0916 169.826 92.8536 169.761C92.6203 169.695 92.3379 169.663 92.0066 169.663H90.1096V172.631H92.0136ZM90.1096 165.435V168.361H91.6076C92.2516 168.361 92.7369 168.244 93.0636 168.011C93.3949 167.777 93.5606 167.406 93.5606 166.898C93.5606 166.37 93.4113 165.995 93.1126 165.771C92.8139 165.547 92.3473 165.435 91.7126 165.435H90.1096ZM91.7126 163.979C92.3753 163.979 92.9423 164.042 93.4136 164.168C93.8849 164.294 94.2699 164.473 94.5686 164.707C94.8719 164.94 95.0936 165.222 95.2336 165.554C95.3736 165.885 95.4436 166.258 95.4436 166.674C95.4436 166.912 95.4086 167.14 95.3386 167.36C95.2686 167.574 95.1589 167.777 95.0096 167.969C94.8649 168.155 94.6783 168.326 94.4496 168.48C94.2256 168.634 93.9573 168.764 93.6446 168.872C95.0353 169.184 95.7306 169.936 95.7306 171.126C95.7306 171.555 95.6489 171.952 95.4856 172.316C95.3223 172.68 95.0843 172.995 94.7716 173.261C94.4589 173.522 94.0739 173.727 93.6166 173.877C93.1593 174.026 92.6366 174.101 92.0486 174.101H88.2266V163.979H91.7126ZM100.251 166.807C100.783 166.807 101.266 166.893 101.7 167.066C102.138 167.238 102.512 167.483 102.82 167.801C103.132 168.118 103.373 168.505 103.541 168.963C103.709 169.42 103.793 169.931 103.793 170.496C103.793 171.065 103.709 171.578 103.541 172.036C103.373 172.493 103.132 172.883 102.82 173.205C102.512 173.527 102.138 173.774 101.7 173.947C101.266 174.119 100.783 174.206 100.251 174.206C99.7141 174.206 99.2264 174.119 98.7878 173.947C98.3491 173.774 97.9734 173.527 97.6608 173.205C97.3528 172.883 97.1124 172.493 96.9398 172.036C96.7718 171.578 96.6878 171.065 96.6878 170.496C96.6878 169.931 96.7718 169.42 96.9398 168.963C97.1124 168.505 97.3528 168.118 97.6608 167.801C97.9734 167.483 98.3491 167.238 98.7878 167.066C99.2264 166.893 99.7141 166.807 100.251 166.807ZM100.251 172.876C100.848 172.876 101.289 172.675 101.574 172.274C101.863 171.872 102.008 171.284 102.008 170.51C102.008 169.735 101.863 169.145 101.574 168.739C101.289 168.333 100.848 168.13 100.251 168.13C99.6441 168.13 99.1938 168.335 98.8998 168.746C98.6104 169.152 98.4658 169.74 98.4658 170.51C98.4658 171.28 98.6104 171.868 98.8998 172.274C99.1938 172.675 99.6441 172.876 100.251 172.876ZM108.906 171.035C108.406 171.058 107.986 171.102 107.646 171.168C107.305 171.228 107.032 171.308 106.827 171.406C106.621 171.504 106.474 171.618 106.386 171.749C106.297 171.879 106.253 172.022 106.253 172.176C106.253 172.479 106.341 172.696 106.519 172.827C106.701 172.957 106.936 173.023 107.226 173.023C107.58 173.023 107.886 172.96 108.143 172.834C108.404 172.703 108.658 172.507 108.906 172.246V171.035ZM104.944 167.92C105.77 167.164 106.764 166.786 107.926 166.786C108.346 166.786 108.721 166.856 109.053 166.996C109.384 167.131 109.664 167.322 109.893 167.57C110.121 167.812 110.294 168.104 110.411 168.445C110.532 168.785 110.593 169.159 110.593 169.565V174.101H109.809C109.645 174.101 109.519 174.077 109.431 174.031C109.342 173.979 109.272 173.879 109.221 173.73L109.067 173.212C108.885 173.375 108.707 173.52 108.535 173.646C108.362 173.767 108.182 173.87 107.996 173.954C107.809 174.038 107.608 174.101 107.394 174.143C107.184 174.189 106.95 174.213 106.694 174.213C106.39 174.213 106.11 174.173 105.854 174.094C105.597 174.01 105.375 173.886 105.189 173.723C105.002 173.559 104.857 173.356 104.755 173.114C104.652 172.871 104.601 172.589 104.601 172.267C104.601 172.085 104.631 171.905 104.692 171.728C104.752 171.546 104.85 171.373 104.986 171.21C105.126 171.046 105.305 170.892 105.525 170.748C105.744 170.603 106.012 170.477 106.33 170.37C106.652 170.262 107.025 170.176 107.45 170.111C107.874 170.041 108.36 169.999 108.906 169.985V169.565C108.906 169.084 108.803 168.729 108.598 168.501C108.392 168.267 108.096 168.151 107.709 168.151C107.429 168.151 107.195 168.183 107.009 168.249C106.827 168.314 106.666 168.389 106.526 168.473C106.386 168.552 106.257 168.624 106.141 168.69C106.029 168.755 105.903 168.788 105.763 168.788C105.641 168.788 105.539 168.757 105.455 168.697C105.371 168.631 105.303 168.557 105.252 168.473L104.944 167.92ZM113.852 168.165C114.076 167.735 114.342 167.399 114.65 167.157C114.958 166.909 115.322 166.786 115.742 166.786C116.074 166.786 116.34 166.858 116.54 167.003L116.428 168.298C116.405 168.382 116.37 168.442 116.323 168.48C116.281 168.512 116.223 168.529 116.148 168.529C116.078 168.529 115.973 168.517 115.833 168.494C115.698 168.47 115.565 168.459 115.434 168.459C115.243 168.459 115.073 168.487 114.923 168.543C114.774 168.599 114.639 168.68 114.517 168.788C114.401 168.89 114.296 169.016 114.202 169.166C114.114 169.315 114.03 169.485 113.95 169.677V174.101H112.221V166.919H113.236C113.414 166.919 113.537 166.951 113.607 167.017C113.677 167.077 113.724 167.189 113.747 167.353L113.852 168.165ZM121.76 168.753C121.564 168.515 121.35 168.347 121.116 168.249C120.888 168.151 120.64 168.102 120.374 168.102C120.113 168.102 119.877 168.151 119.667 168.249C119.457 168.347 119.278 168.496 119.128 168.697C118.979 168.893 118.865 169.145 118.785 169.453C118.706 169.756 118.666 170.115 118.666 170.531C118.666 170.951 118.699 171.308 118.764 171.602C118.834 171.891 118.932 172.129 119.058 172.316C119.184 172.498 119.338 172.631 119.52 172.715C119.702 172.794 119.905 172.834 120.129 172.834C120.489 172.834 120.794 172.759 121.046 172.61C121.298 172.46 121.536 172.248 121.76 171.973V168.753ZM123.489 163.699V174.101H122.432C122.204 174.101 122.059 173.996 121.998 173.786L121.851 173.093C121.562 173.424 121.228 173.692 120.85 173.898C120.477 174.103 120.041 174.206 119.541 174.206C119.149 174.206 118.79 174.124 118.463 173.961C118.137 173.797 117.854 173.562 117.616 173.254C117.383 172.941 117.201 172.556 117.07 172.099C116.944 171.641 116.881 171.119 116.881 170.531C116.881 169.999 116.954 169.504 117.098 169.047C117.243 168.589 117.451 168.193 117.721 167.857C117.992 167.521 118.316 167.259 118.694 167.073C119.072 166.881 119.497 166.786 119.968 166.786C120.37 166.786 120.713 166.849 120.997 166.975C121.282 167.101 121.536 167.271 121.76 167.486V163.699H123.489ZM126.988 166.919V174.101H125.252V166.919H126.988ZM127.226 164.826C127.226 164.975 127.195 165.115 127.135 165.246C127.074 165.376 126.992 165.491 126.89 165.589C126.792 165.687 126.675 165.766 126.54 165.827C126.404 165.883 126.26 165.911 126.106 165.911C125.956 165.911 125.814 165.883 125.679 165.827C125.548 165.766 125.434 165.687 125.336 165.589C125.238 165.491 125.158 165.376 125.098 165.246C125.042 165.115 125.014 164.975 125.014 164.826C125.014 164.672 125.042 164.527 125.098 164.392C125.158 164.256 125.238 164.14 125.336 164.042C125.434 163.944 125.548 163.867 125.679 163.811C125.814 163.75 125.956 163.72 126.106 163.72C126.26 163.72 126.404 163.75 126.54 163.811C126.675 163.867 126.792 163.944 126.89 164.042C126.992 164.14 127.074 164.256 127.135 164.392C127.195 164.527 127.226 164.672 127.226 164.826ZM130.367 167.801C130.512 167.656 130.664 167.523 130.822 167.402C130.986 167.276 131.156 167.171 131.333 167.087C131.515 166.998 131.709 166.93 131.914 166.884C132.12 166.832 132.344 166.807 132.586 166.807C132.978 166.807 133.326 166.874 133.629 167.01C133.933 167.14 134.185 167.327 134.385 167.57C134.591 167.808 134.745 168.095 134.847 168.431C134.955 168.762 135.008 169.128 135.008 169.53V174.101H133.279V169.53C133.279 169.091 133.179 168.753 132.978 168.515C132.778 168.272 132.472 168.151 132.061 168.151C131.763 168.151 131.483 168.218 131.221 168.354C130.96 168.489 130.713 168.673 130.479 168.907V174.101H128.75V166.919H129.807C130.031 166.919 130.178 167.024 130.248 167.234L130.367 167.801ZM139.278 170.335C139.492 170.335 139.679 170.307 139.838 170.251C139.996 170.19 140.127 170.108 140.23 170.006C140.337 169.903 140.416 169.779 140.468 169.635C140.524 169.49 140.552 169.331 140.552 169.159C140.552 168.804 140.444 168.524 140.23 168.319C140.02 168.109 139.702 168.004 139.278 168.004C138.853 168.004 138.533 168.109 138.319 168.319C138.109 168.524 138.004 168.804 138.004 169.159C138.004 169.327 138.029 169.483 138.081 169.628C138.137 169.772 138.216 169.898 138.319 170.006C138.426 170.108 138.559 170.19 138.718 170.251C138.881 170.307 139.068 170.335 139.278 170.335ZM141.231 174.423C141.231 174.283 141.189 174.168 141.105 174.08C141.021 173.991 140.906 173.923 140.762 173.877C140.617 173.825 140.447 173.788 140.251 173.765C140.059 173.741 139.854 173.725 139.635 173.716C139.42 173.702 139.196 173.69 138.963 173.681C138.734 173.671 138.51 173.653 138.291 173.625C138.099 173.732 137.943 173.858 137.822 174.003C137.705 174.147 137.647 174.315 137.647 174.507C137.647 174.633 137.677 174.749 137.738 174.857C137.803 174.969 137.903 175.064 138.039 175.144C138.179 175.223 138.358 175.284 138.578 175.326C138.797 175.372 139.065 175.396 139.383 175.396C139.705 175.396 139.982 175.37 140.216 175.319C140.449 175.272 140.64 175.204 140.79 175.116C140.944 175.032 141.056 174.929 141.126 174.808C141.196 174.691 141.231 174.563 141.231 174.423ZM142.953 167.164V167.808C142.953 168.013 142.829 168.139 142.582 168.186L141.938 168.305C142.036 168.552 142.085 168.823 142.085 169.117C142.085 169.471 142.012 169.793 141.868 170.083C141.728 170.367 141.532 170.61 141.28 170.811C141.028 171.011 140.729 171.168 140.384 171.28C140.043 171.387 139.674 171.441 139.278 171.441C139.138 171.441 139.002 171.434 138.872 171.42C138.741 171.406 138.613 171.387 138.487 171.364C138.263 171.499 138.151 171.651 138.151 171.819C138.151 171.963 138.216 172.071 138.347 172.141C138.482 172.206 138.659 172.253 138.879 172.281C139.098 172.309 139.348 172.327 139.628 172.337C139.908 172.341 140.195 172.355 140.489 172.379C140.783 172.402 141.07 172.444 141.35 172.505C141.63 172.561 141.879 172.652 142.099 172.778C142.318 172.904 142.493 173.076 142.624 173.296C142.759 173.51 142.827 173.788 142.827 174.129C142.827 174.446 142.747 174.754 142.589 175.053C142.435 175.351 142.208 175.617 141.91 175.851C141.616 176.084 141.252 176.271 140.818 176.411C140.388 176.555 139.898 176.628 139.348 176.628C138.806 176.628 138.335 176.574 137.934 176.467C137.532 176.364 137.199 176.224 136.933 176.047C136.667 175.874 136.468 175.673 136.338 175.445C136.207 175.216 136.142 174.978 136.142 174.731C136.142 174.395 136.242 174.115 136.443 173.891C136.648 173.662 136.928 173.48 137.283 173.345C137.091 173.247 136.94 173.116 136.828 172.953C136.716 172.789 136.66 172.575 136.66 172.309C136.66 172.201 136.678 172.092 136.716 171.98C136.758 171.863 136.816 171.749 136.891 171.637C136.97 171.525 137.068 171.42 137.185 171.322C137.301 171.219 137.439 171.128 137.598 171.049C137.234 170.853 136.947 170.591 136.737 170.265C136.531 169.938 136.429 169.555 136.429 169.117C136.429 168.762 136.499 168.442 136.639 168.158C136.783 167.868 136.982 167.623 137.234 167.423C137.49 167.217 137.791 167.061 138.137 166.954C138.487 166.846 138.867 166.793 139.278 166.793C139.586 166.793 139.875 166.825 140.146 166.891C140.416 166.951 140.664 167.042 140.888 167.164H142.953Z" fill="black"/>
</svg>
