<svg width="151" height="172" viewBox="0 0 151 172" fill="none" xmlns="http://www.w3.org/2000/svg">
<rect x="0.5" y="0.5" width="150" height="150" rx="75" fill="#BEC8FF"/>
<g style="mix-blend-mode:multiply">
<path d="M75.5 135.5C100.353 135.5 120.5 132.43 120.5 128.642C120.5 124.855 100.353 121.785 75.5 121.785C50.6472 121.785 30.5 124.855 30.5 128.642C30.5 132.43 50.6472 135.5 75.5 135.5Z" fill="#EBEBEB"/>
</g>
<path d="M56.0854 72.4912C60.7348 81.5522 65.2552 92.1468 64.0452 94.4114C62.8352 96.6761 53.9267 118.666 53.7292 120.863C53.5318 123.061 53.4701 123.329 53.4701 123.329L50.7305 122.33L56.0157 94.7387C56.0157 94.7387 49.8458 74.1562 56.0854 72.4912Z" fill="#424242"/>
<path d="M49.4473 124.815C49.5055 122.068 51.3411 120.561 51.1242 119.901C50.9073 119.24 51.4986 120.21 52.3479 120.83C53.1972 121.45 53.7885 121.427 53.551 120.417C53.3136 119.406 52.9392 118.889 54.0077 118.827C55.0761 118.765 55.172 119.054 54.8752 119.632C54.5784 120.21 55.172 122.499 60.7563 123.163C62.3545 122.088 63.7551 123.968 64.0907 124.691C60.7929 125.744 50.8285 125.702 49.4473 124.815Z" fill="#C191E8"/>
<path d="M60.4379 124.299C56.9254 125.414 50.9267 124.32 50.9267 124.32C50.9267 124.32 50.9701 123.646 49.7452 123.045C49.5614 123.616 49.461 124.213 49.4473 124.815C50.8285 125.703 60.7929 125.745 64.0885 124.696C63.7528 123.973 62.3522 122.094 60.7541 123.168C60.7541 123.163 60.8522 123.679 60.4379 124.299Z" fill="white"/>
<path d="M52.4553 123.868C52.8405 123.868 53.1528 123.542 53.1528 123.138C53.1528 122.735 52.8405 122.409 52.4553 122.409C52.0701 122.409 51.7578 122.735 51.7578 123.138C51.7578 123.542 52.0701 123.868 52.4553 123.868Z" fill="white"/>
<path d="M55.3926 122.93C55.3926 122.916 55.3789 121.405 56.5535 121.034L56.5992 121.191C55.5376 121.527 55.5501 122.914 55.5501 122.928L55.3926 122.93ZM57.3389 123.426C57.3389 123.415 57.3286 122.343 58.1962 122.08L58.2304 122.191C57.4462 122.43 57.4553 123.414 57.4553 123.424L57.3389 123.426Z" fill="white"/>
<path d="M41.752 71.5996C41.7189 71.6772 41.6858 71.7561 41.6538 71.8385C39.8274 76.2734 40.6424 80.2127 45.148 84.7527C49.7335 89.3668 54.4914 97.0076 54.4914 97.0076C53.9823 97.2739 54.9161 98.1626 54.5759 98.251C52.0291 98.9676 49.8214 104.915 48.6331 111.399C47.4448 117.884 46.5921 130.68 46.5921 130.68L48.9687 130.502C49.3934 126.948 57.3749 105.628 60.0061 101.716C62.6373 97.8043 61.7892 97.096 57.9685 85.1027C55.2517 72.7546 55.2517 72.3987 55.2517 72.3987L41.752 71.5996Z" fill="#575757"/>
<g style="mix-blend-mode:multiply">
<path d="M54.5725 98.251C52.0257 98.9676 49.818 104.915 48.6297 111.399C47.7256 116.33 47.019 124.896 46.7313 128.731L47.4836 128.59C47.4836 128.59 48.5018 116.33 49.2027 111.666C49.9036 107.001 53.7232 99.2065 55.1877 99.4729C56.6523 99.7392 56.6523 99.8061 55.9526 98.8064C55.2528 97.8067 55.061 97.1414 56.0793 97.2071C57.0975 97.2727 44.172 82.8153 43.5328 79.2846C42.8935 75.7538 46.9083 78.1511 51.302 75.0862L43.3045 71.6916L41.752 71.5996C41.7189 71.6772 41.6858 71.7561 41.6538 71.8385C39.8274 76.2734 40.6424 80.2127 45.148 84.7527C49.7335 89.3668 54.4914 97.0076 54.4914 97.0076C53.9789 97.2739 54.9126 98.1626 54.5725 98.251Z" fill="#EBEBEB"/>
</g>
<path d="M74.0332 74.3319C75.3277 75.5263 76.3996 76.2979 77.96 75.4069C79.5205 74.5158 81.0422 74.1181 80.8139 73.608C85.1117 72.164 85.9929 71.6193 85.292 71.4198C84.5912 71.2204 83.5798 71.6193 83.7213 71.5309C83.493 71.1642 82.6814 71.1726 82.6814 71.1726C82.2145 71.04 78.766 71.1845 77.6507 71.7614C76.5354 72.3384 75.5959 72.6501 75.3163 72.4781C75.0366 72.3061 74.0332 74.3319 74.0332 74.3319Z" fill="#FFD0A2"/>
<path d="M71.7461 72.2656C71.7632 72.3062 71.7803 72.3456 71.7986 72.3851C72.4424 73.8423 73.1171 74.6389 73.7392 74.5744C74.3613 74.5099 75.706 73.2773 75.5656 72.4245C75.0599 71.144 73.7906 70.167 73.7906 70.167L71.7461 72.2656Z" fill="#C191E8"/>
<path d="M58.185 40.4414C60.064 41.8747 65.8264 57.732 66.9097 58.7306C67.993 59.7291 69.711 62.229 72.131 66.5601C73.7874 69.527 74.462 70.5889 74.72 70.9603C74.766 71.0251 74.7956 71.1011 74.806 71.1811C74.8164 71.2611 74.8072 71.3425 74.7794 71.4178C74.2383 72.869 73.1961 73.778 71.8114 73.0231C70.3468 72.2229 64.17 63.826 63.4064 62.2959C62.6427 60.7659 57.5469 55.8986 57.4841 55.6322C57.4214 55.3658 58.185 40.4414 58.185 40.4414Z" fill="#DAABFF"/>
<path d="M49.9524 36.4214C45.9194 39.9748 44.2242 44.3249 44.4331 51.746C44.642 59.167 44.7299 62.896 44.7299 62.896C44.1363 63.6509 44.2208 64.3174 44.2208 64.3174C43.4993 64.8501 42.6923 67.1159 41.3761 68.2709C40.0599 69.426 39.4298 73.0236 43.4137 75.5104C47.3976 77.9972 57.1691 74.8893 57.3403 72.4455C57.5115 70.0017 56.4065 68.1372 56.6189 66.4052C56.8312 64.6733 58.572 58.6761 58.4453 57.3873C59.9738 55.211 62.5217 51.1249 62.4406 49.3033C62.3596 47.4818 60.9978 45.4382 59.9784 43.7062C58.959 41.9743 58.7478 41.1298 58.62 41.0415C58.4921 40.9531 49.9524 36.4214 49.9524 36.4214Z" fill="#C191E8"/>
<path d="M55.8691 81.1294C56.9729 82.0181 57.207 81.9727 57.6522 83.3056C58.0973 84.6386 59.7537 84.7712 59.7331 85.2382C59.7126 85.7053 58.8416 86.0373 57.9923 85.4771C57.143 84.9169 56.4855 84.5897 56.2937 84.9002C56.102 85.2108 53.981 87.5208 53.981 87.5208C53.7687 88.4979 52.6226 91.5413 52.537 91.0301C52.4514 90.5188 52.7493 88.4764 52.7493 88.4764C52.4308 89.2981 52.0484 90.6084 51.9217 90.0972C51.8448 89.7554 51.8232 89.4025 51.8578 89.0533C51.5393 88.8753 51.8795 85.7889 52.0484 85.255C52.2174 84.7211 53.5564 81.7457 53.5564 81.7457L55.8691 81.1294Z" fill="#FFD0A2"/>
<path d="M52.8714 78.8205C52.8657 78.8647 52.8599 78.9089 52.8554 78.9519C52.6579 80.5441 52.8234 81.594 53.3816 81.8855C53.9398 82.1769 55.7058 81.8855 56.0242 81.0864C56.2468 79.72 55.6738 78.1875 55.6738 78.1875L52.8714 78.8205Z" fill="#C191E8"/>
<path d="M60.8166 35.8439C59.586 36.9094 58.5244 37.8864 58.5667 39.3974C58.6089 40.9083 60.0506 44.6827 59.8406 45.3934C59.6306 46.1041 55.7642 47.0812 54.1946 42.5507C52.625 38.0202 54.2369 31.1797 54.2369 31.1797L57.5473 28.7812C57.5473 28.7812 60.9011 29.2746 61.1157 29.7141C61.3303 30.1537 60.8166 35.8439 60.8166 35.8439Z" fill="#FFD0A2"/>
<path d="M58.1831 29.6245C53.9812 37.3537 56.4857 43.3951 56.7825 43.8836C51.4755 42.2843 48.5464 38.0202 49.6925 35.3554C48.7587 36.821 48.971 38.5529 49.8626 39.3532C46.9757 37.5317 44.0408 35.1332 47.8249 31.6682C51.6091 28.2031 52.7495 23.939 54.278 20.56C55.8065 17.1809 58.9046 16.6136 59.4993 16.7867C61.3257 14.7885 64.2937 15.234 67.2263 17.3207C70.1589 19.4073 72.1497 19.8075 72.8723 20.0296C73.5948 20.2518 71.2159 26.2885 68.7114 27.2703C66.2069 28.2521 58.1831 29.6245 58.1831 29.6245Z" fill="#1F1F1F"/>
<path d="M69.7069 23.0723C69.7914 25.5376 69.7914 26.8944 69.4101 28.1355C69.0289 29.3765 69.006 30.6008 68.8793 31.6447C68.7526 32.6886 68.3485 34.2438 67.4787 35.1539C66.6088 36.0641 65.9068 37.409 65.4411 38.275C64.9753 39.141 63.1911 39.1625 62.6603 38.6966C62.1295 38.2308 60.8772 36.6195 59.7312 35.6867C58.5851 34.7538 58.1444 34.2904 58.3294 32.6444C58.5143 30.9985 58.2027 30.1361 58.2027 30.1361C56.802 30.602 55.6981 30.1134 55.3374 28.5141C54.9767 26.9148 55.8043 25.9162 56.5041 25.7824C57.2038 25.6487 57.8202 26.1599 58.0965 27.5156C58.3727 28.8712 58.8602 29.0253 58.8602 29.0253C58.7757 27.8703 59.0725 26.8491 60.9617 26.2268C62.8509 25.6045 66.0141 23.8056 66.2264 23.3398C64.1717 25.5388 63.3817 25.8266 63.3817 25.8266C67.9033 24.496 69.7069 23.0723 69.7069 23.0723Z" fill="#FFD0A2"/>
<g style="mix-blend-mode:multiply">
<path d="M65.5357 27.5595C65.5505 28.908 64.8816 29.9627 64.635 30.1634C63.3999 30.241 62.6293 29.5124 62.4844 29.2496C62.7309 27.87 63.9524 27.2812 65.5357 27.5595Z" fill="#E0E0E0"/>
</g>
<path d="M64.635 30.1633C64.8245 30.0092 65.2571 29.3546 65.4455 28.4517C64.4581 27.9834 63.1499 28.38 62.4844 29.2495C62.6293 29.5135 63.3999 30.2409 64.635 30.1633Z" fill="white"/>
<mask id="mask0_542_9718" style="mask-type:luminance" maskUnits="userSpaceOnUse" x="62" y="28" width="4" height="3">
<path d="M64.6331 30.1633C64.8225 30.0092 65.2552 29.3546 65.4435 28.4517C64.4561 27.9834 63.1479 28.38 62.4824 29.2495C62.6274 29.5135 63.3979 30.2409 64.6331 30.1633Z" fill="white"/>
</mask>
<g mask="url(#mask0_542_9718)">
<path d="M63.6704 29.3382C63.8748 28.741 64.401 28.4018 64.8451 28.575C65.2891 28.7482 65.4855 29.3717 65.2811 29.9665C65.0768 30.5613 64.5517 30.9029 64.1065 30.7298C63.6613 30.5566 63.4672 29.9331 63.6704 29.3382Z" fill="#389FBD"/>
</g>
<g style="mix-blend-mode:screen">
<path d="M64.1671 29.405C64.1671 29.5531 63.9628 29.6725 63.7105 29.6725C63.4582 29.6725 63.2539 29.5531 63.2539 29.405C63.2539 29.2569 63.4571 29.1362 63.7105 29.1362C63.9639 29.1362 64.1671 29.2557 64.1671 29.405Z" fill="#5C5C5C"/>
</g>
<g style="mix-blend-mode:multiply">
<path d="M65.2191 29.1919C65.2906 29.0133 65.3501 28.8297 65.3972 28.6424L65.2454 28.3916L62.8288 28.898C62.7032 29.0023 62.5885 29.12 62.4863 29.2492C63.3904 29.0981 64.31 29.0788 65.2191 29.1919Z" fill="#E0E0E0"/>
</g>
<path d="M62.4863 29.2502C63.1256 28.6613 64.71 28.3663 66.0467 29.1726C65.662 28.4356 65.5239 28.1179 65.5239 28.1179C64.3881 27.842 62.9338 28.3353 62.4863 29.2502Z" fill="#1F1F1F"/>
<g style="mix-blend-mode:multiply">
<path d="M69.0554 28.0702C69.0657 29.4188 68.5566 30.4722 68.3705 30.6741C68.0428 30.6991 67.715 30.6264 67.425 30.4644C67.1351 30.3025 66.895 30.058 66.7324 29.7592C66.9185 28.3796 67.8534 27.7907 69.0554 28.0702Z" fill="#E0E0E0"/>
</g>
<path d="M68.3705 30.6736C68.5143 30.5195 68.8442 29.8638 68.9869 28.962C68.2347 28.4926 67.2393 28.8903 66.7324 29.7587C66.895 30.0575 67.1351 30.302 67.425 30.4639C67.7149 30.6258 68.0428 30.6985 68.3705 30.6736Z" fill="white"/>
<mask id="mask1_542_9718" style="mask-type:luminance" maskUnits="userSpaceOnUse" x="66" y="28" width="3" height="3">
<path d="M68.3666 30.6736C68.5104 30.5195 68.8403 29.8638 68.983 28.962C68.2308 28.4926 67.2354 28.8903 66.7285 29.7587C66.8911 30.0575 67.1312 30.302 67.4211 30.4639C67.711 30.6258 68.0388 30.6985 68.3666 30.6736Z" fill="white"/>
</mask>
<g mask="url(#mask1_542_9718)">
<path d="M67.6278 29.8495C67.783 29.2523 68.1826 28.913 68.5216 29.0862C68.8606 29.2594 69.009 29.8829 68.8538 30.4777C68.6985 31.0726 68.2979 31.4142 67.96 31.241C67.6221 31.0678 67.4725 30.4443 67.6278 29.8495Z" fill="#389FBD"/>
</g>
<g style="mix-blend-mode:screen">
<path d="M68.013 29.9133C68.013 30.0614 67.8578 30.182 67.6706 30.182C67.4834 30.182 67.3281 30.0626 67.3281 29.9133C67.3281 29.764 67.4834 29.6445 67.6706 29.6445C67.8578 29.6445 68.013 29.7652 68.013 29.9133Z" fill="#5C5C5C"/>
</g>
<g style="mix-blend-mode:multiply">
<path d="M68.8154 29.7033C68.8696 29.5227 68.9149 29.3393 68.9512 29.1539L68.8371 28.9019L66.9924 29.4083C66.8955 29.5162 66.8091 29.6338 66.7344 29.7595C67.419 29.6081 68.1242 29.5891 68.8154 29.7033Z" fill="#E0E0E0"/>
</g>
<path d="M66.7324 29.7601C67.2187 29.1713 68.5897 28.9635 69.6079 29.7697C69.3658 29.4218 69.176 29.0371 69.0451 28.629C68.1822 28.3507 67.0749 28.8464 66.7324 29.7601Z" fill="#1F1F1F"/>
<path d="M66.4434 33.0337C66.9787 32.9919 67.384 32.71 67.2824 32.4568C67.1808 32.2035 66.7299 31.4331 66.6523 30.8789C66.4479 29.4133 67.2367 28.748 67.2367 28.748C66.6774 29.6916 66.7242 30.7248 66.8669 31.0832C67.0096 31.4415 67.7801 32.5165 67.5837 32.71C67.538 32.7556 67.4874 32.7957 67.4331 32.8294C67.5906 33.0349 67.2356 33.1567 67.255 33.1483C67.2764 33.1375 67.2951 33.1215 67.3096 33.1018C67.3241 33.0821 67.3341 33.0592 67.3388 33.0348C67.3434 33.0104 67.3426 32.9852 67.3364 32.9611C67.3302 32.9371 67.3187 32.9149 67.3029 32.8963C67.0305 33.0113 66.7362 33.0583 66.4434 33.0337Z" fill="#FFD0A2"/>
<path d="M62.3945 32.6948C63.1342 33.3613 64.0977 33.9442 65.5223 33.869C66.9469 33.7937 66.6456 34.4268 65.7141 35.0096C65.5623 36.0094 65.5862 37.2002 64.6867 36.7595C63.7872 36.3187 62.6091 33.9609 62.3945 32.6948Z" fill="#E05A5A"/>
<path d="M62.3945 32.6948C63.5361 34.0218 65.1251 34.422 66.0052 34.4769C65.8362 34.754 65.5063 34.8771 65.528 35.0216C65.5497 35.5543 65.5703 35.9425 65.2735 35.9986C64.9767 36.0548 63.0555 34.754 62.3945 32.6948Z" fill="white"/>
<g style="mix-blend-mode:multiply">
<path d="M65.0377 37.1137C65.0136 37.1825 64.9767 37.2456 64.9291 37.2994C64.8815 37.3531 64.8242 37.3965 64.7605 37.4269C64.6968 37.4573 64.628 37.4742 64.558 37.4767C64.488 37.4791 64.4183 37.467 64.3528 37.441C63.9019 37.2726 63.3779 36.581 63.4053 36.5034C63.4327 36.4257 63.9978 36.9907 64.4498 37.1591C64.9019 37.3275 65.0651 37.0385 65.0377 37.1137Z" fill="#EBEBEB"/>
</g>
<path d="M66.8057 26.0256C66.8057 27.6906 63.8971 25.8918 62.1562 26.7363C63.9827 25.3149 66.3388 26.0029 66.8057 26.0256ZM69.5316 27.7026C69.5999 27.3936 69.6495 27.0804 69.68 26.7649C69.3581 26.5535 69.1024 26.4066 68.9951 26.329C68.5785 26.8712 68.9266 27.2785 69.5316 27.7026Z" fill="#1F1F1F"/>
<g style="mix-blend-mode:multiply">
<path d="M57.9023 29.0793C57.7755 28.113 57.2493 26.3966 55.7539 27.13C56.2904 27.0321 56.7813 27.2698 57.1717 27.6842C56.3726 27.9566 56.779 28.7031 56.916 28.8452C56.7505 28.4379 56.9285 27.8897 57.4023 27.9661C57.6351 28.3005 57.8048 28.6784 57.9023 29.0793Z" fill="#E0E0E0"/>
</g>
<g style="mix-blend-mode:multiply">
<path d="M66.2267 23.3403C66.1377 23.4359 66.0532 23.5219 65.9688 23.6103C66.0701 23.538 66.1577 23.4464 66.2267 23.3403Z" fill="#EBEBEB"/>
</g>
<g style="mix-blend-mode:multiply">
<path d="M61.9599 26.6257C63.7863 26.3152 67.1812 25.6045 69.7074 23.0723C69.7074 23.0723 67.9038 24.4936 63.3822 25.8195C63.3822 25.8195 64.1037 25.5507 65.9689 23.6026C65.147 24.2822 62.5866 25.6857 60.9622 26.2196C59.073 26.8419 58.7762 27.8631 58.8606 29.0182C58.8606 29.0182 58.3732 28.8629 58.097 27.5084C57.8207 26.1539 57.2054 25.6427 56.5045 25.7753C55.8036 25.9078 54.976 26.9088 55.3379 28.5069C55.6998 30.1051 56.8025 30.5948 58.2031 30.129C58.2031 30.129 58.5216 30.9949 58.3298 32.6373C58.1381 34.2796 58.5855 34.7466 59.7316 35.6795C60.8777 36.6124 62.1288 38.2236 62.6608 38.6895C62.9359 38.9284 63.5477 39.0406 64.1379 38.9702C63.7005 38.9549 63.2704 38.8481 62.8731 38.656C62.0877 38.2786 61.8754 36.9683 60.7293 34.9915C59.5832 33.0147 59.8378 31.6375 60.1985 30.2831C60.5592 28.9286 60.1768 28.0399 60.3891 27.2623C60.6015 26.4848 62.0444 26.1969 63.0215 25.5746C63.0215 25.5818 62.8514 26.093 61.9599 26.6257Z" fill="#EBEBEB"/>
</g>
<g style="mix-blend-mode:multiply">
<path d="M66.4434 33.0337C66.9787 32.9919 67.384 32.71 67.2824 32.4568C67.1808 32.2035 66.7299 31.4331 66.6523 30.8789C66.4479 29.4133 67.2367 28.748 67.2367 28.748C66.6774 29.6916 66.7242 30.7248 66.8669 31.0832C67.0096 31.4415 67.7801 32.5165 67.5837 32.71C67.538 32.7556 67.4874 32.7957 67.4331 32.8294C67.5906 33.0349 67.2356 33.1567 67.255 33.1483C67.2764 33.1375 67.2951 33.1215 67.3096 33.1018C67.3241 33.0821 67.3341 33.0592 67.3388 33.0348C67.3434 33.0104 67.3426 32.9852 67.3364 32.9611C67.3302 32.9371 67.3187 32.9149 67.3029 32.8963C67.0305 33.0113 66.7362 33.0583 66.4434 33.0337Z" fill="#E0E0E0"/>
</g>
<g style="mix-blend-mode:screen">
<path d="M66.6062 32.1943C67.0925 31.9817 67.2832 32.5717 67.0549 32.6721C66.8266 32.7724 67.0549 32.5347 66.6508 32.561C66.2467 32.5873 66.4133 32.2791 66.6062 32.1943Z" fill="#5C5C5C"/>
</g>
<g style="mix-blend-mode:multiply">
<path d="M65.5566 32.9082C65.8831 32.7887 66.1354 32.6824 66.0406 32.864C65.9459 33.0455 65.6468 33.0085 65.5566 32.9082Z" fill="#D6D6D6"/>
</g>
<g style="mix-blend-mode:multiply">
<path d="M65.6497 32.3335C65.2433 32.7814 65.4431 33.0095 65.4431 33.0095C64.942 32.8435 65.6497 32.3335 65.6497 32.3335Z" fill="#EBEBEB"/>
</g>
<path d="M49.7147 39.5746C47.3586 39.442 46.6577 42.7733 47.3586 48.1041C48.0595 53.4348 48.3141 60.2299 49.0777 62.4289C49.8414 64.6278 51.4978 77.8203 52.5799 79.1509C53.6621 80.4815 55.6369 79.4173 55.9554 78.1512C56.2739 76.8851 56.3378 64.5586 54.7454 60.4951C54.6176 47.5045 53.0902 41.5072 49.7147 39.5746Z" fill="#DAABFF"/>
<g style="mix-blend-mode:multiply">
<path d="M54.7502 60.4981C54.7046 55.8398 54.4774 52.0774 54.0505 49.0817C54.0505 55.9891 54.0961 61.2172 53.6681 64.1626C53.2217 67.2275 54.1132 64.0957 54.4957 62.7628C54.8781 61.4298 55.5139 78.4863 55.1954 79.265C55.555 79.713 55.5721 80.8548 55.5379 81.6002C55.7474 81.4873 55.917 81.3074 56.0219 81.0866C56.1771 80.131 55.9454 79.1026 55.7936 78.5639C55.8665 78.4358 55.9225 78.298 55.9602 78.1542C56.2787 76.8881 56.3426 64.5616 54.7502 60.4981ZM44.4343 51.7465C44.6466 59.1651 44.7311 62.8965 44.7311 62.8965C44.1375 63.6514 44.2219 64.3179 44.2219 64.3179C43.5005 64.8506 42.6934 67.1165 41.3773 68.2715C40.2449 69.2653 39.6239 72.0686 42.0165 74.4168C41.8222 73.9398 41.6515 73.4527 41.5051 72.9572C40.6136 69.9592 42.7791 68.6262 44.2448 66.4273C45.7105 64.2283 45.9639 67.427 46.8554 69.0933C47.747 70.7595 46.9194 67.0269 46.0906 64.7622C45.2995 62.5955 44.2185 49.8318 45.852 42.019C44.7722 44.6014 44.319 47.7201 44.4343 51.7465Z" fill="#EBEBEB"/>
</g>
<path d="M80.814 73.6128C80.814 73.6128 80.7695 73.6128 80.6999 73.5936C80.5993 73.5894 80.4985 73.5938 80.3985 73.6068C80.0937 73.6612 79.7922 73.7342 79.4956 73.8254C79.168 73.9209 78.8358 74.0129 78.5824 74.0786C78.3289 74.1443 78.1543 74.173 78.1543 74.173C78.2752 74.0849 78.4014 74.0051 78.5321 73.9341C78.8177 73.7796 79.1176 73.656 79.4271 73.565C79.5946 73.5176 79.7651 73.4829 79.9374 73.4611C80.089 73.4435 80.2419 73.4411 80.394 73.4539C80.5041 73.466 80.6119 73.4954 80.7136 73.5411C80.7775 73.5889 80.814 73.6128 80.814 73.6128Z" fill="#EBEBEB"/>
<path d="M44.7617 131.859H51.2684C50.047 127.894 49.5367 124.591 47.7639 125.582C45.9911 126.573 44.7617 131.859 44.7617 131.859Z" fill="#C191E8"/>
<g style="mix-blend-mode:multiply">
<path d="M47.7937 129.727L48.2275 129.707C48.1385 127.954 48.8519 126.795 49.4969 126.389C49.0403 125.521 48.5152 125.153 47.7538 125.578C47.417 125.765 47.1008 126.108 46.8086 126.539C47.9353 127.47 47.7937 129.727 47.7937 129.727Z" fill="#EBEBEB"/>
</g>
<path d="M48.9255 128.145C48.8284 128.01 48.7044 127.898 48.5621 127.818C48.4198 127.738 48.2626 127.691 48.1013 127.681C47.9339 127.667 47.7656 127.696 47.6115 127.766C47.4573 127.836 47.3221 127.945 47.2178 128.083L47.0968 127.975C47.2175 127.817 47.3733 127.693 47.5507 127.613C47.728 127.533 47.9214 127.5 48.1139 127.516C48.4997 127.547 48.889 127.77 49.0591 128.057L48.9255 128.145ZM48.7634 129.177C48.685 129.046 48.5789 128.937 48.4534 128.856C48.3278 128.776 48.1863 128.727 48.0397 128.713C47.8319 128.693 47.5249 128.748 47.2623 129.114L47.1562 129.008C47.4564 128.588 47.808 128.53 48.05 128.548C48.2193 128.565 48.3827 128.622 48.5271 128.716C48.6716 128.81 48.7931 128.938 48.8821 129.089L48.7634 129.177ZM50.8444 130.425C49.4883 129.503 47.0968 129.162 45.2361 130.139C44.929 131.118 44.7578 131.859 44.7578 131.859H51.2645C51.1195 131.368 50.9791 130.888 50.8444 130.425Z" fill="white"/>
<path d="M75.8176 105.859C74.3336 110.742 69.9102 125.495 69.7116 125.703C68.5701 124.819 66.6295 126.062 66.8817 127.78C68.7687 128.456 72.2937 128.508 72.393 127.105C72.4923 125.703 77.6554 112.457 79.7901 111.418C81.9247 110.379 82.9179 118.067 84.1085 120.301C85.2991 122.534 87.8321 125.495 87.5331 125.547C85.1998 125.131 83.7101 126.015 83.5617 127.053C83.4133 128.091 89.8172 127.469 89.8172 127.469L96.171 126.482C96.171 126.482 96.3205 124.715 96.3205 124.404C96.3205 124.092 89.4246 109.132 88.9737 108.508C88.5228 107.885 75.8176 105.859 75.8176 105.859Z" fill="#BD8140"/>
<path d="M77.3579 96.772C75.3226 100.045 73.1343 106.746 76.9607 107.681C77.7597 110.122 79.1946 112.199 81.0313 112.1C82.9719 118.126 82.7687 126.282 82.7687 126.282C81.0313 125.923 80.1878 127.118 80.4857 128.204C80.6832 128.307 84.6055 128.982 85.2516 127.736C85.8977 126.491 84.7048 112.932 86.8394 110.698C87.9809 113.347 88.6761 114.281 88.6761 114.281C84.0598 116.515 88.5768 121.813 91.3016 123.683C94.0264 125.552 94.8769 126.54 93.0893 126.021C91.3016 125.503 88.6213 125.449 88.6704 127.683C94.926 128.463 98.6496 127.735 98.2021 126.28C100.784 126.488 108.628 120.931 105.451 116.462C108.727 113.237 105.252 112.463 105.252 112.463C106.648 106.693 99.3562 99.9409 95.7753 105.6C97.6131 104.717 102.282 107.314 101.483 113.961C100.684 120.608 97.1143 123.052 95.8723 120.558C94.6303 118.064 92.9934 105.182 89.32 99.364C85.6465 93.5459 87.1853 89.0273 87.1853 89.0273L77.3579 96.772Z" fill="#E69D4E"/>
<path d="M79.4468 90.4834C76.5176 92.4052 75.2231 97.5484 77.7596 98.3797C77.4171 101.652 80.3406 102.431 80.9856 101.86C83.1704 102.639 84.2126 100.198 84.2126 98.8993C86.7948 98.0632 87.7377 90.5383 86.9934 89.4454C86.2491 88.3525 79.4468 90.4834 79.4468 90.4834ZM84.6099 76.6662C86.1247 76.3544 88.9545 72.5107 89.2525 71.7057C89.5504 70.9006 90.5184 74.3024 89.7479 77.4975C88.9774 80.6926 87.8073 82.458 87.8073 82.458C87.8073 82.458 83.8359 78.2452 84.6099 76.6662Z" fill="#FFAE57"/>
<path d="M89.2494 71.705C88.9515 72.51 86.1216 76.3537 84.6068 76.6655C84.1936 77.5159 85.1468 79.1188 86.1182 80.4243C86.7483 80.4243 87.2129 80.4052 87.2129 80.4052C87.2129 80.4052 87.4618 78.3532 87.238 77.8336C87.1387 77.8336 88.0816 76.2809 87.4663 76.3024C87.4663 76.3024 89.2836 73.0774 89.3236 71.6011C89.2882 71.6258 89.262 71.6625 89.2494 71.705Z" fill="#C28442"/>
<path d="M77.0138 80.4858C75.9967 81.8618 71.5287 83.8613 70.1646 84.1731C68.8005 84.4848 69.692 86.8008 73.6394 86.4329C77.5868 86.065 78.0583 85.7581 78.0583 85.7581L77.0138 80.4858Z" fill="#FFAE57"/>
<path d="M76.1156 84.1482C76.0163 84.823 77.7297 85.0572 77.8039 84.7705C77.8134 84.6768 77.8134 84.5823 77.8039 84.4886L77.0117 80.4849C75.9946 81.862 71.5266 83.8615 70.1625 84.1733C70.1178 84.1857 70.074 84.2013 70.0312 84.2199C71.1317 84.5854 74.7971 83.9021 75.7469 83.3169C75.3964 83.7839 75.7434 84.1482 76.1156 84.1482Z" fill="#C28442"/>
<path d="M84.6102 76.6679C83.7415 76.2009 82.0531 76.8232 81.036 77.0263C80.0189 77.2293 75.9722 75.8318 77.164 78.2995C76.0715 78.7415 77.0647 79.9359 77.0647 79.9359C76.196 81.079 77.0396 83.7019 76.8661 84.8964C76.6925 86.0908 74.9255 86.8182 75.6001 88.7186C76.2747 90.6189 78.0578 90.0432 78.0578 90.1208C78.1069 90.8219 79.4973 90.7957 80.6388 90.822C81.7803 90.8482 82.2027 91.7835 83.9652 91.7835C85.7277 91.7835 88.3338 90.8996 88.303 87.7308C88.626 86.2771 90.5369 84.7184 89.7927 84.0686C91.2766 81.6272 89.9171 81.2115 88.5016 80.8222C87.0861 80.4328 85.827 76.8758 84.6102 76.6679Z" fill="#E69D4E"/>
<path d="M84.589 88.697C85.6529 88.2503 85.9919 87.4321 85.8983 86.4073C85.8047 85.3825 88.0273 84.5631 88.0672 83.4929C88.1072 82.4227 86.7978 82.1384 86.0753 82.9052C85.3527 83.672 84.4908 83.1859 84.2854 82.2662C84.0799 81.3465 83.0605 80.5713 82.3242 80.8962L82.0229 80.9834C81.2409 81.1578 80.8311 82.4048 81.1656 83.2815C81.5 84.1582 81.0514 85.0731 80.0492 84.8784C79.0469 84.6837 78.1314 85.6966 78.7455 86.5506C79.3597 87.4046 81.6313 86.7453 82.1153 87.6411C82.5993 88.537 83.3253 89.0052 84.4429 88.7328L84.589 88.697Z" fill="#FFAE57"/>
<path d="M82.2598 86.5187C83.0588 86.5116 82.9104 87.1339 83.5508 87.116C84.1912 87.098 84.7791 86.8771 84.835 86.551C84.8841 86.2643 84.9001 85.7889 85.0211 85.6743C85.1421 85.5596 84.141 86.0947 83.9789 86.1413C83.8168 86.1879 82.2598 86.5187 82.2598 86.5187Z" fill="#8F0A03"/>
<path d="M80.5046 78.5914C80.5046 78.5914 80.4647 78.6117 80.3905 78.6391C80.3163 78.6666 80.2215 78.7192 80.1131 78.7657C79.9907 78.8324 79.8735 78.9091 79.7626 78.9951C79.637 79.0922 79.5191 79.1996 79.4099 79.3164C79.2007 79.539 79.013 79.7827 78.8494 80.0438C78.709 80.2612 78.6211 80.4236 78.6211 80.4236C78.6205 80.2688 78.6448 80.1149 78.693 79.9685C78.7914 79.6403 78.9632 79.3414 79.1941 79.0966C79.3202 78.9649 79.4636 78.8527 79.6199 78.7634C79.7607 78.6896 79.9105 78.6366 80.0651 78.6057C80.1712 78.5849 80.2793 78.5777 80.387 78.5842C80.4612 78.5842 80.5046 78.5914 80.5046 78.5914ZM85.1837 78.7132C85.1837 78.7132 85.1438 78.6917 85.0798 78.6487C85.0159 78.6057 84.9177 78.5543 84.8173 78.491C84.6932 78.428 84.5646 78.3753 84.4326 78.3334C84.2833 78.2859 84.1306 78.2507 83.976 78.2283C83.6799 78.1856 83.3806 78.1732 83.0822 78.1912C82.8333 78.2032 82.6587 78.2294 82.6587 78.2294C82.7769 78.1368 82.9093 78.0657 83.0502 78.0192C83.3608 77.9061 83.6926 77.8721 84.0182 77.9201C84.1943 77.9472 84.3658 78.0007 84.5274 78.079C84.6663 78.1504 84.7957 78.2408 84.912 78.3477C84.9911 78.4245 85.0608 78.5112 85.1198 78.6057C85.1632 78.6726 85.1837 78.7132 85.1837 78.7132Z" fill="#3B2619"/>
<path d="M83.2981 82.9334C82.3678 82.9979 81.3438 83.7253 81.6007 84.2234C81.8575 84.7215 82.5299 84.4826 82.3141 84.319C82.0984 84.1553 82.4283 83.8902 82.5424 84.1183C82.6566 84.3464 82.394 84.3703 82.5618 84.4229C82.7297 84.4754 83.192 84.7681 83.3415 84.5937C83.4911 84.4193 83.7662 83.9762 83.6109 84.0048C83.4557 84.0335 83.3084 83.7492 83.5082 83.662C83.7079 83.5748 83.8278 83.7098 83.7981 83.8364C83.7684 83.963 83.9751 84.0084 84.1235 83.6632C84.2718 83.318 83.8335 82.8964 83.2981 82.9334Z" fill="#141414"/>
<g style="mix-blend-mode:screen">
<path d="M83.198 83.1537C82.8133 83.1872 82.6808 83.7509 83.2071 83.5646C83.7333 83.3783 83.7425 83.1071 83.198 83.1537Z" fill="#242424"/>
</g>
<g style="mix-blend-mode:multiply">
<path d="M81.6113 83.3025C82.2814 82.3409 83.8453 82.575 83.8076 82.575C82.6787 82.1869 81.9458 82.3278 81.6113 83.3025Z" fill="#EBEBEB"/>
</g>
<g style="mix-blend-mode:multiply">
<path d="M79.1133 83.3031C79.2206 80.9775 80.5904 79.899 80.9294 83.0762C80.6064 84.2861 79.4831 84.1918 79.1133 83.3031Z" fill="#C2C2C2"/>
</g>
<path d="M80.9294 83.0742C80.2365 83.8494 79.6361 83.6977 79.1133 83.3012C79.4831 84.1898 80.6064 84.2842 80.9294 83.0742Z" fill="#3B2619"/>
<g style="mix-blend-mode:multiply">
<path d="M86.05 81.3642C84.9188 79.3599 83.2876 79.0446 84.4245 82.0092C85.2373 82.9277 86.1379 82.3209 86.05 81.3642Z" fill="#C2C2C2"/>
</g>
<path d="M84.4219 82.0073C85.3499 82.3656 85.7917 81.9571 86.0474 81.3623C86.1353 82.319 85.2346 82.9258 84.4219 82.0073Z" fill="#3B2619"/>
<g style="mix-blend-mode:multiply">
<path d="M79.1853 85.5083C78.8223 85.7137 78.812 86.1127 79.231 86.2106C78.5518 86.1999 78.6168 85.6934 79.1853 85.5083ZM87.37 83.5434C87.5036 83.1349 87.2559 82.8363 86.8803 83.0657C87.3849 82.5867 87.6668 83.0036 87.37 83.5434Z" fill="#C2C2C2"/>
</g>
<path d="M83.1914 84.5046C83.4045 85.0308 83.5333 85.5901 83.5727 86.1601L83.9825 86.024C83.6195 85.7504 83.3033 84.4712 83.3033 84.4712L83.1914 84.5046Z" fill="#141414"/>
<path d="M79.1543 85.8277L79.2559 85.7991C79.3533 85.7714 79.454 85.7581 79.555 85.7596C79.8175 85.7489 80.1874 85.8468 80.6006 85.9902C81.0628 86.1568 81.545 86.2549 82.0332 86.2816C82.3064 86.2924 82.5799 86.2736 82.8494 86.2255C83.1301 86.1799 83.4075 86.1136 83.6793 86.0272C84.7786 85.7107 85.7968 85.0466 86.2443 84.2845C86.4223 83.9564 86.6541 83.6637 86.9292 83.4198C87.0316 83.3284 87.1472 83.2547 87.2717 83.2012C87.1587 83.2747 87.0555 83.3634 86.9646 83.4651C86.7295 83.7349 86.5351 84.0406 86.3881 84.3717C86.272 84.5965 86.1293 84.8052 85.9635 84.9928C85.7811 85.2039 85.5745 85.3904 85.3482 85.5482C84.8593 85.8888 84.3245 86.1509 83.7615 86.3258C83.475 86.4098 83.1832 86.4725 82.8882 86.5133C82.601 86.5561 82.3103 86.569 82.0207 86.5516C81.5112 86.5027 81.0125 86.3688 80.5435 86.155C80.136 85.9842 79.805 85.8349 79.5504 85.8194C79.4187 85.8021 79.2852 85.8049 79.1543 85.8277Z" fill="#141414"/>
<g style="mix-blend-mode:multiply">
<path d="M85.9768 88.3803C85.9996 88.4556 85.5784 89.2499 84.8216 89.5031C84.0648 89.7563 83.2577 89.3741 83.2349 89.2989C83.212 89.2236 83.9814 89.4852 84.7383 89.232C85.4951 88.9787 85.954 88.3051 85.9768 88.3803Z" fill="#C2C2C2"/>
</g>
<path d="M31.017 159.876V162.683H34.559V164.132H31.017V166.995H35.511V168.5H29.127V158.378H35.511V159.876H31.017ZM43.1356 161.318L40.2866 168.5H38.7186L35.8696 161.318H37.2976C37.4283 161.318 37.5356 161.348 37.6196 161.409C37.7083 161.47 37.7666 161.547 37.7946 161.64L39.1806 165.476C39.2553 165.7 39.3206 165.919 39.3766 166.134C39.4326 166.349 39.4816 166.563 39.5236 166.778C39.5703 166.563 39.6216 166.349 39.6776 166.134C39.7336 165.919 39.8013 165.7 39.8806 165.476L41.2946 161.64C41.3273 161.547 41.3856 161.47 41.4696 161.409C41.5536 161.348 41.654 161.318 41.7706 161.318H43.1356ZM48.4654 164.083C48.4654 163.859 48.4327 163.649 48.3674 163.453C48.3067 163.252 48.2134 163.077 48.0874 162.928C47.9614 162.779 47.8004 162.662 47.6044 162.578C47.413 162.489 47.189 162.445 46.9324 162.445C46.433 162.445 46.0387 162.587 45.7494 162.872C45.4647 163.157 45.2827 163.56 45.2034 164.083H48.4654ZM45.1684 165.126C45.1964 165.495 45.2617 165.814 45.3644 166.085C45.467 166.351 45.6024 166.573 45.7704 166.75C45.9384 166.923 46.1367 167.053 46.3654 167.142C46.5987 167.226 46.8554 167.268 47.1354 167.268C47.4154 167.268 47.6557 167.235 47.8564 167.17C48.0617 167.105 48.239 167.032 48.3884 166.953C48.5424 166.874 48.6754 166.801 48.7874 166.736C48.904 166.671 49.016 166.638 49.1234 166.638C49.268 166.638 49.3754 166.692 49.4454 166.799L49.9424 167.429C49.751 167.653 49.5364 167.842 49.2984 167.996C49.0604 168.145 48.8107 168.267 48.5494 168.36C48.2927 168.449 48.029 168.512 47.7584 168.549C47.4924 168.586 47.2334 168.605 46.9814 168.605C46.482 168.605 46.0177 168.523 45.5884 168.36C45.159 168.192 44.7857 167.947 44.4684 167.625C44.151 167.298 43.9014 166.897 43.7194 166.421C43.5374 165.94 43.4464 165.385 43.4464 164.755C43.4464 164.265 43.5257 163.805 43.6844 163.376C43.843 162.942 44.0694 162.566 44.3634 162.249C44.662 161.927 45.0237 161.673 45.4484 161.486C45.8777 161.299 46.3607 161.206 46.8974 161.206C47.35 161.206 47.7677 161.278 48.1504 161.423C48.533 161.568 48.862 161.78 49.1374 162.06C49.4127 162.335 49.6274 162.676 49.7814 163.082C49.94 163.483 50.0194 163.943 50.0194 164.461C50.0194 164.722 49.9914 164.9 49.9354 164.993C49.8794 165.082 49.772 165.126 49.6134 165.126H45.1684ZM52.9339 162.2C53.0786 162.055 53.2302 161.922 53.3889 161.801C53.5522 161.675 53.7226 161.57 53.8999 161.486C54.0819 161.397 54.2756 161.33 54.4809 161.283C54.6862 161.232 54.9102 161.206 55.1529 161.206C55.5449 161.206 55.8926 161.274 56.1959 161.409C56.4992 161.54 56.7512 161.726 56.9519 161.969C57.1572 162.207 57.3112 162.494 57.4139 162.83C57.5212 163.161 57.5749 163.528 57.5749 163.929V168.5H55.8459V163.929C55.8459 163.49 55.7456 163.152 55.5449 162.914C55.3442 162.671 55.0386 162.55 54.6279 162.55C54.3292 162.55 54.0492 162.618 53.7879 162.753C53.5266 162.888 53.2792 163.073 53.0459 163.306V168.5H51.3169V161.318H52.3739C52.5979 161.318 52.7449 161.423 52.8149 161.633L52.9339 162.2ZM61.5175 168.612C60.8922 168.612 60.4115 168.437 60.0755 168.087C59.7442 167.732 59.5785 167.245 59.5785 166.624V162.613H58.8435C58.7502 162.613 58.6709 162.583 58.6055 162.522C58.5402 162.461 58.5075 162.37 58.5075 162.249V161.563L59.6625 161.374L60.0265 159.414C60.0499 159.321 60.0942 159.248 60.1595 159.197C60.2249 159.146 60.3089 159.12 60.4115 159.12H61.3075V161.381H63.2255V162.613H61.3075V166.505C61.3075 166.729 61.3612 166.904 61.4685 167.03C61.5805 167.156 61.7322 167.219 61.9235 167.219C62.0309 167.219 62.1195 167.207 62.1895 167.184C62.2642 167.156 62.3272 167.128 62.3785 167.1C62.4345 167.072 62.4835 167.046 62.5255 167.023C62.5675 166.995 62.6095 166.981 62.6515 166.981C62.7029 166.981 62.7449 166.995 62.7775 167.023C62.8102 167.046 62.8452 167.084 62.8825 167.135L63.4005 167.975C63.1485 168.185 62.8592 168.344 62.5325 168.451C62.2059 168.558 61.8675 168.612 61.5175 168.612ZM68.7145 162.718C68.6678 162.793 68.6188 162.846 68.5675 162.879C68.5162 162.907 68.4508 162.921 68.3715 162.921C68.2875 162.921 68.1965 162.898 68.0985 162.851C68.0052 162.804 67.8955 162.753 67.7695 162.697C67.6435 162.636 67.4988 162.583 67.3355 162.536C67.1768 162.489 66.9878 162.466 66.7685 162.466C66.4278 162.466 66.1595 162.538 65.9635 162.683C65.7722 162.828 65.6765 163.017 65.6765 163.25C65.6765 163.404 65.7255 163.535 65.8235 163.642C65.9262 163.745 66.0592 163.836 66.2225 163.915C66.3905 163.994 66.5795 164.067 66.7895 164.132C66.9995 164.193 67.2118 164.26 67.4265 164.335C67.6458 164.41 67.8605 164.496 68.0705 164.594C68.2805 164.687 68.4672 164.809 68.6305 164.958C68.7985 165.103 68.9315 165.278 69.0295 165.483C69.1322 165.688 69.1835 165.936 69.1835 166.225C69.1835 166.57 69.1205 166.89 68.9945 167.184C68.8732 167.473 68.6912 167.725 68.4485 167.94C68.2058 168.15 67.9048 168.316 67.5455 168.437C67.1908 168.554 66.7802 168.612 66.3135 168.612C66.0662 168.612 65.8235 168.589 65.5855 168.542C65.3522 168.5 65.1258 168.439 64.9065 168.36C64.6918 168.281 64.4912 168.187 64.3045 168.08C64.1225 167.973 63.9615 167.856 63.8215 167.73L64.2205 167.072C64.2718 166.993 64.3325 166.932 64.4025 166.89C64.4725 166.848 64.5612 166.827 64.6685 166.827C64.7758 166.827 64.8762 166.857 64.9695 166.918C65.0675 166.979 65.1795 167.044 65.3055 167.114C65.4315 167.184 65.5785 167.249 65.7465 167.31C65.9192 167.371 66.1362 167.401 66.3975 167.401C66.6028 167.401 66.7778 167.378 66.9225 167.331C67.0718 167.28 67.1932 167.214 67.2865 167.135C67.3845 167.056 67.4545 166.965 67.4965 166.862C67.5432 166.755 67.5665 166.645 67.5665 166.533C67.5665 166.365 67.5152 166.227 67.4125 166.12C67.3145 166.013 67.1815 165.919 67.0135 165.84C66.8502 165.761 66.6612 165.691 66.4465 165.63C66.2365 165.565 66.0195 165.495 65.7955 165.42C65.5762 165.345 65.3592 165.259 65.1445 165.161C64.9345 165.058 64.7455 164.93 64.5775 164.776C64.4142 164.622 64.2812 164.433 64.1785 164.209C64.0805 163.985 64.0315 163.714 64.0315 163.397C64.0315 163.103 64.0898 162.823 64.2065 162.557C64.3232 162.291 64.4935 162.06 64.7175 161.864C64.9462 161.663 65.2285 161.505 65.5645 161.388C65.9052 161.267 66.2972 161.206 66.7405 161.206C67.2352 161.206 67.6855 161.288 68.0915 161.451C68.4975 161.614 68.8358 161.829 69.1065 162.095L68.7145 162.718ZM80.8083 159.925H77.7563V168.5H75.8733V159.925H72.8213V158.378H80.8083V159.925ZM82.0827 162.564C82.3067 162.135 82.5727 161.799 82.8807 161.556C83.1887 161.309 83.5527 161.185 83.9727 161.185C84.304 161.185 84.57 161.257 84.7707 161.402L84.6587 162.697C84.6353 162.781 84.6003 162.842 84.5537 162.879C84.5117 162.912 84.4533 162.928 84.3787 162.928C84.3087 162.928 84.2037 162.916 84.0637 162.893C83.9283 162.87 83.7953 162.858 83.6647 162.858C83.4733 162.858 83.303 162.886 83.1537 162.942C83.0043 162.998 82.869 163.08 82.7477 163.187C82.631 163.29 82.526 163.416 82.4327 163.565C82.344 163.714 82.26 163.885 82.1807 164.076V168.5H80.4517V161.318H81.4667C81.644 161.318 81.7677 161.351 81.8377 161.416C81.9077 161.477 81.9543 161.589 81.9777 161.752L82.0827 162.564ZM89.3726 165.434C88.8733 165.457 88.4533 165.502 88.1126 165.567C87.7719 165.628 87.4989 165.707 87.2936 165.805C87.0883 165.903 86.9413 166.017 86.8526 166.148C86.7639 166.279 86.7196 166.421 86.7196 166.575C86.7196 166.878 86.8083 167.095 86.9856 167.226C87.1676 167.357 87.4033 167.422 87.6926 167.422C88.0473 167.422 88.3529 167.359 88.6096 167.233C88.8709 167.102 89.1253 166.906 89.3726 166.645V165.434ZM85.4106 162.319C86.2366 161.563 87.2306 161.185 88.3926 161.185C88.8126 161.185 89.1883 161.255 89.5196 161.395C89.8509 161.53 90.1309 161.722 90.3596 161.969C90.5883 162.212 90.7609 162.503 90.8776 162.844C90.9989 163.185 91.0596 163.558 91.0596 163.964V168.5H90.2756C90.1123 168.5 89.9863 168.477 89.8976 168.43C89.8089 168.379 89.7389 168.278 89.6876 168.129L89.5336 167.611C89.3516 167.774 89.1743 167.919 89.0016 168.045C88.8289 168.166 88.6493 168.269 88.4626 168.353C88.2759 168.437 88.0753 168.5 87.8606 168.542C87.6506 168.589 87.4173 168.612 87.1606 168.612C86.8573 168.612 86.5773 168.572 86.3206 168.493C86.0639 168.409 85.8423 168.285 85.6556 168.122C85.4689 167.959 85.3243 167.756 85.2216 167.513C85.1189 167.27 85.0676 166.988 85.0676 166.666C85.0676 166.484 85.0979 166.304 85.1586 166.127C85.2193 165.945 85.3173 165.772 85.4526 165.609C85.5926 165.446 85.7723 165.292 85.9916 165.147C86.2109 165.002 86.4793 164.876 86.7966 164.769C87.1186 164.662 87.4919 164.575 87.9166 164.51C88.3413 164.44 88.8266 164.398 89.3726 164.384V163.964C89.3726 163.483 89.2699 163.129 89.0646 162.9C88.8593 162.667 88.5629 162.55 88.1756 162.55C87.8956 162.55 87.6623 162.583 87.4756 162.648C87.2936 162.713 87.1326 162.788 86.9926 162.872C86.8526 162.951 86.7243 163.024 86.6076 163.089C86.4956 163.154 86.3696 163.187 86.2296 163.187C86.1083 163.187 86.0056 163.157 85.9216 163.096C85.8376 163.031 85.7699 162.956 85.7186 162.872L85.4106 162.319ZM94.48 161.318V168.5H92.744V161.318H94.48ZM94.718 159.225C94.718 159.374 94.6877 159.514 94.627 159.645C94.5663 159.776 94.4847 159.89 94.382 159.988C94.284 160.086 94.1673 160.165 94.032 160.226C93.8967 160.282 93.752 160.31 93.598 160.31C93.4487 160.31 93.3063 160.282 93.171 160.226C93.0403 160.165 92.926 160.086 92.828 159.988C92.73 159.89 92.6507 159.776 92.59 159.645C92.534 159.514 92.506 159.374 92.506 159.225C92.506 159.071 92.534 158.926 92.59 158.791C92.6507 158.656 92.73 158.539 92.828 158.441C92.926 158.343 93.0403 158.266 93.171 158.21C93.3063 158.149 93.4487 158.119 93.598 158.119C93.752 158.119 93.8967 158.149 94.032 158.21C94.1673 158.266 94.284 158.343 94.382 158.441C94.4847 158.539 94.5663 158.656 94.627 158.791C94.6877 158.926 94.718 159.071 94.718 159.225ZM97.8597 162.2C98.0043 162.055 98.156 161.922 98.3147 161.801C98.478 161.675 98.6483 161.57 98.8257 161.486C99.0077 161.397 99.2013 161.33 99.4067 161.283C99.612 161.232 99.836 161.206 100.079 161.206C100.471 161.206 100.818 161.274 101.122 161.409C101.425 161.54 101.677 161.726 101.878 161.969C102.083 162.207 102.237 162.494 102.34 162.83C102.447 163.161 102.501 163.528 102.501 163.929V168.5H100.772V163.929C100.772 163.49 100.671 163.152 100.471 162.914C100.27 162.671 99.9643 162.55 99.5537 162.55C99.255 162.55 98.975 162.618 98.7137 162.753C98.4523 162.888 98.205 163.073 97.9717 163.306V168.5H96.2427V161.318H97.2997C97.5237 161.318 97.6707 161.423 97.7407 161.633L97.8597 162.2ZM105.937 161.318V168.5H104.201V161.318H105.937ZM106.175 159.225C106.175 159.374 106.145 159.514 106.084 159.645C106.023 159.776 105.942 159.89 105.839 159.988C105.741 160.086 105.624 160.165 105.489 160.226C105.354 160.282 105.209 160.31 105.055 160.31C104.906 160.31 104.763 160.282 104.628 160.226C104.497 160.165 104.383 160.086 104.285 159.988C104.187 159.89 104.108 159.776 104.047 159.645C103.991 159.514 103.963 159.374 103.963 159.225C103.963 159.071 103.991 158.926 104.047 158.791C104.108 158.656 104.187 158.539 104.285 158.441C104.383 158.343 104.497 158.266 104.628 158.21C104.763 158.149 104.906 158.119 105.055 158.119C105.209 158.119 105.354 158.149 105.489 158.21C105.624 158.266 105.741 158.343 105.839 158.441C105.942 158.539 106.023 158.656 106.084 158.791C106.145 158.926 106.175 159.071 106.175 159.225ZM109.317 162.2C109.461 162.055 109.613 161.922 109.772 161.801C109.935 161.675 110.105 161.57 110.283 161.486C110.465 161.397 110.658 161.33 110.864 161.283C111.069 161.232 111.293 161.206 111.536 161.206C111.928 161.206 112.275 161.274 112.579 161.409C112.882 161.54 113.134 161.726 113.335 161.969C113.54 162.207 113.694 162.494 113.797 162.83C113.904 163.161 113.958 163.528 113.958 163.929V168.5H112.229V163.929C112.229 163.49 112.128 163.152 111.928 162.914C111.727 162.671 111.421 162.55 111.011 162.55C110.712 162.55 110.432 162.618 110.171 162.753C109.909 162.888 109.662 163.073 109.429 163.306V168.5H107.7V161.318H108.757C108.981 161.318 109.128 161.423 109.198 161.633L109.317 162.2ZM118.227 164.734C118.442 164.734 118.628 164.706 118.787 164.65C118.946 164.589 119.076 164.508 119.179 164.405C119.286 164.302 119.366 164.179 119.417 164.034C119.473 163.889 119.501 163.731 119.501 163.558C119.501 163.203 119.394 162.923 119.179 162.718C118.969 162.508 118.652 162.403 118.227 162.403C117.802 162.403 117.483 162.508 117.268 162.718C117.058 162.923 116.953 163.203 116.953 163.558C116.953 163.726 116.979 163.882 117.03 164.027C117.086 164.172 117.165 164.298 117.268 164.405C117.375 164.508 117.508 164.589 117.667 164.65C117.83 164.706 118.017 164.734 118.227 164.734ZM120.18 168.822C120.18 168.682 120.138 168.568 120.054 168.479C119.97 168.39 119.856 168.323 119.711 168.276C119.566 168.225 119.396 168.187 119.2 168.164C119.009 168.141 118.803 168.124 118.584 168.115C118.369 168.101 118.145 168.089 117.912 168.08C117.683 168.071 117.459 168.052 117.24 168.024C117.049 168.131 116.892 168.257 116.771 168.402C116.654 168.547 116.596 168.715 116.596 168.906C116.596 169.032 116.626 169.149 116.687 169.256C116.752 169.368 116.853 169.464 116.988 169.543C117.128 169.622 117.308 169.683 117.527 169.725C117.746 169.772 118.015 169.795 118.332 169.795C118.654 169.795 118.932 169.769 119.165 169.718C119.398 169.671 119.59 169.604 119.739 169.515C119.893 169.431 120.005 169.328 120.075 169.207C120.145 169.09 120.18 168.962 120.18 168.822ZM121.902 161.563V162.207C121.902 162.412 121.778 162.538 121.531 162.585L120.887 162.704C120.985 162.951 121.034 163.222 121.034 163.516C121.034 163.871 120.962 164.193 120.817 164.482C120.677 164.767 120.481 165.009 120.229 165.21C119.977 165.411 119.678 165.567 119.333 165.679C118.992 165.786 118.624 165.84 118.227 165.84C118.087 165.84 117.952 165.833 117.821 165.819C117.69 165.805 117.562 165.786 117.436 165.763C117.212 165.898 117.1 166.05 117.1 166.218C117.1 166.363 117.165 166.47 117.296 166.54C117.431 166.605 117.609 166.652 117.828 166.68C118.047 166.708 118.297 166.727 118.577 166.736C118.857 166.741 119.144 166.755 119.438 166.778C119.732 166.801 120.019 166.843 120.299 166.904C120.579 166.96 120.829 167.051 121.048 167.177C121.267 167.303 121.442 167.476 121.573 167.695C121.708 167.91 121.776 168.187 121.776 168.528C121.776 168.845 121.697 169.153 121.538 169.452C121.384 169.751 121.158 170.017 120.859 170.25C120.565 170.483 120.201 170.67 119.767 170.81C119.338 170.955 118.848 171.027 118.297 171.027C117.756 171.027 117.284 170.973 116.883 170.866C116.482 170.763 116.148 170.623 115.882 170.446C115.616 170.273 115.418 170.073 115.287 169.844C115.156 169.615 115.091 169.377 115.091 169.13C115.091 168.794 115.191 168.514 115.392 168.29C115.597 168.061 115.877 167.879 116.232 167.744C116.041 167.646 115.889 167.515 115.777 167.352C115.665 167.189 115.609 166.974 115.609 166.708C115.609 166.601 115.628 166.491 115.665 166.379C115.707 166.262 115.765 166.148 115.84 166.036C115.919 165.924 116.017 165.819 116.134 165.721C116.251 165.618 116.388 165.527 116.547 165.448C116.183 165.252 115.896 164.991 115.686 164.664C115.481 164.337 115.378 163.955 115.378 163.516C115.378 163.161 115.448 162.842 115.588 162.557C115.733 162.268 115.931 162.023 116.183 161.822C116.44 161.617 116.741 161.46 117.086 161.353C117.436 161.246 117.816 161.192 118.227 161.192C118.535 161.192 118.824 161.225 119.095 161.29C119.366 161.351 119.613 161.442 119.837 161.563H121.902Z" fill="black"/>
</svg>
