<svg width="151" height="174" viewBox="0 0 151 174" fill="none" xmlns="http://www.w3.org/2000/svg">
<rect x="0.5" y="0.578125" width="150" height="150" rx="75" fill="#BEC8FF"/>
<path d="M80.3455 50.5193C80.7488 50.5193 81.0757 50.1971 81.0757 49.7997C81.0757 49.4023 80.7488 49.0801 80.3455 49.0801C79.9422 49.0801 79.6152 49.4023 79.6152 49.7997C79.6152 50.1971 79.9422 50.5193 80.3455 50.5193Z" fill="#C41753"/>
<path d="M85.0887 47.9457C82.7091 40.2178 84.6013 33.7157 89.3072 31.4241C94.013 29.1324 98.3927 32.0104 99.5287 33.9823C100.665 35.9542 103.314 35.901 104.666 37.4462C106.018 38.9915 104.072 43.149 102.287 45.4407C100.502 47.7324 100.987 49.2248 103.314 50.7169C105.641 52.2089 105.099 55.5136 103.477 55.9935C101.854 56.4733 103.26 57.5944 103.098 58.9779C102.936 60.3615 99.8532 62.8685 94.9317 61.3761C90.0102 59.8836 86.1702 56.5794 86.1162 56.3665C86.0622 56.1535 85.0887 47.9457 85.0887 47.9457Z" fill="#2E0B06"/>
<path d="M89.7435 56.3144C94.4217 59.5118 96.7741 60.2314 96.6932 63.1095C96.6124 65.9875 95.0687 72.1429 95.0687 72.1429C93.5254 72.303 86.9834 71.3425 86.9834 71.3425L86.3109 83.5749C83.4716 83.1747 62.055 72.3831 62.055 72.3831L65.0564 63.1895L67.3011 56.3677C60.1893 53.3564 59.6211 51.278 59.6211 51.278C65.0564 47.4407 69.9239 44.4026 74.3856 46.8807C78.8474 49.3589 80.2806 50.4515 80.2806 50.4515L89.7435 56.3144Z" fill="white"/>
<path d="M80.0571 49.9994C76.8125 55.755 74.6218 59.1926 76.0822 61.1913C77.5427 63.19 82.491 66.3878 85.0058 65.1087C87.5205 63.8296 90.1978 56.2349 90.1978 56.2349L91.3349 56.6351C90.1165 59.7529 86.9816 71.3446 86.9816 71.3446L86.3054 83.5755C87.3613 86.4535 90.2806 98.6847 91.0917 106.999C91.9027 115.313 91.9039 116.512 91.9039 116.512H55.2335C54.7461 102.522 59.5332 74.1422 65.0493 63.19C73.4862 57.1942 79.246 49.5195 79.246 49.5195L80.0571 49.9994Z" fill="#C191E8"/>
<path d="M86.9833 71.3437C86.2275 79.658 86.2275 86.5863 86.2275 86.5863L92.3255 88.7583C92.1765 85.7334 94.1373 72.143 94.1373 72.143L86.9833 71.3437ZM60.2663 51.7307C59.1848 51.944 52.8028 58.3396 52.5867 60.4724C52.3707 62.6052 57.4542 66.122 61.7808 67.4011C66.1073 68.6802 75.3013 69.4263 75.8423 70.5989C76.3832 71.7716 77.0318 74.969 77.2483 76.1416C77.4648 77.3143 76.8158 82.857 77.3563 82.5372C77.8969 82.2174 79.9523 79.7657 80.3849 79.1261C80.8174 78.4865 81.5748 76.1416 81.5748 76.1416C81.5748 76.1416 81.3584 78.9128 81.1423 79.1793C80.9262 79.4459 80.2768 82.0041 80.2768 82.0041C80.6017 82.0041 82.3318 79.4459 82.4403 79.1793C82.5487 78.9128 83.4678 75.8218 83.4678 75.5553C83.4678 75.2887 82.1682 68.4669 81.3583 68.0407C80.5485 67.6144 76.1668 65.9619 73.0298 64.5763C69.8928 63.1907 63.8918 59.7796 63.8918 59.7796L67.2993 56.3689C63.4028 54.6087 60.2663 51.7307 60.2663 51.7307Z" fill="#F07B58"/>
<path d="M99.6334 36.5952C101.526 40.0059 100.283 44.0566 99.6334 45.0692C98.9836 46.0817 95.4689 52.1043 91.3049 52.1043C90.4394 51.9975 90.2229 51.7309 90.2229 51.7309C88.7089 52.9568 88.7089 55.888 89.7356 56.3147C86.5986 58.7128 83.8946 59.9387 81.9476 59.2459C79.0271 56.2078 80.2711 50.4518 80.2711 50.4518C84.2731 51.0381 86.385 45.6555 87.1404 43.2037C85.1934 42.2976 85.6803 39.0998 86.7619 38.5671C87.8434 38.0344 89.2494 38.78 88.6004 40.6455C88.8709 40.8056 89.3579 40.4854 89.7376 39.793C93.6844 40.4858 97.7404 38.6736 99.6334 36.5952Z" fill="#FF8863"/>
<path d="M42.5808 115.527H108.419C109.634 115.527 110.799 116.003 111.658 116.849C112.517 117.696 113 118.844 113 120.041V120.578H38V120.041C38 118.844 38.4826 117.696 39.3417 116.849C40.2007 116.003 41.3659 115.527 42.5808 115.527Z" fill="#5C5C5C"/>
<path d="M93.4813 43.4787C93.2583 43.8605 92.9204 44.0791 92.7271 43.971C92.5338 43.8629 92.5569 43.4627 92.7799 43.0809C93.0029 42.6991 93.3408 42.4786 93.5345 42.5886C93.7282 42.6987 93.7043 43.0969 93.4813 43.4787ZM92.5464 44.344C92.536 44.3439 92.5257 44.342 92.5159 44.3384C92.3738 44.282 91.9258 44.0374 92.1419 43.2462C92.1486 43.2272 92.1623 43.2113 92.1803 43.2018C92.1983 43.1923 92.2192 43.1898 92.239 43.1949C92.2588 43.1999 92.2759 43.2121 92.287 43.229C92.298 43.246 92.3022 43.2664 92.2986 43.2862C92.1744 43.7409 92.2755 44.0699 92.5764 44.1883C92.5938 44.1953 92.6081 44.208 92.617 44.2243C92.626 44.2405 92.6289 44.2593 92.6254 44.2775C92.6218 44.2956 92.612 44.312 92.5976 44.3238C92.5832 44.3357 92.5651 44.3422 92.5464 44.3424V44.344Z" fill="#2E0B06"/>
<path d="M97.5288 45.7754C97.7518 45.3936 97.7757 44.995 97.5821 44.8852C97.3885 44.7754 97.0507 44.9958 96.8277 45.3776C96.6046 45.7594 96.5808 46.1579 96.7744 46.2677C96.968 46.3776 97.3058 46.1571 97.5288 45.7754Z" fill="#2E0B06"/>
<path d="M96.602 46.6442C96.5917 46.6441 96.5815 46.6421 96.5719 46.6382C96.4294 46.5821 95.9814 46.3376 96.1975 45.5463C96.2031 45.5259 96.2167 45.5084 96.2354 45.4978C96.254 45.4873 96.2762 45.4844 96.297 45.4899C96.3178 45.4954 96.3355 45.5089 96.3462 45.5273C96.357 45.5456 96.3598 45.5675 96.3543 45.588C96.23 46.0426 96.3315 46.3712 96.6321 46.4897C96.6496 46.4965 96.6643 46.5092 96.6734 46.5256C96.6825 46.5419 96.6855 46.5609 96.682 46.5792C96.6784 46.5975 96.6685 46.614 96.6539 46.6259C96.6393 46.6377 96.6209 46.6442 96.602 46.6442ZM92.2324 40.6992C94.1254 41.0458 95.2341 42.3249 95.2614 42.0852C94.9369 40.353 93.5848 40.0064 92.2324 40.6992ZM97.9114 43.4976C99.1298 43.8438 99.4547 44.7231 99.4547 44.7231C99.8852 43.4708 98.9117 43.071 97.9114 43.4976Z" fill="#2E0B06"/>
<path d="M95.2847 47.9738C95.0898 47.9738 94.055 47.684 93.9376 47.6512C93.9179 47.6445 93.9016 47.6307 93.892 47.6125C93.8824 47.5943 93.8802 47.5732 93.886 47.5535C93.8917 47.5338 93.9049 47.517 93.9228 47.5066C93.9407 47.4962 93.962 47.4929 93.9823 47.4975C94.4067 47.6176 95.0674 47.7913 95.2547 47.8121C95.2851 47.7444 95.3278 47.5415 95.3688 47.345C95.5487 46.4901 95.9228 44.7107 97.1278 43.7806C97.1448 43.7694 97.1655 43.7649 97.1857 43.7681C97.206 43.7713 97.2242 43.7819 97.2369 43.7978C97.2495 43.8137 97.2556 43.8337 97.2539 43.8538C97.2522 43.8739 97.2428 43.8927 97.2277 43.9063C96.0694 44.8004 95.7034 46.541 95.5276 47.3774C95.4317 47.8357 95.4029 47.9738 95.2847 47.9738Z" fill="#2E0B06"/>
<path d="M94.0517 47.4653C94.0327 47.4653 94.0143 47.4588 93.9997 47.4468C93.9997 47.4468 93.8409 47.324 93.4132 47.2371C93.4023 47.2355 93.3918 47.2318 93.3823 47.2261C93.3729 47.2203 93.3648 47.2128 93.3584 47.2038C93.3521 47.1949 93.3477 47.1848 93.3454 47.1741C93.3432 47.1634 93.3432 47.1524 93.3454 47.1417C93.3477 47.131 93.3521 47.1209 93.3585 47.112C93.3648 47.103 93.373 47.0955 93.3824 47.0898C93.3918 47.084 93.4024 47.0803 93.4133 47.0787C93.4243 47.0771 93.4354 47.0778 93.4461 47.0806C93.9201 47.1767 94.0959 47.318 94.1037 47.324C94.1201 47.3376 94.1304 47.3571 94.1323 47.3781C94.1342 47.3992 94.1275 47.4202 94.1138 47.4364C94.1062 47.4454 94.0967 47.4527 94.086 47.4576C94.0752 47.4626 94.0635 47.4652 94.0517 47.4653Z" fill="#2E0B06"/>
<g style="mix-blend-mode:multiply">
<path d="M93.1576 47.3183C93.1432 47.3185 93.129 47.3148 93.1165 47.3078C93.104 47.3008 93.0937 47.2906 93.0865 47.2783C93.0501 47.2102 93.0319 47.134 93.0334 47.0571C93.035 46.9801 93.0563 46.9047 93.0954 46.8381C93.1424 46.7513 93.2101 46.6771 93.2927 46.6219C93.3753 46.5667 93.4702 46.5321 93.5694 46.5211C93.58 46.5202 93.5907 46.5213 93.6009 46.5245C93.6111 46.5276 93.6206 46.5327 93.6288 46.5395C93.637 46.5463 93.6437 46.5545 93.6486 46.5639C93.6536 46.5732 93.6566 46.5834 93.6575 46.5939C93.6593 46.615 93.6525 46.636 93.6387 46.6522C93.6248 46.6684 93.605 46.6785 93.5836 46.6804C93.5113 46.6888 93.4421 46.7145 93.3821 46.755C93.322 46.7956 93.2729 46.8499 93.2388 46.9133C93.2126 46.9567 93.198 47.0059 93.1962 47.0563C93.1944 47.1067 93.2056 47.1568 93.2286 47.2019C93.2358 47.2141 93.2395 47.228 93.2395 47.2421C93.2395 47.2562 93.2357 47.27 93.2284 47.2822C93.2212 47.2944 93.2109 47.3045 93.1984 47.3115C93.186 47.3185 93.1719 47.3221 93.1576 47.3219V47.3183ZM87.0579 42.3247C87.0453 42.3247 87.0329 42.3218 87.0217 42.3163C86.2379 41.9301 86.2846 41.3654 86.3175 41.2017C86.3768 40.9043 86.5973 40.6762 86.8414 40.6586C86.9385 40.6518 87.161 40.6742 87.3287 40.9816C87.5156 40.5053 87.596 39.7409 87.3157 39.3695C87.1809 39.191 86.9722 39.1269 86.6944 39.179C86.6839 39.1809 86.6731 39.1809 86.6627 39.1787C86.6522 39.1766 86.6423 39.1725 86.6335 39.1665C86.6157 39.1546 86.6034 39.1362 86.5993 39.1153C86.5953 39.0945 86.5998 39.0729 86.6119 39.0553C86.624 39.0378 86.6427 39.0257 86.6639 39.0217C87.092 38.9416 87.3255 39.1145 87.4457 39.2738C87.8027 39.7465 87.6597 40.7234 87.3998 41.2157C87.3923 41.2293 87.3811 41.2406 87.3673 41.2482C87.3536 41.2558 87.338 41.2593 87.3222 41.2585C87.3065 41.2574 87.2915 41.2518 87.279 41.2425C87.2664 41.2331 87.2569 41.2203 87.2516 41.2057C87.1586 40.9476 87.0116 40.8055 86.8532 40.8179C86.683 40.8303 86.521 41.0084 86.4763 41.2325C86.4036 41.5951 86.6343 41.9469 87.094 42.173C87.1104 42.1811 87.1236 42.1944 87.1313 42.2108C87.1391 42.2271 87.141 42.2456 87.1368 42.2632C87.1326 42.2808 87.1224 42.2964 87.108 42.3076C87.0936 42.3188 87.0758 42.3248 87.0574 42.3247H87.0579ZM89.8159 51.5183C89.798 51.5182 89.7805 51.5123 89.7664 51.5015C88.0427 50.1863 87.1427 47.1731 87.6268 44.3375C87.6313 44.3174 87.6434 44.2998 87.6607 44.2883C87.678 44.2768 87.699 44.2723 87.7196 44.2757C87.7401 44.2791 87.7586 44.2901 87.7711 44.3066C87.7836 44.323 87.7893 44.3435 87.7869 44.3639C87.3121 47.1454 88.1865 50.0947 89.8659 51.3758C89.8792 51.3861 89.889 51.4002 89.8939 51.4162C89.8987 51.4322 89.8984 51.4493 89.8929 51.4651C89.8874 51.4809 89.877 51.4946 89.8632 51.5042C89.8494 51.5139 89.8328 51.5191 89.8159 51.5191V51.5183Z" fill="#EBBEB0"/>
</g>
<path d="M91.0078 47.7344C93.2253 47.9745 94.6045 49.12 94.1988 49.573C94.1988 49.573 92.7656 49.627 91.0078 47.7344Z" fill="#F0504E"/>
<path d="M94.3027 49.6514C93.0218 49.6514 91.4034 48.6488 90.6699 47.3196C90.6642 47.3104 90.6605 47.3001 90.659 47.2894C90.6575 47.2787 90.6582 47.2678 90.661 47.2573C90.6639 47.2469 90.6689 47.2372 90.6757 47.2287C90.6825 47.2202 90.691 47.2131 90.7006 47.208C90.7102 47.2028 90.7208 47.1996 90.7318 47.1986C90.7427 47.1976 90.7537 47.1987 90.7642 47.202C90.7746 47.2053 90.7843 47.2107 90.7926 47.2178C90.8009 47.2248 90.8076 47.2335 90.8124 47.2432C91.6117 48.6912 93.4893 49.7394 94.7519 49.442C94.7722 49.4387 94.793 49.4431 94.8101 49.4543C94.8272 49.4655 94.8394 49.4827 94.8442 49.5023C94.849 49.522 94.846 49.5428 94.8359 49.5604C94.8258 49.578 94.8093 49.5912 94.7897 49.5973C94.6301 49.6341 94.4666 49.6522 94.3027 49.6514Z" fill="#2E0B06"/>
<g style="mix-blend-mode:multiply">
<path d="M92.9508 50.5017C92.2807 50.5017 91.2971 50.0615 90.7577 49.1606C90.751 49.1515 90.7464 49.1412 90.744 49.1302C90.7416 49.1193 90.7416 49.1079 90.7439 49.097C90.7463 49.086 90.7509 49.0757 90.7576 49.0666C90.7642 49.0575 90.7728 49.0499 90.7826 49.0443C90.7924 49.0387 90.8033 49.0351 90.8146 49.0339C90.8259 49.0327 90.8374 49.0338 90.8482 49.0373C90.859 49.0407 90.869 49.0463 90.8775 49.0537C90.886 49.0612 90.8928 49.0703 90.8974 49.0805C91.5517 50.1747 92.8635 50.5057 93.3253 50.2692C93.3443 50.2601 93.3662 50.2587 93.3863 50.2653C93.4064 50.2719 93.4231 50.2859 93.4328 50.3044C93.4425 50.3229 93.4446 50.3444 93.4384 50.3644C93.4323 50.3844 93.4185 50.4012 93.4 50.4113C93.2596 50.4758 93.1057 50.5068 92.9508 50.5017Z" fill="#EBBEB0"/>
</g>
<path d="M63.9141 115.533H72.4319L68.3218 102.416L63.9141 115.533Z" fill="#944321"/>
<path d="M58.3957 84.4545C56.0429 88.1322 58.3144 95.9666 59.7765 101.723C61.2386 107.479 59.8577 113.155 59.2892 113.234C57.9083 113.314 56.9096 114.62 57.7211 115.526H63.8321C64.482 115.206 68.5916 105.72 68.5916 105.72L70.7007 115.474H83.9483C83.8943 114.248 82.3802 113.235 81.1902 111.956C80.0003 110.677 83.3537 102.15 82.7047 95.0081C82.0557 87.8657 76.3227 82.2173 76.1063 82.2173C75.8898 82.2173 58.3957 84.4545 58.3957 84.4545Z" fill="#E06D3F"/>
<path d="M75.707 76.8608C76.2755 75.9003 76.9253 70.4252 76.2755 69.6255C75.6257 68.8259 71.8138 71.1064 70.3533 72.3038C70.3533 72.3038 68.25 72.1438 66.5475 72.1438C64.845 72.1438 62.742 72.3038 62.742 72.3038C61.2799 71.1032 57.4688 68.8263 56.8198 69.6255C56.1708 70.4248 56.8198 75.9015 57.3884 76.8608C55.9689 77.9814 54.9548 80.6577 55.0763 81.0976C55.1977 81.5374 57.1045 87.1334 66.515 87.1334H66.582C75.9925 87.1334 77.8988 81.5374 78.0203 81.0976C78.1417 80.6577 77.1268 77.9798 75.707 76.8608Z" fill="#E06D3F"/>
<path d="M72.6795 78.4994C71.1179 78.0591 70.3877 80.0782 69.536 79.4999C68.6843 78.9216 68.0333 75.3628 67.1228 75.3628H66.4514C65.5388 75.3628 64.8898 78.9204 64.0378 79.4999C63.1857 80.0794 62.4539 78.0611 60.8943 78.4994C59.3348 78.9376 59.2292 85.7342 66.715 85.7342H66.8588C74.3426 85.7342 74.241 78.9392 72.6795 78.4994Z" fill="#F5A167"/>
<path d="M69.7347 78.9388C69.9139 78.9388 70.0592 78.6794 70.0592 78.3593C70.0592 78.0392 69.9139 77.7798 69.7347 77.7798C69.5554 77.7798 69.4102 78.0392 69.4102 78.3593C69.4102 78.6794 69.5554 78.9388 69.7347 78.9388Z" fill="#2E0B06"/>
<path d="M69.7467 79.2583C69.7252 79.2587 69.7044 79.2506 69.6889 79.2359C69.6734 79.2211 69.6645 79.2009 69.6641 79.1797C69.6637 79.1584 69.6719 79.1379 69.6869 79.1227C69.7018 79.1074 69.7223 79.0986 69.7439 79.0982C70.0789 79.0866 70.1524 78.7576 70.1524 78.6316C70.1524 78.6103 70.161 78.59 70.1762 78.575C70.1915 78.5599 70.2121 78.5515 70.2337 78.5515C70.2552 78.5515 70.2759 78.5599 70.2911 78.575C70.3063 78.59 70.3149 78.6103 70.3149 78.6316C70.3149 78.8757 70.1642 79.2439 69.7496 79.2579L69.7467 79.2583Z" fill="#2E0B06"/>
<path d="M63.4925 78.9388C63.6717 78.9388 63.817 78.6794 63.817 78.3593C63.817 78.0392 63.6717 77.7798 63.4925 77.7798C63.3133 77.7798 63.168 78.0392 63.168 78.3593C63.168 78.6794 63.3133 78.9388 63.4925 78.9388Z" fill="#2E0B06"/>
<path d="M63.492 79.2583C63.5135 79.2587 63.5344 79.2506 63.5499 79.2359C63.5654 79.2211 63.5743 79.2009 63.5747 79.1797C63.575 79.1584 63.5668 79.1379 63.5519 79.1227C63.5369 79.1074 63.5164 79.0986 63.4948 79.0982C63.1598 79.0866 63.0863 78.7576 63.0863 78.6316C63.0863 78.6103 63.0777 78.59 63.0625 78.575C63.0473 78.5599 63.0266 78.5515 63.0051 78.5515C62.9835 78.5515 62.9628 78.5599 62.9476 78.575C62.9324 78.59 62.9238 78.6103 62.9238 78.6316C62.9238 78.8757 63.0745 79.2439 63.4888 79.2579L63.492 79.2583ZM66.5128 79.0558V79.0594C65.1762 79.0678 64.2044 79.3824 64.3912 79.6998C64.578 80.0171 66.5408 80.7403 66.5408 80.7403V80.7375C66.5648 80.7287 68.5016 80.0171 68.6897 79.697C68.8777 79.3768 67.8786 79.0558 66.5128 79.0558Z" fill="#2E0B06"/>
<path d="M68.6994 79.5598C68.5849 79.2912 67.6841 79.0559 66.5144 79.0559V79.0595C65.3773 79.0667 64.5069 79.2956 64.3867 79.5582C66.0803 79.5746 68.0626 79.5634 68.6994 79.5598Z" fill="#522E29"/>
<path d="M67.6056 80.071C67.5124 80.071 67.423 80.1075 67.3571 80.1724C67.2911 80.2373 67.254 80.3254 67.2539 80.4172C67.2544 80.4307 67.2557 80.444 67.258 80.4573C67.4541 80.3772 67.6682 80.2864 67.8704 80.1935C67.8379 80.1554 67.7974 80.1248 67.7517 80.1036C67.706 80.0825 67.6561 80.0714 67.6056 80.071Z" fill="#140502"/>
<path d="M67.5479 80.0946C67.5982 80.0947 67.6478 80.1055 67.6934 80.1262C67.7391 80.1469 67.7796 80.1771 67.8123 80.2147L67.8635 80.1919C67.8114 80.131 67.7392 80.09 67.6595 80.0762C67.5799 80.0624 67.4979 80.0765 67.4277 80.1162C67.4662 80.1021 67.5069 80.0948 67.5479 80.0946Z" fill="#522E29"/>
<path d="M65.8341 80.4636C65.8368 80.4482 65.8384 80.4327 65.839 80.4172C65.8391 80.3458 65.8169 80.2761 65.7752 80.2178C65.7335 80.1594 65.6746 80.1152 65.6064 80.0912C65.5382 80.0672 65.4641 80.0646 65.3943 80.0837C65.3246 80.1029 65.2625 80.1429 65.2168 80.1982C65.4207 80.2919 65.6363 80.3836 65.8341 80.4636Z" fill="#140502"/>
<path d="M65.5605 80.1075C65.6021 80.1079 65.6434 80.1156 65.6823 80.1303C65.6099 80.082 65.5217 80.0621 65.4351 80.0747C65.3486 80.0873 65.27 80.1314 65.2148 80.1983L65.292 80.2324C65.3247 80.1934 65.3657 80.162 65.4121 80.1404C65.4585 80.1188 65.5092 80.1076 65.5605 80.1075Z" fill="#522E29"/>
<path d="M66.596 82.696H66.488C64.037 82.696 62.2053 81.6478 61.3301 79.7443C61.3223 79.7251 61.3222 79.7038 61.33 79.6846C61.3378 79.6654 61.3528 79.6499 61.3719 79.6414C61.391 79.6329 61.4127 79.632 61.4324 79.6388C61.4522 79.6457 61.4685 79.6598 61.478 79.6783C62.3252 81.5213 64.1044 82.5363 66.4876 82.5363H66.5956C68.9792 82.5363 70.7581 81.5213 71.6057 79.6783C71.6151 79.6598 71.6314 79.6457 71.6512 79.6388C71.671 79.632 71.6926 79.6329 71.7117 79.6414C71.7308 79.6499 71.7458 79.6654 71.7536 79.6846C71.7614 79.7038 71.7614 79.7251 71.7535 79.7443C70.8783 81.6478 69.047 82.696 66.596 82.696Z" fill="#2E0B06"/>
<path d="M61.0462 80.2436C61.029 80.2436 61.0124 80.2382 60.9985 80.2283C60.9846 80.2184 60.9743 80.2044 60.969 80.1884C60.8232 79.7417 60.8963 79.3207 61.1461 79.1646C61.3085 79.0621 61.5165 79.1002 61.6964 79.2658C61.7046 79.2729 61.7113 79.2815 61.7161 79.2912C61.7209 79.3009 61.7236 79.3114 61.7242 79.3221C61.7248 79.3329 61.7231 79.3436 61.7194 79.3537C61.7156 79.3638 61.7099 79.3731 61.7024 79.3809C61.695 79.3888 61.686 79.3951 61.676 79.3994C61.666 79.4038 61.6553 79.4061 61.6444 79.4063C61.6334 79.4065 61.6226 79.4044 61.6125 79.4004C61.6024 79.3964 61.5932 79.3903 61.5855 79.3827C61.4592 79.2662 61.3341 79.2366 61.233 79.2999C61.0746 79.3987 60.9865 79.7189 61.1233 80.1403C61.1299 80.1605 61.128 80.1824 61.1182 80.2012C61.1084 80.2201 61.0914 80.2343 61.0709 80.2408C61.0629 80.2429 61.0545 80.2439 61.0462 80.2436ZM72.0219 80.2436C72.0391 80.2437 72.0559 80.2384 72.0698 80.2284C72.0837 80.2185 72.0941 80.2045 72.0995 80.1884C72.2449 79.7417 72.1722 79.3207 71.9224 79.1646C71.7575 79.0621 71.552 79.1002 71.3717 79.2658C71.3568 79.2805 71.3484 79.3003 71.348 79.3211C71.3477 79.3418 71.3555 79.3618 71.3699 79.377C71.3843 79.3921 71.404 79.4012 71.4251 79.4023C71.4461 79.4033 71.4667 79.3963 71.4825 79.3827C71.6089 79.2662 71.7343 79.2366 71.8355 79.2999C71.9935 79.3987 72.082 79.7189 71.9447 80.1403C71.9382 80.1605 71.9401 80.1824 71.9499 80.2012C71.9597 80.2201 71.9767 80.2343 71.9971 80.2408C72.0052 80.2429 72.0135 80.2438 72.0219 80.2436ZM66.4071 80.5374H66.6402V82.6157H66.4071V80.5374ZM67.9179 81.1269C67.9179 81.1487 67.9114 81.17 67.8991 81.1881C67.8868 81.2062 67.8693 81.2203 67.8489 81.2286C67.8285 81.2369 67.806 81.2391 67.7843 81.2348C67.7626 81.2305 67.7427 81.22 67.7271 81.2046C67.7115 81.1891 67.7009 81.1695 67.6966 81.1481C67.6924 81.1267 67.6947 81.1046 67.7032 81.0845C67.7117 81.0644 67.7261 81.0472 67.7445 81.0352C67.7629 81.0231 67.7845 81.0168 67.8066 81.0168C67.8362 81.0169 67.8645 81.0286 67.8854 81.0492C67.9062 81.0698 67.9179 81.0978 67.9179 81.1269ZM68.0093 81.9361C68.0094 81.9579 68.0029 81.9793 67.9907 81.9974C67.9785 82.0156 67.961 82.0297 67.9406 82.0381C67.9202 82.0465 67.8978 82.0487 67.8761 82.0445C67.8544 82.0403 67.8344 82.0299 67.8188 82.0145C67.8031 81.9991 67.7924 81.9795 67.7881 81.9582C67.7838 81.9368 67.786 81.9147 67.7944 81.8945C67.8028 81.8744 67.8171 81.8572 67.8355 81.8451C67.8539 81.833 67.8755 81.8265 67.8976 81.8265C67.9272 81.8265 67.9555 81.838 67.9764 81.8586C67.9974 81.8791 68.0092 81.907 68.0093 81.9361ZM68.9016 81.277C68.9016 81.2988 68.895 81.3201 68.8827 81.3382C68.8704 81.3563 68.853 81.3704 68.8325 81.3787C68.8121 81.387 68.7896 81.3892 68.7679 81.3849C68.7463 81.3806 68.7264 81.3701 68.7108 81.3547C68.6952 81.3392 68.6846 81.3196 68.6803 81.2982C68.676 81.2768 68.6783 81.2547 68.6868 81.2346C68.6953 81.2145 68.7097 81.1973 68.7281 81.1853C68.7466 81.1732 68.7682 81.1668 68.7903 81.1669C68.8049 81.1669 68.8194 81.1698 68.833 81.1753C68.8465 81.1808 68.8588 81.189 68.8691 81.1992C68.8795 81.2094 68.8877 81.2215 68.8932 81.2349C68.8988 81.2482 68.9016 81.2625 68.9016 81.277ZM65.9608 81.0769C65.9609 81.0987 65.9544 81.12 65.9421 81.1382C65.9299 81.1563 65.9124 81.1705 65.892 81.1789C65.8716 81.1873 65.8491 81.1895 65.8274 81.1852C65.8057 81.181 65.7858 81.1705 65.7701 81.1551C65.7545 81.1397 65.7438 81.12 65.7395 81.0986C65.7352 81.0773 65.7375 81.0551 65.746 81.035C65.7545 81.0148 65.7689 80.9977 65.7873 80.9856C65.8057 80.9735 65.8274 80.9671 65.8495 80.9672C65.879 80.9672 65.9073 80.9788 65.9282 80.9993C65.949 81.0199 65.9608 81.0478 65.9608 81.0769ZM66.0115 82.1563C66.0115 82.1781 66.005 82.1994 65.9927 82.2175C65.9804 82.2356 65.9629 82.2497 65.9425 82.258C65.9221 82.2663 65.8996 82.2685 65.8779 82.2642C65.8562 82.2599 65.8363 82.2494 65.8207 82.234C65.8051 82.2185 65.7945 82.1989 65.7903 82.1775C65.786 82.1561 65.7883 82.134 65.7968 82.1139C65.8053 82.0938 65.8197 82.0766 65.8381 82.0646C65.8565 82.0525 65.8782 82.0461 65.9003 82.0462C65.9149 82.0462 65.9294 82.0491 65.9429 82.0546C65.9565 82.0601 65.9688 82.0682 65.9791 82.0785C65.9894 82.0887 65.9976 82.1008 66.0032 82.1142C66.0088 82.1275 66.0116 82.1418 66.0115 82.1563ZM65.099 81.6164C65.099 81.6382 65.0925 81.6595 65.0803 81.6777C65.0681 81.6958 65.0506 81.71 65.0302 81.7184C65.0098 81.7268 64.9873 81.729 64.9656 81.7247C64.9439 81.7205 64.9239 81.71 64.9083 81.6946C64.8927 81.6792 64.882 81.6595 64.8777 81.6381C64.8734 81.6168 64.8757 81.5946 64.8842 81.5745C64.8927 81.5543 64.907 81.5372 64.9255 81.5251C64.9439 81.513 64.9656 81.5066 64.9877 81.5067C65.0172 81.5068 65.0454 81.5184 65.0662 81.5389C65.0871 81.5595 65.0989 81.5873 65.099 81.6164ZM66.7158 84.5936H66.7097C66.4699 84.6012 66.231 84.561 66.0073 84.4756C65.7836 84.3902 65.5797 84.2613 65.4076 84.0966C65.3935 84.0814 65.3859 84.0615 65.3863 84.0409C65.3867 84.0204 65.3951 84.0008 65.4098 83.9862C65.4244 83.9716 65.4442 83.9631 65.4651 83.9625C65.4859 83.9619 65.5062 83.9692 65.5217 83.9829C65.678 84.1323 65.8631 84.2493 66.0661 84.3267C66.2692 84.4041 66.486 84.4405 66.7036 84.4335H66.7089C66.9012 84.4277 67.0901 84.3823 67.2635 84.3003C67.437 84.2183 67.5911 84.1014 67.7161 83.9573C67.7227 83.9483 67.7311 83.9407 67.7409 83.9351C67.7506 83.9295 67.7615 83.9259 67.7727 83.9246C67.7839 83.9234 67.7953 83.9244 67.8061 83.9277C67.8169 83.9311 67.8268 83.9366 67.8353 83.9439C67.8439 83.9512 67.8507 83.9602 67.8555 83.9703C67.8603 83.9804 67.8629 83.9913 67.8631 84.0024C67.8634 84.0136 67.8612 84.0246 67.8569 84.0349C67.8526 84.0452 67.8461 84.0545 67.8379 84.0621C67.6988 84.2229 67.5271 84.3532 67.3338 84.4448C67.1406 84.5363 66.9301 84.587 66.7158 84.5936Z" fill="#2E0B06"/>
<path d="M75.9487 70.0115C75.1916 69.9583 73.4607 70.8644 74.0557 70.8644C74.6507 70.8644 72.7037 71.7169 72.8661 71.7701C73.7312 72.0367 71.4041 73.6356 71.4041 73.6356C72.3235 73.5823 72.3788 74.7014 72.3788 74.7014C73.5687 74.5949 75.1372 76.5668 75.1372 76.5668C75.9487 75.5542 76.0007 70.5446 75.9487 70.0115ZM57.1411 70.0115C57.8981 69.9583 59.6287 70.8644 59.0337 70.8644C58.4387 70.8644 60.3861 71.7169 60.2236 71.7701C59.3582 72.0367 61.6857 73.6356 61.6857 73.6356C60.7662 73.5823 60.711 74.7014 60.711 74.7014C59.521 74.5949 57.9526 76.5668 57.9526 76.5668C57.1411 75.5542 57.0871 70.5446 57.1411 70.0115ZM64.1566 85.094C61.6691 86.3199 59.2351 92.7155 60.6411 92.5554C60.2626 94.8475 61.8851 96.1798 62.2096 96.073C61.7223 98.4183 63.1291 101.189 64.1566 100.816C64.3731 104.014 68.5916 105.72 68.5916 105.72C69.4039 105.293 70.3221 103.321 70.4842 102.415C71.8906 101.989 73.6751 98.2582 73.3507 96.9259C75.1896 95.7532 73.838 92.0227 73.2966 91.1166C74.1089 90.156 72.8641 88.7717 72.8641 88.7717C73.0802 87.3861 70.0516 84.721 70.0516 84.721L64.1566 85.094ZM57.7211 115.525C56.2269 114.356 57.3019 112.266 59.2891 113.028C61.2564 113.834 65.1606 113.254 65.1606 113.254C65.1606 113.254 64.6639 115.513 63.9134 115.533C63.1628 115.553 57.7211 115.525 57.7211 115.525Z" fill="#F5A167"/>
<path d="M58.46 115.544C58.4408 115.544 58.4223 115.537 58.4076 115.525C57.9933 115.18 57.8317 114.69 57.9751 114.214C58.0436 113.986 58.1792 113.782 58.3648 113.63C58.5504 113.477 58.7776 113.382 59.018 113.356C59.0396 113.353 59.0613 113.359 59.0784 113.372C59.0955 113.385 59.1066 113.405 59.1092 113.426C59.1118 113.447 59.1058 113.469 59.0924 113.486C59.0791 113.502 59.0595 113.513 59.0379 113.516C58.829 113.538 58.6314 113.621 58.4699 113.753C58.3085 113.886 58.1904 114.063 58.1306 114.261C58.0059 114.674 58.1485 115.102 58.5124 115.404C58.525 115.415 58.534 115.429 58.5382 115.445C58.5424 115.461 58.5416 115.477 58.5359 115.493C58.5302 115.508 58.5198 115.521 58.5063 115.531C58.4927 115.54 58.4766 115.545 58.46 115.545V115.544ZM60.2445 115.544C60.2254 115.544 60.2068 115.537 60.1921 115.525C59.7779 115.18 59.6162 114.69 59.76 114.214C59.8285 113.986 59.964 113.782 60.1495 113.63C60.335 113.477 60.5622 113.382 60.8026 113.356C60.8241 113.353 60.8458 113.359 60.8629 113.372C60.88 113.385 60.8911 113.405 60.8937 113.426C60.8964 113.447 60.8903 113.469 60.877 113.486C60.8636 113.502 60.844 113.513 60.8225 113.516C60.6136 113.538 60.416 113.621 60.2546 113.753C60.0933 113.886 59.9753 114.063 59.9156 114.261C59.7909 114.674 59.9334 115.102 60.2969 115.404C60.3095 115.415 60.3185 115.429 60.3227 115.445C60.3269 115.461 60.3261 115.477 60.3204 115.493C60.3147 115.508 60.3044 115.521 60.2908 115.531C60.2773 115.54 60.2611 115.545 60.2445 115.545V115.544Z" fill="#2E0B06"/>
<path d="M70.6977 115.473C69.8323 114.873 69.8526 113.435 70.1771 112.995C70.5016 112.555 74.1523 112.135 75.0243 113.115C75.8962 114.094 74.8013 115.533 74.8013 115.533L70.6977 115.473Z" fill="#F5A167"/>
<path d="M71.7756 115.492C71.758 115.499 71.7383 115.501 71.7199 115.495C71.1989 115.346 70.8492 114.963 70.7858 114.471C70.7544 114.235 70.7944 113.995 70.9009 113.781C71.0074 113.567 71.1757 113.39 71.3845 113.27C71.4029 113.259 71.4251 113.256 71.446 113.261C71.4669 113.266 71.4849 113.279 71.496 113.297C71.507 113.316 71.5103 113.337 71.5051 113.358C71.4999 113.379 71.4866 113.396 71.4681 113.407C71.2863 113.511 71.1398 113.666 71.047 113.852C70.9542 114.037 70.9193 114.246 70.9467 114.451C71.0027 114.878 71.3093 115.212 71.7666 115.343C71.7826 115.347 71.7968 115.357 71.8073 115.369C71.8177 115.382 71.8239 115.398 71.825 115.414C71.8261 115.431 71.8221 115.447 71.8135 115.461C71.8048 115.475 71.792 115.486 71.7768 115.493L71.7756 115.492ZM73.9049 115.492C73.9225 115.499 73.9422 115.501 73.9606 115.495C74.4812 115.346 74.8309 114.963 74.8947 114.471C74.9259 114.235 74.8858 113.995 74.7793 113.781C74.6728 113.568 74.5047 113.39 74.296 113.27C74.2776 113.259 74.2554 113.256 74.2345 113.261C74.2136 113.266 74.1956 113.279 74.1845 113.297C74.1735 113.316 74.1701 113.337 74.1754 113.358C74.1806 113.379 74.1939 113.396 74.2124 113.407C74.3941 113.511 74.5405 113.666 74.6333 113.852C74.7261 114.037 74.7611 114.246 74.7338 114.451C74.6774 114.878 74.3712 115.212 73.9139 115.343C73.8979 115.347 73.8837 115.357 73.8732 115.369C73.8628 115.382 73.8566 115.398 73.8555 115.414C73.8544 115.431 73.8584 115.447 73.867 115.461C73.8757 115.475 73.8885 115.486 73.9037 115.493L73.9049 115.492ZM72.7816 115.433C72.7492 115.433 72.7183 115.42 72.6954 115.398C72.6726 115.375 72.6597 115.345 72.6597 115.313V113.394C72.6597 113.363 72.6726 113.332 72.6954 113.31C72.7183 113.287 72.7492 113.274 72.7816 113.274C72.8139 113.274 72.8449 113.287 72.8677 113.31C72.8906 113.332 72.9034 113.363 72.9034 113.394V115.313C72.9033 115.345 72.8904 115.375 72.8676 115.398C72.8447 115.42 72.8138 115.433 72.7816 115.433Z" fill="#2E0B06"/>
<path d="M75.3527 112.515C75.3312 112.515 75.3105 112.507 75.2953 112.492C75.28 112.477 75.2715 112.456 75.2715 112.435C75.2715 110.991 75.8665 109.767 76.4964 108.47C77.1868 107.044 77.9048 105.57 78.0299 103.557C78.031 103.539 78.038 103.522 78.0497 103.509C78.0615 103.496 78.0774 103.486 78.0949 103.483C78.1059 103.481 79.239 103.212 79.2467 100.63C79.2347 100.609 79.2293 100.586 79.2313 100.562C79.2374 100.49 79.3015 100.444 79.4083 100.369C79.8665 100.044 81.2603 99.0553 79.5761 94.3947C79.5717 94.3846 79.5694 94.3738 79.5694 94.3629C79.5695 94.3519 79.5718 94.3411 79.5762 94.331C79.5806 94.321 79.5871 94.312 79.5952 94.3045C79.6033 94.297 79.6129 94.2913 79.6234 94.2876C79.6339 94.2839 79.645 94.2824 79.6561 94.2831C79.6671 94.2839 79.678 94.2868 79.6878 94.2918C79.6977 94.2968 79.7064 94.3038 79.7135 94.3123C79.7205 94.3207 79.7257 94.3305 79.7288 94.3411C81.454 99.1149 79.9855 100.156 79.503 100.499C79.4656 100.525 79.4242 100.555 79.4027 100.574C79.4068 100.583 79.409 100.593 79.4092 100.603C79.4092 103.038 78.4466 103.533 78.1883 103.622C78.051 105.639 77.3034 107.179 76.6426 108.539C76.0212 109.82 75.4339 111.028 75.4339 112.435C75.4339 112.456 75.4254 112.477 75.4101 112.492C75.3949 112.507 75.3743 112.515 75.3527 112.515Z" fill="#944321"/>
<path d="M81.0472 111.715C79.7476 111.342 75.4629 115.473 75.4629 115.473H83.9527C84.3868 113.983 81.8042 111.768 81.0472 111.715Z" fill="#F5A167"/>
<path d="M82.0824 115.398C82.0999 115.406 82.1196 115.407 82.138 115.402C82.6587 115.253 83.0084 114.87 83.0721 114.378C83.1034 114.142 83.0633 113.902 82.9568 113.688C82.8503 113.475 82.6822 113.297 82.4735 113.177C82.455 113.166 82.4329 113.163 82.412 113.168C82.3911 113.173 82.3731 113.186 82.362 113.204C82.3509 113.223 82.3476 113.244 82.3528 113.265C82.3581 113.286 82.3714 113.303 82.3898 113.314C82.5715 113.418 82.718 113.573 82.8108 113.759C82.9036 113.944 82.9385 114.153 82.9113 114.358C82.8549 114.785 82.5486 115.119 82.0913 115.25C82.0755 115.254 82.0614 115.264 82.0511 115.276C82.0407 115.289 82.0346 115.305 82.0335 115.321C82.0324 115.337 82.0364 115.354 82.0449 115.368C82.0534 115.382 82.0661 115.393 82.0812 115.399L82.0824 115.398ZM80.2954 115.398C80.3129 115.406 80.3326 115.407 80.3511 115.402C80.8721 115.253 81.2218 114.87 81.2852 114.378C81.3165 114.142 81.2763 113.902 81.1698 113.688C81.0633 113.475 80.8952 113.297 80.6865 113.177C80.6774 113.172 80.6672 113.168 80.6567 113.166C80.6461 113.165 80.6354 113.165 80.625 113.168C80.6147 113.17 80.6049 113.175 80.5963 113.181C80.5878 113.187 80.5805 113.195 80.575 113.204C80.5695 113.213 80.5659 113.223 80.5643 113.234C80.5628 113.244 80.5633 113.255 80.5659 113.265C80.5684 113.275 80.573 113.285 80.5794 113.293C80.5857 113.302 80.5937 113.309 80.6029 113.314C80.7846 113.418 80.9311 113.573 81.0238 113.759C81.1165 113.944 81.1514 114.153 81.1239 114.358C81.0679 114.785 80.7612 115.119 80.3043 115.25C80.2885 115.254 80.2744 115.264 80.264 115.276C80.2536 115.289 80.2474 115.305 80.2463 115.321C80.2451 115.337 80.2491 115.353 80.2576 115.368C80.2661 115.382 80.2787 115.393 80.2938 115.399L80.2954 115.398Z" fill="#2E0B06"/>
<path d="M66.348 95.0038C66.3056 95.0038 66.2632 95.0006 66.2213 94.9942C65.4838 94.8846 64.9854 93.8664 64.9314 92.3816C64.6471 92.5857 64.3064 92.5781 64.0119 92.3507C63.3715 91.8565 63.1806 90.5733 64.0883 89.1681C64.1002 89.1511 64.1184 89.1392 64.139 89.1351C64.1597 89.131 64.1811 89.135 64.1988 89.1461C64.2166 89.1573 64.2292 89.1748 64.2341 89.1949C64.239 89.2151 64.2358 89.2363 64.2251 89.2542C63.3158 90.6618 63.6115 91.8388 64.1118 92.2251C64.3872 92.4376 64.7007 92.4112 64.9497 92.1538C64.9608 92.1424 64.9752 92.1345 64.9909 92.1312C65.0065 92.1278 65.0229 92.1291 65.0379 92.1348C65.0528 92.1406 65.0657 92.1507 65.0749 92.1636C65.084 92.1766 65.0891 92.192 65.0894 92.2078C65.1117 93.9084 65.686 94.7533 66.2452 94.8361C66.7927 94.919 67.3447 94.3158 67.6895 93.2636C67.6923 93.2531 67.6973 93.2433 67.7041 93.2347C67.7109 93.2262 67.7194 93.2191 67.7291 93.2139C67.7388 93.2087 67.7494 93.2054 67.7604 93.2044C67.7714 93.2034 67.7825 93.2046 67.793 93.208C67.8035 93.2113 67.8132 93.2167 67.8215 93.2239C67.8298 93.2311 67.8365 93.2398 67.8413 93.2497C67.846 93.2595 67.8487 93.2701 67.8491 93.281C67.8496 93.2919 67.8477 93.3027 67.8438 93.3129C67.4925 94.3847 66.9401 95.0038 66.348 95.0038Z" fill="#E68F52"/>
<path d="M76.2188 76.6074L81.4916 87.4799L82.3436 87.0001L76.2188 76.6074Z" fill="#2B2B2B"/>
<path d="M73.7715 78.7651L85.0059 86.8201L84.5194 85.3408L73.7715 78.7651Z" fill="#404040"/>
<path d="M79.4762 82.4563C79.4763 82.4814 79.4688 82.506 79.4547 82.5269C79.4406 82.5479 79.4205 82.5642 79.3969 82.5738C79.3734 82.5835 79.3475 82.586 79.3225 82.5812C79.2975 82.5763 79.2745 82.5642 79.2565 82.5464C79.2384 82.5286 79.2262 82.506 79.2212 82.4814C79.2162 82.4567 79.2188 82.4312 79.2286 82.408C79.2384 82.3848 79.255 82.365 79.2762 82.351C79.2975 82.3371 79.3224 82.3298 79.3479 82.3298C79.3819 82.3299 79.4145 82.3433 79.4385 82.367C79.4626 82.3907 79.4761 82.4228 79.4762 82.4563Z" fill="#636363"/>
<path d="M88.3283 85.861C87.7402 85.6013 84.84 85.1406 84.84 85.1406C84.84 85.1406 82.6091 85.2407 82.5482 85.2807C82.467 85.6409 83.3605 86.1212 83.3605 86.1212L88.3283 85.861Z" fill="#EB7451"/>
<path d="M85.522 87.2557C85.4849 87.2725 85.4448 87.2819 85.404 87.2834C85.3632 87.2849 85.3225 87.2784 85.2843 87.2643C85.246 87.2503 85.2109 87.2289 85.1811 87.2015C85.1512 87.1741 85.1271 87.1411 85.1102 87.1045L84.2801 85.3107C84.2631 85.2741 84.2536 85.2346 84.2522 85.1944C84.2507 85.1542 84.2573 85.1141 84.2715 85.0764C84.2858 85.0387 84.3074 85.0042 84.3352 84.9747C84.3631 84.9453 84.3965 84.9215 84.4336 84.9048C84.4707 84.888 84.5109 84.8786 84.5517 84.8772C84.5925 84.8757 84.6333 84.8822 84.6716 84.8962C84.7099 84.9103 84.745 84.9316 84.7749 84.9591C84.8048 84.9865 84.8289 85.0195 84.8458 85.0561L85.6772 86.8499C85.6941 86.8866 85.7035 86.9262 85.7049 86.9665C85.7062 87.0067 85.6995 87.0469 85.6851 87.0846C85.6707 87.1223 85.6489 87.1568 85.6209 87.1862C85.5929 87.2155 85.5593 87.2392 85.522 87.2557Z" fill="#404040"/>
<path d="M92.3242 88.7589C91.4307 87.5583 88.8761 85.9205 88.2271 85.8409C87.5781 85.7612 83.157 85.8009 83.157 85.8009L80.4396 87.9593L79.4648 90.3178C80.1553 90.5179 81.29 89.2772 81.5739 88.837C81.8578 88.3967 83.2796 87.9565 83.2796 87.9565C83.2796 87.9565 82.2237 89.2772 82.0206 89.7551C81.8176 90.233 81.249 91.9535 81.4927 92.0736C81.7363 92.1937 82.4674 91.8735 82.4674 91.8735C82.9141 92.3538 84.9821 91.1131 85.2258 91.1931C85.4695 91.2731 83.9262 92.792 84.6979 93.1118C85.4695 93.4316 86.363 92.3113 87.3345 92.5515C88.3059 92.7916 92.5269 92.4762 92.3242 88.7589Z" fill="#FF8863"/>
<path d="M82.0506 89.1353C81.9755 89.169 81.8899 89.1719 81.8127 89.1435C81.7354 89.115 81.6727 89.0575 81.6384 88.9836L80.8074 87.1898C80.7905 87.1532 80.781 87.1137 80.7795 87.0735C80.778 87.0333 80.7846 86.9932 80.7989 86.9556C80.8131 86.9179 80.8348 86.8833 80.8626 86.8539C80.8904 86.8244 80.9238 86.8007 80.9609 86.784C80.9981 86.7672 81.0382 86.7578 81.0791 86.7563C81.1199 86.7548 81.1606 86.7613 81.1989 86.7754C81.2372 86.7894 81.2723 86.8108 81.3022 86.8382C81.3321 86.8656 81.3562 86.8986 81.3732 86.9353L82.2053 88.7291C82.2223 88.7657 82.2318 88.8054 82.2332 88.8457C82.2346 88.8859 82.228 88.9261 82.2136 88.9639C82.1992 89.0016 82.1774 89.0362 82.1495 89.0656C82.1215 89.095 82.0879 89.1187 82.0506 89.1353Z" fill="#404040"/>
<g style="mix-blend-mode:multiply">
<path d="M82.5738 91.4563C82.5628 91.4563 82.5519 91.4542 82.5417 91.4499C82.5222 91.4412 82.507 91.4252 82.4994 91.4055C82.4918 91.3858 82.4924 91.3639 82.5011 91.3446C82.5909 91.1401 83.0518 90.1139 83.3052 89.9683C83.5469 89.8294 85.2624 88.9069 85.3359 88.868C85.3453 88.862 85.3558 88.8579 85.3669 88.8561C85.3779 88.8543 85.3893 88.8547 85.4001 88.8574C85.411 88.8601 85.4212 88.865 85.4301 88.8717C85.439 88.8785 85.4463 88.887 85.4517 88.8967C85.457 88.9064 85.4603 88.9171 85.4613 88.9281C85.4623 88.9391 85.4609 88.9502 85.4573 88.9606C85.4537 88.9711 85.448 88.9807 85.4404 88.9889C85.4329 88.9971 85.4237 89.0036 85.4135 89.0081C85.3956 89.0177 83.6265 89.9687 83.3873 90.1063C83.2248 90.1988 82.85 90.954 82.6501 91.4083C82.6437 91.4228 82.633 91.4352 82.6194 91.4437C82.6058 91.4523 82.5899 91.4567 82.5738 91.4563Z" fill="#EBBEB0"/>
</g>
<path d="M80.3572 48.8501C80.3942 48.9465 80.4109 49.0493 80.4062 49.1523C80.4016 49.2552 80.3758 49.3562 80.3304 49.449C80.285 49.5418 80.2209 49.6246 80.142 49.6923C80.0632 49.7599 79.9712 49.8111 79.8716 49.8427C79.772 49.8742 79.667 49.8855 79.5629 49.8758C79.4588 49.8662 79.3577 49.8357 79.2659 49.7864C79.1741 49.7371 79.0934 49.6698 79.0288 49.5888C78.9641 49.5078 78.9169 49.4147 78.8899 49.3152C78.7595 48.9149 77.9887 45.4442 78.394 45.3157C78.7993 45.1872 80.2269 48.4511 80.3572 48.8501Z" fill="#C41753"/>
<path d="M81.2073 49.2121C81.1137 49.3322 80.9755 49.4108 80.8231 49.4306C80.6707 49.4503 80.5166 49.4096 80.3946 49.3173C80.2727 49.2251 80.1929 49.0889 80.1729 48.9387C80.1529 48.7885 80.1942 48.6366 80.2878 48.5165C80.4828 48.2663 82.3319 46.3112 82.5857 46.503C82.8395 46.6947 81.4022 48.9615 81.2073 49.2121Z" fill="#C41753"/>
<path d="M103.894 58.7302C103.879 58.7303 103.864 58.726 103.851 58.7179C103.838 58.7099 103.827 58.6983 103.821 58.6846C103.399 57.8101 103.218 57.2838 103.394 56.8468C103.554 56.4506 103.993 56.1508 104.96 55.7778C105.475 55.5777 105.797 55.1422 105.89 54.5143C106.084 53.1935 105.235 51.0555 103.236 49.5199C100.976 47.7841 101.413 46.8692 102.468 44.6591C102.73 44.1112 103.026 43.4897 103.332 42.7513C103.336 42.7411 103.342 42.7318 103.349 42.7239C103.357 42.7159 103.366 42.7096 103.376 42.7052C103.386 42.7008 103.396 42.6984 103.407 42.6983C103.418 42.6981 103.429 42.7001 103.439 42.7042C103.45 42.7083 103.459 42.7143 103.467 42.722C103.474 42.7297 103.48 42.7388 103.484 42.7489C103.488 42.7589 103.49 42.7697 103.49 42.7805C103.49 42.7913 103.487 42.8019 103.483 42.8117C103.175 43.5541 102.877 44.1773 102.615 44.7272C101.569 46.9172 101.178 47.7365 103.336 49.3938C105.384 50.9671 106.252 53.1723 106.05 54.5375C105.949 55.2255 105.592 55.7057 105.019 55.9267C104.111 56.2769 103.684 56.5606 103.545 56.9056C103.392 57.2878 103.575 57.8017 103.967 58.6158C103.977 58.6349 103.978 58.6569 103.971 58.6769C103.963 58.6968 103.948 58.7131 103.929 58.7222C103.918 58.7276 103.906 58.7303 103.894 58.7302Z" fill="#2E0B06"/>
<path d="M106.246 55.253C106.232 55.2527 106.218 55.2489 106.206 55.2418C106.194 55.2347 106.183 55.2245 106.176 55.2124C106.17 55.2003 106.166 55.1866 106.166 55.1726C106.166 55.1587 106.17 55.145 106.177 55.1329C107.801 52.529 106.762 51.1667 104.001 48.6785C101.643 46.5537 102.408 45.034 103.377 43.1102C103.595 42.6787 103.819 42.2329 104.021 41.7538C104.025 41.7436 104.031 41.7342 104.038 41.7262C104.046 41.7182 104.055 41.7118 104.065 41.7074C104.075 41.703 104.086 41.7007 104.097 41.7005C104.108 41.7004 104.119 41.7025 104.129 41.7066C104.139 41.7108 104.148 41.717 104.156 41.7247C104.164 41.7325 104.17 41.7418 104.173 41.7519C104.177 41.762 104.179 41.7729 104.179 41.7837C104.178 41.7946 104.176 41.8052 104.171 41.815C103.968 42.2989 103.741 42.7475 103.521 43.181C102.582 45.0448 101.841 46.5169 104.109 48.5604C106.876 51.0538 107.995 52.5226 106.313 55.217C106.306 55.228 106.296 55.237 106.284 55.2433C106.272 55.2496 106.259 55.2529 106.246 55.253ZM91.9285 40.9357C91.0171 40.9357 90.0562 40.7244 89.0645 40.2153L89.1396 40.0736C93.5701 42.3513 97.3906 38.4988 98.8275 36.7366L98.9538 36.8366C97.8117 38.237 95.1865 40.9357 91.9285 40.9357Z" fill="#2E0B06"/>
<path d="M58.0947 84.9402C59.1872 86.058 60.6156 85.561 60.6156 85.561C62.5061 86.3478 69.5221 86.5959 73.9335 84.4003C76.2021 84.3175 77.0002 83.0339 77.0002 83.0339L77.5046 83.6135C73.3872 87.3396 62.0021 88.5402 57.8848 85.3524C58.0529 85.23 58.0947 84.9402 58.0947 84.9402Z" fill="#00A3AB"/>
<path d="M66.77 89.9606C67.5966 89.9606 68.2666 89.3003 68.2666 88.4858C68.2666 87.6713 67.5966 87.011 66.77 87.011C65.9435 87.011 65.2734 87.6713 65.2734 88.4858C65.2734 89.3003 65.9435 89.9606 66.77 89.9606Z" fill="#FFCC5E"/>
<path d="M41.66 160.55V170.672H39.77V166.248H35.017V170.672H33.127V160.55H35.017V164.904H39.77V160.55H41.66ZM47.2574 167.606C46.758 167.629 46.338 167.674 45.9974 167.739C45.6567 167.8 45.3837 167.879 45.1784 167.977C44.973 168.075 44.826 168.189 44.7374 168.32C44.6487 168.451 44.6044 168.593 44.6044 168.747C44.6044 169.05 44.693 169.267 44.8704 169.398C45.0524 169.529 45.288 169.594 45.5774 169.594C45.932 169.594 46.2377 169.531 46.4944 169.405C46.7557 169.274 47.01 169.078 47.2574 168.817V167.606ZM43.2954 164.491C44.1214 163.735 45.1154 163.357 46.2774 163.357C46.6974 163.357 47.073 163.427 47.4044 163.567C47.7357 163.702 48.0157 163.894 48.2444 164.141C48.473 164.384 48.6457 164.675 48.7624 165.016C48.8837 165.357 48.9444 165.73 48.9444 166.136V170.672H48.1604C47.997 170.672 47.871 170.649 47.7824 170.602C47.6937 170.551 47.6237 170.45 47.5724 170.301L47.4184 169.783C47.2364 169.946 47.059 170.091 46.8864 170.217C46.7137 170.338 46.534 170.441 46.3474 170.525C46.1607 170.609 45.96 170.672 45.7454 170.714C45.5354 170.761 45.302 170.784 45.0454 170.784C44.742 170.784 44.462 170.744 44.2054 170.665C43.9487 170.581 43.727 170.457 43.5404 170.294C43.3537 170.131 43.209 169.928 43.1064 169.685C43.0037 169.442 42.9524 169.16 42.9524 168.838C42.9524 168.656 42.9827 168.476 43.0434 168.299C43.104 168.117 43.202 167.944 43.3374 167.781C43.4774 167.618 43.657 167.464 43.8764 167.319C44.0957 167.174 44.364 167.048 44.6814 166.941C45.0034 166.834 45.3767 166.747 45.8014 166.682C46.226 166.612 46.7114 166.57 47.2574 166.556V166.136C47.2574 165.655 47.1547 165.301 46.9494 165.072C46.744 164.839 46.4477 164.722 46.0604 164.722C45.7804 164.722 45.547 164.755 45.3604 164.82C45.1784 164.885 45.0174 164.96 44.8774 165.044C44.7374 165.123 44.609 165.196 44.4924 165.261C44.3804 165.326 44.2544 165.359 44.1144 165.359C43.993 165.359 43.8904 165.329 43.8064 165.268C43.7224 165.203 43.6547 165.128 43.6034 165.044L43.2954 164.491ZM52.3648 163.49V170.672H50.6288V163.49H52.3648ZM52.6028 161.397C52.6028 161.546 52.5724 161.686 52.5118 161.817C52.4511 161.948 52.3694 162.062 52.2668 162.16C52.1688 162.258 52.0521 162.337 51.9168 162.398C51.7814 162.454 51.6368 162.482 51.4828 162.482C51.3334 162.482 51.1911 162.454 51.0558 162.398C50.9251 162.337 50.8108 162.258 50.7128 162.16C50.6148 162.062 50.5354 161.948 50.4748 161.817C50.4188 161.686 50.3908 161.546 50.3908 161.397C50.3908 161.243 50.4188 161.098 50.4748 160.963C50.5354 160.828 50.6148 160.711 50.7128 160.613C50.8108 160.515 50.9251 160.438 51.0558 160.382C51.1911 160.321 51.3334 160.291 51.4828 160.291C51.6368 160.291 51.7814 160.321 51.9168 160.382C52.0521 160.438 52.1688 160.515 52.2668 160.613C52.3694 160.711 52.4511 160.828 52.5118 160.963C52.5724 161.098 52.6028 161.243 52.6028 161.397ZM55.7584 164.736C55.9824 164.307 56.2484 163.971 56.5564 163.728C56.8644 163.481 57.2284 163.357 57.6484 163.357C57.9798 163.357 58.2458 163.429 58.4464 163.574L58.3344 164.869C58.3111 164.953 58.2761 165.014 58.2294 165.051C58.1874 165.084 58.1291 165.1 58.0544 165.1C57.9844 165.1 57.8794 165.088 57.7394 165.065C57.6041 165.042 57.4711 165.03 57.3404 165.03C57.1491 165.03 56.9788 165.058 56.8294 165.114C56.6801 165.17 56.5448 165.252 56.4234 165.359C56.3068 165.462 56.2018 165.588 56.1084 165.737C56.0198 165.886 55.9358 166.057 55.8564 166.248V170.672H54.1274V163.49H55.1424C55.3198 163.49 55.4434 163.523 55.5134 163.588C55.5834 163.649 55.6301 163.761 55.6534 163.924L55.7584 164.736ZM69.3728 162.097H66.3208V170.672H64.4378V162.097H61.3858V160.55H69.3728V162.097ZM70.6471 164.736C70.8711 164.307 71.1371 163.971 71.4451 163.728C71.7531 163.481 72.1171 163.357 72.5371 163.357C72.8684 163.357 73.1344 163.429 73.3351 163.574L73.2231 164.869C73.1998 164.953 73.1648 165.014 73.1181 165.051C73.0761 165.084 73.0178 165.1 72.9431 165.1C72.8731 165.1 72.7681 165.088 72.6281 165.065C72.4928 165.042 72.3598 165.03 72.2291 165.03C72.0378 165.03 71.8674 165.058 71.7181 165.114C71.5688 165.17 71.4334 165.252 71.3121 165.359C71.1954 165.462 71.0904 165.588 70.9971 165.737C70.9084 165.886 70.8244 166.057 70.7451 166.248V170.672H69.0161V163.49H70.0311C70.2084 163.49 70.3321 163.523 70.4021 163.588C70.4721 163.649 70.5188 163.761 70.5421 163.924L70.6471 164.736ZM76.0308 163.49V170.672H74.2948V163.49H76.0308ZM76.2688 161.397C76.2688 161.546 76.2384 161.686 76.1778 161.817C76.1171 161.948 76.0354 162.062 75.9328 162.16C75.8348 162.258 75.7181 162.337 75.5828 162.398C75.4474 162.454 75.3028 162.482 75.1488 162.482C74.9994 162.482 74.8571 162.454 74.7218 162.398C74.5911 162.337 74.4768 162.258 74.3788 162.16C74.2808 162.062 74.2014 161.948 74.1408 161.817C74.0848 161.686 74.0568 161.546 74.0568 161.397C74.0568 161.243 74.0848 161.098 74.1408 160.963C74.2014 160.828 74.2808 160.711 74.3788 160.613C74.4768 160.515 74.5911 160.438 74.7218 160.382C74.8571 160.321 74.9994 160.291 75.1488 160.291C75.3028 160.291 75.4474 160.321 75.5828 160.382C75.7181 160.438 75.8348 160.515 75.9328 160.613C76.0354 160.711 76.1171 160.828 76.1778 160.963C76.2384 161.098 76.2688 161.243 76.2688 161.397ZM77.7935 170.672V163.49H78.8505C79.0745 163.49 79.2215 163.595 79.2915 163.805L79.4035 164.337C79.5295 164.197 79.6601 164.069 79.7955 163.952C79.9355 163.835 80.0825 163.735 80.2365 163.651C80.3951 163.567 80.5631 163.502 80.7405 163.455C80.9225 163.404 81.1208 163.378 81.3355 163.378C81.7881 163.378 82.1591 163.502 82.4485 163.749C82.7425 163.992 82.9618 164.316 83.1065 164.722C83.2185 164.484 83.3585 164.281 83.5265 164.113C83.6945 163.94 83.8788 163.8 84.0795 163.693C84.2801 163.586 84.4925 163.506 84.7165 163.455C84.9451 163.404 85.1738 163.378 85.4025 163.378C85.7991 163.378 86.1515 163.439 86.4595 163.56C86.7675 163.681 87.0265 163.859 87.2365 164.092C87.4465 164.325 87.6051 164.61 87.7125 164.946C87.8245 165.282 87.8805 165.667 87.8805 166.101V170.672H86.1515V166.101C86.1515 165.644 86.0511 165.301 85.8505 165.072C85.6498 164.839 85.3558 164.722 84.9685 164.722C84.7911 164.722 84.6255 164.752 84.4715 164.813C84.3221 164.874 84.1891 164.962 84.0725 165.079C83.9605 165.191 83.8718 165.333 83.8065 165.506C83.7411 165.679 83.7085 165.877 83.7085 166.101V170.672H81.9725V166.101C81.9725 165.62 81.8745 165.27 81.6785 165.051C81.4871 164.832 81.2048 164.722 80.8315 164.722C80.5795 164.722 80.3438 164.785 80.1245 164.911C79.9098 165.032 79.7091 165.2 79.5225 165.415V170.672H77.7935ZM89.5239 170.672V163.49H90.5809C90.8049 163.49 90.9519 163.595 91.0219 163.805L91.1339 164.337C91.2599 164.197 91.3906 164.069 91.5259 163.952C91.6659 163.835 91.8129 163.735 91.9669 163.651C92.1256 163.567 92.2936 163.502 92.4709 163.455C92.6529 163.404 92.8513 163.378 93.0659 163.378C93.5186 163.378 93.8896 163.502 94.1789 163.749C94.4729 163.992 94.6923 164.316 94.8369 164.722C94.9489 164.484 95.0889 164.281 95.2569 164.113C95.4249 163.94 95.6093 163.8 95.8099 163.693C96.0106 163.586 96.2229 163.506 96.4469 163.455C96.6756 163.404 96.9043 163.378 97.1329 163.378C97.5296 163.378 97.8819 163.439 98.1899 163.56C98.4979 163.681 98.7569 163.859 98.9669 164.092C99.1769 164.325 99.3356 164.61 99.4429 164.946C99.5549 165.282 99.6109 165.667 99.6109 166.101V170.672H97.8819V166.101C97.8819 165.644 97.7816 165.301 97.5809 165.072C97.3803 164.839 97.0863 164.722 96.6989 164.722C96.5216 164.722 96.3559 164.752 96.2019 164.813C96.0526 164.874 95.9196 164.962 95.8029 165.079C95.6909 165.191 95.6023 165.333 95.5369 165.506C95.4716 165.679 95.4389 165.877 95.4389 166.101V170.672H93.7029V166.101C93.7029 165.62 93.6049 165.27 93.4089 165.051C93.2176 164.832 92.9353 164.722 92.5619 164.722C92.3099 164.722 92.0743 164.785 91.8549 164.911C91.6403 165.032 91.4396 165.2 91.2529 165.415V170.672H89.5239ZM103.046 163.49V170.672H101.31V163.49H103.046ZM103.284 161.397C103.284 161.546 103.254 161.686 103.193 161.817C103.133 161.948 103.051 162.062 102.948 162.16C102.85 162.258 102.734 162.337 102.598 162.398C102.463 162.454 102.318 162.482 102.164 162.482C102.015 162.482 101.873 162.454 101.737 162.398C101.607 162.337 101.492 162.258 101.394 162.16C101.296 162.062 101.217 161.948 101.156 161.817C101.1 161.686 101.072 161.546 101.072 161.397C101.072 161.243 101.1 161.098 101.156 160.963C101.217 160.828 101.296 160.711 101.394 160.613C101.492 160.515 101.607 160.438 101.737 160.382C101.873 160.321 102.015 160.291 102.164 160.291C102.318 160.291 102.463 160.321 102.598 160.382C102.734 160.438 102.85 160.515 102.948 160.613C103.051 160.711 103.133 160.828 103.193 160.963C103.254 161.098 103.284 161.243 103.284 161.397ZM106.426 164.372C106.571 164.227 106.722 164.094 106.881 163.973C107.044 163.847 107.215 163.742 107.392 163.658C107.574 163.569 107.768 163.502 107.973 163.455C108.178 163.404 108.402 163.378 108.645 163.378C109.037 163.378 109.385 163.446 109.688 163.581C109.991 163.712 110.243 163.898 110.444 164.141C110.649 164.379 110.803 164.666 110.906 165.002C111.013 165.333 111.067 165.7 111.067 166.101V170.672H109.338V166.101C109.338 165.662 109.238 165.324 109.037 165.086C108.836 164.843 108.531 164.722 108.12 164.722C107.821 164.722 107.541 164.79 107.28 164.925C107.019 165.06 106.771 165.245 106.538 165.478V170.672H104.809V163.49H105.866C106.09 163.49 106.237 163.595 106.307 163.805L106.426 164.372ZM115.336 166.906C115.551 166.906 115.738 166.878 115.896 166.822C116.055 166.761 116.186 166.68 116.288 166.577C116.396 166.474 116.475 166.351 116.526 166.206C116.582 166.061 116.61 165.903 116.61 165.73C116.61 165.375 116.503 165.095 116.288 164.89C116.078 164.68 115.761 164.575 115.336 164.575C114.912 164.575 114.592 164.68 114.377 164.89C114.167 165.095 114.062 165.375 114.062 165.73C114.062 165.898 114.088 166.054 114.139 166.199C114.195 166.344 114.275 166.47 114.377 166.577C114.485 166.68 114.618 166.761 114.776 166.822C114.94 166.878 115.126 166.906 115.336 166.906ZM117.289 170.994C117.289 170.854 117.247 170.74 117.163 170.651C117.079 170.562 116.965 170.495 116.82 170.448C116.676 170.397 116.505 170.359 116.309 170.336C116.118 170.313 115.913 170.296 115.693 170.287C115.479 170.273 115.255 170.261 115.021 170.252C114.793 170.243 114.569 170.224 114.349 170.196C114.158 170.303 114.002 170.429 113.88 170.574C113.764 170.719 113.705 170.887 113.705 171.078C113.705 171.204 113.736 171.321 113.796 171.428C113.862 171.54 113.962 171.636 114.097 171.715C114.237 171.794 114.417 171.855 114.636 171.897C114.856 171.944 115.124 171.967 115.441 171.967C115.763 171.967 116.041 171.941 116.274 171.89C116.508 171.843 116.699 171.776 116.848 171.687C117.002 171.603 117.114 171.5 117.184 171.379C117.254 171.262 117.289 171.134 117.289 170.994ZM119.011 163.735V164.379C119.011 164.584 118.888 164.71 118.64 164.757L117.996 164.876C118.094 165.123 118.143 165.394 118.143 165.688C118.143 166.043 118.071 166.365 117.926 166.654C117.786 166.939 117.59 167.181 117.338 167.382C117.086 167.583 116.788 167.739 116.442 167.851C116.102 167.958 115.733 168.012 115.336 168.012C115.196 168.012 115.061 168.005 114.93 167.991C114.8 167.977 114.671 167.958 114.545 167.935C114.321 168.07 114.209 168.222 114.209 168.39C114.209 168.535 114.275 168.642 114.405 168.712C114.541 168.777 114.718 168.824 114.937 168.852C115.157 168.88 115.406 168.899 115.686 168.908C115.966 168.913 116.253 168.927 116.547 168.95C116.841 168.973 117.128 169.015 117.408 169.076C117.688 169.132 117.938 169.223 118.157 169.349C118.377 169.475 118.552 169.648 118.682 169.867C118.818 170.082 118.885 170.359 118.885 170.7C118.885 171.017 118.806 171.325 118.647 171.624C118.493 171.923 118.267 172.189 117.968 172.422C117.674 172.655 117.31 172.842 116.876 172.982C116.447 173.127 115.957 173.199 115.406 173.199C114.865 173.199 114.394 173.145 113.992 173.038C113.591 172.935 113.257 172.795 112.991 172.618C112.725 172.445 112.527 172.245 112.396 172.016C112.266 171.787 112.2 171.549 112.2 171.302C112.2 170.966 112.301 170.686 112.501 170.462C112.707 170.233 112.987 170.051 113.341 169.916C113.15 169.818 112.998 169.687 112.886 169.524C112.774 169.361 112.718 169.146 112.718 168.88C112.718 168.773 112.737 168.663 112.774 168.551C112.816 168.434 112.875 168.32 112.949 168.208C113.029 168.096 113.127 167.991 113.243 167.893C113.36 167.79 113.498 167.699 113.656 167.62C113.292 167.424 113.005 167.163 112.795 166.836C112.59 166.509 112.487 166.127 112.487 165.688C112.487 165.333 112.557 165.014 112.697 164.729C112.842 164.44 113.04 164.195 113.292 163.994C113.549 163.789 113.85 163.632 114.195 163.525C114.545 163.418 114.926 163.364 115.336 163.364C115.644 163.364 115.934 163.397 116.204 163.462C116.475 163.523 116.722 163.614 116.946 163.735H119.011Z" fill="black"/>
</svg>
