<svg width="151" height="176" viewBox="0 0 151 176" fill="none" xmlns="http://www.w3.org/2000/svg">
<path d="M29.017 172.5H27.127V162.378H29.017V172.5ZM32.5179 166.2C32.6625 166.055 32.8142 165.922 32.9729 165.801C33.1362 165.675 33.3065 165.57 33.4839 165.486C33.6659 165.397 33.8595 165.33 34.0649 165.283C34.2702 165.232 34.4942 165.206 34.7369 165.206C35.1289 165.206 35.4765 165.274 35.7799 165.409C36.0832 165.54 36.3352 165.726 36.5359 165.969C36.7412 166.207 36.8952 166.494 36.9979 166.83C37.1052 167.161 37.1589 167.528 37.1589 167.929V172.5H35.4299V167.929C35.4299 167.49 35.3295 167.152 35.1289 166.914C34.9282 166.671 34.6225 166.55 34.2119 166.55C33.9132 166.55 33.6332 166.618 33.3719 166.753C33.1105 166.888 32.8632 167.073 32.6299 167.306V172.5H30.9009V165.318H31.9579C32.1819 165.318 32.3289 165.423 32.3989 165.633L32.5179 166.2ZM51.0135 162.378V172.5H49.1235V168.076H44.3705V172.5H42.4805V162.378H44.3705V166.732H49.1235V162.378H51.0135ZM55.9539 165.206C56.4859 165.206 56.9689 165.292 57.4029 165.465C57.8415 165.638 58.2149 165.883 58.5229 166.2C58.8355 166.517 59.0759 166.905 59.2439 167.362C59.4119 167.819 59.4959 168.33 59.4959 168.895C59.4959 169.464 59.4119 169.978 59.2439 170.435C59.0759 170.892 58.8355 171.282 58.5229 171.604C58.2149 171.926 57.8415 172.173 57.4029 172.346C56.9689 172.519 56.4859 172.605 55.9539 172.605C55.4172 172.605 54.9295 172.519 54.4909 172.346C54.0522 172.173 53.6765 171.926 53.3639 171.604C53.0559 171.282 52.8155 170.892 52.6429 170.435C52.4749 169.978 52.3909 169.464 52.3909 168.895C52.3909 168.33 52.4749 167.819 52.6429 167.362C52.8155 166.905 53.0559 166.517 53.3639 166.2C53.6765 165.883 54.0522 165.638 54.4909 165.465C54.9295 165.292 55.4172 165.206 55.9539 165.206ZM55.9539 171.275C56.5512 171.275 56.9922 171.074 57.2769 170.673C57.5662 170.272 57.7109 169.684 57.7109 168.909C57.7109 168.134 57.5662 167.544 57.2769 167.138C56.9922 166.732 56.5512 166.529 55.9539 166.529C55.3472 166.529 54.8969 166.734 54.6029 167.145C54.3135 167.551 54.1689 168.139 54.1689 168.909C54.1689 169.679 54.3135 170.267 54.6029 170.673C54.8969 171.074 55.3472 171.275 55.9539 171.275ZM60.8149 172.5V165.318H61.8719C62.0959 165.318 62.2429 165.423 62.3129 165.633L62.4249 166.165C62.5509 166.025 62.6816 165.897 62.8169 165.78C62.9569 165.663 63.1039 165.563 63.2579 165.479C63.4166 165.395 63.5846 165.33 63.7619 165.283C63.9439 165.232 64.1423 165.206 64.3569 165.206C64.8096 165.206 65.1806 165.33 65.4699 165.577C65.7639 165.82 65.9833 166.144 66.1279 166.55C66.2399 166.312 66.3799 166.109 66.5479 165.941C66.7159 165.768 66.9003 165.628 67.1009 165.521C67.3016 165.414 67.5139 165.334 67.7379 165.283C67.9666 165.232 68.1953 165.206 68.4239 165.206C68.8206 165.206 69.1729 165.267 69.4809 165.388C69.7889 165.509 70.0479 165.687 70.2579 165.92C70.4679 166.153 70.6266 166.438 70.7339 166.774C70.8459 167.11 70.9019 167.495 70.9019 167.929V172.5H69.1729V167.929C69.1729 167.472 69.0726 167.129 68.8719 166.9C68.6713 166.667 68.3773 166.55 67.9899 166.55C67.8126 166.55 67.6469 166.58 67.4929 166.641C67.3436 166.702 67.2106 166.79 67.0939 166.907C66.9819 167.019 66.8933 167.161 66.8279 167.334C66.7626 167.507 66.7299 167.705 66.7299 167.929V172.5H64.9939V167.929C64.9939 167.448 64.8959 167.098 64.6999 166.879C64.5086 166.66 64.2263 166.55 63.8529 166.55C63.6009 166.55 63.3653 166.613 63.1459 166.739C62.9313 166.86 62.7306 167.028 62.5439 167.243V172.5H60.8149ZM77.1724 168.083C77.1724 167.859 77.1397 167.649 77.0744 167.453C77.0137 167.252 76.9204 167.077 76.7944 166.928C76.6684 166.779 76.5074 166.662 76.3114 166.578C76.1201 166.489 75.8961 166.445 75.6394 166.445C75.1401 166.445 74.7457 166.587 74.4564 166.872C74.1717 167.157 73.9897 167.56 73.9104 168.083H77.1724ZM73.8754 169.126C73.9034 169.495 73.9687 169.814 74.0714 170.085C74.1741 170.351 74.3094 170.573 74.4774 170.75C74.6454 170.923 74.8437 171.053 75.0724 171.142C75.3057 171.226 75.5624 171.268 75.8424 171.268C76.1224 171.268 76.3627 171.235 76.5634 171.17C76.7687 171.105 76.9461 171.032 77.0954 170.953C77.2494 170.874 77.3824 170.801 77.4944 170.736C77.6111 170.671 77.7231 170.638 77.8304 170.638C77.9751 170.638 78.0824 170.692 78.1524 170.799L78.6494 171.429C78.4581 171.653 78.2434 171.842 78.0054 171.996C77.7674 172.145 77.5177 172.267 77.2564 172.36C76.9997 172.449 76.7361 172.512 76.4654 172.549C76.1994 172.586 75.9404 172.605 75.6884 172.605C75.1891 172.605 74.7247 172.523 74.2954 172.36C73.8661 172.192 73.4927 171.947 73.1754 171.625C72.8581 171.298 72.6084 170.897 72.4264 170.421C72.2444 169.94 72.1534 169.385 72.1534 168.755C72.1534 168.265 72.2327 167.805 72.3914 167.376C72.5501 166.942 72.7764 166.566 73.0704 166.249C73.3691 165.927 73.7307 165.673 74.1554 165.486C74.5847 165.299 75.0677 165.206 75.6044 165.206C76.0571 165.206 76.4747 165.278 76.8574 165.423C77.2401 165.568 77.5691 165.78 77.8444 166.06C78.1197 166.335 78.3344 166.676 78.4884 167.082C78.6471 167.483 78.7264 167.943 78.7264 168.461C78.7264 168.722 78.6984 168.9 78.6424 168.993C78.5864 169.082 78.4791 169.126 78.3204 169.126H73.8754ZM79.9679 167.551H83.5939V168.993H79.9679V167.551ZM90.9096 164.219C90.8536 164.317 90.7929 164.389 90.7276 164.436C90.6669 164.478 90.5899 164.499 90.4966 164.499C90.3986 164.499 90.2912 164.464 90.1746 164.394C90.0626 164.319 89.9272 164.238 89.7686 164.149C89.6099 164.06 89.4232 163.981 89.2086 163.911C88.9986 163.836 88.7489 163.799 88.4596 163.799C88.1982 163.799 87.9696 163.832 87.7736 163.897C87.5776 163.958 87.4119 164.044 87.2766 164.156C87.1459 164.268 87.0479 164.403 86.9826 164.562C86.9172 164.716 86.8846 164.886 86.8846 165.073C86.8846 165.311 86.9499 165.509 87.0806 165.668C87.2159 165.827 87.3932 165.962 87.6126 166.074C87.8319 166.186 88.0816 166.286 88.3616 166.375C88.6416 166.464 88.9286 166.559 89.2226 166.662C89.5166 166.76 89.8036 166.877 90.0836 167.012C90.3636 167.143 90.6132 167.311 90.8326 167.516C91.0519 167.717 91.2269 167.964 91.3576 168.258C91.4929 168.552 91.5606 168.909 91.5606 169.329C91.5606 169.786 91.4812 170.216 91.3226 170.617C91.1686 171.014 90.9399 171.361 90.6366 171.66C90.3379 171.954 89.9716 172.187 89.5376 172.36C89.1036 172.528 88.6066 172.612 88.0466 172.612C87.7246 172.612 87.4072 172.579 87.0946 172.514C86.7819 172.453 86.4809 172.365 86.1916 172.248C85.9069 172.131 85.6386 171.991 85.3866 171.828C85.1346 171.665 84.9106 171.483 84.7146 171.282L85.2676 170.379C85.3142 170.314 85.3749 170.26 85.4496 170.218C85.5242 170.171 85.6036 170.148 85.6876 170.148C85.8042 170.148 85.9302 170.197 86.0656 170.295C86.2009 170.388 86.3619 170.493 86.5486 170.61C86.7352 170.727 86.9522 170.834 87.1996 170.932C87.4516 171.025 87.7526 171.072 88.1026 171.072C88.6392 171.072 89.0546 170.946 89.3486 170.694C89.6426 170.437 89.7896 170.071 89.7896 169.595C89.7896 169.329 89.7219 169.112 89.5866 168.944C89.4559 168.776 89.2809 168.636 89.0616 168.524C88.8422 168.407 88.5926 168.309 88.3126 168.23C88.0326 168.151 87.7479 168.064 87.4586 167.971C87.1692 167.878 86.8846 167.766 86.6046 167.635C86.3246 167.504 86.0749 167.334 85.8556 167.124C85.6362 166.914 85.4589 166.653 85.3236 166.34C85.1929 166.023 85.1276 165.633 85.1276 165.171C85.1276 164.802 85.1999 164.443 85.3446 164.093C85.4939 163.743 85.7086 163.433 85.9886 163.162C86.2686 162.891 86.6139 162.674 87.0246 162.511C87.4352 162.348 87.9066 162.266 88.4386 162.266C89.0359 162.266 89.5866 162.359 90.0906 162.546C90.5946 162.733 91.0239 162.994 91.3786 163.33L90.9096 164.219ZM94.6948 165.318V172.5H92.9588V165.318H94.6948ZM94.9328 163.225C94.9328 163.374 94.9025 163.514 94.8418 163.645C94.7812 163.776 94.6995 163.89 94.5968 163.988C94.4988 164.086 94.3822 164.165 94.2468 164.226C94.1115 164.282 93.9668 164.31 93.8128 164.31C93.6635 164.31 93.5212 164.282 93.3858 164.226C93.2552 164.165 93.1408 164.086 93.0428 163.988C92.9448 163.89 92.8655 163.776 92.8048 163.645C92.7488 163.514 92.7208 163.374 92.7208 163.225C92.7208 163.071 92.7488 162.926 92.8048 162.791C92.8655 162.656 92.9448 162.539 93.0428 162.441C93.1408 162.343 93.2552 162.266 93.3858 162.21C93.5212 162.149 93.6635 162.119 93.8128 162.119C93.9668 162.119 94.1115 162.149 94.2468 162.21C94.3822 162.266 94.4988 162.343 94.5968 162.441C94.6995 162.539 94.7812 162.656 94.8418 162.791C94.9025 162.926 94.9328 163.071 94.9328 163.225ZM98.8515 172.612C98.2262 172.612 97.7455 172.437 97.4095 172.087C97.0782 171.732 96.9125 171.245 96.9125 170.624V166.613H96.1775C96.0842 166.613 96.0048 166.583 95.9395 166.522C95.8742 166.461 95.8415 166.37 95.8415 166.249V165.563L96.9965 165.374L97.3605 163.414C97.3838 163.321 97.4282 163.248 97.4935 163.197C97.5588 163.146 97.6428 163.12 97.7455 163.12H98.6415V165.381H100.56V166.613H98.6415V170.505C98.6415 170.729 98.6952 170.904 98.8025 171.03C98.9145 171.156 99.0662 171.219 99.2575 171.219C99.3648 171.219 99.4535 171.207 99.5235 171.184C99.5982 171.156 99.6612 171.128 99.7125 171.1C99.7685 171.072 99.8175 171.046 99.8595 171.023C99.9015 170.995 99.9435 170.981 99.9855 170.981C100.037 170.981 100.079 170.995 100.112 171.023C100.144 171.046 100.179 171.084 100.217 171.135L100.735 171.975C100.483 172.185 100.193 172.344 99.8665 172.451C99.5398 172.558 99.2015 172.612 98.8515 172.612ZM104.061 172.612C103.435 172.612 102.955 172.437 102.619 172.087C102.287 171.732 102.122 171.245 102.122 170.624V166.613H101.387C101.293 166.613 101.214 166.583 101.149 166.522C101.083 166.461 101.051 166.37 101.051 166.249V165.563L102.206 165.374L102.57 163.414C102.593 163.321 102.637 163.248 102.703 163.197C102.768 163.146 102.852 163.12 102.955 163.12H103.851V165.381H105.769V166.613H103.851V170.505C103.851 170.729 103.904 170.904 104.012 171.03C104.124 171.156 104.275 171.219 104.467 171.219C104.574 171.219 104.663 171.207 104.733 171.184C104.807 171.156 104.87 171.128 104.922 171.1C104.978 171.072 105.027 171.046 105.069 171.023C105.111 170.995 105.153 170.981 105.195 170.981C105.246 170.981 105.288 170.995 105.321 171.023C105.353 171.046 105.388 171.084 105.426 171.135L105.944 171.975C105.692 172.185 105.402 172.344 105.076 172.451C104.749 172.558 104.411 172.612 104.061 172.612ZM108.667 165.318V172.5H106.931V165.318H108.667ZM108.905 163.225C108.905 163.374 108.875 163.514 108.814 163.645C108.754 163.776 108.672 163.89 108.569 163.988C108.471 164.086 108.355 164.165 108.219 164.226C108.084 164.282 107.939 164.31 107.785 164.31C107.636 164.31 107.494 164.282 107.358 164.226C107.228 164.165 107.113 164.086 107.015 163.988C106.917 163.89 106.838 163.776 106.777 163.645C106.721 163.514 106.693 163.374 106.693 163.225C106.693 163.071 106.721 162.926 106.777 162.791C106.838 162.656 106.917 162.539 107.015 162.441C107.113 162.343 107.228 162.266 107.358 162.21C107.494 162.149 107.636 162.119 107.785 162.119C107.939 162.119 108.084 162.149 108.219 162.21C108.355 162.266 108.471 162.343 108.569 162.441C108.672 162.539 108.754 162.656 108.814 162.791C108.875 162.926 108.905 163.071 108.905 163.225ZM112.047 166.2C112.192 166.055 112.344 165.922 112.502 165.801C112.666 165.675 112.836 165.57 113.013 165.486C113.195 165.397 113.389 165.33 113.594 165.283C113.8 165.232 114.024 165.206 114.266 165.206C114.658 165.206 115.006 165.274 115.309 165.409C115.613 165.54 115.865 165.726 116.065 165.969C116.271 166.207 116.425 166.494 116.527 166.83C116.635 167.161 116.688 167.528 116.688 167.929V172.5H114.959V167.929C114.959 167.49 114.859 167.152 114.658 166.914C114.458 166.671 114.152 166.55 113.741 166.55C113.443 166.55 113.163 166.618 112.901 166.753C112.64 166.888 112.393 167.073 112.159 167.306V172.5H110.43V165.318H111.487C111.711 165.318 111.858 165.423 111.928 165.633L112.047 166.2ZM120.958 168.734C121.172 168.734 121.359 168.706 121.518 168.65C121.676 168.589 121.807 168.508 121.91 168.405C122.017 168.302 122.096 168.179 122.148 168.034C122.204 167.889 122.232 167.731 122.232 167.558C122.232 167.203 122.124 166.923 121.91 166.718C121.7 166.508 121.382 166.403 120.958 166.403C120.533 166.403 120.213 166.508 119.999 166.718C119.789 166.923 119.684 167.203 119.684 167.558C119.684 167.726 119.709 167.882 119.761 168.027C119.817 168.172 119.896 168.298 119.999 168.405C120.106 168.508 120.239 168.589 120.398 168.65C120.561 168.706 120.748 168.734 120.958 168.734ZM122.911 172.822C122.911 172.682 122.869 172.568 122.785 172.479C122.701 172.39 122.586 172.323 122.442 172.276C122.297 172.225 122.127 172.187 121.931 172.164C121.739 172.141 121.534 172.124 121.315 172.115C121.1 172.101 120.876 172.089 120.643 172.08C120.414 172.071 120.19 172.052 119.971 172.024C119.779 172.131 119.623 172.257 119.502 172.402C119.385 172.547 119.327 172.715 119.327 172.906C119.327 173.032 119.357 173.149 119.418 173.256C119.483 173.368 119.583 173.464 119.719 173.543C119.859 173.622 120.038 173.683 120.258 173.725C120.477 173.772 120.745 173.795 121.063 173.795C121.385 173.795 121.662 173.769 121.896 173.718C122.129 173.671 122.32 173.604 122.47 173.515C122.624 173.431 122.736 173.328 122.806 173.207C122.876 173.09 122.911 172.962 122.911 172.822ZM124.633 165.563V166.207C124.633 166.412 124.509 166.538 124.262 166.585L123.618 166.704C123.716 166.951 123.765 167.222 123.765 167.516C123.765 167.871 123.692 168.193 123.548 168.482C123.408 168.767 123.212 169.009 122.96 169.21C122.708 169.411 122.409 169.567 122.064 169.679C121.723 169.786 121.354 169.84 120.958 169.84C120.818 169.84 120.682 169.833 120.552 169.819C120.421 169.805 120.293 169.786 120.167 169.763C119.943 169.898 119.831 170.05 119.831 170.218C119.831 170.363 119.896 170.47 120.027 170.54C120.162 170.605 120.339 170.652 120.559 170.68C120.778 170.708 121.028 170.727 121.308 170.736C121.588 170.741 121.875 170.755 122.169 170.778C122.463 170.801 122.75 170.843 123.03 170.904C123.31 170.96 123.559 171.051 123.779 171.177C123.998 171.303 124.173 171.476 124.304 171.695C124.439 171.91 124.507 172.187 124.507 172.528C124.507 172.845 124.427 173.153 124.269 173.452C124.115 173.751 123.888 174.017 123.59 174.25C123.296 174.483 122.932 174.67 122.498 174.81C122.068 174.955 121.578 175.027 121.028 175.027C120.486 175.027 120.015 174.973 119.614 174.866C119.212 174.763 118.879 174.623 118.613 174.446C118.347 174.273 118.148 174.073 118.018 173.844C117.887 173.615 117.822 173.377 117.822 173.13C117.822 172.794 117.922 172.514 118.123 172.29C118.328 172.061 118.608 171.879 118.963 171.744C118.771 171.646 118.62 171.515 118.508 171.352C118.396 171.189 118.34 170.974 118.34 170.708C118.34 170.601 118.358 170.491 118.396 170.379C118.438 170.262 118.496 170.148 118.571 170.036C118.65 169.924 118.748 169.819 118.865 169.721C118.981 169.618 119.119 169.527 119.278 169.448C118.914 169.252 118.627 168.991 118.417 168.664C118.211 168.337 118.109 167.955 118.109 167.516C118.109 167.161 118.179 166.842 118.319 166.557C118.463 166.268 118.662 166.023 118.914 165.822C119.17 165.617 119.471 165.46 119.817 165.353C120.167 165.246 120.547 165.192 120.958 165.192C121.266 165.192 121.555 165.225 121.826 165.29C122.096 165.351 122.344 165.442 122.568 165.563H124.633Z" fill="black"/>
<rect x="0.5" y="0.499512" width="150" height="150" rx="75" fill="#BEC8FF"/>
<path d="M61.5079 25.4995H33.6621V80.5448H61.5079V25.4995Z" fill="#F2F2F2"/>
<path d="M59.1993 27.7529H35.8809V78.0521H59.1993V27.7529Z" fill="white"/>
<path d="M59.1993 38.4302H35.8809V41.4553H59.1993V38.4302Z" fill="#F2F2F2"/>
<path d="M41.1028 67.6772H35.9395V78.1162H41.1028V67.6772Z" fill="#E0E0E0"/>
<path d="M44.7663 63.4072H39.7695V78.1174H44.7663V63.4072Z" fill="#E0E0E0"/>
<path d="M48.4305 72.2407H43.9336V78.1159H48.4305V72.2407Z" fill="#E0E0E0"/>
<path d="M52.3693 78.053H47.5391L47.5956 61.3231L52.3693 61.2603V78.053Z" fill="#E0E0E0"/>
<path d="M55.9279 66.0737H51.0977V78.1146H55.9279V66.0737Z" fill="#E0E0E0"/>
<path d="M59.2559 69.7192H55.1992V78.1155H59.2559V69.7192Z" fill="#E0E0E0"/>
<path d="M48.3713 27.7529H46.123V38.4299H48.3713V27.7529Z" fill="#F2F2F2"/>
<path d="M60.2013 80.5444H34.5508V83.4504H60.2013V80.5444Z" fill="#E0E0E0"/>
<path d="M90.8226 25.4995H62.9766V80.5448H90.8226V25.4995Z" fill="#F2F2F2"/>
<path d="M88.5138 27.7529H65.1953V78.0521H88.5138V27.7529Z" fill="white"/>
<path d="M88.5138 38.4302H65.1953V41.4553H88.5138V38.4302Z" fill="#F2F2F2"/>
<path d="M70.4134 67.6772H65.25V78.1162H70.4134V67.6772Z" fill="#E0E0E0"/>
<path d="M74.0808 63.4072H69.084V78.1174H74.0808V63.4072Z" fill="#E0E0E0"/>
<path d="M77.6827 72.1772H73.1855V78.0524H77.6827V72.1772Z" fill="#E0E0E0"/>
<path d="M81.6857 61.2603H76.8555V78.053H81.6857V61.2603Z" fill="#E0E0E0"/>
<path d="M85.184 66.0112H80.3535V78.0521H85.184V66.0112Z" fill="#E0E0E0"/>
<path d="M88.5137 69.6558H84.457V78.052H88.5137V69.6558Z" fill="#E0E0E0"/>
<path d="M77.6844 27.7529H75.4355V38.4299H77.6844V27.7529Z" fill="#F2F2F2"/>
<path d="M89.5174 80.5444H63.8672V83.4504H89.5174V80.5444Z" fill="#E0E0E0"/>
<path d="M108.584 50.9698C108.584 57.7022 113.49 63.1592 119.542 63.1592C125.594 63.1592 130.5 57.7022 130.5 50.9698C130.5 44.2381 125.594 38.7808 119.542 38.7808C113.49 38.7808 108.584 44.2381 108.584 50.9698Z" fill="#F2F2F2"/>
<path d="M110.121 50.9689C110.121 56.7564 114.339 61.4477 119.541 61.4477C124.743 61.4477 128.961 56.7564 128.961 50.9689C128.961 45.1821 124.743 40.4907 119.541 40.4907C114.339 40.4907 110.121 45.1821 110.121 50.9689Z" fill="white"/>
<path d="M119.54 43.1986C119.436 43.1986 119.352 43.1052 119.352 42.99V41.7072C119.352 41.5919 119.436 41.4985 119.54 41.4985C119.644 41.4985 119.729 41.5919 119.729 41.7072V42.99C119.729 43.1052 119.644 43.1986 119.54 43.1986ZM119.54 60.44C119.436 60.44 119.352 60.3466 119.352 60.2314V58.9482C119.352 58.833 119.436 58.7396 119.54 58.7396C119.644 58.7396 119.729 58.833 119.729 58.9482V60.2314C119.729 60.3466 119.644 60.44 119.54 60.44Z" fill="#F2F2F2"/>
<path d="M119.542 43.1986C119.438 43.1986 119.354 43.1052 119.354 42.99V41.7072C119.354 41.5919 119.438 41.4985 119.542 41.4985C119.645 41.4985 119.729 41.5919 119.729 41.7072V42.99C119.729 43.1052 119.646 43.1986 119.542 43.1986ZM119.542 60.44C119.438 60.44 119.354 60.3466 119.354 60.2314V58.9482C119.354 58.833 119.438 58.7396 119.542 58.7396C119.645 58.7396 119.729 58.833 119.729 58.9482V60.2314C119.729 60.3466 119.646 60.44 119.542 60.44ZM114.47 45.5356C114.422 45.5356 114.374 45.5153 114.337 45.4746L113.521 44.5671C113.448 44.4856 113.448 44.3536 113.521 44.2719C113.595 44.1902 113.713 44.1905 113.787 44.2719L114.602 45.1794C114.676 45.2608 114.676 45.3928 114.602 45.4746C114.566 45.5153 114.518 45.5356 114.47 45.5356ZM125.43 57.7271C125.382 57.7271 125.334 57.7067 125.297 57.666L124.481 56.7588C124.408 56.6774 124.408 56.5454 124.481 56.4637C124.554 56.3823 124.673 56.3823 124.746 56.4637L125.562 57.3709C125.635 57.4523 125.635 57.5843 125.562 57.666C125.526 57.7067 125.477 57.7271 125.43 57.7271ZM112.369 51.1776H111.215C111.111 51.1776 111.027 51.0842 111.027 50.969C111.027 50.8537 111.111 50.7603 111.215 50.7603H112.369C112.472 50.7603 112.556 50.8537 112.556 50.969C112.556 51.0842 112.472 51.1776 112.369 51.1776ZM126.714 51.1776C126.611 51.1776 126.527 51.0842 126.527 50.969C126.527 50.8537 126.611 50.7603 126.714 50.7603L127.868 50.76C127.972 50.76 128.056 50.8534 128.056 50.9687C128.056 51.0839 127.972 51.1773 127.868 51.1773L126.714 51.1776Z" fill="#F2F2F2"/>
<path d="M113.654 57.7279C113.606 57.7279 113.558 57.7076 113.522 57.6669C113.449 57.5854 113.449 57.4532 113.522 57.3717L114.337 56.4645C114.411 56.3831 114.529 56.3831 114.603 56.4645C114.676 56.5459 114.676 56.6782 114.603 56.7597L113.787 57.6669C113.75 57.7076 113.702 57.7279 113.654 57.7279ZM124.614 45.5365C124.566 45.5365 124.518 45.5161 124.481 45.4754C124.408 45.394 124.408 45.2617 124.481 45.1803L125.297 44.2725C125.37 44.1911 125.489 44.1911 125.562 44.2725C125.635 44.3539 125.635 44.4862 125.562 44.5676L124.747 45.4754C124.71 45.5161 124.662 45.5365 124.614 45.5365Z" fill="#F2F2F2"/>
<path d="M125.021 51.1785H118.004C117.9 51.1785 117.816 51.0851 117.816 50.9698C117.816 50.8546 117.9 50.7612 118.004 50.7612H125.021C125.125 50.7612 125.209 50.8546 125.209 50.9698C125.209 51.0851 125.125 51.1785 125.021 51.1785Z" fill="#F2F2F2"/>
<path d="M119.54 52.4625C119.436 52.4625 119.352 52.3691 119.352 52.2539V44.42C119.352 44.3048 119.436 44.2114 119.54 44.2114C119.644 44.2114 119.729 44.3048 119.729 44.42V52.2539C119.729 52.3691 119.644 52.4625 119.54 52.4625Z" fill="#F2F2F2"/>
<path d="M105.926 80.8228H30.8345C27.0598 80.8228 24 84.2268 24 88.4255V124.89H112.761V88.4255C112.761 84.2265 109.701 80.8228 105.926 80.8228Z" fill="#F2F2F2"/>
<path d="M103.071 87.9419H33.688C30.2004 87.9419 27.373 90.7958 27.373 94.316V124.888H109.386V94.3163C109.386 90.7958 106.558 87.9419 103.071 87.9419Z" fill="white"/>
<path d="M101.95 95.7893C102.093 95.112 101.716 94.4333 101.107 94.2734C100.499 94.1135 99.8885 94.5329 99.7447 95.2102C99.6009 95.8875 99.978 96.5662 100.587 96.7261C101.196 96.886 101.806 96.4666 101.95 95.7893Z" fill="#F2F2F2"/>
<path d="M85.706 95.7721C85.8504 95.0949 85.474 94.4158 84.8653 94.2552C84.2566 94.0946 83.6461 94.5133 83.5017 95.1904C83.3573 95.8676 83.7337 96.5467 84.3424 96.7073C84.9511 96.8679 85.5616 96.4492 85.706 95.7721Z" fill="#F2F2F2"/>
<path d="M69.4814 95.7721C69.6258 95.0949 69.2494 94.4158 68.6407 94.2552C68.032 94.0946 67.4215 94.5133 67.2771 95.1904C67.1327 95.8676 67.5091 96.5467 68.1178 96.7073C68.7265 96.8679 69.337 96.4492 69.4814 95.7721Z" fill="#F2F2F2"/>
<path d="M52.9498 96.3734C53.3922 95.8813 53.3922 95.0834 52.9498 94.5914C52.5074 94.0993 51.7902 94.0993 51.3478 94.5914C50.9055 95.0835 50.9055 95.8813 51.3479 96.3734C51.7903 96.8655 52.5075 96.8655 52.9498 96.3734Z" fill="#F2F2F2"/>
<path d="M36.7174 96.3734C37.1598 95.8813 37.1598 95.0834 36.7174 94.5914C36.275 94.0993 35.5578 94.0993 35.1154 94.5914C34.6731 95.0835 34.6731 95.8813 35.1154 96.3734C35.5578 96.8655 36.2751 96.8655 36.7174 96.3734Z" fill="#F2F2F2"/>
<path d="M101.633 107.307C102.076 106.814 102.076 106.017 101.633 105.524C101.191 105.032 100.474 105.032 100.031 105.525C99.5891 106.017 99.5891 106.814 100.031 107.307C100.474 107.799 101.191 107.799 101.633 107.307Z" fill="#F2F2F2"/>
<path d="M85.4088 107.306C85.8512 106.814 85.8512 106.017 85.4088 105.524C84.9664 105.032 84.2492 105.032 83.8068 105.524C83.3645 106.017 83.3645 106.814 83.8069 107.307C84.2492 107.799 84.9665 107.799 85.4088 107.306Z" fill="#F2F2F2"/>
<path d="M69.1745 107.306C69.6168 106.814 69.6168 106.017 69.1744 105.524C68.732 105.032 68.0148 105.032 67.5725 105.524C67.1301 106.017 67.1301 106.814 67.5725 107.307C68.0149 107.799 68.7321 107.799 69.1745 107.306Z" fill="#F2F2F2"/>
<path d="M53.2497 106.703C53.3928 106.025 53.0151 105.347 52.406 105.188C51.797 105.029 51.1873 105.449 51.0442 106.126C50.9011 106.804 51.2789 107.482 51.8879 107.641C52.4969 107.8 53.1066 107.38 53.2497 106.703Z" fill="#F2F2F2"/>
<path d="M37.0192 106.703C37.1623 106.025 36.7846 105.347 36.1756 105.188C35.5665 105.029 34.9568 105.449 34.8138 106.126C34.6707 106.804 35.0484 107.482 35.6574 107.641C36.2665 107.8 36.8762 107.38 37.0192 106.703Z" fill="#F2F2F2"/>
<path d="M101.633 118.243C102.076 117.75 102.076 116.953 101.633 116.461C101.191 115.968 100.474 115.968 100.031 116.461C99.5891 116.953 99.5891 117.75 100.031 118.243C100.474 118.735 101.191 118.735 101.633 118.243Z" fill="#F2F2F2"/>
<path d="M85.4088 118.243C85.8512 117.75 85.8512 116.953 85.4088 116.46C84.9664 115.968 84.2492 115.968 83.8068 116.461C83.3645 116.953 83.3645 117.75 83.8069 118.243C84.2492 118.735 84.9665 118.735 85.4088 118.243Z" fill="#F2F2F2"/>
<path d="M69.1745 118.243C69.6168 117.75 69.6168 116.953 69.1744 116.46C68.7321 115.968 68.0148 115.968 67.5725 116.461C67.1301 116.953 67.1301 117.75 67.5725 118.243C68.0149 118.735 68.7321 118.735 69.1745 118.243Z" fill="#F2F2F2"/>
<path d="M53.2497 117.635C53.3928 116.957 53.0151 116.279 52.406 116.12C51.797 115.961 51.1873 116.381 51.0442 117.058C50.9011 117.736 51.2789 118.414 51.8879 118.573C52.4969 118.733 53.1066 118.312 53.2497 117.635Z" fill="#F2F2F2"/>
<path d="M37.0192 117.635C37.1623 116.957 36.7846 116.279 36.1756 116.12C35.5666 115.961 34.9568 116.381 34.8138 117.058C34.6707 117.736 35.0484 118.414 35.6574 118.573C36.2665 118.733 36.8762 118.312 37.0192 117.635Z" fill="#F2F2F2"/>
<path d="M29.8522 117.672H24.9692C22.501 117.672 20.5 119.898 20.5 122.643V124.89H34.3211V122.643C34.3213 119.898 32.3206 117.672 29.8522 117.672Z" fill="#E0E0E0"/>
<path d="M29.0375 119.965H25.7067C24.0232 119.965 22.6582 121.483 22.6582 123.356V124.888H32.086V123.356C32.086 121.483 30.7213 119.965 29.0375 119.965Z" fill="#F2F2F2"/>
<path d="M112.614 117.672H107.731C105.263 117.672 103.262 119.898 103.262 122.643V124.89H117.083V122.643C117.083 119.898 115.082 117.672 112.614 117.672Z" fill="#E0E0E0"/>
<path d="M111.797 119.965H108.466C106.783 119.965 105.418 121.483 105.418 123.356V124.888H114.846V123.356C114.846 121.483 113.481 119.965 111.797 119.965Z" fill="#F2F2F2"/>
<path d="M63.7444 95.2236C63.7444 95.2236 65.6863 96.7869 67.3001 101.482C68.914 106.177 73.0105 115.084 73.0105 115.084L63.7441 120.608L63.7444 95.2236Z" fill="#19ABDD"/>
<path d="M50.4765 89.7619C50.4765 89.7619 45.2626 93.0351 44.2073 93.9438C43.152 94.8526 44.2073 124.888 44.2073 124.888H65.1042L63.7417 95.2228C63.7417 95.2228 57.8007 89.8122 55.3178 89.3979C52.8351 88.9834 50.4765 89.7619 50.4765 89.7619Z" fill="#C191E8"/>
<path d="M55.5326 86.4973C55.5326 86.4973 55.3924 90.2257 56.3737 90.9854C56.3737 90.9854 56.5139 93.402 53.079 93.8854C49.6441 94.3688 48.8027 91.6759 48.8027 91.6759C48.8027 91.6759 49.9944 89.8115 50.0646 88.0854C50.1346 86.3593 55.5326 86.4973 55.5326 86.4973Z" fill="#F9BBAF"/>
<path d="M50.0638 88.0854C50.0262 89.0135 49.6645 89.9788 49.3379 90.6756C51.6214 92.2299 53.8751 92.6918 56.2103 90.8199C55.408 89.7965 55.5318 86.4973 55.5318 86.4973C55.5318 86.4973 50.1338 86.3593 50.0638 88.0854Z" fill="#DAA499"/>
<path d="M79.6633 89.7269C78.6099 90.3079 77.6714 91.1166 76.9035 92.1067C76.1744 93.0469 75.4092 94.1899 75.3403 94.9214C75.2057 96.3485 77.2748 124.888 77.2748 124.888H93.9924C93.9924 124.888 91.7578 118.858 91.6752 116.74C91.5923 114.623 96.227 104.082 95.896 100.537C95.5651 96.9929 92.3373 91.5153 89.2337 89.4899C89.2027 89.4695 89.1718 89.4495 89.1411 89.4294C86.5769 87.7632 83.4313 87.6479 80.7711 89.1157L79.6633 89.7269Z" fill="#262249"/>
<path d="M87.2442 89.3986C86.734 88.8764 84.5751 88.9383 84.5751 88.9383L82.0938 91.5851L82.7492 93.6195C82.8872 94.0481 83.2671 94.3148 83.6753 94.278C84.2899 94.2226 85.1977 94.0074 85.972 93.2882C87.2856 92.0685 87.7543 89.9209 87.2442 89.3986Z" fill="#F9BBAF"/>
<path d="M77.3593 85.2598L77.2441 94.2082L82.2568 94.1953L79.9698 86.5231L77.3593 85.2598Z" fill="#2B2419"/>
<path d="M92.8283 86.8809C92.8283 86.8809 96.1795 95.9933 96.0633 98.2962C95.947 100.599 89.0657 95.0858 89.0657 95.0858L88.3828 91.0427L92.8283 86.8809Z" fill="#2B2419"/>
<path d="M87.3696 89.6082C87.3378 89.5235 87.2964 89.4522 87.2442 89.3986C86.734 88.8764 84.5751 88.9383 84.5751 88.9383L82.0938 91.5851L82.4844 92.7976C83.7396 92.4151 85.2281 91.4145 86.4819 90.3804C86.7962 90.1215 87.0927 89.8617 87.3696 89.6082Z" fill="#DAA499"/>
<path d="M88.2529 88.324C87.8313 88.7442 87.3225 89.2076 86.7671 89.6655C85.1186 91.0253 83.0626 92.3302 81.667 92.2432C80.5673 92.1746 79.2452 90.5901 78.4611 88.3809C78.1302 87.4494 77.8942 86.4066 77.8116 85.3201C77.7936 85.0882 77.7828 84.8541 77.7798 84.6183C77.6972 78.6141 79.6824 76.7707 81.8306 76.4193C82.2557 76.3486 82.6876 76.3379 83.1111 76.3642C85.6734 76.524 88.593 77.7237 88.3939 81.6686C88.3398 82.7416 88.9323 87.6488 88.2529 88.324Z" fill="#F9BBAF"/>
<path d="M81.5815 77.3046C81.5608 76.7616 81.6372 76.2166 81.7688 75.6901C81.8325 75.4255 81.9202 75.1681 82.0166 74.9146C82.1164 74.6622 82.2364 74.4198 82.368 74.1849C82.4342 74.0675 82.5087 73.9562 82.5819 73.8439C82.6612 73.7368 82.7377 73.6269 82.8248 73.5273C82.9965 73.3261 83.1789 73.1343 83.3845 72.9768C83.7851 72.6473 84.2536 72.4285 84.7309 72.3276C84.295 72.5695 83.8884 72.8442 83.5395 73.1935C83.4504 73.2779 83.3692 73.3719 83.2844 73.4608C83.205 73.556 83.123 73.6482 83.0506 73.7503C82.8994 73.9475 82.7608 74.1567 82.636 74.3764C82.3798 74.8116 82.1772 75.2866 82.0037 75.7772C81.8336 76.2695 81.6921 76.7778 81.5815 77.3046Z" fill="#2B2419"/>
<path d="M92.2721 90.6543C90.3615 90.5352 88.6957 93.3139 88.34 94.7521C87.9843 96.1903 87.8016 96.3471 87.4359 97.9826C87.0625 99.6458 87.0808 100.359 87.7268 103.636C88.3728 106.915 85.9214 107.156 85.9214 107.156C86.4627 106.618 86.0048 105.503 86.0048 105.503C84.1014 110.478 82.1746 110.935 81.7627 110.974C82.4833 110.875 82.783 108.835 82.783 108.835C81.7872 110.274 79.9336 110.019 79.9336 110.019C81.3623 110.108 83.8283 106.789 83.9427 104.525C84.0567 102.263 83.2961 100.794 83.6766 98.5273C84.057 96.2615 87.9668 94.1514 86.6462 90.7935C86.2292 89.7333 86.926 88.3122 87.1343 86.7357C87.3006 85.4846 87.4243 84.2808 87.1184 83.4622C87.0886 83.3787 87.053 83.3006 87.0132 83.2257C86.4051 82.0899 85.8977 83.7034 85.0014 80.7065C84.106 77.7086 81.5838 77.3048 81.5838 77.3048C83.0133 71.7586 85.3929 71.5518 87.9959 72.7601C90.5988 73.9684 91.4482 77.7927 92.0558 79.1132C92.6641 80.4338 92.0186 83.7301 92.5202 85.7357C93.0228 87.7402 94.1825 90.7734 92.2721 90.6543Z" fill="#2B2419"/>
<path d="M81.5803 77.3053C81.5803 77.3053 79.7553 77.073 78.7081 79.6279C77.6609 82.1828 77.7809 89.5635 78.0685 92.3054C78.3561 95.0474 76.4323 97.8292 76.3788 98.8917C76.3252 99.9543 78.7958 103.218 77.8086 104.844C77.8086 104.844 78.1871 103.935 75.9079 101.098C73.6287 98.2611 75.811 95.8954 76.2154 95.0025C76.6198 94.11 76.9069 93.1654 76.1915 91.5219C75.476 89.8783 75.2847 88.6524 75.6512 85.8769C76.0174 83.1017 76.5927 79.8802 76.9242 78.5833C77.2556 77.2864 78.4253 75.0925 79.3842 73.6142C80.485 71.9168 82.7763 71.1626 84.73 72.3275L81.5803 77.3053Z" fill="#2B2419"/>
<path d="M77.8325 90.9243C77.9237 91.8342 78.0547 92.5999 78.0677 93.5259C78.0816 94.4502 77.9713 95.5388 77.7585 96.4379C77.6533 96.8848 77.5201 97.3146 77.4846 97.7585L77.4719 97.9249L77.4706 98.0922C77.4663 98.2038 77.48 98.3152 77.4851 98.4271C77.5107 98.6489 77.5432 98.8719 77.6035 99.0874C77.8303 99.9569 78.3036 100.735 78.873 101.391C78.2791 100.763 77.7703 100.005 77.5021 99.1227C77.4316 98.9039 77.3885 98.6755 77.3533 98.4457C77.3433 98.3295 77.3248 98.214 77.3245 98.0967L77.3194 97.921L77.3258 97.745C77.3458 97.273 77.4666 96.8237 77.5519 96.3828C77.7241 95.5011 77.7542 94.5936 77.7058 93.692C77.6581 92.789 77.5371 91.8902 77.4109 90.9875L77.8325 90.9243ZM74.1724 99.3828C74.0938 98.9575 74.0607 98.5202 74.0758 98.0838C74.0936 97.6477 74.153 97.2119 74.2596 96.7893C74.3675 96.3673 74.5128 95.9551 74.7046 95.5684C74.8943 95.1793 75.127 94.8231 75.349 94.4681C75.5707 94.1132 75.7846 93.7561 75.9353 93.3742C76.086 92.9941 76.1554 92.5873 76.1667 92.1686C76.1799 91.7516 76.1409 91.3305 76.0655 90.9195C75.9899 90.5086 75.8756 90.106 75.7233 89.7286L76.1142 89.5421C76.2655 89.965 76.3704 90.4014 76.4342 90.8447C76.4974 91.2877 76.5219 91.7388 76.4901 92.1889C76.4619 92.6364 76.3647 93.0946 76.1818 93.5014C76.0007 93.9075 75.7623 94.2646 75.5247 94.6106C75.2863 94.9563 75.0447 95.2927 74.8461 95.6585C74.6452 96.0228 74.4867 96.4166 74.364 96.824C74.2426 97.232 74.1659 97.6573 74.1304 98.0874C74.0973 98.5181 74.1116 98.9536 74.1724 99.3828ZM81.661 76.9409C82.1144 76.9975 82.504 77.2354 82.8433 77.512C83.1823 77.7942 83.4783 78.1298 83.7266 78.5087C83.9629 78.8831 84.1918 79.2788 84.3293 79.7263C84.3979 79.9487 84.4418 80.1726 84.4935 80.389C84.5443 80.606 84.6038 80.8191 84.6732 81.0295C84.8107 81.4494 84.9872 81.8562 85.2331 82.2061C85.4761 82.5539 85.8108 82.837 86.2063 82.9112C86.4019 82.9513 86.6134 82.9582 86.8093 83.0462C87.0055 83.1282 87.1739 83.2728 87.3151 83.438C87.5947 83.7774 87.7712 84.1947 87.9345 84.6077C87.7599 84.2007 87.571 83.79 87.2877 83.4673C87.1448 83.3102 86.9783 83.177 86.7897 83.1058C86.6027 83.0286 86.3987 83.0286 86.1939 82.9944C85.9876 82.9606 85.786 82.8759 85.6101 82.7493C85.4333 82.6236 85.2786 82.4632 85.1451 82.2857C84.878 81.9292 84.6861 81.5147 84.5314 81.0905C84.4526 80.8789 84.3831 80.6616 84.3237 80.4425C84.2631 80.2237 84.2118 80.0061 84.1407 79.8026C83.9992 79.3953 83.7694 79.0289 83.5262 78.6739C83.2859 78.3282 82.9967 78.0187 82.677 77.7679C82.3582 77.521 81.9971 77.3258 81.6338 77.2941L81.661 76.9409ZM82.0415 106.824C83.467 105.235 84.2683 103.022 84.2518 100.843L84.677 100.856C84.547 103.162 83.5636 105.35 82.0415 106.824ZM88.2948 105.242C88.4159 104.541 88.4137 103.822 88.3306 103.118C88.2504 102.413 88.1008 101.72 87.9687 101.022C87.8355 100.325 87.722 99.6166 87.6937 98.8964C87.6673 98.1784 87.6986 97.4597 87.7726 96.7462C87.8487 96.0329 87.9687 95.3239 88.1514 94.6298C88.3357 93.9399 88.5859 93.2509 88.9629 92.6466C89.3329 92.0402 89.787 91.5044 90.288 91.036C90.7877 90.5643 91.3379 90.1632 91.9164 89.8202L92.1091 90.2419C91.5497 90.5517 91.0124 90.9198 90.524 91.3559C90.034 91.789 89.5887 92.2868 89.2247 92.8492C88.855 93.4077 88.6023 94.0494 88.4051 94.7169C88.2109 95.3852 88.0755 96.0775 87.9832 96.7767C87.8928 97.4762 87.8444 98.1841 87.853 98.8907C87.863 99.5965 87.9574 100.3 88.0728 100.999C88.1872 101.699 88.3201 102.4 88.3831 103.111C88.4495 103.822 88.4334 104.545 88.2948 105.242Z" fill="#2B2419"/>
<path d="M86.9303 83.2788C86.9303 83.2788 87.4372 81.8047 88.6574 82.6065C89.5294 83.1794 88.5807 86.5643 86.8477 86.5062L86.9303 83.2788Z" fill="#F9BBAF"/>
<path d="M83.3917 98.7814C83.3954 98.7658 83.3989 98.7499 83.4024 98.7344C83.4492 98.5287 83.4823 98.2701 83.3405 98.1381C83.2561 98.0597 83.1377 98.0579 83.0408 98.0026C82.7806 97.8538 82.7898 97.3986 82.9337 97.1034C83.0777 96.8083 83.3123 96.5737 83.4059 96.2516C83.4309 96.1657 83.4447 96.0705 83.4175 95.9852C83.2765 95.5443 82.5925 96.1537 82.3211 95.8068C82.7195 95.4049 83.118 95.0032 83.5165 94.6012C82.807 94.6105 82.0999 94.8014 81.4584 95.1573C81.6538 94.7592 81.9347 94.4198 82.2678 94.1792C81.2095 94.0708 80.1212 94.723 79.5747 95.7934C79.3864 95.433 79.2825 95.0116 79.2777 94.5889C77.7459 96.1085 76.9231 98.5596 77.1596 100.899C77.0668 100.62 76.9739 100.341 76.8808 100.062C76.6898 101.355 76.7412 102.697 77.0304 103.964C76.929 103.574 76.8273 103.183 76.7259 102.792C76.665 104.155 76.8636 105.533 77.3019 106.797C77.1502 106.483 76.9987 106.168 76.8469 105.854C77.0396 106.621 77.2322 107.388 77.4249 108.156C77.2852 107.853 77.0514 107.613 76.7783 107.489C77.1935 108.729 77.8516 110.106 78.0144 111.415C78.1915 112.837 78.4177 114.26 78.5114 115.696C78.6012 117.072 78.5622 118.479 78.1971 119.8C77.8979 120.884 77.3907 121.909 76.6567 122.664C76.4762 122.85 76.2824 123.017 76.0766 123.162C75.9765 123.233 75.8732 123.298 75.7683 123.359C75.7093 123.393 75.6517 123.416 75.606 123.471C75.4155 123.698 75.243 123.951 75.0625 124.189C75.0122 124.256 74.9619 124.322 74.9115 124.388C74.8217 124.507 74.9105 124.67 75.0377 124.643C75.916 124.463 76.9061 124.008 77.4408 123.151C77.9929 122.265 78.6529 121.512 79.1469 120.564C80.1314 118.676 80.7225 116.502 80.8237 114.289C80.8355 114.031 80.8412 113.771 80.8926 113.52C81.0486 112.761 81.607 112.159 81.6799 111.383C81.4186 111.566 81.1167 111.669 80.8127 111.679C81.0231 110.532 81.2335 109.384 81.4439 108.237C81.6298 107.222 81.8265 106.178 82.3291 105.324C82.6657 104.752 83.16 104.135 82.9811 103.472C82.8215 103.686 82.4903 103.474 82.4534 103.193C82.4166 102.913 82.5597 102.648 82.6964 102.414C82.9612 101.962 83.2256 101.509 83.4901 101.056C83.2682 101.13 83.0459 101.204 82.8237 101.277C83.0134 100.446 83.2025 99.6134 83.3917 98.7814Z" fill="#CEA897"/>
<path opacity="0.2" d="M83.4967 101.057C83.2747 101.131 83.0525 101.205 82.8305 101.278C83.0197 100.446 83.2091 99.6134 83.3982 98.7814C83.402 98.7658 83.4055 98.7499 83.409 98.7344C83.4558 98.5287 83.4889 98.2701 83.3471 98.1381C83.2626 98.0597 83.1443 98.0579 83.0474 98.0026C82.7872 97.8538 82.7964 97.3986 82.9403 97.1034C83.0842 96.8083 83.3189 96.5737 83.4125 96.2516C83.4375 96.1657 83.4513 96.0705 83.4241 95.9852C83.2831 95.5443 82.5991 96.1537 82.3276 95.8068C82.7261 95.4049 83.1246 95.0032 83.5231 94.6012C82.8136 94.6105 82.1065 94.8014 81.465 95.1573C81.6604 94.7592 81.9413 94.4198 82.2744 94.1792C81.2161 94.0708 80.1278 94.723 79.5813 95.7934C79.3929 95.433 79.2891 95.0116 79.2842 94.5889C78.8766 94.9936 78.5196 95.4644 78.2188 95.9813C78.2734 95.9714 78.3385 96.0053 78.3501 96.0744C78.462 96.7395 78.3089 97.3992 78.226 98.0594C78.2572 97.9906 78.2858 97.9211 78.3132 97.8586C78.5166 97.3914 78.6797 96.8646 78.9888 96.4758C79.1755 96.2408 79.57 96.0098 79.7928 96.3207C79.9844 96.588 79.853 97.0532 79.7936 97.3495C79.7656 97.488 79.5565 98.2342 79.8469 98.1546C80.2058 98.0561 80.9298 96.4273 81.3593 97.1214C81.5549 97.4372 81.3851 97.8912 81.278 98.2082C81.1214 98.6703 80.9008 99.1321 80.8276 99.6263C80.805 99.7799 80.7913 99.9774 80.9204 100.07C81.1203 100.213 81.3652 99.9238 81.5476 99.8484C81.7134 99.7796 81.8907 99.8176 81.9768 100.015C82.0505 100.185 82.0107 100.402 81.9714 100.576C81.8581 101.08 81.6127 101.522 81.4763 102.014C81.4446 102.129 81.3864 102.309 81.4077 102.428C81.4185 102.489 81.4077 102.465 81.4763 102.502C81.67 102.608 81.804 102.8 81.8875 103.03C82.1105 103.642 81.7806 104.411 81.5673 104.967C81.419 105.354 81.249 105.733 81.1513 106.144C81.1072 106.33 81.0286 106.607 81.1513 106.758C81.2194 106.842 81.2761 106.874 81.2896 107C81.3332 107.409 81.098 107.853 81.0108 108.237C80.9097 108.682 80.847 109.126 80.9081 109.586C80.9489 109.894 80.9541 110.184 80.8951 110.49C80.801 110.981 80.7154 111.456 80.6928 111.96C80.6554 112.789 80.7267 113.616 80.8225 114.437C80.8255 114.388 80.8281 114.338 80.8303 114.289C80.8421 114.031 80.8478 113.771 80.8992 113.52C81.0552 112.761 81.6135 112.159 81.6865 111.383C81.4252 111.566 81.1233 111.669 80.8193 111.679C81.0297 110.532 81.2401 109.384 81.4505 108.237C81.6364 107.222 81.8331 106.178 82.3357 105.324C82.6723 104.752 83.1666 104.135 82.9877 103.472C82.8281 103.686 82.4969 103.474 82.46 103.193C82.4232 102.913 82.5663 102.648 82.703 102.414C82.9675 101.962 83.232 101.51 83.4967 101.057Z" fill="#885F6E"/>
<path d="M77.7233 119.19C77.6786 118.847 77.602 118.509 77.4954 118.185C77.4268 117.976 77.3458 117.773 77.2538 117.577C77.328 117.615 77.4082 117.64 77.4922 117.649C77.529 117.654 77.5543 117.611 77.557 117.573C77.613 116.786 77.4537 115.994 77.1187 115.316C77.1252 115.319 77.1308 115.322 77.1373 115.325C77.1768 115.342 77.2204 115.298 77.2196 115.251C77.2018 114.409 76.8774 113.646 76.5206 112.934C76.3355 112.565 76.1401 112.204 75.9633 111.829C75.7712 111.423 75.5998 111.002 75.451 110.571C75.3327 110.228 75.2288 109.877 75.1387 109.522C75.1922 109.567 75.2519 109.603 75.3173 109.627C75.3571 109.641 75.4005 109.602 75.3994 109.553C75.3908 109.078 75.2425 108.633 75.0534 108.219C74.8427 107.759 74.597 107.319 74.3648 106.872C74.1227 106.407 73.8805 105.942 73.6384 105.477C73.5321 105.272 73.4371 105.044 73.302 104.863C73.1793 104.699 73.0101 104.647 72.8304 104.636C72.3778 104.609 71.9171 104.655 71.4673 104.709C71.0131 104.763 70.5613 104.838 70.1093 104.911C69.195 105.058 68.2781 105.163 67.3554 105.196C66.312 105.234 65.2669 105.19 64.2281 105.067C64.1449 105.058 64.1455 105.21 64.2281 105.22C64.238 105.221 64.248 105.222 64.2579 105.223C63.8748 106.855 62.8214 108.095 62.0312 109.463C61.8 109.863 61.5883 110.279 61.4166 110.719C61.4008 110.76 61.4107 110.821 61.4556 110.831C61.5762 110.859 61.6978 110.856 61.8138 110.828C61.5765 111.139 61.3706 111.483 61.2033 111.852C61.0722 112.142 60.9555 112.472 60.9856 112.807C61.0093 113.066 61.1263 113.287 61.3286 113.401C61.4519 113.471 61.5966 113.495 61.7228 113.449C61.5477 113.944 61.3725 114.439 61.1973 114.934C61.1492 115.07 61.0986 115.206 61.0529 115.343C61.0195 115.443 60.9918 115.571 61.0515 115.666C61.069 115.693 61.0916 115.713 61.1161 115.726C60.8338 116.236 60.611 116.792 60.4017 117.347C60.3016 117.612 60.2058 117.915 60.2761 118.207C60.3237 118.407 60.4617 118.55 60.6328 118.595C60.6867 118.61 60.7413 118.614 60.7929 118.606C60.5815 119.078 60.458 119.602 60.4362 120.136C60.4251 120.403 60.4354 120.67 60.5373 120.914C60.6089 121.085 60.7327 121.229 60.8938 121.245C60.7989 122.796 61.5294 124.301 62.7235 124.982C63.0162 125.149 63.3294 125.268 63.6515 125.326C65.4448 125.654 67.2666 125.432 69.068 125.341C70.8926 125.249 72.7219 125.295 74.5475 125.232C75.2046 125.209 75.9144 125.15 76.4684 124.688C76.9688 124.271 77.2627 123.593 77.3741 122.896C77.5113 122.039 77.3732 121.164 77.1849 120.333C77.1795 120.309 77.1736 120.285 77.1679 120.261C77.2056 120.341 77.2532 120.411 77.3205 120.466C77.4028 120.533 77.5121 120.572 77.6079 120.522C77.712 120.467 77.7521 120.342 77.7639 120.217C77.7957 119.88 77.7669 119.524 77.7233 119.19Z" fill="#CEA897"/>
<path opacity="0.2" d="M63.0301 124.095C62.8799 123.937 62.7244 123.924 62.5573 123.815C62.4236 123.728 62.3173 123.594 62.2493 123.434C62.1271 123.147 62.0935 122.816 62.0687 122.494C62.0197 122.496 61.9705 122.46 61.9552 122.398C61.7595 121.611 61.9947 120.796 62.1903 120.018C62.1206 120.043 62.0431 120.033 61.9592 119.965C61.7259 119.776 61.6656 119.352 61.6511 119.046C61.6164 118.303 61.8198 117.54 62.0741 116.857C62.0348 116.848 62.0055 116.817 61.9877 116.765C61.8491 116.36 62.0717 115.848 62.2153 115.485C62.3894 115.045 62.5754 114.622 62.7325 114.174C62.8159 113.936 62.9144 113.699 62.9642 113.447C62.9881 113.327 63.0137 113.208 62.9189 113.117C62.8681 113.068 62.7936 113.013 62.7387 112.966C62.606 112.853 62.4693 112.839 62.4395 112.614C62.4104 112.394 62.4906 112.138 62.5436 111.929C62.6916 111.348 63.0099 110.846 63.1474 110.26C63.1797 110.122 63.2787 109.729 63.1315 109.628C63.0677 109.585 62.9499 109.628 62.8807 109.634C62.2657 109.69 62.6297 108.685 62.8719 108.118C62.5842 108.565 62.2912 109.008 62.0273 109.464C61.7961 109.864 61.5844 110.28 61.4127 110.72C61.3969 110.761 61.4068 110.822 61.4517 110.832C61.5723 110.86 61.6939 110.857 61.8099 110.829C61.5725 111.14 61.3667 111.484 61.1994 111.853C61.0683 112.142 60.9515 112.473 60.9817 112.808C61.0054 113.066 61.1224 113.288 61.3247 113.402C61.448 113.472 61.5927 113.496 61.7189 113.45C61.5438 113.945 61.3686 114.439 61.1934 114.934C61.1453 115.071 61.0947 115.207 61.0489 115.344C61.0156 115.444 60.9879 115.572 61.0476 115.667C61.0651 115.694 61.0877 115.714 61.1122 115.727C60.8299 116.237 60.6071 116.793 60.3978 117.348C60.2977 117.613 60.2019 117.916 60.2722 118.208C60.3198 118.408 60.4578 118.551 60.6289 118.596C60.6828 118.611 60.7374 118.614 60.789 118.607C60.5776 119.079 60.454 119.603 60.4325 120.137C60.4215 120.404 60.4314 120.671 60.5337 120.915C60.6053 121.086 60.729 121.229 60.8902 121.246C60.7952 122.797 61.5257 124.302 62.7198 124.983C63.0126 125.15 63.3258 125.268 63.6478 125.327C63.749 125.346 63.8504 125.362 63.9519 125.377C63.646 124.95 63.3874 124.471 63.0301 124.095Z" fill="#885F6E"/>
<path d="M79.8074 116.329C79.7859 116.022 79.7641 115.715 79.7426 115.407C79.7394 115.362 79.7122 115.324 79.6716 115.324C79.6358 115.324 79.5976 115.362 79.6008 115.407C79.6223 115.715 79.6441 116.022 79.6656 116.329C79.6689 116.374 79.696 116.413 79.7364 116.413C79.7725 116.413 79.8107 116.375 79.8074 116.329ZM79.6067 114.221C79.5879 114.156 79.5717 114.089 79.5583 114.022C79.5516 113.989 79.5456 113.956 79.5405 113.923C79.5378 113.906 79.5354 113.89 79.5333 113.873C79.5322 113.865 79.5311 113.857 79.5303 113.85C79.53 113.847 79.526 113.815 79.5281 113.834C79.5233 113.79 79.4991 113.748 79.4571 113.75C79.4229 113.752 79.381 113.787 79.3864 113.834C79.403 113.981 79.4299 114.125 79.4703 114.266C79.4821 114.307 79.5195 114.338 79.5575 114.324C79.5922 114.311 79.6194 114.266 79.6067 114.221ZM79.9272 114.358C79.9237 114.345 79.9213 114.331 79.9196 114.318C79.9204 114.325 79.9213 114.332 79.9221 114.34C79.9196 114.317 79.9196 114.294 79.9221 114.271C79.9213 114.278 79.9204 114.285 79.9196 114.293C79.9223 114.27 79.9274 114.247 79.935 114.226C79.9326 114.233 79.9301 114.239 79.9277 114.246C79.9315 114.235 79.936 114.225 79.9409 114.215C79.9595 114.177 79.9492 114.122 79.9153 114.101C79.8814 114.08 79.8384 114.091 79.8182 114.131C79.7778 114.212 79.7673 114.312 79.7902 114.403C79.7953 114.423 79.8072 114.441 79.8228 114.452C79.8378 114.463 79.8604 114.467 79.8774 114.461C79.9137 114.447 79.9385 114.403 79.9272 114.358ZM80.0972 113.241C80.1185 113.139 80.14 113.037 80.1615 112.935C80.1704 112.893 80.15 112.843 80.112 112.833C80.0754 112.823 80.0343 112.846 80.0248 112.891C80.0033 112.993 79.9821 113.095 79.9605 113.197C79.9517 113.239 79.9721 113.289 80.01 113.299C80.0466 113.309 80.0878 113.286 80.0972 113.241ZM80.3254 112.01C80.3485 111.874 80.3722 111.738 80.3953 111.603C80.4026 111.56 80.3848 111.511 80.3458 111.5C80.3106 111.491 80.2665 111.513 80.2587 111.558C80.2352 111.694 80.2118 111.83 80.1887 111.965C80.1814 112.008 80.1992 112.057 80.2382 112.068C80.2735 112.077 80.3176 112.055 80.3254 112.01ZM79.6651 111.682C79.6651 111.625 79.6651 111.568 79.6651 111.511C79.6651 111.489 79.6573 111.467 79.6444 111.452C79.632 111.437 79.6118 111.426 79.5943 111.427C79.5559 111.429 79.5236 111.464 79.5236 111.51C79.5236 111.567 79.5236 111.624 79.5236 111.682C79.5236 111.703 79.5314 111.725 79.5443 111.74C79.5567 111.755 79.5768 111.766 79.5943 111.765C79.6325 111.763 79.6651 111.728 79.6651 111.682ZM78.9623 110.225C78.933 110.111 78.9039 109.997 78.8746 109.883C78.8638 109.842 78.8245 109.811 78.7874 109.825C78.7516 109.839 78.7263 109.883 78.7379 109.928C78.7672 110.041 78.7963 110.155 78.8256 110.269C78.8364 110.311 78.8757 110.341 78.9128 110.327C78.9486 110.313 78.9739 110.269 78.9623 110.225ZM78.4164 108.343C78.3935 108.253 78.3706 108.163 78.3478 108.073C78.3373 108.031 78.2974 108.001 78.2606 108.015C78.2248 108.029 78.1998 108.073 78.2111 108.117C78.2339 108.207 78.2565 108.297 78.2797 108.387C78.2904 108.429 78.33 108.459 78.3669 108.445C78.4026 108.431 78.4277 108.387 78.4164 108.343ZM78.8757 108.55C78.8593 108.469 78.8426 108.389 78.8264 108.308C78.8178 108.265 78.7748 108.236 78.7393 108.25C78.7016 108.264 78.6806 108.307 78.6897 108.352C78.7059 108.433 78.7226 108.514 78.739 108.594C78.7476 108.637 78.7906 108.666 78.8262 108.652C78.8636 108.638 78.8848 108.595 78.8757 108.55ZM78.9669 107.785C78.9669 107.751 78.9669 107.717 78.9669 107.683C78.9669 107.662 78.9591 107.639 78.9462 107.624C78.9397 107.616 78.9322 107.61 78.9233 107.607C78.9149 107.602 78.9058 107.599 78.8958 107.6C78.8776 107.6 78.8584 107.608 78.8458 107.624C78.8332 107.64 78.8251 107.66 78.8251 107.683C78.8251 107.717 78.8251 107.751 78.8251 107.785C78.8251 107.807 78.8329 107.829 78.8458 107.844C78.8523 107.852 78.8598 107.858 78.8687 107.862C78.877 107.867 78.8862 107.869 78.8961 107.869C78.9144 107.868 78.9335 107.861 78.9462 107.845C78.9591 107.828 78.9669 107.808 78.9669 107.785ZM79.0541 106.794C79.0541 106.738 79.0541 106.68 79.0541 106.623C79.0541 106.602 79.0463 106.58 79.0333 106.565C79.021 106.55 79.0008 106.539 78.9833 106.54C78.9448 106.542 78.9123 106.577 78.9123 106.623C78.9123 106.68 78.9123 106.738 78.9123 106.794C78.9123 106.816 78.9201 106.838 78.933 106.853C78.9454 106.868 78.9655 106.879 78.983 106.878C79.0215 106.875 79.0541 106.841 79.0541 106.794ZM79.6646 108.286C79.6794 108.183 79.6944 108.08 79.7092 107.976C79.7125 107.954 79.7122 107.933 79.702 107.912C79.6933 107.895 79.6764 107.878 79.6597 107.874C79.6253 107.865 79.5793 107.886 79.5725 107.932C79.5577 108.035 79.5427 108.139 79.5279 108.242C79.5247 108.265 79.5246 108.286 79.5351 108.306C79.5437 108.324 79.5607 108.34 79.5777 108.345C79.6116 108.354 79.6581 108.333 79.6646 108.286ZM80.0752 106.784C80.1303 106.499 80.1852 106.213 80.2406 105.927C80.2608 105.823 80.1241 105.778 80.1039 105.883C80.0485 106.169 79.9936 106.454 79.9385 106.74C79.9183 106.844 80.055 106.889 80.0752 106.784ZM79.8088 105.347C79.8268 105.233 79.8448 105.119 79.8629 105.004C79.8696 104.961 79.8529 104.912 79.8133 104.902C79.7786 104.893 79.7334 104.914 79.7262 104.96C79.7082 105.074 79.6904 105.189 79.6721 105.303C79.6654 105.346 79.6821 105.395 79.7216 105.405C79.7566 105.415 79.8015 105.393 79.8088 105.347ZM78.9959 105.428C78.9959 105.268 78.9959 105.109 78.9959 104.949C78.9959 104.905 78.9634 104.864 78.9252 104.866C78.8867 104.868 78.8541 104.902 78.8541 104.949C78.8541 105.109 78.8541 105.268 78.8541 105.428C78.8541 105.471 78.8867 105.513 78.9252 105.511C78.9636 105.509 78.9959 105.474 78.9959 105.428ZM77.8309 105.918C77.7921 105.735 77.7534 105.553 77.7146 105.371C77.7052 105.327 77.6638 105.301 77.6275 105.313C77.5898 105.325 77.5685 105.371 77.578 105.415C77.6167 105.597 77.6555 105.78 77.6942 105.962C77.7036 106.006 77.7451 106.032 77.7814 106.02C77.8193 106.008 77.8403 105.961 77.8309 105.918ZM77.4222 103.638C77.416 103.626 77.4101 103.612 77.4047 103.599C77.4025 103.594 77.3982 103.587 77.3974 103.581C77.4012 103.592 77.4017 103.593 77.3988 103.584C77.3974 103.581 77.3963 103.577 77.395 103.574C77.3867 103.548 77.3799 103.522 77.3748 103.495C77.3721 103.482 77.3702 103.468 77.3681 103.455C77.367 103.446 77.367 103.447 77.3684 103.46C77.3678 103.456 77.3676 103.452 77.3673 103.448C77.3668 103.442 77.3662 103.436 77.3659 103.431C77.3641 103.401 77.3641 103.372 77.3657 103.343C77.3681 103.299 77.3312 103.258 77.2946 103.26C77.254 103.262 77.2263 103.296 77.2239 103.343C77.2163 103.474 77.2441 103.608 77.2998 103.722C77.3183 103.76 77.3649 103.776 77.3969 103.752C77.4292 103.728 77.4418 103.679 77.4222 103.638ZM78.0321 104.278C78.0007 104.116 77.9487 103.959 77.8801 103.814C77.8621 103.776 77.8147 103.76 77.783 103.784C77.7502 103.809 77.7383 103.857 77.7574 103.898C77.7741 103.933 77.79 103.97 77.8045 104.006C77.8112 104.023 77.818 104.04 77.8242 104.058C77.819 104.044 77.8266 104.065 77.8277 104.068C77.8312 104.078 77.8344 104.088 77.8376 104.098C77.8613 104.171 77.8804 104.246 77.8952 104.322C77.9035 104.365 77.9471 104.394 77.9824 104.38C78.0206 104.366 78.041 104.324 78.0321 104.278ZM77.4494 102.228C77.4421 102.199 77.4359 102.169 77.4311 102.139C77.4297 102.13 77.4281 102.12 77.427 102.111C77.4265 102.107 77.4224 102.086 77.4262 102.105C77.4233 102.091 77.4233 102.075 77.4224 102.06C77.4184 101.998 77.4203 101.935 77.4267 101.874C77.4289 101.854 77.4173 101.828 77.406 101.815C77.3937 101.8 77.3735 101.789 77.356 101.791C77.3377 101.791 77.3186 101.799 77.3059 101.815C77.2922 101.832 77.2876 101.85 77.2852 101.874C77.271 102.007 77.2809 102.144 77.3129 102.273C77.3232 102.315 77.3632 102.345 77.4001 102.331C77.4359 102.317 77.4604 102.273 77.4494 102.228ZM78.3319 103.172C78.32 103.024 78.3079 102.876 78.2958 102.728C78.2923 102.685 78.2657 102.643 78.2251 102.645C78.1898 102.647 78.1503 102.682 78.154 102.728C78.1661 102.876 78.1782 103.024 78.1901 103.172C78.1936 103.215 78.2202 103.257 78.2608 103.255C78.2964 103.253 78.3357 103.218 78.3319 103.172ZM79.0465 103.718C79.0576 103.547 79.0683 103.377 79.0791 103.206C79.0818 103.163 79.0446 103.121 79.0083 103.123C78.9677 103.125 78.9402 103.16 78.9373 103.206C78.9265 103.377 78.9158 103.547 78.9047 103.718C78.902 103.762 78.9394 103.803 78.9758 103.801C79.0164 103.799 79.0436 103.765 79.0465 103.718ZM81.5251 106.236C81.5841 106.02 81.6433 105.804 81.7022 105.588C81.7138 105.545 81.6885 105.497 81.6527 105.485C81.6145 105.473 81.5771 105.5 81.5655 105.543C81.5066 105.759 81.4474 105.975 81.3885 106.192C81.3769 106.234 81.4022 106.283 81.438 106.294C81.4762 106.307 81.5133 106.279 81.5251 106.236ZM82.0124 104.389C82.0331 104.286 82.0541 104.184 82.0751 104.082C82.0837 104.04 82.0638 103.99 82.0256 103.979C81.9893 103.97 81.9476 103.992 81.9384 104.037C81.9174 104.14 81.8965 104.242 81.8757 104.344C81.8671 104.386 81.887 104.436 81.9252 104.447C81.9616 104.456 82.0033 104.434 82.0124 104.389ZM81.6064 103.808C81.625 103.694 81.6435 103.58 81.6624 103.466C81.6694 103.423 81.6521 103.374 81.6129 103.363C81.5779 103.354 81.5332 103.376 81.5257 103.421C81.5071 103.536 81.4883 103.65 81.4697 103.764C81.4627 103.807 81.4799 103.856 81.5192 103.866C81.5542 103.876 81.5989 103.854 81.6064 103.808ZM79.6845 100.539C79.7079 100.312 79.7316 100.084 79.755 99.857C79.7595 99.8124 79.7192 99.7738 79.6839 99.7738C79.6417 99.7738 79.6177 99.8121 79.6132 99.857C79.5898 100.084 79.5661 100.312 79.5427 100.539C79.5381 100.584 79.5785 100.622 79.6137 100.622C79.6557 100.622 79.6799 100.584 79.6845 100.539ZM79.6648 98.1824C79.6616 98.0016 79.678 97.8307 79.7157 97.6562C79.7248 97.614 79.7041 97.564 79.6662 97.5538C79.6293 97.5439 79.5887 97.5667 79.579 97.6119C79.5389 97.7978 79.5198 97.9905 79.5233 98.1824C79.5241 98.2258 79.5553 98.2677 79.5943 98.2656C79.6317 98.2638 79.6656 98.2291 79.6648 98.1824ZM79.134 98.203C79.1646 98.0629 79.1776 97.9169 79.1711 97.7723C79.1692 97.7289 79.1399 97.687 79.1003 97.6891C79.0635 97.6909 79.0274 97.7259 79.0296 97.7723C79.0325 97.8397 79.0314 97.907 79.0261 97.9743C79.0255 97.9821 79.0247 97.9899 79.0239 97.9974C79.0234 98.0019 79.0215 98.021 79.0231 98.0061C79.021 98.024 79.0185 98.042 79.0158 98.06C79.0107 98.0932 79.0045 98.1261 78.9976 98.1587C78.9884 98.2009 79.0094 98.2512 79.0471 98.2611C79.0836 98.2713 79.124 98.2482 79.134 98.203ZM79.1372 96.6783C79.149 96.5191 79.1606 96.3599 79.1724 96.2006C79.1757 96.1572 79.1375 96.1153 79.1017 96.1174C79.0605 96.1195 79.0341 96.154 79.0306 96.2006C79.0188 96.3599 79.0072 96.5191 78.9954 96.6783C78.9922 96.7217 79.0304 96.7636 79.0662 96.7615C79.1076 96.7595 79.1337 96.725 79.1372 96.6783ZM78.4142 97.9091C78.4142 97.6927 78.4142 97.476 78.4142 97.2596C78.4142 97.1524 78.2724 97.1521 78.2724 97.2596C78.2724 97.476 78.2724 97.6927 78.2724 97.9091C78.2724 98.0162 78.4142 98.0162 78.4142 97.9091ZM78.856 95.846C78.9155 95.7663 78.9497 95.6577 78.9378 95.5511C78.9351 95.5281 78.9316 95.5092 78.9171 95.4922C78.9047 95.4778 78.8845 95.4667 78.867 95.4679C78.8488 95.4688 78.8297 95.476 78.817 95.4922C78.8052 95.5071 78.7939 95.5299 78.7963 95.5511C78.7992 95.5775 78.7992 95.6041 78.7963 95.6305C78.7971 95.623 78.7979 95.6158 78.7987 95.6083C78.7955 95.6346 78.7896 95.6604 78.7807 95.6849C78.7831 95.6783 78.7855 95.6718 78.788 95.6652C78.7793 95.6885 78.7686 95.7104 78.7554 95.7304C78.7592 95.7247 78.7627 95.7191 78.7664 95.7137C78.7632 95.7188 78.7597 95.7235 78.7562 95.7283C78.7438 95.7451 78.7355 95.7645 78.7355 95.7873C78.7355 95.8076 78.7433 95.8322 78.7562 95.8463C78.7826 95.8747 78.8297 95.881 78.856 95.846ZM80.7529 97.4003C80.8113 97.2407 80.8694 97.0812 80.9276 96.9217C80.9421 96.8819 80.9389 96.8304 80.902 96.8076C80.8716 96.7888 80.8207 96.7948 80.8049 96.8376C80.7465 96.9971 80.6884 97.1566 80.6302 97.3162C80.6157 97.356 80.6189 97.4075 80.6558 97.4302C80.6865 97.4491 80.7373 97.4431 80.7529 97.4003ZM80.8993 95.7583C80.9582 95.6562 81.0169 95.5544 81.0758 95.4524C81.0968 95.4162 81.0828 95.3584 81.0502 95.3383C81.0145 95.3162 80.9754 95.3297 80.9531 95.3683C80.8942 95.4703 80.8355 95.5721 80.7766 95.6742C80.7556 95.7104 80.7696 95.7681 80.8022 95.7882C80.8382 95.8103 80.877 95.7969 80.8993 95.7583ZM80.8156 95.1812C80.8285 95.1486 80.8431 95.1168 80.8595 95.0863C80.8675 95.0713 80.8756 95.057 80.8845 95.0426C80.8888 95.0357 80.8931 95.0258 80.8985 95.0205C80.8931 95.0258 80.8912 95.0315 80.8977 95.022C80.9001 95.0184 80.9025 95.0148 80.9052 95.0112C80.9243 94.9843 80.9445 94.9585 80.9663 94.9343C80.9776 94.9214 80.9894 94.9091 81.0015 94.8975C81.0069 94.8921 81.0126 94.887 81.018 94.8819C81.0247 94.8753 81.0061 94.8921 81.0166 94.8831C81.0204 94.8798 81.0241 94.8765 81.0279 94.8732C81.0432 94.86 81.0554 94.8457 81.0605 94.8235C81.065 94.8035 81.0632 94.7771 81.0532 94.7595C81.0341 94.7248 80.9884 94.702 80.9561 94.7295C80.8444 94.825 80.7521 94.9498 80.6932 95.0974C80.6849 95.118 80.6808 95.1387 80.6859 95.1614C80.6905 95.1809 80.7032 95.2016 80.7185 95.2111C80.7502 95.2306 80.7989 95.2234 80.8156 95.1812ZM81.6605 98.5996C81.7369 98.394 81.8133 98.1881 81.8897 97.9824C81.9051 97.9411 81.9 97.8929 81.8642 97.8684C81.834 97.8477 81.7826 97.8567 81.767 97.8983C81.6906 98.1039 81.6142 98.3099 81.5378 98.5155C81.5225 98.5568 81.5276 98.605 81.5634 98.6295C81.5935 98.6499 81.6451 98.6409 81.6605 98.5996ZM81.872 100.791C81.9842 100.524 82.1157 100.269 82.2656 100.029C82.2882 99.9929 82.2707 99.9363 82.24 99.9151C82.204 99.8902 82.1658 99.9085 82.1429 99.945C81.993 100.185 81.8612 100.44 81.7493 100.707C81.7323 100.747 81.7401 100.797 81.7748 100.821C81.8063 100.842 81.855 100.831 81.872 100.791ZM82.6835 99.3883C82.733 99.2748 82.7825 99.1614 82.8317 99.048C82.8487 99.0091 82.8414 98.9558 82.8062 98.9339C82.7739 98.9139 82.7271 98.9223 82.709 98.9639C82.6598 99.0773 82.6103 99.1907 82.5608 99.3042C82.5438 99.3428 82.5511 99.3964 82.5863 99.4182C82.6189 99.4383 82.6654 99.4296 82.6835 99.3883ZM82.2758 99.1485C82.3369 99.0019 82.3977 98.8552 82.4588 98.7089C82.4749 98.6696 82.469 98.617 82.4332 98.5948C82.4015 98.5751 82.3536 98.5828 82.3361 98.6247C82.275 98.7714 82.2142 98.9181 82.1531 99.0644C82.1367 99.1036 82.1429 99.1563 82.1787 99.1785C82.2107 99.1982 82.2583 99.1904 82.2758 99.1485ZM82.2672 97.6053C82.3251 97.491 82.3827 97.3766 82.4405 97.2623C82.4593 97.2249 82.4488 97.1692 82.4149 97.1483C82.3808 97.127 82.3383 97.1381 82.3178 97.1782C82.2602 97.2925 82.2024 97.4069 82.1445 97.5212C82.1254 97.5586 82.1362 97.6143 82.1701 97.6352C82.2043 97.6565 82.247 97.6451 82.2672 97.6053Z" fill="#9B7E71"/>
<path d="M66.9388 110.039C66.9572 109.806 66.9937 109.577 67.0469 109.352C67.0591 109.301 66.9904 109.278 66.9783 109.33C66.9234 109.562 66.8863 109.799 66.8674 110.039C66.863 110.092 66.9344 110.092 66.9388 110.039Z" fill="#9B7E71"/>
<path d="M67.4815 109.856C67.4868 109.727 67.5066 109.598 67.5395 109.474C67.5529 109.422 67.4821 109.4 67.4687 109.452C67.4342 109.583 67.4141 109.719 67.4083 109.856C67.406 109.91 67.4793 109.91 67.4815 109.856Z" fill="#9B7E71"/>
<path d="M67.8735 110.435C67.8592 110.254 67.876 110.073 67.9231 109.899C67.937 109.847 67.8662 109.826 67.8523 109.877C67.8035 110.057 67.7851 110.247 67.7999 110.435C67.8041 110.488 67.8776 110.489 67.8735 110.435Z" fill="#9B7E71"/>
<path d="M68.4854 112.695C68.5171 112.46 68.5277 112.223 68.5155 111.986C68.5127 111.933 68.4394 111.932 68.4422 111.986C68.4541 112.215 68.4455 112.446 68.4146 112.672C68.4073 112.725 68.4781 112.748 68.4854 112.695Z" fill="#9B7E71"/>
<path d="M68.5703 110.375C68.5703 110.264 68.5703 110.152 68.5703 110.041C68.5703 109.987 68.4961 109.987 68.4961 110.041C68.4961 110.152 68.4961 110.264 68.4961 110.375C68.4958 110.429 68.5703 110.429 68.5703 110.375Z" fill="#9B7E71"/>
<path d="M68.5217 108.461C68.5217 108.38 68.5217 108.299 68.5217 108.218C68.5217 108.196 68.5045 108.175 68.4845 108.176C68.4645 108.177 68.4473 108.195 68.4473 108.218C68.4473 108.299 68.4473 108.38 68.4473 108.461C68.4473 108.483 68.4645 108.504 68.4845 108.503C68.5048 108.502 68.5217 108.485 68.5217 108.461Z" fill="#9B7E71"/>
<path d="M68.9121 108.976C68.9118 109.143 68.9238 109.308 68.9467 109.473C68.9497 109.495 68.9743 109.507 68.9918 109.502C69.0127 109.495 69.0205 109.473 69.0174 109.45C68.9954 109.294 68.9851 109.135 68.9854 108.976C68.9857 108.923 68.9121 108.922 68.9121 108.976Z" fill="#9B7E71"/>
<path d="M69.0339 107.776C69.0518 107.897 69.0696 108.019 69.0874 108.141C69.0908 108.163 69.115 108.175 69.1326 108.17C69.1532 108.163 69.1616 108.141 69.1582 108.118C69.1404 107.997 69.1225 107.875 69.1047 107.754C69.1014 107.731 69.0771 107.719 69.0596 107.725C69.0387 107.731 69.0306 107.753 69.0339 107.776Z" fill="#9B7E71"/>
<path d="M69.5182 109.444C69.545 109.626 69.572 109.808 69.5991 109.99C69.6069 110.043 69.6756 110.021 69.6678 109.968C69.6407 109.786 69.6137 109.604 69.5869 109.422C69.579 109.369 69.5104 109.392 69.5182 109.444Z" fill="#9B7E71"/>
<path d="M70.4394 110.172C70.507 110.362 70.5486 110.564 70.5608 110.77C70.564 110.823 70.6352 110.823 70.6322 110.77C70.6197 110.557 70.5784 110.347 70.5083 110.15C70.5007 110.129 70.4848 110.115 70.4645 110.121C70.4475 110.126 70.4321 110.152 70.4394 110.172Z" fill="#9B7E71"/>
<path d="M70.2058 108.894C70.2236 109.006 70.2414 109.117 70.2593 109.229C70.2629 109.251 70.2866 109.263 70.3044 109.258C70.325 109.251 70.3337 109.229 70.3301 109.207C70.3119 109.095 70.2941 108.984 70.2766 108.872C70.2729 108.85 70.2493 108.837 70.2314 108.843C70.2111 108.849 70.2024 108.872 70.2058 108.894Z" fill="#9B7E71"/>
<path d="M69.9807 107.688C70.0145 107.78 70.0483 107.871 70.0818 107.963C70.0894 107.984 70.1153 107.988 70.1305 107.978C70.1489 107.965 70.1508 107.942 70.1432 107.921C70.1097 107.829 70.0759 107.738 70.0421 107.646C70.0345 107.626 70.0085 107.621 69.9934 107.631C69.9753 107.644 69.9731 107.668 69.9807 107.688Z" fill="#9B7E71"/>
<path d="M70.7939 108.442C70.8134 108.543 70.8329 108.643 70.8524 108.744C70.8566 108.766 70.8792 108.779 70.8976 108.773C70.9176 108.767 70.9274 108.744 70.9232 108.722C70.9037 108.621 70.8842 108.52 70.8647 108.42C70.8605 108.398 70.838 108.385 70.8196 108.391C70.7995 108.397 70.7897 108.42 70.7939 108.442Z" fill="#9B7E71"/>
<path d="M67.9409 108.46C67.9526 108.288 67.964 108.116 67.9754 107.944C67.979 107.891 67.9055 107.891 67.9018 107.944C67.8904 108.116 67.879 108.288 67.8673 108.46C67.864 108.514 67.9372 108.514 67.9409 108.46Z" fill="#9B7E71"/>
<path d="M67.2774 108.198C67.3204 108.066 67.3634 107.934 67.4064 107.803C67.4132 107.782 67.3989 107.757 67.3815 107.752C67.3615 107.745 67.3445 107.76 67.3377 107.781C67.2947 107.912 67.2517 108.044 67.2087 108.176C67.202 108.197 67.2163 108.222 67.2336 108.227C67.2536 108.234 67.2704 108.219 67.2774 108.198Z" fill="#9B7E71"/>
<path d="M68.0002 109.282C68.0002 109.202 68.0002 109.12 68.0002 109.04C68.0002 109.018 67.983 108.997 67.963 108.998C67.943 108.999 67.9258 109.016 67.9258 109.04C67.9258 109.12 67.9258 109.202 67.9258 109.282C67.9258 109.304 67.943 109.325 67.963 109.324C67.9833 109.323 68.0002 109.306 68.0002 109.282Z" fill="#9B7E71"/>
<path d="M69.315 111.449C69.3657 111.275 69.3774 111.091 69.3532 110.91C69.3501 110.888 69.3256 110.875 69.308 110.881C69.2871 110.887 69.2793 110.91 69.2824 110.932C69.3047 111.098 69.2905 111.268 69.2442 111.427C69.2294 111.478 69.3002 111.5 69.315 111.449Z" fill="#9B7E71"/>
<path d="M68.3117 111.253C68.3036 111.155 68.32 111.058 68.361 110.971C68.3705 110.951 68.3655 110.926 68.3479 110.914C68.3312 110.903 68.3069 110.909 68.2978 110.929C68.2509 111.028 68.2292 111.141 68.2384 111.253C68.2403 111.276 68.254 111.295 68.2752 111.295C68.2933 111.295 68.3134 111.276 68.3117 111.253Z" fill="#9B7E71"/>
<path d="M69.1937 113.371C69.1867 113.352 69.1809 113.333 69.1764 113.313C69.1745 113.304 69.1728 113.295 69.1711 113.287C69.17 113.281 69.1692 113.275 69.1683 113.269C69.1681 113.268 69.1667 113.256 69.1675 113.263C69.1655 113.244 69.1644 113.225 69.1647 113.205C69.1647 113.195 69.1653 113.185 69.1658 113.174C69.1661 113.17 69.1664 113.165 69.1669 113.161C69.1672 113.158 69.1675 113.155 69.1678 113.152C69.1672 113.156 69.1675 113.155 69.1681 113.15C69.1708 113.129 69.1633 113.105 69.1424 113.099C69.1249 113.095 69.1004 113.105 69.0973 113.128C69.0853 113.218 69.0925 113.309 69.1229 113.394C69.1302 113.414 69.1477 113.43 69.1681 113.423C69.1851 113.416 69.2015 113.393 69.1937 113.371Z" fill="#9B7E71"/>
<path d="M68.9338 111.772C68.9338 111.701 68.9338 111.63 68.9338 111.559C68.9338 111.537 68.9166 111.516 68.8966 111.518C68.8766 111.519 68.8594 111.536 68.8594 111.559C68.8594 111.63 68.8594 111.701 68.8594 111.772C68.8594 111.794 68.8766 111.815 68.8966 111.814C68.9169 111.813 68.9338 111.795 68.9338 111.772Z" fill="#9B7E71"/>
<path d="M70.1381 111.317C70.1487 111.134 70.1593 110.952 70.1699 110.77C70.1729 110.716 70.0997 110.717 70.0963 110.77C70.0854 110.952 70.0751 111.134 70.0645 111.317C70.0615 111.37 70.135 111.37 70.1381 111.317Z" fill="#9B7E71"/>
<path d="M69.3476 112.524C69.3476 112.399 69.3476 112.274 69.3476 112.149C69.3476 112.095 69.2734 112.095 69.2734 112.149C69.2734 112.274 69.2734 112.399 69.2734 112.524C69.2732 112.578 69.3476 112.578 69.3476 112.524Z" fill="#9B7E71"/>
<path d="M78.1555 91.193C77.1379 90.8931 76.0417 91.0377 75.0981 91.5719C74.9192 91.6734 74.747 91.7904 74.5815 91.9194C74.6832 91.6958 74.7798 91.469 74.8707 91.2391C74.8939 91.181 74.8546 91.0936 74.7927 91.1194C74.3022 91.3262 73.8615 91.6764 73.5149 92.1292C73.5432 92.0547 73.5714 91.9802 73.5997 91.9054C73.6215 91.8476 73.5843 91.759 73.5214 91.7859C73.0933 91.9691 72.7876 92.3624 72.5261 92.7874C72.5595 92.6363 72.5928 92.486 72.6262 92.3352C72.6391 92.2768 72.5926 92.2169 72.5412 92.2346C71.8483 92.4839 71.5265 93.307 71.201 93.9918C71.1401 94.1194 71.0766 94.2445 71.0075 94.3657C70.9763 94.3082 70.9386 94.2573 70.8888 94.2181C70.7887 94.1397 70.6486 94.1232 70.5514 94.2163C70.4602 94.3037 70.4373 94.4552 70.4629 94.5848C70.4917 94.7326 70.5856 94.8482 70.6671 94.9598C71.0508 95.4881 71.2876 96.1346 71.5992 96.7185C72.1976 97.8419 72.997 98.788 73.7404 99.7757C74.1604 100.334 74.5648 100.909 74.9057 101.539C74.9275 101.579 74.9851 101.598 75.0144 101.555C75.795 100.421 76.3952 99.1226 76.7762 97.7347C76.9821 96.9852 77.1072 96.2145 77.2234 95.4405C77.284 95.0355 77.3421 94.6327 77.338 94.2205C77.334 93.8446 77.3041 93.4528 77.447 93.1032C77.5207 92.923 77.6243 92.7632 77.7381 92.615C77.8401 92.4815 77.9574 92.3415 77.9779 92.1547C77.9943 92.0038 77.944 91.8317 77.8189 91.7665C77.7508 91.7312 77.6784 91.736 77.6063 91.7482C77.5775 91.7533 77.5463 91.7614 77.5151 91.7665C77.7048 91.583 77.9214 91.4405 78.1552 91.3489C78.2173 91.3253 78.2249 91.2131 78.1555 91.193Z" fill="#CEA897"/>
<path opacity="0.2" d="M75.8063 93.0935C74.5716 93.8346 73.4571 94.8603 72.5581 96.1015C72.3076 96.4472 72.0779 96.8106 71.8672 97.1889C72.425 98.1129 73.1033 98.9294 73.7407 99.7761C74.1607 100.334 74.5651 100.91 74.906 101.539C74.9278 101.579 74.9854 101.598 75.0147 101.556C75.7953 100.422 76.3955 99.1231 76.7765 97.7352C76.9824 96.9857 77.1075 96.215 77.2237 95.441C77.2843 95.036 77.3424 94.6331 77.3383 94.221C77.3343 93.845 77.3044 93.4532 77.4473 93.1036C77.521 92.9235 77.6246 92.7636 77.7384 92.6155C77.827 92.499 77.9273 92.3781 77.9653 92.2261C77.2084 92.3165 76.4752 92.6918 75.8063 93.0935Z" fill="#885F6E"/>
<path opacity="0.3" d="M75.8768 99.6645C75.569 99.434 75.2967 99.1374 75.0591 98.8133C74.8253 98.4939 74.6025 98.15 74.5471 97.7235C74.4981 97.3443 74.5543 96.9626 74.5288 96.5822C74.5064 96.2476 74.4338 95.9249 74.4709 95.5867C74.5054 95.2748 74.6275 95.0061 74.8032 94.772C74.9173 94.6202 75.0481 94.4847 75.1778 94.3515C75.3174 94.2084 75.4616 94.0722 75.6096 93.9411C75.905 93.6789 76.2161 93.4419 76.533 93.2174C76.6877 93.1084 76.8443 93.0034 77.0007 92.898C77.1306 92.8097 77.2555 92.7113 77.3833 92.6194C77.5552 92.4955 77.7436 92.365 77.9432 92.294C77.9515 92.2716 77.9594 92.2494 77.9653 92.2261C77.2084 92.3162 76.4752 92.6918 75.8063 93.0932C74.5716 93.8343 73.4571 94.86 72.5581 96.1012C72.3076 96.4469 72.0779 96.8103 71.8672 97.1886C72.425 98.1126 73.1033 98.9291 73.7407 99.7758C74.1607 100.334 74.5651 100.909 74.906 101.539C74.9278 101.579 74.9854 101.598 75.0147 101.555C75.4011 100.994 75.7433 100.392 76.0366 99.7594C75.9812 99.7336 75.9276 99.7025 75.8768 99.6645Z" fill="#F282A7"/>
<path d="M59.1586 91.193C60.1762 90.8931 61.2724 91.0377 62.216 91.5719C62.3952 91.6734 62.5674 91.7904 62.7326 91.9194C62.6309 91.6958 62.534 91.469 62.4431 91.2391C62.4199 91.181 62.4592 91.0936 62.5211 91.1194C63.0116 91.3262 63.4521 91.6764 63.7989 92.1292C63.7706 92.0547 63.7424 91.9802 63.7141 91.9054C63.6921 91.8476 63.7295 91.759 63.7924 91.7859C64.2208 91.9691 64.5267 92.3624 64.7877 92.7874C64.7543 92.6363 64.7212 92.486 64.6876 92.3352C64.6747 92.2768 64.7212 92.2169 64.7729 92.2346C65.466 92.4839 65.7875 93.307 66.1134 93.9918C66.1736 94.1194 66.2377 94.2445 66.3066 94.3657C66.3375 94.3082 66.3755 94.2573 66.4252 94.2181C66.5253 94.1397 66.6655 94.1232 66.7626 94.2163C66.8536 94.3037 66.8767 94.4552 66.8514 94.5848C66.8224 94.7326 66.7282 94.8482 66.6472 94.9598C66.2632 95.4881 66.0265 96.1346 65.7152 96.7185C65.1165 97.8419 64.3174 98.788 63.5739 99.7757C63.1539 100.334 62.7495 100.909 62.4086 101.539C62.3868 101.579 62.3293 101.598 62.2999 101.555C61.5194 100.421 60.9194 99.1226 60.5381 97.7347C60.3325 96.9852 60.2071 96.2145 60.0909 95.4405C60.0301 95.0355 59.972 94.6327 59.9763 94.2205C59.9803 93.8446 60.0102 93.4528 59.8673 93.1032C59.7936 92.923 59.69 92.7632 59.5765 92.615C59.4742 92.4815 59.3572 92.3415 59.3367 92.1547C59.3203 92.0038 59.3706 91.8317 59.496 91.7665C59.5638 91.7312 59.6364 91.736 59.7083 91.7482C59.7371 91.7533 59.7683 91.7614 59.7992 91.7665C59.6093 91.583 59.3932 91.4405 59.1591 91.3489C59.0967 91.3253 59.0892 91.2131 59.1586 91.193Z" fill="#CEA897"/>
<path opacity="0.2" d="M61.5105 93.0935C62.7453 93.8346 63.86 94.8603 64.7587 96.1015C65.0089 96.4472 65.239 96.8106 65.4494 97.1889C64.8916 98.1129 64.2133 98.9294 63.5759 99.7761C63.1559 100.334 62.7515 100.91 62.4106 101.539C62.3888 101.579 62.3312 101.598 62.3019 101.556C61.5213 100.422 60.9213 99.1231 60.54 97.7352C60.3345 96.9857 60.2091 96.215 60.0928 95.441C60.032 95.036 59.9739 94.6331 59.9782 94.221C59.9823 93.845 60.0121 93.4532 59.8692 93.1036C59.7955 92.9235 59.6919 92.7636 59.5784 92.6155C59.4896 92.499 59.3898 92.3781 59.3516 92.2261C60.1087 92.3165 60.8419 92.6918 61.5105 93.0935Z" fill="#885F6E"/>
<path opacity="0.3" d="M64.7542 96.1025C63.8552 94.8613 62.7408 93.8355 61.506 93.0945C60.8904 92.7251 60.2202 92.3782 59.5273 92.2549C59.7246 92.3444 59.9073 92.4991 60.087 92.6156C60.4109 92.826 60.7344 93.0397 61.0414 93.2839C61.3177 93.5045 61.5701 93.7508 61.7877 94.0498C62.0065 94.3506 62.1911 94.6856 62.3175 95.0525C62.4521 95.4425 62.504 95.8672 62.4814 96.2863C62.4588 96.7128 62.3687 97.1288 62.2667 97.5368C62.1698 97.9235 62.059 98.3018 62.007 98.7011C61.9597 99.0648 61.9263 99.4368 61.7861 99.7708C61.7148 99.9405 61.6126 100.084 61.492 100.203C61.7334 100.675 62.0027 101.128 62.2979 101.556C62.3272 101.599 62.3848 101.58 62.4066 101.54C62.7475 100.911 63.1519 100.335 63.5719 99.7768C64.2093 98.9301 64.8874 98.1136 65.4454 97.1896C65.2345 96.8116 65.0044 96.4482 64.7542 96.1025Z" fill="#F282A7"/>
<path d="M75.5685 104.306C75.6933 104.429 75.8088 104.565 75.9113 104.715C76.0609 104.932 76.1978 105.205 76.0396 105.468C75.914 105.677 75.6804 105.773 75.4697 105.73C75.3812 105.712 75.2981 105.674 75.2201 105.626C75.2897 105.741 75.357 105.858 75.4213 105.978C75.4886 106.104 75.5532 106.232 75.6142 106.363C75.6654 106.473 75.7278 106.588 75.7361 106.716C75.7431 106.826 75.6993 106.929 75.6072 106.965C75.5055 107.005 75.3828 106.959 75.2819 106.933C74.9459 106.844 74.6227 106.696 74.3233 106.497C74.3534 106.675 74.3295 106.873 74.2565 107.027C74.0426 107.479 73.5209 107.488 73.1386 107.392C73.0385 107.573 72.9109 107.728 72.7624 107.856C72.6801 107.926 72.5924 107.987 72.5006 108.037C71.9738 108.329 71.3173 108.296 70.8391 107.895C70.5889 108.102 70.2827 108.054 69.9937 107.973C69.7029 107.89 69.3959 107.761 69.0935 107.834C68.773 107.912 68.5058 108.156 68.2098 108.307C67.9359 108.446 67.6445 108.485 67.3569 108.377C67.1123 108.284 66.8955 108.101 66.7496 107.854C66.5513 108.164 66.2134 108.34 65.883 108.281C65.5894 108.228 65.3346 107.992 65.206 107.681C65.0876 107.88 64.8425 107.971 64.6437 107.883C64.6197 107.873 64.5971 107.86 64.5756 107.845C64.3552 107.699 64.2737 107.37 64.3071 107.08C64.1852 107.162 64.0897 107.296 63.967 107.379C63.8394 107.465 63.6659 107.514 63.5305 107.422C63.361 107.307 63.3554 107.019 63.3449 106.816C63.3347 106.608 63.3476 106.399 63.3796 106.194C63.237 106.293 63.139 106.481 62.9954 106.581C62.8385 106.691 62.6257 106.712 62.5092 106.517C62.3946 106.325 62.4435 106.058 62.475 105.845C62.5094 105.613 62.5557 105.383 62.6125 105.157C62.3867 105.325 62.161 105.492 61.9353 105.66C61.7725 105.781 61.5696 105.919 61.3689 105.865C61.1485 105.806 61.1063 105.534 61.1469 105.31C61.2007 105.009 61.3016 104.709 61.3952 104.421C61.4649 104.206 61.5408 103.994 61.6221 103.784C61.3697 103.945 61.1178 104.106 60.8652 104.268C60.6978 104.374 60.3507 104.678 60.1933 104.394C60.0642 104.161 60.2714 103.877 60.386 103.703C60.7005 103.225 61.0317 102.763 61.3767 102.317C61.1994 102.382 61.0196 102.438 60.8375 102.482C60.682 102.52 60.4323 102.574 60.347 102.361C60.298 102.239 60.3529 102.115 60.4032 102.009C60.4605 101.887 60.5229 101.768 60.5902 101.654C60.7237 101.428 60.8746 101.215 61.0417 101.023C61.1897 100.852 61.3511 100.695 61.5214 100.555C61.6966 100.412 61.9237 100.31 62.0249 100.076C62.1128 99.8731 62.1494 99.6324 62.2119 99.4175C62.2724 99.2083 62.3397 99.0024 62.4126 98.7988C62.7096 97.9722 63.1062 97.1984 63.5833 96.4975C64.3945 95.3044 65.4409 94.3353 66.6207 93.698C66.6221 93.6929 66.6234 93.6884 66.6253 93.6837C67.041 92.6627 67.7691 91.8303 68.6492 91.37C68.7195 91.3335 68.7889 91.4269 68.7332 91.4984C68.3643 91.9641 68.0613 92.4984 67.8383 93.0779C68.2846 92.6977 68.7601 92.3673 69.2581 92.0895C69.3232 92.0536 69.3822 92.1261 69.3534 92.2009C69.2304 92.5164 69.0714 92.8097 68.8822 93.0746C69.0334 92.9935 69.1866 92.9171 69.3423 92.8486C69.4672 92.7935 69.5936 92.7423 69.7209 92.695C69.8312 92.6549 69.944 92.6073 70.0583 92.5897C70.1474 92.575 70.2467 92.5837 70.3131 92.6624C70.3828 92.745 70.386 92.8654 70.3532 92.9692C70.3131 93.0964 70.2313 93.203 70.1608 93.3083C70.1043 93.3921 70.0462 93.4753 69.987 93.5565C70.6242 93.7788 71.2436 94.0788 71.8161 94.4735C72.534 94.9689 73.1797 95.6223 73.645 96.4379C73.8944 96.8752 74.0706 97.355 74.2434 97.8387C74.4215 98.3361 74.6052 98.8458 74.9004 99.2652C75.1568 99.6294 75.5704 99.9491 75.6342 100.45C75.6707 100.739 75.5806 101.081 75.3691 101.23C75.752 101.42 76.1553 101.713 76.1435 102.256C76.1378 102.494 76.0264 102.697 75.8392 102.79C75.8128 102.802 75.7856 102.812 75.7579 102.82C75.8725 102.922 75.9823 103.032 76.0862 103.149C76.1795 103.253 76.2686 103.364 76.352 103.48C76.4295 103.587 76.5135 103.71 76.5178 103.857C76.5266 104.141 76.2667 104.255 76.0706 104.296C75.9037 104.33 75.7348 104.333 75.5685 104.306Z" fill="#CEA897"/>
<path d="M67.5879 106.621L66.414 105.281C65.6987 104.465 66.3839 103.304 67.5812 103.304H69.6172C70.8142 103.304 71.4994 104.465 70.7841 105.281L69.6122 106.621C69.4949 106.755 69.3423 106.864 69.1665 106.939C68.9908 107.015 68.7968 107.054 68.6001 107.054C68.4033 107.054 68.2093 107.015 68.0336 106.939C67.8578 106.864 67.7052 106.755 67.5879 106.621Z" fill="#0E0F2D"/>
<path d="M72.726 100.169C72.6575 99.986 72.542 99.8297 72.3942 99.7202C72.2464 99.6106 72.073 99.5527 71.8958 99.5537C71.7187 99.5547 71.5457 99.6147 71.399 99.7259C71.2522 99.8372 71.1382 99.9948 71.0713 100.179M66.0655 100.072C65.9857 99.9103 65.8676 99.7764 65.7243 99.6851C65.581 99.5939 65.418 99.5488 65.2533 99.5547C65.0886 99.5607 64.9285 99.6176 64.7908 99.7191C64.653 99.8205 64.5429 99.9627 64.4727 100.13" stroke="#0E0F2D" stroke-width="0.2" stroke-miterlimit="10" stroke-linecap="round"/>
<path opacity="0.2" d="M76.07 104.294C76.2661 104.253 76.5261 104.139 76.5172 103.856C76.5129 103.708 76.4289 103.585 76.3514 103.478C76.2678 103.362 76.1787 103.252 76.0856 103.147C76.007 103.058 75.9244 102.976 75.84 102.896C75.6505 103.047 75.4842 103.187 75.4041 103.484C75.3252 103.775 75.2488 104.056 75.1027 104.313C74.9558 104.572 74.7863 104.737 74.5363 104.836C74.3717 104.901 74.2379 104.959 74.123 105.12C74.0493 105.225 73.9907 105.342 73.9325 105.459C73.8263 105.673 73.7259 105.893 73.5747 106.069C73.3842 106.29 73.1407 106.399 72.8875 106.484C72.5748 106.59 72.2974 106.697 72.0044 106.865C71.8384 106.96 71.6643 107.002 71.48 106.986C71.2193 106.963 70.9718 106.86 70.7086 106.852C70.4239 106.843 70.1422 106.896 69.8654 106.968C68.8752 107.227 67.842 107.689 66.8333 107.238C66.6248 107.145 66.4386 107.008 66.283 106.819C66.1356 106.641 65.9978 106.383 65.7842 106.309C65.3558 106.161 64.9571 106.692 64.5099 106.493C64.1515 106.335 64.0474 105.841 63.9685 105.449C63.8563 104.893 63.6615 104.477 63.223 104.195C62.8398 103.948 62.4002 103.809 62.1303 103.375C61.8709 102.958 61.8047 102.376 61.8093 101.873C61.8195 100.744 62.1763 99.6377 62.5761 98.6263C63.1471 97.1804 64.0011 95.99 64.952 94.8984C64.4461 95.3666 63.9855 95.9038 63.5832 96.4955C63.1062 97.1965 62.7096 97.9699 62.4125 98.7969C62.3396 99.0005 62.2724 99.2064 62.2118 99.4156C62.1494 99.6308 62.1131 99.8712 62.0248 100.074C61.9237 100.308 61.6966 100.41 61.5214 100.554C61.3511 100.693 61.1899 100.85 61.0417 101.021C60.8743 101.214 60.7234 101.426 60.5902 101.652C60.5229 101.766 60.4605 101.885 60.4032 102.007C60.3529 102.114 60.298 102.238 60.3469 102.359C60.4325 102.572 60.6822 102.518 60.8374 102.48C61.0196 102.435 61.1991 102.38 61.3766 102.315C61.0317 102.762 60.7005 103.223 60.3859 103.701C60.2716 103.875 60.0641 104.159 60.1933 104.392C60.351 104.677 60.6981 104.372 60.8652 104.266C61.1175 104.104 61.3696 103.944 61.622 103.783C61.5408 103.992 61.4649 104.205 61.3952 104.419C61.3016 104.707 61.2007 105.007 61.1469 105.308C61.1062 105.533 61.1485 105.804 61.3688 105.863C61.5693 105.917 61.7724 105.779 61.9352 105.658C62.161 105.49 62.3867 105.323 62.6125 105.155C62.5557 105.381 62.5094 105.611 62.475 105.844C62.4435 106.056 62.3945 106.323 62.5091 106.516C62.6254 106.71 62.8385 106.689 62.9953 106.579C63.139 106.479 63.237 106.291 63.3796 106.193C63.3478 106.397 63.3346 106.607 63.3449 106.815C63.3551 107.017 63.361 107.305 63.5305 107.42C63.6658 107.513 63.8394 107.463 63.9669 107.377C64.0896 107.294 64.1851 107.16 64.307 107.078C64.2739 107.368 64.3552 107.697 64.5755 107.844C64.5968 107.858 64.6194 107.871 64.6436 107.881C64.8427 107.969 65.0879 107.878 65.206 107.68C65.3343 107.99 65.5894 108.226 65.8829 108.279C66.2136 108.338 66.5516 108.162 66.7496 107.852C66.8957 108.099 67.1126 108.282 67.3569 108.375C67.6445 108.484 67.9359 108.445 68.2098 108.305C68.5058 108.154 68.773 107.91 69.0934 107.832C69.3958 107.759 69.7029 107.888 69.9937 107.971C70.2827 108.052 70.5889 108.1 70.8391 107.893C71.3172 108.294 71.9738 108.327 72.5006 108.035C72.5923 107.985 72.6803 107.924 72.7624 107.854C72.9109 107.727 73.0384 107.571 73.1385 107.39C73.5209 107.486 74.0426 107.477 74.2565 107.026C74.3294 106.871 74.3534 106.673 74.3232 106.495C74.6224 106.694 74.9458 106.842 75.2819 106.931C75.3825 106.957 75.5052 107.003 75.6072 106.963C75.6992 106.927 75.7431 106.824 75.7361 106.714C75.7277 106.586 75.6653 106.471 75.6142 106.361C75.5531 106.231 75.4888 106.102 75.4213 105.976C75.357 105.856 75.2897 105.739 75.22 105.624C75.298 105.672 75.3812 105.71 75.4697 105.728C75.6801 105.771 75.9139 105.675 76.0396 105.466C76.1978 105.203 76.0608 104.93 75.9112 104.713C75.8087 104.563 75.6933 104.427 75.5685 104.304C75.7342 104.331 75.9032 104.328 76.07 104.294Z" fill="#885F6E"/>
<path d="M69.9784 104.388C71.6929 103.653 73.5129 103.376 75.3231 103.208C75.8373 103.161 76.352 103.122 76.8668 103.083C76.912 103.08 76.9125 102.996 76.8668 103C75.053 103.136 73.2255 103.275 71.4535 103.779C70.9476 103.923 70.4485 104.098 69.9596 104.307C69.9171 104.325 69.9357 104.406 69.9784 104.388ZM70.2653 104.608C72.1057 104.259 73.9786 104.158 75.8384 104.309C76.3574 104.351 76.8754 104.414 77.3912 104.494C77.4364 104.502 77.4358 104.418 77.3912 104.411C75.54 104.121 73.6625 104.079 71.8035 104.291C71.2823 104.35 70.7633 104.429 70.2464 104.527C70.2015 104.536 70.2206 104.616 70.2653 104.608ZM70.1977 104.8C72.0432 105.224 73.8853 105.67 75.7227 106.139C75.7671 106.151 75.7862 106.071 75.7415 106.059C73.9038 105.59 72.0621 105.144 70.2166 104.719C70.1719 104.709 70.1528 104.789 70.1977 104.8Z" fill="#9B7E71"/>
<path d="M67.5487 104.38C65.8356 103.645 64.0162 103.367 62.2072 103.199C61.6858 103.151 61.1635 103.111 60.6416 103.072C60.5961 103.069 60.5961 103.152 60.6416 103.155C62.4564 103.292 64.2847 103.431 66.0576 103.938C66.5561 104.081 67.048 104.253 67.5301 104.46C67.5729 104.478 67.5915 104.398 67.5487 104.38ZM67.2622 104.6C65.4304 104.252 63.5674 104.148 61.7159 104.295C61.1816 104.337 60.6485 104.4 60.1177 104.484C60.073 104.491 60.0725 104.574 60.1177 104.567C61.9535 104.279 63.8154 104.235 65.6593 104.441C66.1894 104.5 66.7176 104.58 67.2433 104.68C67.2877 104.688 67.3071 104.608 67.2622 104.6ZM67.292 104.792C65.4465 105.216 63.6045 105.662 61.7671 106.131C61.7224 106.143 61.7412 106.223 61.7859 106.212C63.6236 105.743 65.4654 105.296 67.3109 104.872C67.3555 104.862 67.3367 104.782 67.292 104.792Z" fill="#9B7E71"/>
<path d="M69.4818 104.796C69.4818 104.796 73.2692 106.695 73.4919 106.695C73.7147 106.695 72.1273 104.451 72.4337 103.726C72.7402 103.001 72.9073 102.587 72.9073 102.587C72.9073 102.587 74.7452 104.969 75.3022 105.452C75.8592 105.936 76.7503 107.42 76.7223 108.249C76.6946 109.077 76.8337 110.079 77.1402 110.424C77.4467 110.769 78.7242 111.218 78.7242 111.218L76.531 114.118C76.531 114.118 74.4463 112.07 73.6343 111.863C72.8222 111.655 69.573 110.973 68.5907 109.906C67.6083 108.839 67.2548 108.305 67.4767 108.145C67.6987 107.986 69.5655 108.87 69.5655 108.87C69.5655 108.87 68.006 107.869 67.5604 106.73C67.1148 105.591 67.5604 104.141 67.6998 104.071C67.8389 104.002 69.0405 104.576 69.4818 104.796Z" fill="#F9BBAF"/>
<path d="M75.3359 114.048L77.8982 110.522L86.7201 115.123C87.1054 115.324 87.5622 115.111 87.7038 114.664L90.3928 101.429C90.4461 101.167 93.0364 94.8758 94.9481 97.1027C96.8348 99.3005 96.7815 104.635 96.3782 105.923C96.1134 106.769 93.5258 114.842 91.7761 120.299C90.9643 122.83 88.2206 123.823 86.2244 122.308L75.3359 114.048Z" fill="#565371"/>
<path d="M58.1973 114.464C58.1973 114.464 60.8664 113.888 60.9697 113.773C61.0733 113.658 63.3076 110.919 63.8869 110.781C64.4662 110.643 67.4456 110.551 67.5077 110.574C67.5699 110.597 67.2618 111.482 66.4847 111.718C65.7077 111.955 65.3146 112.517 65.3146 112.517C65.3146 112.517 67.1768 113.083 67.963 112.967C68.7492 112.852 72.37 112.116 72.6802 112.369C72.9904 112.622 72.9904 112.645 73.0112 112.783C73.0319 112.921 72.349 114.003 72.1009 114.463C71.8526 114.924 71.0249 116.673 69.7216 117.34C68.4182 118.008 65.3426 118.87 64.5356 118.732C63.7287 118.594 62.7638 118.301 61.4043 118.606C60.0447 118.912 58.5075 119.389 58.5075 119.389L58.1973 114.464Z" fill="#F9BBAF"/>
<path d="M58.0505 113.289C57.4796 112.654 50.2366 114.574 46.8841 115.505C45.9795 115.757 45.0808 115.076 44.9589 114.048C44.462 109.855 43.4379 99.8308 44.2088 93.9443C44.2088 93.9443 41.3534 94.853 39.8639 99.4792C38.8654 102.58 39.121 115.172 39.7662 121.134C40.0611 123.858 42.3659 125.732 44.7881 125.218C49.9859 124.115 58.0656 122.292 59.3539 121.367C61.2782 119.986 58.7953 114.117 58.0505 113.289Z" fill="#C191E8"/>
<path d="M60.3475 75.0215L58.4307 84.3728L58.4199 75.5351L60.3475 75.0215Z" fill="#2B2419"/>
<path d="M57.4051 83.8928C57.4051 83.8928 58.7326 81.1637 60.2085 82.0425C61.6843 82.921 59.4352 87.4462 57.1621 86.1353L57.4051 83.8928Z" fill="#F9BBAF"/>
<path d="M58.7587 82.3155C58.1939 87.5283 55.9023 91.3681 52.9617 91.0146C50.0213 90.6612 47.5454 86.2481 48.1102 81.0354C48.6749 75.8226 51.5168 71.8834 54.4571 72.2369C56.4412 72.4754 58.3726 74.7646 58.979 77.7277C59.2715 79.156 58.9424 80.6202 58.7587 82.3155Z" fill="#F9BBAF"/>
<path d="M48.1566 84.409C46.4655 84.6589 45.5862 82.4826 45.674 80.9217C45.7192 80.1348 46.01 79.506 46.5656 79.4129C47.7382 79.2249 48.2788 80.694 48.4964 81.5751C48.5901 81.9448 48.1566 84.409 48.1566 84.409Z" fill="#F9BBAF"/>
<path d="M50.6531 74.0039C50.6531 74.0039 55.9426 79.3498 59.5723 76.3244C63.202 73.299 60.1091 70.9617 58.7622 70.983C58.7622 70.983 59.4588 69.1215 57.7335 68.6205C56.0083 68.1192 56.0565 70.4445 53.4231 70.0332C50.79 69.622 49.4431 69.6432 49.3274 72.5223C49.3274 72.5223 48.1473 71.2948 47.4507 73.1562C46.7541 75.0176 47.5731 81.6351 47.5731 81.6351L47.6121 82.6841L48.051 82.7527L48.7785 77.3038C48.7785 77.3038 50.3555 78.2454 50.6531 74.0039Z" fill="#2B2419"/>
</svg>
