<svg width="151" height="175" viewBox="0 0 151 175" fill="none" xmlns="http://www.w3.org/2000/svg">
<path d="M45.66 161.05V171.172H44.694C44.5447 171.172 44.4187 171.149 44.316 171.102C44.218 171.051 44.1223 170.967 44.029 170.85L38.744 164.102C38.772 164.41 38.786 164.695 38.786 164.956V171.172H37.127V161.05H38.114C38.1933 161.05 38.261 161.055 38.317 161.064C38.3777 161.069 38.429 161.083 38.471 161.106C38.5177 161.125 38.562 161.155 38.604 161.197C38.646 161.234 38.6927 161.286 38.744 161.351L44.05 168.127C44.036 167.964 44.0243 167.803 44.015 167.644C44.0057 167.485 44.001 167.338 44.001 167.203V161.05H45.66ZM51.2574 168.106C50.758 168.129 50.338 168.174 49.9974 168.239C49.6567 168.3 49.3837 168.379 49.1784 168.477C48.973 168.575 48.826 168.689 48.7374 168.82C48.6487 168.951 48.6044 169.093 48.6044 169.247C48.6044 169.55 48.693 169.767 48.8704 169.898C49.0524 170.029 49.288 170.094 49.5774 170.094C49.932 170.094 50.2377 170.031 50.4944 169.905C50.7557 169.774 51.01 169.578 51.2574 169.317V168.106ZM47.2954 164.991C48.1214 164.235 49.1154 163.857 50.2774 163.857C50.6974 163.857 51.073 163.927 51.4044 164.067C51.7357 164.202 52.0157 164.394 52.2444 164.641C52.473 164.884 52.6457 165.175 52.7624 165.516C52.8837 165.857 52.9444 166.23 52.9444 166.636V171.172H52.1604C51.997 171.172 51.871 171.149 51.7824 171.102C51.6937 171.051 51.6237 170.95 51.5724 170.801L51.4184 170.283C51.2364 170.446 51.059 170.591 50.8864 170.717C50.7137 170.838 50.534 170.941 50.3474 171.025C50.1607 171.109 49.96 171.172 49.7454 171.214C49.5354 171.261 49.302 171.284 49.0454 171.284C48.742 171.284 48.462 171.244 48.2054 171.165C47.9487 171.081 47.727 170.957 47.5404 170.794C47.3537 170.631 47.209 170.428 47.1064 170.185C47.0037 169.942 46.9524 169.66 46.9524 169.338C46.9524 169.156 46.9827 168.976 47.0434 168.799C47.104 168.617 47.202 168.444 47.3374 168.281C47.4774 168.118 47.657 167.964 47.8764 167.819C48.0957 167.674 48.364 167.548 48.6814 167.441C49.0034 167.334 49.3767 167.247 49.8014 167.182C50.226 167.112 50.7114 167.07 51.2574 167.056V166.636C51.2574 166.155 51.1547 165.801 50.9494 165.572C50.744 165.339 50.4477 165.222 50.0604 165.222C49.7804 165.222 49.547 165.255 49.3604 165.32C49.1784 165.385 49.0174 165.46 48.8774 165.544C48.7374 165.623 48.609 165.696 48.4924 165.761C48.3804 165.826 48.2544 165.859 48.1144 165.859C47.993 165.859 47.8904 165.829 47.8064 165.768C47.7224 165.703 47.6547 165.628 47.6034 165.544L47.2954 164.991ZM56.3648 163.99V171.172H54.6288V163.99H56.3648ZM56.6028 161.897C56.6028 162.046 56.5724 162.186 56.5118 162.317C56.4511 162.448 56.3694 162.562 56.2668 162.66C56.1688 162.758 56.0521 162.837 55.9168 162.898C55.7814 162.954 55.6368 162.982 55.4828 162.982C55.3334 162.982 55.1911 162.954 55.0558 162.898C54.9251 162.837 54.8108 162.758 54.7128 162.66C54.6148 162.562 54.5354 162.448 54.4748 162.317C54.4188 162.186 54.3908 162.046 54.3908 161.897C54.3908 161.743 54.4188 161.598 54.4748 161.463C54.5354 161.328 54.6148 161.211 54.7128 161.113C54.8108 161.015 54.9251 160.938 55.0558 160.882C55.1911 160.821 55.3334 160.791 55.4828 160.791C55.6368 160.791 55.7814 160.821 55.9168 160.882C56.0521 160.938 56.1688 161.015 56.2668 161.113C56.3694 161.211 56.4511 161.328 56.5118 161.463C56.5724 161.598 56.6028 161.743 56.6028 161.897ZM59.8774 160.77V171.172H58.1484V160.77H59.8774ZM72.2284 168.785C72.3311 168.785 72.4221 168.825 72.5014 168.904L73.2434 169.709C72.8327 170.218 72.3264 170.607 71.7244 170.878C71.1271 171.149 70.4084 171.284 69.5684 171.284C68.8171 171.284 68.1404 171.156 67.5384 170.899C66.9411 170.642 66.4301 170.285 66.0054 169.828C65.5807 169.371 65.2541 168.825 65.0254 168.19C64.8014 167.555 64.6894 166.862 64.6894 166.111C64.6894 165.35 64.8107 164.655 65.0534 164.025C65.2961 163.39 65.6367 162.844 66.0754 162.387C66.5187 161.93 67.0461 161.575 67.6574 161.323C68.2687 161.066 68.9454 160.938 69.6874 160.938C70.4247 160.938 71.0781 161.059 71.6474 161.302C72.2214 161.545 72.7091 161.862 73.1104 162.254L72.4804 163.129C72.4431 163.185 72.3941 163.234 72.3334 163.276C72.2774 163.318 72.1981 163.339 72.0954 163.339C72.0254 163.339 71.9531 163.32 71.8784 163.283C71.8037 163.241 71.7221 163.192 71.6334 163.136C71.5447 163.075 71.4421 163.01 71.3254 162.94C71.2087 162.87 71.0734 162.807 70.9194 162.751C70.7654 162.69 70.5857 162.641 70.3804 162.604C70.1797 162.562 69.9464 162.541 69.6804 162.541C69.2277 162.541 68.8124 162.623 68.4344 162.786C68.0611 162.945 67.7391 163.178 67.4684 163.486C67.1977 163.789 66.9877 164.163 66.8384 164.606C66.6891 165.045 66.6144 165.546 66.6144 166.111C66.6144 166.68 66.6937 167.187 66.8524 167.63C67.0157 168.073 67.2351 168.447 67.5104 168.75C67.7857 169.053 68.1101 169.287 68.4834 169.45C68.8567 169.609 69.2581 169.688 69.6874 169.688C69.9441 169.688 70.1751 169.674 70.3804 169.646C70.5904 169.618 70.7817 169.574 70.9544 169.513C71.1317 169.452 71.2974 169.375 71.4514 169.282C71.6101 169.184 71.7664 169.065 71.9204 168.925C71.9671 168.883 72.0161 168.85 72.0674 168.827C72.1187 168.799 72.1724 168.785 72.2284 168.785ZM76.0103 160.77V171.172H74.2812V160.77H76.0103ZM79.5249 163.99V171.172H77.7889V163.99H79.5249ZM79.7629 161.897C79.7629 162.046 79.7326 162.186 79.6719 162.317C79.6112 162.448 79.5296 162.562 79.4269 162.66C79.3289 162.758 79.2122 162.837 79.0769 162.898C78.9416 162.954 78.7969 162.982 78.6429 162.982C78.4936 162.982 78.3512 162.954 78.2159 162.898C78.0852 162.837 77.9709 162.758 77.8729 162.66C77.7749 162.562 77.6956 162.448 77.6349 162.317C77.5789 162.186 77.5509 162.046 77.5509 161.897C77.5509 161.743 77.5789 161.598 77.6349 161.463C77.6956 161.328 77.7749 161.211 77.8729 161.113C77.9709 161.015 78.0852 160.938 78.2159 160.882C78.3512 160.821 78.4936 160.791 78.6429 160.791C78.7969 160.791 78.9416 160.821 79.0769 160.882C79.2122 160.938 79.3289 161.015 79.4269 161.113C79.5296 161.211 79.6112 161.328 79.6719 161.463C79.7326 161.598 79.7629 161.743 79.7629 161.897ZM83.0166 169.31C83.2126 169.548 83.4249 169.716 83.6536 169.814C83.8869 169.912 84.1389 169.961 84.4096 169.961C84.6709 169.961 84.9066 169.912 85.1166 169.814C85.3266 169.716 85.5039 169.567 85.6486 169.366C85.7979 169.165 85.9123 168.913 85.9916 168.61C86.0709 168.302 86.1106 167.94 86.1106 167.525C86.1106 167.105 86.0756 166.75 86.0056 166.461C85.9403 166.167 85.8446 165.929 85.7186 165.747C85.5926 165.565 85.4386 165.432 85.2566 165.348C85.0793 165.264 84.8763 165.222 84.6476 165.222C84.2883 165.222 83.9826 165.299 83.7306 165.453C83.4786 165.602 83.2406 165.815 83.0166 166.09V169.31ZM82.9256 164.97C83.2196 164.639 83.5533 164.37 83.9266 164.165C84.2999 163.96 84.7386 163.857 85.2426 163.857C85.6346 163.857 85.9916 163.939 86.3136 164.102C86.6403 164.265 86.9203 164.503 87.1536 164.816C87.3916 165.124 87.5736 165.507 87.6996 165.964C87.8303 166.417 87.8956 166.937 87.8956 167.525C87.8956 168.062 87.8233 168.559 87.6786 169.016C87.5339 169.473 87.3263 169.87 87.0556 170.206C86.7896 170.542 86.4653 170.806 86.0826 170.997C85.7046 171.184 85.2799 171.277 84.8086 171.277C84.4073 171.277 84.0643 171.216 83.7796 171.095C83.4949 170.969 83.2406 170.796 83.0166 170.577V173.517H81.2876V163.99H82.3446C82.5686 163.99 82.7156 164.095 82.7856 164.305L82.9256 164.97ZM90.9736 169.31C91.1696 169.548 91.382 169.716 91.6106 169.814C91.844 169.912 92.096 169.961 92.3666 169.961C92.628 169.961 92.8636 169.912 93.0736 169.814C93.2836 169.716 93.461 169.567 93.6056 169.366C93.755 169.165 93.8693 168.913 93.9486 168.61C94.028 168.302 94.0676 167.94 94.0676 167.525C94.0676 167.105 94.0326 166.75 93.9626 166.461C93.8973 166.167 93.8016 165.929 93.6756 165.747C93.5496 165.565 93.3956 165.432 93.2136 165.348C93.0363 165.264 92.8333 165.222 92.6046 165.222C92.2453 165.222 91.9396 165.299 91.6876 165.453C91.4356 165.602 91.1976 165.815 90.9736 166.09V169.31ZM90.8826 164.97C91.1766 164.639 91.5103 164.37 91.8836 164.165C92.257 163.96 92.6956 163.857 93.1996 163.857C93.5916 163.857 93.9486 163.939 94.2706 164.102C94.5973 164.265 94.8773 164.503 95.1106 164.816C95.3486 165.124 95.5306 165.507 95.6566 165.964C95.7873 166.417 95.8526 166.937 95.8526 167.525C95.8526 168.062 95.7803 168.559 95.6356 169.016C95.491 169.473 95.2833 169.87 95.0126 170.206C94.7466 170.542 94.4223 170.806 94.0396 170.997C93.6616 171.184 93.237 171.277 92.7656 171.277C92.3643 171.277 92.0213 171.216 91.7366 171.095C91.452 170.969 91.1976 170.796 90.9736 170.577V173.517H89.2446V163.99H90.3016C90.5256 163.99 90.6726 164.095 90.7426 164.305L90.8826 164.97ZM98.9937 163.99V171.172H97.2577V163.99H98.9937ZM99.2317 161.897C99.2317 162.046 99.2013 162.186 99.1407 162.317C99.08 162.448 98.9983 162.562 98.8957 162.66C98.7977 162.758 98.681 162.837 98.5457 162.898C98.4103 162.954 98.2657 162.982 98.1117 162.982C97.9623 162.982 97.82 162.954 97.6847 162.898C97.554 162.837 97.4397 162.758 97.3417 162.66C97.2437 162.562 97.1643 162.448 97.1037 162.317C97.0477 162.186 97.0197 162.046 97.0197 161.897C97.0197 161.743 97.0477 161.598 97.1037 161.463C97.1643 161.328 97.2437 161.211 97.3417 161.113C97.4397 161.015 97.554 160.938 97.6847 160.882C97.82 160.821 97.9623 160.791 98.1117 160.791C98.2657 160.791 98.4103 160.821 98.5457 160.882C98.681 160.938 98.7977 161.015 98.8957 161.113C98.9983 161.211 99.08 161.328 99.1407 161.463C99.2013 161.598 99.2317 161.743 99.2317 161.897ZM102.373 164.872C102.518 164.727 102.67 164.594 102.828 164.473C102.992 164.347 103.162 164.242 103.339 164.158C103.521 164.069 103.715 164.002 103.92 163.955C104.126 163.904 104.35 163.878 104.592 163.878C104.984 163.878 105.332 163.946 105.635 164.081C105.939 164.212 106.191 164.398 106.391 164.641C106.597 164.879 106.751 165.166 106.853 165.502C106.961 165.833 107.014 166.2 107.014 166.601V171.172H105.285V166.601C105.285 166.162 105.185 165.824 104.984 165.586C104.784 165.343 104.478 165.222 104.067 165.222C103.769 165.222 103.489 165.29 103.227 165.425C102.966 165.56 102.719 165.745 102.485 165.978V171.172H100.756V163.99H101.813C102.037 163.99 102.184 164.095 102.254 164.305L102.373 164.872ZM111.284 167.406C111.498 167.406 111.685 167.378 111.844 167.322C112.002 167.261 112.133 167.18 112.236 167.077C112.343 166.974 112.422 166.851 112.474 166.706C112.53 166.561 112.558 166.403 112.558 166.23C112.558 165.875 112.45 165.595 112.236 165.39C112.026 165.18 111.708 165.075 111.284 165.075C110.859 165.075 110.539 165.18 110.325 165.39C110.115 165.595 110.01 165.875 110.01 166.23C110.01 166.398 110.035 166.554 110.087 166.699C110.143 166.844 110.222 166.97 110.325 167.077C110.432 167.18 110.565 167.261 110.724 167.322C110.887 167.378 111.074 167.406 111.284 167.406ZM113.237 171.494C113.237 171.354 113.195 171.24 113.111 171.151C113.027 171.062 112.912 170.995 112.768 170.948C112.623 170.897 112.453 170.859 112.257 170.836C112.065 170.813 111.86 170.796 111.641 170.787C111.426 170.773 111.202 170.761 110.969 170.752C110.74 170.743 110.516 170.724 110.297 170.696C110.105 170.803 109.949 170.929 109.828 171.074C109.711 171.219 109.653 171.387 109.653 171.578C109.653 171.704 109.683 171.821 109.744 171.928C109.809 172.04 109.909 172.136 110.045 172.215C110.185 172.294 110.364 172.355 110.584 172.397C110.803 172.444 111.071 172.467 111.389 172.467C111.711 172.467 111.988 172.441 112.222 172.39C112.455 172.343 112.646 172.276 112.796 172.187C112.95 172.103 113.062 172 113.132 171.879C113.202 171.762 113.237 171.634 113.237 171.494ZM114.959 164.235V164.879C114.959 165.084 114.835 165.21 114.588 165.257L113.944 165.376C114.042 165.623 114.091 165.894 114.091 166.188C114.091 166.543 114.018 166.865 113.874 167.154C113.734 167.439 113.538 167.681 113.286 167.882C113.034 168.083 112.735 168.239 112.39 168.351C112.049 168.458 111.68 168.512 111.284 168.512C111.144 168.512 111.008 168.505 110.878 168.491C110.747 168.477 110.619 168.458 110.493 168.435C110.269 168.57 110.157 168.722 110.157 168.89C110.157 169.035 110.222 169.142 110.353 169.212C110.488 169.277 110.665 169.324 110.885 169.352C111.104 169.38 111.354 169.399 111.634 169.408C111.914 169.413 112.201 169.427 112.495 169.45C112.789 169.473 113.076 169.515 113.356 169.576C113.636 169.632 113.885 169.723 114.105 169.849C114.324 169.975 114.499 170.148 114.63 170.367C114.765 170.582 114.833 170.859 114.833 171.2C114.833 171.517 114.753 171.825 114.595 172.124C114.441 172.423 114.214 172.689 113.916 172.922C113.622 173.155 113.258 173.342 112.824 173.482C112.394 173.627 111.904 173.699 111.354 173.699C110.812 173.699 110.341 173.645 109.94 173.538C109.538 173.435 109.205 173.295 108.939 173.118C108.673 172.945 108.474 172.745 108.344 172.516C108.213 172.287 108.148 172.049 108.148 171.802C108.148 171.466 108.248 171.186 108.449 170.962C108.654 170.733 108.934 170.551 109.289 170.416C109.097 170.318 108.946 170.187 108.834 170.024C108.722 169.861 108.666 169.646 108.666 169.38C108.666 169.273 108.684 169.163 108.722 169.051C108.764 168.934 108.822 168.82 108.897 168.708C108.976 168.596 109.074 168.491 109.191 168.393C109.307 168.29 109.445 168.199 109.604 168.12C109.24 167.924 108.953 167.663 108.743 167.336C108.537 167.009 108.435 166.627 108.435 166.188C108.435 165.833 108.505 165.514 108.645 165.229C108.789 164.94 108.988 164.695 109.24 164.494C109.496 164.289 109.797 164.132 110.143 164.025C110.493 163.918 110.873 163.864 111.284 163.864C111.592 163.864 111.881 163.897 112.152 163.962C112.422 164.023 112.67 164.114 112.894 164.235H114.959Z" fill="black"/>
<rect x="0.5" y="0.078125" width="150" height="150" rx="75" fill="#BEC8FF"/>
<path d="M106.122 56.0257C107.862 60.1122 105.506 69.1989 105.506 69.1989L104.513 69.1452L92.4713 67.1019C92.4713 67.1019 85.4485 61.5101 84.8865 61.4025C84.3246 61.2949 84.4932 59.3593 84.4932 59.3593C84.4932 59.3593 85.5047 54.9505 85.1675 54.6816C84.8303 54.4127 82.6953 53.6602 82.6953 53.6602C83.0887 51.2943 83.2029 46.2402 83.2029 46.2402C83.8772 46.3477 91.2372 45.9713 92.2483 46.0251C93.2594 46.0788 96.5745 46.8852 96.5745 46.8852L106.122 56.0257Z" fill="white"/>
<path d="M98.0368 47.7459L96.5761 46.8855C94.7775 52.5312 86.182 63.0158 84.4965 59.3613C82.9797 68.3406 83.3168 67.8569 81.4066 72.3722C79.4964 76.8875 77.8109 102.696 77.9233 103.719C78.0357 104.741 107.644 103.235 107.644 103.235C106.183 91.2976 101.63 70.1864 101.63 70.1864L97.4734 67.3889C97.4734 67.3889 98.5973 66.154 98.933 64.0581C99.2687 61.9621 102.809 55.9934 102.809 55.9934L98.0368 47.7459Z" fill="#C191E8"/>
<path d="M85.5703 74.6931H97.1891V81.8057C97.1891 82.5252 96.8904 83.2152 96.3588 83.724C95.8272 84.2327 95.1062 84.5186 94.3544 84.5186H88.405C87.6532 84.5186 86.9322 84.2327 86.4006 83.724C85.869 83.2152 85.5703 82.5252 85.5703 81.8057V74.6931Z" fill="#A94DF4"/>
<path d="M96.6514 75.8122C96.6395 75.8122 96.6278 75.8099 96.6169 75.8056C96.6059 75.8012 96.596 75.7949 96.5877 75.7868C96.5793 75.7788 96.5727 75.7693 96.5682 75.7588C96.5637 75.7483 96.5614 75.7371 96.5615 75.7258V75.2088C96.5615 75.1858 96.571 75.1637 96.588 75.1475C96.605 75.1312 96.6281 75.1221 96.6521 75.1221C96.6761 75.1221 96.6992 75.1312 96.7162 75.1475C96.7332 75.1637 96.7427 75.1858 96.7427 75.2088V75.7258C96.7427 75.7372 96.7404 75.7485 96.7358 75.7591C96.7312 75.7696 96.7244 75.7792 96.7159 75.7872C96.7074 75.7953 96.6973 75.8016 96.6863 75.8059C96.6752 75.8102 96.6633 75.8123 96.6514 75.8122ZM93.9055 84.0867H93.0463C93.0222 84.0867 92.9992 84.0776 92.9822 84.0613C92.9652 84.045 92.9556 84.023 92.9556 84C92.9556 83.977 92.9652 83.9549 92.9822 83.9386C92.9992 83.9224 93.0222 83.9132 93.0463 83.9132H93.9055C93.986 83.9132 94.0672 83.9098 94.1462 83.9028C94.1692 83.9022 94.1915 83.91 94.2087 83.9246C94.2259 83.9392 94.2366 83.9595 94.2387 83.9814C94.2408 84.0033 94.234 84.0251 94.2199 84.0424C94.2057 84.0597 94.1852 84.0712 94.1625 84.0746C94.0766 84.0829 93.9903 84.0867 93.9055 84.0867ZM91.9401 84.0867H90.8329C90.8089 84.0867 90.7858 84.0776 90.7688 84.0613C90.7518 84.045 90.7423 84.023 90.7423 84C90.7423 83.977 90.7518 83.9549 90.7688 83.9386C90.7858 83.9224 90.8089 83.9132 90.8329 83.9132H91.9401C91.9642 83.9132 91.9872 83.9224 92.0042 83.9386C92.0212 83.9549 92.0308 83.977 92.0308 84C92.0308 84.023 92.0212 84.045 92.0042 84.0613C91.9872 84.0776 91.9642 84.0867 91.9401 84.0867ZM89.7257 84.0867H88.8618C88.7784 84.0867 88.6939 84.0832 88.6109 84.0763C88.599 84.0753 88.5874 84.0721 88.5768 84.0668C88.5662 84.0616 88.5568 84.0544 88.5491 84.0456C88.5336 84.028 88.526 84.0051 88.5281 83.9821C88.5301 83.9591 88.5417 83.9378 88.5601 83.923C88.5786 83.9081 88.6025 83.9008 88.6265 83.9028C88.7044 83.9094 88.7835 83.9125 88.8618 83.9125H89.7257C89.7498 83.9125 89.7728 83.9217 89.7898 83.9379C89.8068 83.9542 89.8164 83.9763 89.8164 83.9993C89.8164 84.0223 89.8068 84.0443 89.7898 84.0606C89.7728 84.0769 89.7498 84.086 89.7257 84.086V84.0867ZM87.5653 83.7745C87.5504 83.7745 87.5357 83.771 87.5226 83.7644C87.1858 83.5915 86.889 83.3555 86.6495 83.0705C86.6413 83.0618 86.6349 83.0515 86.6309 83.0404C86.6269 83.0292 86.6254 83.0174 86.6263 83.0057C86.6272 82.9939 86.6307 82.9825 86.6364 82.9721C86.6422 82.9617 86.6501 82.9525 86.6596 82.9451C86.6692 82.9377 86.6803 82.9322 86.6922 82.9291C86.704 82.9259 86.7164 82.9251 86.7286 82.9267C86.7408 82.9283 86.7525 82.9323 86.7631 82.9384C86.7736 82.9445 86.7827 82.9526 86.7899 82.9622C87.014 83.2297 87.2922 83.4512 87.6078 83.6135C87.6255 83.6225 87.6396 83.6369 87.6477 83.6545C87.6559 83.672 87.6577 83.6917 87.6528 83.7104C87.6479 83.729 87.6366 83.7455 87.6208 83.7573C87.6049 83.7692 87.5854 83.7755 87.5653 83.7755V83.7745ZM95.207 83.7717C95.1871 83.7715 95.1677 83.765 95.152 83.7532C95.1364 83.7414 95.1252 83.725 95.1203 83.7065C95.1154 83.6879 95.1171 83.6684 95.125 83.6509C95.133 83.6334 95.1468 83.6189 95.1642 83.6097C95.4796 83.447 95.7573 83.225 95.9807 82.957C95.9961 82.9406 96.0175 82.9304 96.0405 82.9286C96.0635 82.9267 96.0864 82.9334 96.1044 82.9472C96.1224 82.9611 96.1342 82.981 96.1374 83.0029C96.1405 83.0247 96.1348 83.047 96.1213 83.0649C95.8832 83.3508 95.5873 83.5878 95.2512 83.7616C95.2374 83.769 95.2218 83.7727 95.2059 83.7724L95.207 83.7717ZM86.216 82.166C86.1963 82.166 86.1772 82.1599 86.1616 82.1485C86.1459 82.1372 86.1346 82.1213 86.1293 82.1032C86.0596 81.8649 86.0243 81.6186 86.0245 81.3711V81.0293C86.0245 81.0063 86.0341 80.9843 86.0511 80.968C86.0681 80.9517 86.0911 80.9426 86.1152 80.9426C86.1392 80.9426 86.1623 80.9517 86.1793 80.968C86.1963 80.9843 86.2058 81.0063 86.2058 81.0293V81.3711C86.2056 81.6028 86.2387 81.8335 86.304 82.0567C86.3072 82.0676 86.3081 82.079 86.3067 82.0902C86.3053 82.1015 86.3016 82.1124 86.2957 82.1222C86.2899 82.1321 86.2821 82.1408 86.2728 82.1477C86.2634 82.1547 86.2527 82.1598 86.2413 82.1628C86.2328 82.1655 86.2238 82.1668 86.2149 82.1667L86.216 82.166ZM96.5528 82.1608C96.5446 82.1608 96.5364 82.1597 96.5285 82.1576C96.5055 82.1515 96.4859 82.1369 96.4742 82.117C96.4624 82.0971 96.4594 82.0735 96.4658 82.0515C96.5301 81.8299 96.5626 81.601 96.5626 81.3711V81.0241C96.5626 81.0011 96.5721 80.9791 96.5891 80.9628C96.6061 80.9465 96.6292 80.9374 96.6532 80.9374C96.6772 80.9374 96.7003 80.9465 96.7173 80.9628C96.7343 80.9791 96.7438 81.0011 96.7438 81.0241V81.3711C96.744 81.6166 96.7092 81.861 96.6405 82.0976C96.6353 82.1162 96.6237 82.1325 96.6077 82.1441C96.5917 82.1556 96.5721 82.1617 96.552 82.1615L96.5528 82.1608ZM86.1148 80.0558C86.103 80.0558 86.0912 80.0536 86.0803 80.0493C86.0693 80.045 86.0594 80.0387 86.051 80.0307C86.0426 80.0227 86.0359 80.0132 86.0314 80.0027C86.0269 79.9923 86.0245 79.9811 86.0245 79.9697V78.9098C86.0245 78.8868 86.0341 78.8647 86.0511 78.8485C86.0681 78.8322 86.0911 78.823 86.1152 78.823C86.1392 78.823 86.1623 78.8322 86.1793 78.8485C86.1963 78.8647 86.2058 78.8868 86.2058 78.9098V79.969C86.206 79.9806 86.2037 79.9921 86.1992 80.0029C86.1946 80.0136 86.1878 80.0234 86.1792 80.0315C86.1706 80.0397 86.1604 80.0461 86.1491 80.0504C86.1379 80.0547 86.1258 80.0568 86.1137 80.0565L86.1148 80.0558ZM96.6525 80.0502C96.6406 80.0502 96.6289 80.048 96.618 80.0436C96.607 80.0393 96.5971 80.0329 96.5888 80.0249C96.5804 80.0169 96.5738 80.0074 96.5693 79.9969C96.5648 79.9864 96.5625 79.9752 96.5626 79.9638V78.9042C96.5626 78.8812 96.5721 78.8592 96.5891 78.8429C96.6061 78.8266 96.6292 78.8175 96.6532 78.8175C96.6772 78.8175 96.7003 78.8266 96.7173 78.8429C96.7343 78.8592 96.7438 78.8812 96.7438 78.9042V79.9638C96.7439 79.9754 96.7416 79.9869 96.737 79.9976C96.7323 80.0083 96.7255 80.018 96.7169 80.0261C96.7083 80.0342 96.698 80.0406 96.6868 80.0449C96.6755 80.0492 96.6635 80.0512 96.6514 80.0509L96.6525 80.0502ZM86.1148 77.9362C86.103 77.9363 86.0912 77.9341 86.0803 77.9298C86.0693 77.9255 86.0594 77.9191 86.051 77.9111C86.0426 77.9032 86.0359 77.8937 86.0314 77.8832C86.0269 77.8727 86.0245 77.8615 86.0245 77.8502V76.7906C86.0245 76.7676 86.0341 76.7455 86.0511 76.7292C86.0681 76.713 86.0911 76.7038 86.1152 76.7038C86.1392 76.7038 86.1623 76.713 86.1793 76.7292C86.1963 76.7455 86.2058 76.7676 86.2058 76.7906V77.8526C86.2056 77.8639 86.203 77.8751 86.1982 77.8855C86.1935 77.8959 86.1866 77.9052 86.1781 77.9131C86.1695 77.9209 86.1594 77.9271 86.1484 77.9311C86.1373 77.9352 86.1255 77.9372 86.1137 77.9369L86.1148 77.9362ZM96.6525 77.9307C96.6286 77.9307 96.6057 77.9216 96.5889 77.9055C96.572 77.8893 96.5626 77.8675 96.5626 77.8446V76.785C96.5626 76.762 96.5721 76.74 96.5891 76.7237C96.6061 76.7074 96.6292 76.6983 96.6532 76.6983C96.6772 76.6983 96.7003 76.7074 96.7173 76.7237C96.7343 76.74 96.7438 76.762 96.7438 76.785V77.8446C96.7439 77.8562 96.7415 77.8676 96.7369 77.8783C96.7322 77.8889 96.7254 77.8986 96.7167 77.9067C96.7081 77.9148 96.6979 77.9211 96.6867 77.9254C96.6754 77.9296 96.6634 77.9316 96.6514 77.9314L96.6525 77.9307ZM86.1137 75.8122C86.1018 75.8122 86.0901 75.81 86.0791 75.8057C86.0681 75.8014 86.0582 75.795 86.0498 75.787C86.0414 75.7789 86.0347 75.7694 86.0302 75.7589C86.0257 75.7484 86.0234 75.7371 86.0234 75.7258V75.2088C86.0234 75.1858 86.033 75.1637 86.05 75.1475C86.067 75.1312 86.09 75.1221 86.1141 75.1221C86.1381 75.1221 86.1612 75.1312 86.1782 75.1475C86.1952 75.1637 86.2047 75.1858 86.2047 75.2088V75.7258C86.2048 75.7372 86.2024 75.7485 86.1979 75.759C86.1933 75.7696 86.1866 75.7792 86.1781 75.7872C86.1697 75.7953 86.1596 75.8016 86.1485 75.8059C86.1375 75.8102 86.1256 75.8123 86.1137 75.8122Z" fill="#00A3AB"/>
<path d="M75.6367 66.9233C75.6367 66.9233 76.1236 65.8477 76.2922 65.83C76.4608 65.8123 77.5281 66.1527 77.5281 66.1527C77.8279 66.1874 78.0719 66.4035 78.0719 66.4035C78.4091 66.4035 78.9522 66.798 78.9522 66.798C79.1392 67.2459 79.0084 67.5686 78.5777 67.3531C78.6339 68.2136 79.4764 68.7153 79.2516 68.7871C79.0269 68.8589 76.761 69.235 76.761 69.235L75.6367 66.9233Z" fill="#F07753"/>
<path d="M48.3171 101.79H110.211C111.076 101.79 111.906 102.119 112.518 102.704C113.13 103.29 113.474 104.084 113.474 104.912V105.411H45.0527V104.912C45.0527 104.084 45.3965 103.29 46.0084 102.704C46.6203 102.119 47.4502 101.79 48.3156 101.79H48.3171Z" fill="#5C5C5C"/>
<path d="M97.0168 48.928C98.3092 45.729 102.888 43.3361 105.22 45.9171C105.809 44.7343 106.09 45.9976 105.782 46.3203C107.439 45.7828 106.737 47.2345 106.737 47.2345C108.787 48.4981 108.197 52.0735 107.439 53.4984C106.68 54.9234 107.355 55.7026 106.259 56.6169C105.163 57.5311 103.395 57.2351 103.141 56.9125C101.287 56.7511 95.9219 52.154 95.9219 52.154L96.7365 49.3315L97.0168 48.928Z" fill="#2E0B06"/>
<path d="M70.5407 67.603C72.2639 71.8328 69.7167 85.3824 69.4919 90.8307C69.2671 96.2789 69.2954 98.8558 70.8696 99.5008C72.4437 100.146 72.4426 101.795 72.4426 101.795L66.7964 101.781L62.5264 100.437C62.5264 100.437 60.9533 91.9062 61.2528 90.1857C61.5522 88.4651 68.6678 68.1037 70.5407 67.603Z" fill="#473F3B"/>
<path d="M69.21 69.7367C70.5024 73.3388 69.5471 74.4681 69.5471 74.4681C70.5586 78.447 68.8732 82.4793 66.2324 86.1356C63.5916 89.7918 63.592 100.384 63.592 100.384L59.2658 100.115C59.2658 100.115 56.2879 99.2012 56.232 98.6634C56.1762 98.1257 55.4453 76.2962 55.4453 76.2962L57.1855 71.9409L61.1735 69.2L69.21 69.7367Z" fill="#FFDEBC"/>
<g style="mix-blend-mode:multiply">
<path d="M60.9531 71.7788C61.5241 73.3127 63.3706 74.5197 63.4608 74.3903C64.6768 76.7607 66.7031 74.1315 66.8383 74.0884C69.1799 74.9503 70.7113 68.0979 70.7113 68.0979L60.9531 71.7788Z" fill="#E6D9D1"/>
</g>
<path d="M58.4248 46.6514C60.4663 46.4182 62.9385 46.3467 63.3503 46.1656C64.3615 45.9148 66.4218 46.7392 67.7327 48.1013C69.0437 49.4634 70.392 49.8576 70.0548 50.4672C69.7177 51.0768 68.8947 51.4709 68.8947 51.4709C69.3443 52.9403 69.3443 54.8402 68.9697 56.1666C68.5952 57.4931 69.1195 61.364 69.7188 60.9338C70.318 60.5036 74.1385 58.7827 75.4107 58.6397C76.6828 58.4968 78.6504 60.1094 79.0437 60.8086C79.4371 61.5077 77.7516 64.1421 76.9649 63.1203C76.0662 63.3892 75.2794 62.6367 75.2794 62.6367C74.6055 63.3354 74.3245 62.2064 73.9311 63.3354C73.5378 64.4644 72.2457 64.7871 71.6834 66.4001C71.1211 68.0131 66.908 73.6588 66.2336 72.3677C64.9977 73.4433 63.1999 71.882 63.1999 71.882C61.9636 72.5273 61.2335 72.1509 60.9521 71.7745C59.3229 72.2602 57.9184 74.7319 58.4237 75.6458C58.9291 76.5597 56.7383 78.4419 58.7047 79.1945C60.6711 79.947 63.3681 85.109 61.4579 84.8939C63.2557 88.7652 61.1769 92.9589 60.2216 95.6474C59.2663 98.336 58.6485 99.9497 60.7292 99.7339C62.8098 99.5181 66.8532 99.3037 66.797 101.777H50.1096C48.2559 104.631 41.6823 105.436 40.4464 111.029C39.2104 116.622 36.3449 120.654 34.8269 120.008C33.309 119.363 31.4553 114.847 31.4553 112.75C31.2305 114.901 30.5 112.051 30.5 109.685C30.5 107.319 32.0752 101.996 38.2544 100.544C44.4336 99.0913 48.0866 99.0382 48.0866 99.0382C47.2437 97.9093 45.0713 88.3923 46.5697 83.8763C48.0681 79.3603 49.8656 78.2844 50.8394 74.7715C51.8131 71.2585 53.7611 63.8746 55.7837 62.3692C57.8063 60.8637 57.9561 59.7701 57.9561 59.7701L58.4803 55.8454L54.5859 53.6231L54.2114 51.9026L54.8853 50.0387L58.4248 46.6514Z" fill="#615650"/>
<path d="M55.6423 50.4864C55.0985 51.9315 55.6666 53.1926 57.0047 53.245C58.3429 53.2974 60.0345 51.8829 58.0989 51.4211C56.1633 50.9593 56.2285 49.8095 55.6423 50.4864Z" fill="#FFDEBC"/>
<path d="M58.4299 46.6526C54.31 47.53 54.4035 49.6996 54.1976 50.9C53.9917 52.1005 51.9136 53.0688 51.22 53.0858C50.5265 53.1028 48.9723 53.1205 48.8414 53.8564C48.7105 54.5923 49.2159 55.5794 49.6093 55.6488C50.4145 56.9933 52.2874 58.3374 54.1048 58.3551C55.9222 58.3728 57.8876 58.3013 57.9626 59.7706C58.0377 61.24 63.8804 65.5239 65.2291 65.4524C66.5777 65.3809 68.6007 62.5848 68.6007 62.3697C68.451 61.7243 67.7766 60.5773 64.1809 59.932C60.5852 59.2866 58.9371 58.6416 59.9109 56.8493C60.8847 55.0569 58.0007 53.8384 56.4649 53.3006C54.9292 52.7628 53.656 51.1148 56.3903 49.4296C59.1246 47.7445 58.4299 46.6526 58.4299 46.6526Z" fill="#FFDEBC"/>
<path d="M56.7962 51.7426C56.7962 52.109 56.6788 52.406 56.5341 52.406C56.3895 52.406 56.2734 52.11 56.2734 51.7426C56.2734 51.3752 56.3909 51.0796 56.5356 51.0796C56.6802 51.0796 56.7962 51.3766 56.7962 51.7426ZM56.6233 52.8272C56.5434 52.8246 56.4661 52.7997 56.4007 52.7557C56.3886 52.7478 56.3803 52.7358 56.3773 52.7221C56.3744 52.7084 56.3772 52.6941 56.3851 52.6824C56.3929 52.6706 56.4053 52.6622 56.4195 52.659C56.4337 52.6558 56.4487 52.658 56.4612 52.6652C56.5566 52.7238 56.6392 52.7346 56.707 52.6999C56.8397 52.6287 56.9246 52.3782 56.918 52.0754C56.9179 52.0683 56.9192 52.0613 56.9219 52.0547C56.9246 52.0481 56.9286 52.0421 56.9337 52.037C56.9388 52.0319 56.945 52.0279 56.9517 52.025C56.9585 52.0222 56.9658 52.0207 56.9731 52.0205C56.9879 52.0208 57.002 52.0263 57.0126 52.0361C57.0232 52.0459 57.0296 52.0592 57.0304 52.0733C57.0362 52.3484 56.9688 52.6818 56.7621 52.7925C56.7198 52.8153 56.6719 52.8273 56.6233 52.8272Z" fill="#2E0B06"/>
<path d="M52.6009 55.0576C52.6836 55.0576 52.7506 54.9934 52.7506 54.9143C52.7506 54.8352 52.6836 54.771 52.6009 54.771C52.5182 54.771 52.4512 54.8352 52.4512 54.9143C52.4512 54.9934 52.5182 55.0576 52.6009 55.0576Z" fill="#2E0B06"/>
<path d="M51.2947 55.1479C51.2947 55.1763 51.2859 55.204 51.2695 55.2275C51.253 55.2511 51.2297 55.2695 51.2023 55.2803C51.1749 55.2912 51.1448 55.294 51.1158 55.2885C51.0867 55.2829 51.0601 55.2693 51.0391 55.2492C51.0182 55.2292 51.0039 55.2037 50.9981 55.1759C50.9924 55.1481 50.9953 55.1193 51.0067 55.0931C51.018 55.0669 51.0372 55.0445 51.0618 55.0288C51.0864 55.013 51.1154 55.0046 51.145 55.0046C51.1847 55.0046 51.2228 55.0197 51.2509 55.0466C51.279 55.0735 51.2947 55.1099 51.2947 55.1479ZM52.25 55.6677C52.2501 55.6961 52.2414 55.7239 52.2249 55.7476C52.2085 55.7712 52.185 55.7897 52.1576 55.8006C52.1302 55.8115 52.1 55.8144 52.0709 55.8089C52.0417 55.8034 52.015 55.7898 51.9939 55.7697C51.9729 55.7496 51.9586 55.724 51.9528 55.6962C51.9469 55.6683 51.9499 55.6394 51.9612 55.6131C51.9726 55.5869 51.9918 55.5644 52.0165 55.5486C52.0412 55.5328 52.0702 55.5244 52.0999 55.5244C52.1196 55.5243 52.1391 55.528 52.1573 55.5352C52.1756 55.5424 52.1921 55.5529 52.206 55.5662C52.22 55.5795 52.231 55.5953 52.2386 55.6127C52.2461 55.6302 52.25 55.6488 52.25 55.6677ZM52.7181 56.4563C52.7181 56.4846 52.7093 56.5123 52.6928 56.5359C52.6764 56.5595 52.653 56.5778 52.6256 56.5887C52.5983 56.5995 52.5682 56.6024 52.5391 56.5968C52.5101 56.5913 52.4834 56.5777 52.4625 56.5576C52.4415 56.5376 52.4273 56.512 52.4215 56.4842C52.4157 56.4565 52.4187 56.4276 52.43 56.4015C52.4413 56.3753 52.4605 56.3529 52.4852 56.3371C52.5098 56.3214 52.5387 56.313 52.5683 56.313C52.6081 56.313 52.6461 56.3281 52.6742 56.355C52.7023 56.3818 52.7181 56.4183 52.7181 56.4563ZM53.9917 55.9008C53.9917 55.9292 53.9829 55.957 53.9664 55.9806C53.9499 56.0042 53.9265 56.0226 53.899 56.0335C53.8716 56.0444 53.8414 56.0472 53.8123 56.0417C53.7832 56.0362 53.7564 56.0225 53.7355 56.0024C53.7145 55.9823 53.7002 55.9567 53.6944 55.9288C53.6886 55.901 53.6916 55.8721 53.7029 55.8458C53.7143 55.8196 53.7335 55.7972 53.7582 55.7814C53.7829 55.7656 53.8119 55.7572 53.8416 55.7572C53.8613 55.7571 53.8809 55.7608 53.8991 55.768C53.9173 55.7752 53.9339 55.7858 53.9478 55.7991C53.9618 55.8125 53.9728 55.8283 53.9804 55.8458C53.9879 55.8632 53.9917 55.8819 53.9917 55.9008ZM49.7217 54.4939C49.4407 54.3864 49.862 53.7948 50.1991 54.3055C51.4202 54.2823 51.898 53.3451 52.039 52.8708C51.7062 53.0048 51.4104 53.0818 51.22 53.087C50.5269 53.1047 48.9723 53.1217 48.8414 53.8576C48.7105 54.5935 49.2159 55.5795 49.6093 55.6489C49.8902 55.2735 50.0026 54.6015 49.7217 54.4939Z" fill="#2E0B06"/>
<path d="M63.7981 48.8938C64.9582 50.5425 65.3712 50.3992 65.4085 49.9152C66.5886 51.9408 68.3302 51.2597 68.2726 50.7757C69.3965 51.0984 70.0516 50.4711 70.0516 50.4711C69.023 51.9585 66.0455 52.9802 63.7981 48.8938ZM38.5532 108.468C38.5532 108.468 37.6541 112.483 35.8562 110.332C34.9575 114.849 32.4846 114.704 32.1855 108.683C32.1855 108.683 30.9579 109.269 30.8462 107.452C30.5997 108.312 30.5 109.093 30.5 109.687C30.5 112.053 31.2305 114.903 31.4553 112.752C31.4553 114.849 33.3093 119.365 34.8269 120.01C36.3445 120.655 39.2094 116.623 40.4464 111.031C40.6366 110.15 40.9929 109.309 41.4977 108.549C40.6816 109.199 38.9505 110.315 38.5532 108.468Z" fill="#FFDEBC"/>
<path d="M59.2666 92.2659C59.2457 92.2657 59.2252 92.26 59.2075 92.2492C59.1898 92.2385 59.1756 92.2233 59.1665 92.2052C59.1574 92.1872 59.1537 92.1671 59.1559 92.1472C59.1581 92.1272 59.166 92.1083 59.1789 92.0924C60.2868 90.7671 60.7081 87.7125 59.0143 84.1388C59.0058 84.1208 59.0026 84.1008 59.0052 84.0811C59.0078 84.0615 59.0161 84.0429 59.029 84.0274C59.0419 84.012 59.0591 84.0002 59.0786 83.9935C59.098 83.9868 59.1191 83.9853 59.1394 83.9893C59.172 83.9955 59.9369 84.1333 60.1316 83.3873C60.2629 82.8842 59.7452 81.8954 58.8718 80.9798C58.2877 80.3678 56.1792 78.4009 53.5906 78.7881C53.5661 78.7918 53.541 78.7876 53.5192 78.7762C53.4974 78.7648 53.4802 78.7468 53.4702 78.7251C53.4603 78.7033 53.4581 78.679 53.4641 78.6559C53.47 78.6329 53.4838 78.6124 53.5033 78.5976C53.7571 78.4061 53.8901 78.21 53.8629 78.0727C53.8441 77.9762 53.7429 77.9273 53.6617 77.9033C53.186 77.7625 51.9425 78.0647 50.4692 79.475C50.448 79.4952 50.4194 79.5065 50.3896 79.5065C50.3598 79.5064 50.3312 79.4951 50.3102 79.4749C50.2891 79.4547 50.2773 79.4273 50.2773 79.3988C50.2774 79.3702 50.2893 79.3429 50.3104 79.3227C51.7558 77.9394 53.0954 77.5102 53.728 77.6976C53.9267 77.7566 54.0543 77.8756 54.0841 78.0331C54.1138 78.1906 54.0478 78.362 53.8937 78.5372C56.4333 78.3408 58.4596 80.2293 59.0378 80.8348C59.9736 81.8146 60.5003 82.8613 60.3495 83.4397C60.1875 84.0601 59.6828 84.2204 59.3141 84.2204H59.2981C60.9376 87.8037 60.4858 90.8736 59.3543 92.2271C59.3437 92.2394 59.3303 92.2493 59.3151 92.2561C59.2999 92.2628 59.2833 92.2662 59.2666 92.2659Z" fill="#473F3A"/>
<path d="M75.7567 62.5064C75.7381 62.5064 75.7198 62.5019 75.7034 62.4935C75.6871 62.485 75.6732 62.4728 75.6629 62.4579C75.6527 62.443 75.6466 62.4259 75.645 62.4081C75.6433 62.3904 75.6464 62.3725 75.6538 62.3562C76.1425 61.2744 76.2817 60.7602 75.5609 60.3688C75.5481 60.3619 75.5368 60.3525 75.5277 60.3414C75.5186 60.3302 75.5119 60.3175 75.508 60.3039C75.504 60.2902 75.5029 60.276 75.5048 60.262C75.5066 60.2479 75.5112 60.2344 75.5185 60.2221C75.5258 60.2098 75.5356 60.199 75.5472 60.1903C75.5589 60.1816 75.5722 60.1751 75.5864 60.1714C75.6007 60.1676 75.6155 60.1666 75.6302 60.1683C75.6449 60.17 75.659 60.1745 75.6719 60.1815C76.6431 60.7085 76.2628 61.5502 75.86 62.4415C75.8513 62.4608 75.8369 62.4772 75.8185 62.4887C75.8001 62.5003 75.7787 62.5064 75.7567 62.5064ZM77.2174 62.7486C77.2022 62.7484 77.1871 62.7454 77.1732 62.7396C77.1596 62.734 77.1473 62.726 77.137 62.7159C77.1267 62.7057 77.1186 62.6938 77.1131 62.6807C77.1077 62.6675 77.105 62.6535 77.1052 62.6394C77.1054 62.6253 77.1086 62.6113 77.1144 62.5984C77.6035 61.5162 77.7424 61.0024 77.0216 60.6107C76.9965 60.5962 76.9783 60.5729 76.9708 60.5458C76.9634 60.5186 76.9673 60.4898 76.9818 60.4654C76.9963 60.441 77.0202 60.423 77.0483 60.4152C77.0765 60.4074 77.1067 60.4104 77.1326 60.4237C78.1038 60.9503 77.7235 61.792 77.3207 62.6837C77.3121 62.703 77.2976 62.7195 77.2793 62.731C77.2609 62.7426 77.2394 62.7487 77.2174 62.7486Z" fill="#2E0B06"/>
<path d="M97.1302 49.0923C96.9899 47.2375 94.3212 48.4473 95.6133 51.7538C94.546 54.6575 95.1359 57.5338 96.2296 58.4747C97.3234 59.4157 100.134 58.1791 100.584 57.8849C101.033 57.5907 102.832 57.1858 103.14 56.9169C102.27 56.6213 102.073 55.5461 102.073 55.5461C101.286 56.0297 99.5712 54.5243 100.275 51.7552C97.297 53.0737 97.6062 50.3841 97.6062 50.3841C96.035 51.1612 97.1302 49.0923 97.1302 49.0923Z" fill="#FF8863"/>
<path d="M97.0195 53.1086C97.7642 53.5791 98.8598 54.8562 98.8598 54.8562C98.7895 53.7001 97.8624 52.8803 97.0195 53.1086Z" fill="#2E0B06"/>
<path d="M97.9419 54.4118C97.7994 54.5971 97.6131 54.6974 97.5253 54.636C97.4376 54.5745 97.4825 54.374 97.6254 54.1887C97.7682 54.0035 97.9542 53.9032 98.0416 53.9646C98.129 54.026 98.0844 54.2255 97.9419 54.4118Z" fill="#2E0B06"/>
<path d="M100.598 56.3092C100.74 56.1235 100.784 55.9232 100.696 55.8619C100.609 55.8005 100.423 55.9014 100.281 56.0871C100.139 56.2728 100.094 56.4731 100.182 56.5344C100.27 56.5957 100.456 56.4949 100.598 56.3092Z" fill="#2E0B06"/>
<path d="M100.259 55.9557L101.457 56.9772C101.195 55.9196 100.877 55.8301 100.259 55.9557ZM97.8661 57.5902C97.8516 57.5903 97.8373 57.588 97.8237 57.5833C97.584 57.5014 97.2933 56.998 97.1414 56.7048C97.1344 56.6917 97.1329 56.6765 97.1371 56.6623C97.1414 56.6482 97.151 56.6361 97.1642 56.6285C97.1703 56.6251 97.1771 56.6229 97.1841 56.6221C97.1911 56.6213 97.1982 56.6218 97.205 56.6237C97.2117 56.6256 97.2181 56.6288 97.2235 56.633C97.229 56.6373 97.2335 56.6426 97.2367 56.6486C97.4836 57.1239 97.7153 57.4324 97.8607 57.4813C97.9615 57.516 98.4951 57.0466 98.8475 56.7357C99.3116 56.3263 99.7499 55.9377 99.9667 55.903C99.9739 55.9017 99.9814 55.9018 99.9886 55.9033C99.9958 55.9048 100.003 55.9076 100.009 55.9116C100.015 55.9156 100.02 55.9207 100.024 55.9267C100.028 55.9326 100.031 55.9392 100.032 55.9462C100.033 55.9531 100.033 55.9603 100.032 55.9672C100.03 55.9741 100.027 55.9806 100.023 55.9864C100.019 55.9923 100.014 55.9972 100.007 56.0011C100.001 56.0049 99.9942 56.0075 99.987 56.0088C99.8021 56.0411 99.3344 56.4529 98.9236 56.8162C98.3305 57.3397 98.0285 57.5902 97.8661 57.5902Z" fill="#2E0B06"/>
<g style="mix-blend-mode:multiply">
<path d="M95.68 51.4701C95.667 51.47 95.6544 51.4657 95.6444 51.4578C95.6343 51.4499 95.6274 51.4389 95.6248 51.4267C95.4117 50.4226 95.5777 49.9105 95.8377 49.8484C95.9827 49.8137 96.1226 49.9195 96.222 50.1305C96.3372 49.7228 96.4554 49.0202 96.2433 48.7559C96.2161 48.7215 96.1799 48.6946 96.1383 48.6778C96.0968 48.6611 96.0513 48.6551 96.0066 48.6604C95.9918 48.661 95.9774 48.6562 95.9663 48.6469C95.9551 48.6376 95.9482 48.6246 95.9468 48.6105C95.9459 48.5962 95.9509 48.5822 95.9608 48.5715C95.9706 48.5608 95.9845 48.5542 95.9994 48.5532C96.0625 48.5464 96.1264 48.5555 96.1848 48.5795C96.2431 48.6035 96.2939 48.6417 96.3322 48.6903C96.6044 49.0275 96.4152 49.9324 96.281 50.3175C96.2775 50.3285 96.2702 50.3381 96.2604 50.3447C96.2505 50.3514 96.2387 50.3547 96.2267 50.3543C96.2147 50.354 96.2032 50.3502 96.1937 50.3433C96.1842 50.3363 96.1772 50.3267 96.1737 50.3158C96.0867 50.0382 95.9537 49.932 95.8649 49.9529C95.7035 49.9914 95.5255 50.4199 95.7351 51.4056C95.7365 51.4125 95.7366 51.4196 95.7352 51.4265C95.7338 51.4334 95.7309 51.44 95.7269 51.4459C95.7228 51.4517 95.7175 51.4568 95.7114 51.4607C95.7053 51.4646 95.6984 51.4673 95.6912 51.4687C95.6875 51.4697 95.6837 51.4701 95.68 51.4701Z" fill="#EBBEB0"/>
</g>
<path d="M97.4701 67.3906L94.511 71.0108C90.9153 69.9699 83.4245 70.1507 81.8887 69.0036C82.0762 67.7848 81.4392 67.3545 80.9523 66.781C80.4654 66.2075 80.5027 64.7378 80.3903 64.7378C79.9035 64.7378 79.5289 65.2038 79.679 66.0642C79.8291 66.9247 79.8661 68.6809 79.1918 68.6449C78.5174 68.6088 76.4578 67.9281 76.3455 67.604C76.0083 66.9229 74.7347 65.8477 73.8359 65.812C74.5099 67.1023 76.3828 70.0774 76.6823 70.4001C76.9817 70.7228 89.3799 76.3861 96.0467 76.3504C97.5825 76.637 98.2582 75.7769 98.2582 75.7769C99.794 74.7731 104.513 69.1455 104.513 69.1455L97.4701 67.3906Z" fill="#FF8863"/>
<g style="mix-blend-mode:multiply">
<path d="M78.3606 67.3418C78.1992 67.3418 78.0314 67.2051 77.9596 67.1388C77.5528 67.3917 76.9608 66.9237 76.6707 66.6947C76.6407 66.6707 76.6077 66.6447 76.5823 66.6253C76.5558 66.7339 76.5061 67.0115 76.4666 67.264C76.4637 67.2774 76.4554 67.2893 76.4437 67.2971C76.4319 67.3049 76.4175 67.3081 76.4033 67.306C76.3892 67.304 76.3763 67.2969 76.3675 67.2861C76.3586 67.2753 76.3544 67.2617 76.3557 67.2481C76.4257 66.797 76.4768 66.5517 76.508 66.5146C76.5185 66.5028 76.5332 66.4951 76.5493 66.4931C76.5855 66.4907 76.6145 66.5105 76.7425 66.6114C77.0191 66.83 77.5949 67.2852 77.9306 67.026C77.9417 67.0174 77.9558 67.0132 77.97 67.0142C77.9842 67.0153 77.9975 67.0215 78.0071 67.0316C78.0796 67.1076 78.2971 67.2887 78.4247 67.2182C78.4311 67.2146 78.4382 67.2122 78.4456 67.2112C78.453 67.2103 78.4605 67.2107 78.4677 67.2125C78.4749 67.2143 78.4817 67.2175 78.4876 67.2218C78.4935 67.2262 78.4985 67.2316 78.5022 67.2378C78.5059 67.244 78.5082 67.2508 78.5092 67.2579C78.5101 67.265 78.5095 67.2721 78.5075 67.279C78.5055 67.2859 78.5021 67.2923 78.4974 67.2979C78.4928 67.3035 78.4871 67.3081 78.4806 67.3116C78.4441 67.3317 78.4026 67.3421 78.3606 67.3418Z" fill="#EBBEB0"/>
</g>
<path d="M75.5567 66.7674L77.5489 63.2146L75.3809 66.2501L75.5567 66.7674Z" fill="#333333"/>
<path d="M76.4766 63.1953L79.5292 66.0809L79.6673 65.6976L76.4766 63.1953Z" fill="#292929"/>
<path d="M74.7715 67.6575C74.6924 67.6575 74.6141 67.6428 74.5409 67.6141C74.5269 67.609 74.5142 67.6013 74.5034 67.5914C74.4926 67.5815 74.484 67.5696 74.478 67.5565C74.4721 67.5433 74.4689 67.5292 74.4688 67.5149C74.4686 67.5006 74.4714 67.4864 74.4771 67.4731C74.4827 67.4599 74.4911 67.4478 74.5016 67.4377C74.5122 67.4276 74.5248 67.4196 74.5386 67.4141C74.5525 67.4087 74.5673 67.406 74.5823 67.4062C74.5972 67.4063 74.612 67.4093 74.6257 67.415C74.7849 67.4771 74.9723 67.4299 75.1271 67.2887C75.3229 67.1097 75.4897 66.7374 75.32 66.278C75.3144 66.2646 75.3118 66.2502 75.3122 66.2358C75.3125 66.2213 75.316 66.2071 75.3222 66.1939C75.3285 66.1808 75.3374 66.169 75.3485 66.1592C75.3597 66.1494 75.3727 66.1419 75.387 66.1371C75.4012 66.1323 75.4163 66.1302 75.4314 66.1311C75.4464 66.132 75.4612 66.1358 75.4747 66.1422C75.4882 66.1487 75.5002 66.1577 75.51 66.1686C75.5198 66.1796 75.5272 66.1924 75.5317 66.2062C75.7384 66.7613 75.5266 67.2207 75.2823 67.4441C75.1293 67.5843 74.9491 67.6575 74.7715 67.6575ZM79.5081 65.9699C79.5048 65.8943 79.5171 65.8189 79.5443 65.7479C79.5493 65.7346 79.557 65.7223 79.5669 65.7119C79.5768 65.7014 79.5888 65.6929 79.6021 65.6868C79.6155 65.6808 79.63 65.6773 79.6447 65.6766C79.6595 65.676 79.6742 65.678 79.6881 65.6828C79.702 65.6876 79.7148 65.6949 79.7257 65.7044C79.7367 65.7139 79.7455 65.7253 79.7519 65.7381C79.7582 65.7509 79.7618 65.7647 79.7625 65.7788C79.7632 65.793 79.761 65.8071 79.7561 65.8204C79.6981 65.9755 79.7561 66.1524 79.9094 66.2943C80.1048 66.4737 80.5007 66.6184 80.9728 66.4352C80.9865 66.4299 81.0011 66.4272 81.0159 66.4273C81.0306 66.4274 81.0452 66.4303 81.0588 66.4358C81.0724 66.4413 81.0848 66.4493 81.0951 66.4594C81.1055 66.4695 81.1137 66.4814 81.1192 66.4945C81.1248 66.5076 81.1276 66.5216 81.1275 66.5358C81.1273 66.5499 81.1243 66.5639 81.1186 66.5769C81.1128 66.5899 81.1044 66.6017 81.0939 66.6116C81.0834 66.6215 81.0709 66.6294 81.0572 66.6347C80.4855 66.856 79.9979 66.6732 79.7521 66.4494C79.6005 66.3092 79.5161 66.1399 79.5081 65.9699Z" fill="#333333"/>
<path d="M85.5339 54.6646C85.5032 54.6646 85.473 54.6573 85.446 54.6434C85.419 54.6295 85.396 54.6094 85.3791 54.5848C85.2768 54.4315 85.3918 54.0963 85.6405 53.4135C85.8819 52.7498 86.1843 51.924 86.0893 51.4959C86.0854 51.4818 86.0845 51.4671 86.0868 51.4526C86.089 51.4382 86.0943 51.4243 86.1023 51.4119C86.1103 51.3995 86.1209 51.3888 86.1333 51.3804C86.1458 51.372 86.16 51.3661 86.1749 51.3631C86.1898 51.3601 86.2052 51.3601 86.2202 51.363C86.2351 51.3659 86.2493 51.3716 86.2618 51.3799C86.2744 51.3882 86.285 51.3989 86.2931 51.4112C86.3012 51.4236 86.3066 51.4374 86.309 51.4518C86.4152 51.9376 86.1165 52.7599 85.8529 53.4843C85.718 53.8548 85.5524 54.31 85.5629 54.4474C85.9015 54.3812 87.3364 52.8775 87.625 51.9105C87.6332 51.8829 87.6525 51.8595 87.6787 51.8455C87.7048 51.8316 87.7357 51.8281 87.7646 51.8359C87.7934 51.8437 87.8179 51.8622 87.8325 51.8872C87.8471 51.9123 87.8507 51.9419 87.8425 51.9695C87.5612 52.9111 86.053 54.6646 85.5339 54.6646Z" fill="#CCA29A"/>
<path d="M97.2977 47.3325C97.5872 47.3325 97.8219 47.1079 97.8219 46.8308C97.8219 46.5537 97.5872 46.3291 97.2977 46.3291C97.0081 46.3291 96.7734 46.5537 96.7734 46.8308C96.7734 47.1079 97.0081 47.3325 97.2977 47.3325Z" fill="#00A3AB"/>
<path d="M96.5376 43.4304C97.8301 45.2988 97.296 46.8306 97.296 46.8306C95.5265 45.151 96.5376 43.4304 96.5376 43.4304Z" fill="#00A3AB"/>
<path d="M98.2141 45.0854C97.3291 45.5712 97.3994 46.5774 97.4415 46.5774C98.325 46.1607 98.2141 45.0854 98.2141 45.0854Z" fill="#00A3AB"/>
<path d="M83.1978 46.2412C83.1978 46.2412 75.2581 46.8147 74.2832 47.1731C73.3083 47.5315 71.2868 51.6895 71.2868 53.2667C71.2868 54.844 71.8861 58.5002 71.4369 58.7868C70.9877 59.0734 70.5566 61.1346 70.5566 61.8875C70.5566 62.6404 71.8487 64.1996 72.1859 64.361C72.5231 64.5223 72.6935 63.7712 72.6935 63.7712C73.3098 64.0938 73.4798 62.8569 73.4798 62.8569C74.0961 63.0183 74.5475 61.3515 74.5475 60.4914C74.5475 59.6313 74.6599 58.826 75.5024 58.826C76.345 58.826 78.2556 59.955 78.2556 59.955C78.2556 59.4692 78.0308 59.2021 77.6937 58.8794C77.3565 58.5568 76.7384 57.8576 75.671 57.4274C74.6037 56.9972 76.5139 53.0186 76.7949 52.7498C77.4692 52.1582 82.7504 53.0186 82.7504 53.0186C83.4233 48.8219 83.1978 46.2412 83.1978 46.2412Z" fill="#FF8863"/>
<g style="mix-blend-mode:multiply">
<path d="M76.7596 52.6032C76.755 52.6031 76.7505 52.6026 76.7461 52.6015C76.739 52.5998 76.7322 52.5968 76.7262 52.5926C76.7203 52.5884 76.7152 52.5831 76.7114 52.5771C76.7076 52.571 76.7051 52.5643 76.704 52.5572C76.7029 52.5502 76.7033 52.5431 76.7052 52.5362C77.022 51.3236 76.8622 49.3175 75.3685 47.6556C75.3605 47.6446 75.357 47.6312 75.3588 47.618C75.3606 47.6047 75.3675 47.5925 75.3781 47.5839C75.3888 47.5752 75.4024 47.5706 75.4164 47.5711C75.4304 47.5715 75.4437 47.5769 75.4537 47.5862C76.9764 49.2794 77.1373 51.3254 76.8143 52.563C76.8111 52.5745 76.804 52.5847 76.7941 52.592C76.7842 52.5993 76.772 52.6032 76.7596 52.6032ZM73.4539 62.7652C73.4409 62.7651 73.4282 62.7607 73.4182 62.7527C73.4082 62.7448 73.4013 62.7337 73.3988 62.7215C73.3843 62.6493 73.0421 60.9454 73.0515 60.4791C73.0602 60.052 73.3129 59.56 73.4209 59.3501L73.4503 59.2925C73.453 59.2856 73.4572 59.2793 73.4626 59.274C73.468 59.2687 73.4745 59.2645 73.4817 59.2618C73.4889 59.259 73.4966 59.2576 73.5043 59.2578C73.512 59.258 73.5196 59.2597 73.5266 59.2629C73.5336 59.266 73.5399 59.2705 73.545 59.2761C73.5501 59.2816 73.554 59.2881 73.5563 59.2952C73.5587 59.3022 73.5595 59.3097 73.5587 59.317C73.5579 59.3244 73.5556 59.3315 73.5518 59.338C73.5445 59.3529 73.5344 59.3727 73.5217 59.3976C73.426 59.5836 73.1718 60.078 73.1639 60.4812C73.1548 60.936 73.5057 62.6837 73.5094 62.7017C73.5121 62.7157 73.509 62.7301 73.5006 62.7419C73.4923 62.7537 73.4794 62.7618 73.4648 62.7645L73.4539 62.7652ZM72.6019 63.6794C72.5907 63.6792 72.5798 63.6758 72.5706 63.6696C72.5615 63.6634 72.5544 63.6548 72.5504 63.6447C72.5167 63.5684 71.7231 61.7712 71.6851 61.5443C71.6557 61.367 71.7529 60.6529 71.8301 60.1311C71.8384 60.0746 71.8439 60.0364 71.8453 60.0242C71.8461 60.0172 71.8483 60.0103 71.8518 60.0041C71.8554 59.9978 71.8602 59.9923 71.866 59.9878C71.8718 59.9834 71.8784 59.9801 71.8856 59.9781C71.8927 59.9761 71.9002 59.9755 71.9075 59.9763C71.9149 59.9771 71.9221 59.9793 71.9286 59.9828C71.935 59.9862 71.9408 59.9909 71.9454 59.9965C71.9499 60.0021 71.9533 60.0085 71.9553 60.0153C71.9573 60.0222 71.9579 60.0293 71.957 60.0364C71.957 60.0489 71.9501 60.0881 71.9414 60.146C71.8982 60.4427 71.767 61.3455 71.7964 61.5273C71.8257 61.7091 72.4257 63.0861 72.6541 63.6027C72.6597 63.6157 72.6597 63.6303 72.6541 63.6433C72.6486 63.6563 72.6379 63.6666 72.6244 63.6721C72.6176 63.6762 72.6099 63.6787 72.6019 63.6794Z" fill="#EBBEB0"/>
</g>
<path d="M69.7173 60.9348C69.1797 61.3883 68.5934 62.3688 68.5934 62.3688C68.5934 62.3688 68.3038 61.516 69.7173 60.9348ZM65.0507 71.485C64.6569 71.485 64.141 71.1537 63.6665 70.2187C63.5544 70.6076 63.2713 70.8522 62.933 70.8397C62.3291 70.8189 61.6587 70.0119 61.5228 68.2556C61.5217 68.2413 61.5265 68.2271 61.5363 68.2163C61.5461 68.2054 61.56 68.1987 61.575 68.1976C61.5824 68.197 61.5899 68.1978 61.5969 68.1999C61.604 68.2021 61.6106 68.2056 61.6162 68.2103C61.6218 68.215 61.6264 68.2207 61.6297 68.2271C61.6329 68.2335 61.6348 68.2405 61.6351 68.2476C61.766 69.9373 62.3834 70.711 62.937 70.7318C63.2651 70.7408 63.524 70.4723 63.5896 70.0417C63.5914 70.0302 63.597 70.0195 63.6056 70.0114C63.6143 70.0032 63.6254 69.9979 63.6375 69.9963C63.6496 69.9947 63.6619 69.9969 63.6725 70.0025C63.6832 70.0082 63.6918 70.0169 63.6969 70.0275C64.2498 71.1995 64.8647 71.4719 65.2236 71.3487C65.5825 71.2255 65.8218 70.6579 65.5825 69.812C65.5799 69.7987 65.5826 69.7848 65.5901 69.7733C65.5977 69.7617 65.6095 69.7533 65.6232 69.7498C65.6369 69.7462 65.6515 69.7477 65.6641 69.7539C65.6768 69.7602 65.6864 69.7708 65.6913 69.7836C65.9222 70.5989 65.7453 71.2842 65.2617 71.449C65.194 71.4724 65.1226 71.4847 65.0507 71.485ZM33.4286 107.962C33.8223 107.962 34.3382 107.631 34.8128 106.696C34.9248 107.085 35.208 107.329 35.5462 107.317C36.1502 107.296 36.8206 106.489 36.9565 104.733C36.9576 104.719 36.9527 104.705 36.9429 104.694C36.9332 104.683 36.9193 104.676 36.9043 104.675C36.8969 104.675 36.8894 104.675 36.8823 104.677C36.8752 104.68 36.8687 104.683 36.8631 104.688C36.8574 104.693 36.8529 104.698 36.8496 104.705C36.8463 104.711 36.8445 104.718 36.8441 104.725C36.7132 106.415 36.0958 107.19 35.5422 107.209C35.2141 107.218 34.9553 106.95 34.8897 106.519C34.8879 106.508 34.8823 106.497 34.8736 106.489C34.865 106.481 34.8538 106.475 34.8418 106.474C34.8297 106.472 34.8175 106.474 34.8068 106.48C34.7961 106.485 34.7875 106.494 34.7823 106.505C34.2295 107.677 33.6146 107.949 33.2557 107.826C32.8968 107.703 32.6575 107.135 32.8968 106.29C32.8994 106.283 32.9005 106.275 32.9 106.268C32.8995 106.26 32.8974 106.253 32.8938 106.246C32.8902 106.24 32.8852 106.234 32.8791 106.229C32.873 106.224 32.866 106.221 32.8585 106.219C32.8509 106.217 32.8431 106.217 32.8353 106.218C32.8276 106.219 32.8202 106.221 32.8136 106.225C32.807 106.229 32.8013 106.234 32.7969 106.241C32.7925 106.247 32.7894 106.254 32.788 106.261C32.5571 107.076 32.734 107.762 33.2176 107.927C33.2853 107.95 33.3567 107.962 33.4286 107.962Z" fill="#423A36"/>
<path d="M53.6271 58.323C53.428 58.3225 53.2294 58.3028 53.0344 58.264C51.5588 57.974 50.2428 56.6868 49.5659 55.673C49.5621 55.6682 49.5594 55.6627 49.5579 55.6569C49.5564 55.6511 49.5562 55.645 49.5573 55.6391C49.5584 55.6332 49.5608 55.6275 49.5643 55.6225C49.5678 55.6176 49.5723 55.6133 49.5776 55.6101C49.5829 55.6069 49.5888 55.6047 49.595 55.6038C49.6012 55.6029 49.6075 55.6032 49.6136 55.6047C49.6197 55.6063 49.6253 55.609 49.6302 55.6127C49.6351 55.6165 49.6392 55.6212 49.6421 55.6265C50.3628 56.7055 51.6973 57.9133 53.0525 58.1794C53.8066 58.3272 54.5194 58.1874 55.1716 57.763C55.1762 57.7586 55.1818 57.7551 55.188 57.753C55.1942 57.7508 55.2008 57.75 55.2073 57.7505C55.2139 57.7511 55.2202 57.753 55.2259 57.7561C55.2316 57.7593 55.2365 57.7636 55.2403 57.7687C55.244 57.7739 55.2466 57.7798 55.2477 57.7859C55.2489 57.7921 55.2486 57.7985 55.2468 57.8046C55.2451 57.8106 55.2421 57.8163 55.2378 57.8211C55.2336 57.8259 55.2283 57.8298 55.2223 57.8324C54.7235 58.1593 54.1891 58.323 53.6271 58.323ZM55.5243 57.9313C55.5139 57.9313 55.5039 57.9279 55.4959 57.9215C55.4879 57.9152 55.4824 57.9064 55.4805 57.8966C55.4765 57.8772 55.3819 57.4199 55.0092 57.4362C55.0032 57.4366 54.9972 57.4359 54.9916 57.434C54.9859 57.4322 54.9807 57.4293 54.9763 57.4254C54.9718 57.4216 54.9683 57.417 54.9657 57.4118C54.9632 57.4066 54.9618 57.401 54.9617 57.3953C54.9611 57.3895 54.9618 57.3836 54.9637 57.3781C54.9656 57.3725 54.9687 57.3674 54.9727 57.3631C54.9768 57.3587 54.9817 57.3552 54.9872 57.3528C54.9927 57.3503 54.9987 57.3489 55.0048 57.3488C55.4551 57.3241 55.5686 57.8737 55.5697 57.8793C55.5707 57.8848 55.5707 57.8906 55.5694 57.8961C55.5682 57.9017 55.5658 57.907 55.5625 57.9116C55.5591 57.9163 55.5548 57.9203 55.5498 57.9234C55.5448 57.9265 55.5392 57.9286 55.5334 57.9296C55.5305 57.9305 55.5274 57.9311 55.5243 57.9313Z" fill="#2E0B06"/>
<path d="M64.5439 79.1741C64.3089 79.1741 64.0849 78.9927 63.8761 78.6332C63.7648 78.7328 63.5639 78.866 63.3344 78.8067C62.9247 78.6974 62.6572 78.0417 62.5162 76.801C62.5136 76.7782 62.5205 76.7555 62.5355 76.7376C62.5504 76.7198 62.5722 76.7084 62.5959 76.7059C62.6197 76.7034 62.6435 76.7101 62.6621 76.7244C62.6807 76.7387 62.6927 76.7595 62.6953 76.7822C62.866 78.2852 63.1992 78.5916 63.3841 78.6405C63.6074 78.7002 63.8242 78.4372 63.8264 78.4348C63.8357 78.4232 63.8479 78.414 63.8619 78.4081C63.8759 78.4023 63.8912 78.3999 63.9064 78.4013C63.9216 78.4026 63.9363 78.4076 63.9489 78.4159C63.9615 78.4241 63.9718 78.4353 63.9787 78.4483C64.1273 78.7332 64.359 79.059 64.6175 78.9937C65.2048 78.8456 65.7374 76.9363 65.6688 75.7046C65.668 75.6884 65.672 75.6723 65.6802 75.6582C65.6885 75.644 65.7008 75.6324 65.7157 75.6246C65.7305 75.6168 65.7474 75.6132 65.7643 75.6142C65.7812 75.6151 65.7975 75.6206 65.8113 75.63C66.0684 75.8073 66.4117 75.9877 66.5879 75.843C66.9026 75.5838 66.6644 74.416 66.2489 73.6419C66.2435 73.6319 66.2402 73.6209 66.2393 73.6096C66.2383 73.5983 66.2397 73.587 66.2433 73.5762C66.2469 73.5654 66.2527 73.5554 66.2603 73.5468C66.268 73.5382 66.2773 73.531 66.2879 73.5259C66.2984 73.5207 66.3099 73.5176 66.3217 73.5166C66.3335 73.5157 66.3453 73.517 66.3566 73.5205C66.3678 73.524 66.3783 73.5295 66.3873 73.5368C66.3963 73.5442 66.4037 73.5531 66.4091 73.5632C66.8217 74.332 67.1342 75.6206 66.7053 75.9735C66.5165 76.1289 66.2308 76.0928 65.8545 75.8659C65.8708 77.1077 65.3784 78.9795 64.6628 79.1603C64.6239 79.1698 64.584 79.1745 64.5439 79.1741Z" fill="#E6C19B"/>
<path d="M62.0176 57.5778C61.7171 57.5778 61.4107 57.4418 61.1044 57.1722C61.088 57.1565 61.0786 57.1352 61.0781 57.113C61.0777 57.0907 61.0862 57.0692 61.102 57.0528C61.1177 57.0364 61.1395 57.0265 61.1627 57.0251C61.1859 57.0237 61.2088 57.0309 61.2266 57.0452C61.5438 57.3249 61.853 57.4418 62.1463 57.3953C62.6427 57.3152 62.9439 56.7861 62.9476 56.7809C62.9561 56.7655 62.9693 56.753 62.9854 56.745C63.0015 56.7369 63.0198 56.7337 63.0378 56.7358C64.1701 56.8659 64.9829 56.5845 65.3893 55.9225C65.891 55.104 65.6724 53.8231 64.8455 52.7347C64.833 52.7162 64.8283 52.6939 64.8325 52.6722C64.8367 52.6506 64.8493 52.6313 64.8679 52.6184C64.8865 52.6054 64.9095 52.5997 64.9323 52.6025C64.9551 52.6053 64.9759 52.6163 64.9905 52.6334C65.8606 53.7762 66.0814 55.1314 65.5437 56.0096C65.1123 56.7132 64.2386 57.0331 63.0744 56.9134C62.978 57.0626 62.6662 57.4855 62.1768 57.565C62.1242 57.5735 62.071 57.5778 62.0176 57.5778Z" fill="#423A36"/>
<path d="M66.1786 101.743C66.1677 101.743 66.1572 101.739 66.149 101.732C66.1408 101.725 66.1355 101.716 66.134 101.705C66.0804 101.315 65.8618 100.605 65.0011 100.241C64.9957 100.239 64.9908 100.236 64.9867 100.232C64.9826 100.228 64.9794 100.223 64.9773 100.218C64.9752 100.212 64.9741 100.207 64.9743 100.201C64.9744 100.195 64.9757 100.19 64.9781 100.185C64.9804 100.18 64.9839 100.175 64.9881 100.171C64.9924 100.167 64.9974 100.164 65.0029 100.162C65.0084 100.16 65.0143 100.159 65.0202 100.159C65.0261 100.159 65.0319 100.16 65.0373 100.163C65.9386 100.544 66.1674 101.286 66.2236 101.694C66.2244 101.7 66.224 101.705 66.2225 101.711C66.221 101.716 66.2184 101.722 66.2147 101.726C66.2111 101.731 66.2066 101.734 66.2015 101.737C66.1963 101.74 66.1907 101.742 66.1848 101.742L66.1786 101.743ZM72.009 101.678C71.9981 101.678 71.9876 101.674 71.9794 101.667C71.9712 101.661 71.9659 101.651 71.9644 101.641C71.9108 101.25 71.6922 100.541 70.8315 100.177C70.8206 100.172 70.812 100.164 70.8077 100.153C70.8034 100.142 70.8037 100.131 70.8085 100.12C70.8133 100.11 70.8222 100.102 70.8333 100.097C70.8445 100.093 70.8568 100.094 70.8678 100.098C71.769 100.48 71.9978 101.221 72.054 101.63C72.0548 101.635 72.0544 101.641 72.0528 101.646C72.0513 101.652 72.0486 101.657 72.045 101.661C72.0414 101.666 72.0369 101.67 72.0318 101.672C72.0267 101.675 72.0211 101.677 72.0152 101.678L72.009 101.678ZM71.3463 101.721C71.3354 101.721 71.3248 101.717 71.3166 101.71C71.3084 101.704 71.3031 101.694 71.3017 101.684C71.2481 101.293 71.0294 100.584 70.1688 100.22C70.1634 100.218 70.1585 100.214 70.1544 100.21C70.1503 100.206 70.1471 100.201 70.145 100.196C70.1428 100.191 70.1418 100.185 70.1419 100.18C70.1421 100.174 70.1434 100.168 70.1457 100.163C70.1481 100.158 70.1515 100.153 70.1558 100.149C70.1601 100.146 70.1651 100.142 70.1706 100.14C70.1761 100.138 70.182 100.137 70.1879 100.138C70.1938 100.138 70.1996 100.139 70.205 100.141C71.1063 100.523 71.3351 101.264 71.3909 101.673C71.3917 101.678 71.3914 101.684 71.3899 101.689C71.3884 101.695 71.3858 101.7 71.3822 101.704C71.3786 101.709 71.3742 101.713 71.3691 101.715C71.364 101.718 71.3583 101.72 71.3525 101.721L71.3463 101.721ZM65.4075 101.754C65.3966 101.754 65.3861 101.75 65.3779 101.743C65.3697 101.736 65.3644 101.727 65.3629 101.716C65.3093 101.326 65.0906 100.616 64.23 100.252C64.2246 100.25 64.2197 100.247 64.2156 100.243C64.2115 100.238 64.2083 100.234 64.2062 100.228C64.204 100.223 64.203 100.217 64.2031 100.212C64.2033 100.206 64.2046 100.201 64.2069 100.195C64.2093 100.19 64.2127 100.186 64.217 100.182C64.2213 100.178 64.2263 100.175 64.2318 100.173C64.2373 100.171 64.2432 100.17 64.2491 100.17C64.255 100.17 64.2608 100.171 64.2662 100.173C65.1675 100.555 65.3963 101.297 65.4521 101.705C65.4529 101.71 65.4526 101.716 65.4511 101.722C65.4496 101.727 65.447 101.732 65.4434 101.737C65.4398 101.741 65.4354 101.745 65.4303 101.748C65.4252 101.751 65.4195 101.753 65.4137 101.753L65.4075 101.754Z" fill="#2E0B06"/>
</svg>
