<svg width="151" height="183" viewBox="0 0 151 183" fill="none" xmlns="http://www.w3.org/2000/svg">
<rect x="0.5" y="0.5" width="150" height="150" rx="75" fill="#BEC8FF"/>
<path d="M76.6722 75.4051C76.4989 75.5 76.3263 75.521 76.1589 75.4825C74.8374 76.1866 73.1529 77.211 72.0312 77.6533C70.7903 78.1455 68.3579 82.7926 66.6307 82.8294C64.9063 82.8642 64.5046 80.861 65.7 79.6237C65.7 79.6237 68.5101 74.5351 70.1148 74.0094C71.3717 73.5989 73.2413 72.9353 75.2812 72.6403C75.6137 72.4403 75.9841 72.1994 76.305 71.947C77.8243 70.7436 79.2525 72.0356 79.2062 73.0079C79.0956 75.3311 77.8439 74.7473 76.6722 75.4051ZM63.3963 105.763C63.3963 105.763 65.1935 111.625 64.0534 113.914C62.9133 116.204 61.2778 118.181 60.9103 119.424C60.5429 120.667 59.8648 124.661 60.4239 125.426C60.983 126.19 62.3473 125.81 61.8315 127.372C61.3157 128.934 59.7592 128.603 58.968 128.283C58.1768 127.962 58.4943 124.802 58.1479 122.874C57.8015 120.947 57.6289 119.66 58.5237 118.631C59.4187 117.602 60.1984 115.498 59.807 113.838C59.4158 112.177 58.555 100.892 63.3963 105.763Z" fill="#813A15"/>
<path d="M62.5316 108.468C61.9142 111.301 63.5054 113.942 60.0426 115.783C55.6701 118.107 48.629 113.857 51.3794 103.873C51.4793 103.513 51.5909 103.148 51.7153 102.773C53.3964 97.741 54.4485 94.4995 55.2655 92.1172C55.7387 90.7431 56.1309 89.6545 56.5235 88.674C56.904 87.7141 57.2812 86.8579 57.7285 85.9396C58.6046 84.1347 59.1998 82.9454 59.7102 81.9389C60.3048 80.7675 60.7878 79.8482 61.4708 78.4856C61.7847 77.8589 61.8131 76.1344 62.2275 75.1694C62.1916 76.4402 63.5943 76.0925 64.1608 77.202C65.1498 79.1377 66.0186 77.2662 67.6321 77.8156C68.0757 77.966 69.9657 76.826 70.4009 76.7925C69.6058 84.0982 67.8371 86.1386 67.3418 88.0408C67.0941 88.9919 66.8671 90.0231 66.6752 91.1262C65.6015 97.3055 66.3481 101.817 63.2552 106.696C62.8775 107.291 62.6584 107.882 62.5316 108.468Z" fill="#934218"/>
<path d="M59.767 89.7386C58.9596 90.3596 57.6756 89.1145 56.5233 88.675C56.9037 87.7151 57.281 86.8589 57.7282 85.9406C58.6044 84.1357 59.1995 82.9464 59.7099 81.9399C59.6896 82.6251 59.8328 83.5262 60.3611 84.6243C61.698 87.4066 60.9097 88.8568 59.767 89.7386ZM57.6234 101.763C55.7078 102.256 55.3284 100.797 52.8938 103.492C52.3581 104.085 51.8291 104.164 51.3789 103.874C51.4788 103.514 51.5904 103.148 51.7148 102.774C53.3959 97.7416 54.4481 94.5001 55.265 92.1178C56.1475 91.904 56.9681 91.9661 57.2068 92.8007C57.786 94.8208 56.2648 96.6628 57.8839 97.6933C59.5009 98.7231 59.5393 101.27 57.6234 101.763Z" fill="#C3967F"/>
<path d="M72.651 60.0804C72.3809 60.1071 71.9751 60.4085 71.5107 60.8339C71.3332 60.995 71.1474 61.1755 70.9567 61.3653C70.1429 62.1745 69.2499 63.1594 68.6109 63.6703C68.5624 63.7088 68.5135 63.7466 68.4653 63.7811C67.3389 64.598 66.2781 64.4203 64.9993 64.5338C64.1677 64.6092 63.3294 65.8894 62.8156 66.8438C62.5047 67.4219 62.3128 67.8801 62.3128 67.8801C61.6479 68.6954 61.8895 72.497 62.1076 75.7524C62.2976 76.2386 62.5282 76.6933 62.8085 77.0978C63.8607 78.6155 65.4064 79.0145 66.8662 78.7124C67.7232 78.535 68.5974 78.1691 69.3879 77.6816C69.7676 77.4475 70.1133 77.1569 70.4029 76.7954C70.3314 75.1422 70.4269 73.9505 70.5547 73.4251C70.8531 72.2014 73.9795 70.4621 74.2361 69.2751C74.4931 68.0879 75.043 67.2804 74.4787 67.0621C73.9134 66.8442 72.1626 68.8004 71.4132 69.3059C70.6646 69.8106 69.3375 69.3015 70.0237 68.7376C70.978 67.9534 72.9303 65.4805 73.3656 64.0551C73.5159 63.5625 73.5741 62.9249 73.5521 62.3053C73.5426 62.035 73.5173 61.7687 73.4784 61.5187C73.3484 60.6859 73.0595 60.0399 72.651 60.0804Z" fill="#934218"/>
<path d="M68.1453 67.7824C65.9983 69.965 62.7539 67.238 62.7539 67.238C62.7539 67.238 62.7674 67.0894 62.8136 66.8421C63.3275 65.8876 64.166 64.6077 64.9973 64.5321C66.2762 64.4185 67.3369 64.5963 68.4633 63.7793C68.9982 64.9767 69.3285 66.5802 68.1453 67.7824Z" fill="#813A15"/>
<path d="M73.4795 61.5166C72.8065 62.6555 71.9781 61.6227 71.5117 60.8314C71.9764 60.406 72.3823 60.1046 72.652 60.078C73.0606 60.0377 73.3495 60.6838 73.4795 61.5166Z" fill="#4A210C"/>
<path d="M62.9854 65.9579C61.9307 66.8877 61.3449 68.5885 61.5476 70.2931C61.625 70.9435 61.8184 71.63 62.1963 72.3047C63.708 75.0026 65.6009 77.3971 67.0425 76.8362C68.4842 76.275 68.2962 73.2494 67.3451 71.8588C66.3941 70.4681 63.4649 66.7215 63.6899 65.3369L62.9854 65.9579Z" fill="#C3967F"/>
<path d="M70.9219 69.5819C70.9219 69.5819 71.3055 67.8821 72.9535 66.857C74.6013 65.8319 75.8861 66.3523 76.2168 67.6716C76.5475 68.991 75.9123 69.0545 75.3766 68.7413C74.841 68.4281 73.7132 67.4324 72.8326 68.247C71.9515 69.0619 70.9219 69.5819 70.9219 69.5819Z" fill="#F9685A"/>
<path d="M52.6164 112.808C52.6164 112.808 51.5874 119.552 46.2612 117.937C46.164 117.908 46.0665 117.876 45.9667 117.841C40.3841 115.883 42.8165 109.299 42.8165 109.299C42.8165 109.299 42.9195 113.349 45.6376 114.378C46.0984 114.553 46.6342 114.64 47.2583 114.607C51.559 114.373 50.7592 108.177 50.7592 108.177L52.6164 112.808Z" fill="#934218"/>
<path d="M62.4814 109.2C62.4814 109.2 62.7316 112.569 61.6187 114.884C60.5058 117.198 58.8942 119.213 58.5414 120.464C58.1887 121.715 57.5583 125.724 58.1265 126.476C58.6947 127.227 60.0541 126.816 59.5572 128.39C59.0602 129.963 57.4998 129.668 56.7049 129.366C55.91 129.063 56.1898 125.896 55.8207 123.977C55.4517 122.057 55.2635 120.774 56.146 119.725C57.0285 118.676 55.4253 115.221 55.0143 113.569C54.6032 111.917 57.583 104.438 62.4814 109.2Z" fill="#934218"/>
<path d="M77.2566 79.2698C77.254 79.2721 77.252 79.2714 77.2493 79.2738C77.0958 79.384 76.9406 79.4779 76.7881 79.5546C75.424 80.2459 73.4878 81.4517 72.2469 81.9436C71.0038 82.4352 68.5736 87.0829 66.8469 87.117C65.1203 87.1512 64.6307 84.3469 65.8239 83.1089C65.8239 83.1089 68.7236 78.8251 70.3286 78.2994C71.4684 77.924 73.1128 77.3456 74.9307 77.0199C74.9312 77.0169 74.9312 77.0169 74.9312 77.0169C74.9312 77.0169 76.0691 76.4594 76.8843 75.8164C78.4016 74.6123 79.8313 75.908 79.7855 76.8773C79.6736 79.1937 78.429 78.6214 77.2566 79.2698Z" fill="#934218"/>
<path d="M83.8809 25.0913C84.5049 26.1711 84.6608 27.7294 84.2721 29.0025C84.0162 29.8407 83.5482 30.5492 83.3795 31.4287C83.1741 32.5001 83.4466 33.6201 83.6637 34.6871C83.8809 35.754 84.0326 36.9636 83.6248 37.9184C83.4542 38.3178 83.1978 38.6364 83.024 39.033C82.85 39.4294 82.7736 39.9713 82.978 40.3389C83.1202 40.5947 83.3606 40.7011 83.5893 40.767C85.2939 41.2592 87.1811 40.1355 88.0908 38.0857C88.1767 38.4637 88.2627 38.8415 88.3486 39.2195C89.2617 37.7336 89.793 35.8095 89.8275 33.8617C89.862 31.9139 89.3995 29.9559 88.54 28.4105" fill="#2B2419"/>
<path d="M88.3427 135.194C88.3975 134.161 88.081 132.422 87.3696 129.72C88.5194 129.62 89.4526 128.829 90.6289 128.748C91.073 131.309 91.7724 135.516 91.7724 135.516L91.9856 138.873L83.8086 139.7C83.8086 139.7 83.8791 139.742 86.1908 137.42C86.3619 137.249 88.2898 136.191 88.3427 135.194Z" fill="#F9BBAF"/>
<path d="M92.0654 139.734L83.6198 140.5C83.3055 140.49 83.2127 140.145 83.3106 139.918C83.5124 139.452 85.1085 138.231 86.1822 137.419C88.138 137.525 91.4997 136.112 91.7768 135.463C92.4074 137.472 92.2366 139.666 92.0654 139.734Z" fill="#6D392F"/>
<path d="M98.5338 134.271C98.5884 133.238 98.7035 131.94 98.2831 128.551C99.433 128.45 100.513 128.054 101.689 127.972C101.816 130.636 101.964 134.593 101.964 134.593L102.177 137.951L94 138.777C94 138.777 94.0703 138.82 96.382 136.497C96.5526 136.325 98.4807 135.268 98.5338 134.271Z" fill="#F9BBAF"/>
<path d="M102.261 138.81L93.8151 139.576C93.5008 139.566 93.408 139.221 93.506 138.994C93.7077 138.528 95.3041 137.307 96.3775 136.495C98.3333 136.601 101.695 135.188 101.972 134.539C102.603 136.547 102.432 138.741 102.261 138.81Z" fill="#6D392F"/>
<path d="M89.445 37.2969L85.0275 38.3517C85.0275 38.3517 84.7097 43.5326 84.0211 49.2803C81.9022 49.0878 75.9037 46.4392 75.6117 46.325C75.3189 46.2101 73.4625 40.9975 73.1242 41.4716C72.7861 41.9456 74.1389 44.2069 73.6902 44.6239C73.2415 45.0408 68.6004 42.9095 68.6479 43.4521C68.7368 44.4678 71.4664 44.9195 71.4504 45.3976C71.4348 45.8753 68.6048 44.5242 68.3901 45.2773C68.1752 46.0307 71.1231 46.1828 71.2306 46.5619C71.3381 46.9413 68.4812 46.9879 68.7517 47.7883C68.8986 48.2228 71.2854 47.6518 71.259 48.1961C71.2328 48.7404 69.4788 49.6199 69.6778 50.1003C69.8768 50.5805 71.0641 49.0499 72.0632 49.2395C73.062 49.4293 73.7981 48.7823 75.3735 49.7905C76.9471 50.7977 84.9841 56.98 86.6331 55.3951C88.0731 54.0111 89.445 37.2969 89.445 37.2969Z" fill="#F9BBAF"/>
<path d="M87.1097 61.6553L89.6969 63.35L95.2789 73.5945L87.6101 103.887C87.6101 103.887 88.8425 108.225 89.2809 110.409C89.7394 112.694 91.5402 132.5 91.5402 132.5L87.6745 132.941C87.6745 132.941 82.9908 112.107 82.0412 105.294C80.8882 97.0195 84.5454 76.7329 84.5454 76.7329C85.2108 72.6011 86.6644 64.0937 86.6644 64.0937C86.6644 64.0937 87.0204 62.0205 87.1097 61.6553Z" fill="#262249"/>
<path d="M95.6039 56.8452C95.6039 56.8452 95.4659 59.3866 96.6346 62.1653C97.347 63.859 98.4993 65.1334 99.3794 67.2079C101.045 71.1333 102.12 76.8267 101.744 80.5827C101.744 80.5827 99.4628 96.9068 99.8629 102.761C100.01 104.92 100.734 108.768 101.203 111.371C101.618 113.672 102.334 130.958 102.334 130.958L98.2268 131.441L93.5681 103.404L90.9697 78.343L87.1094 61.6541L95.6039 56.8452Z" fill="#3E3B5D"/>
<path d="M87.239 31.2462C88.9022 30.4789 89.2596 30.7546 92.4019 30.5347C97.2156 30.1931 99.5706 28.4439 103.153 45.2025C103.153 45.2025 100.995 46.6121 98.7814 46.6023C98.4019 44.667 98.2536 41.1795 97.8452 43.3945C97.2283 46.7408 96.8197 50.0995 96.6024 53.539C96.4574 55.5794 96.0557 58.2107 96.4293 60.2419C96.4293 60.2419 93.1983 61.4694 90.704 61.8478C90.6971 61.8492 90.6898 61.8502 90.6827 61.8492C89.4716 61.9164 88.2265 61.8813 87.109 61.6535C87.109 61.6535 85.9324 47.3898 85.6465 46.8117C82.687 40.8254 87.239 31.2462 87.239 31.2462Z" fill="#C191E8"/>
<path d="M91.3453 24.2326C91.3453 24.2326 91.9316 28.4664 92.2278 29.9276C92.538 31.4568 93.126 36.3079 90.8336 37.3121C88.5415 38.3162 88.9709 32.1447 88.8573 30.5716C88.7439 28.9985 87.822 23.5605 87.822 23.5605L91.3453 24.2326ZM86.9037 58.8281C86.8464 58.8193 86.6065 58.6886 86.4021 58.6254C86.1198 58.5352 85.8633 58.5092 85.8633 58.5092C85.8633 58.5092 85.7769 58.3395 85.5906 58.1318C85.5127 58.0459 85.3737 57.9757 85.287 57.8797C85.1986 57.7794 85.1347 57.632 85.05 57.5405C84.8287 57.306 84.6067 57.1921 84.4987 57.3465C84.4091 57.4736 85.5796 59.1176 85.5796 59.1176C86.857 59.57 88.033 60.9327 91.4819 59.2876C93.3603 58.8514 102.599 56.087 102.986 54.922C103.203 54.2686 102.904 48.5259 102.604 44.1403C101.719 44.3569 99.8406 44.8117 98.7955 45.032C99.2031 47.8694 99.6166 51.5876 99.4337 51.9623C99.3867 52.0599 99.2486 52.2184 92.7793 55.3217C92.6163 55.3977 92.4496 55.4798 92.2802 55.5613C91.8248 55.7792 91.3377 56.012 90.8214 56.2566L89.2776 55.4805C89.2776 55.4805 86.7235 54.8524 86.5767 55.2207C86.5113 55.3896 86.7032 55.5515 86.9497 55.6917L86.9571 55.6944C86.9936 55.7143 87.03 55.7339 87.0663 55.7542C87.069 55.7552 87.0714 55.7559 87.0714 55.7559C87.3392 55.8961 87.6291 56.0035 87.693 56.0626C87.7664 56.1285 87.9111 56.2704 88.0252 56.4495C86.3 56.7914 86.4775 56.5184 85.9663 56.2941C85.8383 56.2353 85.6912 56.239 85.5705 56.1829C85.3644 56.086 85.2278 55.8549 85.0672 55.7846C84.8319 55.6846 84.6111 55.7704 84.5575 55.818C84.4885 55.8751 84.5712 56.0214 84.7492 56.2157C85.8271 57.3567 86.8783 57.4256 87.1799 57.6435C87.3826 57.7908 86.9686 57.7655 86.37 57.4631C86.2207 57.3895 86.0065 57.3962 85.8151 57.2604C85.6873 57.1722 85.5864 57.0083 85.4616 56.9175C85.3465 56.8333 85.2202 56.7938 85.1225 56.7306C84.9932 56.6492 84.8309 56.4421 84.7259 56.388C84.3359 56.187 84.1227 56.216 84.0681 56.2525C83.9545 56.3346 85.6028 57.9307 85.6028 57.9307C85.6028 57.9307 86.8146 58.6142 87.0952 58.7112C87.0956 58.7105 87.245 58.8724 86.9037 58.8281Z" fill="#F9BBAF"/>
<path d="M102.693 45.4725C101.978 45.8617 100.524 46.5412 99.0106 46.5993C98.9416 46.0648 98.8691 45.5347 98.7969 45.0323C99.8417 44.812 101.721 44.3572 102.605 44.1406C102.634 44.5731 102.664 45.0194 102.693 45.4725Z" fill="#C191E8"/>
<path d="M82.5849 22.6685C83.0388 25.5461 87.1564 31.2497 87.9888 30.9996C88.8211 30.7496 86.0526 24.6406 85.5987 21.763C85.1449 18.8854 84.1022 16.7555 83.2699 17.0055C82.4375 17.2556 82.131 19.7909 82.5849 22.6685ZM90.844 12.6538C91.5243 13.9171 92.0457 14.9219 92.8129 15.9649C93.5802 17.0079 94.3538 18.2107 94.4654 19.6889C94.5464 20.7636 94.27 21.9252 94.6213 22.8912C94.9215 23.7166 95.5866 24.1325 96.0961 24.7312C96.9918 25.784 97.4153 27.5463 97.1534 29.1292C96.9859 30.1404 96.5624 31.152 96.7676 32.1497C96.947 33.0214 97.5644 33.607 97.7816 34.4621C97.9884 35.2767 97.795 36.1754 97.5583 36.9745C97.1962 38.1959 96.6373 39.4676 95.7176 39.8281C95.0936 40.0727 94.4064 39.8325 93.8637 39.3419C93.3209 38.8513 92.9062 38.1327 92.5601 37.3752C91.8939 35.918 91.4482 34.2695 91.2594 32.5663C91.0334 30.5273 91.1737 28.4504 91.2352 26.3891C91.3478 22.6128 91.1933 18.8212 90.7744 15.0861C90.6719 14.1742 90.3681 13.3025 90.844 12.6538Z" fill="#2B2419"/>
<path d="M87.8242 23.5605C87.8242 23.5605 88.7462 28.9985 88.8595 30.5716C88.8598 30.5743 88.8598 30.5777 88.86 30.5804C91.065 29.0303 91.4165 26.28 91.3915 24.5468C91.3636 24.3488 91.3475 24.2322 91.3475 24.2322L87.8242 23.5605Z" fill="#DAA499"/>
<path d="M86.8616 12.2364C81.0493 13.8338 83.4064 22.5329 83.4529 22.7555C84.3131 26.8876 87.3108 30.7035 88.6159 29.975C92.5697 27.7681 91.4874 22.0737 91.4874 22.0737C91.4725 21.7047 92.0236 17.6017 91.968 17.23C91.3158 12.8722 90.2583 11.3028 86.8616 12.2364Z" fill="#F9BBAF"/>
<path d="M93.4115 21.3348C93.557 22.5737 93.0172 23.7252 92.2064 23.9063C91.3953 24.0874 90.62 23.2299 90.4748 21.9906C90.3294 20.7516 90.8692 19.6002 91.68 19.4191C92.4908 19.2383 93.2661 20.0958 93.4115 21.3348Z" fill="#F9BBAF"/>
<path d="M84.0386 16.0068C84.0386 16.0068 85.6382 21.0548 90.4056 18.536L90.8766 20.0902L91.9183 19.23C94.8552 6.84821 79.5254 7.727 82.3923 21.29C82.3923 21.29 84.0514 21.813 84.0386 16.0068Z" fill="#2B2419"/>
<path d="M50.0525 162.162C50.0525 162.798 49.9465 163.388 49.7345 163.932C49.5265 164.472 49.2305 164.94 48.8465 165.336C48.4625 165.732 48.0005 166.042 47.4605 166.266C46.9205 166.486 46.3205 166.596 45.6605 166.596C45.0045 166.596 44.4065 166.486 43.8665 166.266C43.3265 166.042 42.8625 165.732 42.4745 165.336C42.0905 164.94 41.7925 164.472 41.5805 163.932C41.3685 163.388 41.2625 162.798 41.2625 162.162C41.2625 161.526 41.3685 160.938 41.5805 160.398C41.7925 159.854 42.0905 159.384 42.4745 158.988C42.8625 158.592 43.3265 158.284 43.8665 158.064C44.4065 157.84 45.0045 157.728 45.6605 157.728C46.1005 157.728 46.5145 157.78 46.9025 157.884C47.2905 157.984 47.6465 158.128 47.9705 158.316C48.2945 158.5 48.5845 158.726 48.8405 158.994C49.1005 159.258 49.3205 159.554 49.5005 159.882C49.6805 160.21 49.8165 160.566 49.9085 160.95C50.0045 161.334 50.0525 161.738 50.0525 162.162ZM48.4025 162.162C48.4025 161.686 48.3385 161.26 48.2105 160.884C48.0825 160.504 47.9005 160.182 47.6645 159.918C47.4285 159.654 47.1405 159.452 46.8005 159.312C46.4645 159.172 46.0845 159.102 45.6605 159.102C45.2365 159.102 44.8545 159.172 44.5145 159.312C44.1785 159.452 43.8905 159.654 43.6505 159.918C43.4145 160.182 43.2325 160.504 43.1045 160.884C42.9765 161.26 42.9125 161.686 42.9125 162.162C42.9125 162.638 42.9765 163.066 43.1045 163.446C43.2325 163.822 43.4145 164.142 43.6505 164.406C43.8905 164.666 44.1785 164.866 44.5145 165.006C44.8545 165.146 45.2365 165.216 45.6605 165.216C46.0845 165.216 46.4645 165.146 46.8005 165.006C47.1405 164.866 47.4285 164.666 47.6645 164.406C47.9005 164.142 48.0825 163.822 48.2105 163.446C48.3385 163.066 48.4025 162.638 48.4025 162.162ZM52.6242 164.904C52.7922 165.108 52.9742 165.252 53.1702 165.336C53.3702 165.42 53.5802 165.462 53.8002 165.462C54.0282 165.462 54.2322 165.422 54.4122 165.342C54.5962 165.258 54.7522 165.13 54.8802 164.958C55.0082 164.782 55.1062 164.56 55.1742 164.292C55.2422 164.02 55.2762 163.696 55.2762 163.32C55.2762 162.644 55.1642 162.156 54.9402 161.856C54.7162 161.552 54.3942 161.4 53.9742 161.4C53.6902 161.4 53.4422 161.466 53.2302 161.598C53.0182 161.726 52.8162 161.908 52.6242 162.144V164.904ZM52.6242 161.1C52.8722 160.84 53.1462 160.634 53.4462 160.482C53.7502 160.326 54.0962 160.248 54.4842 160.248C54.8402 160.248 55.1602 160.318 55.4442 160.458C55.7322 160.598 55.9762 160.8 56.1762 161.064C56.3802 161.324 56.5362 161.64 56.6442 162.012C56.7522 162.384 56.8062 162.802 56.8062 163.266C56.8062 163.766 56.7442 164.22 56.6202 164.628C56.4962 165.036 56.3182 165.386 56.0862 165.678C55.8582 165.966 55.5822 166.19 55.2582 166.35C54.9342 166.51 54.5742 166.59 54.1782 166.59C53.9862 166.59 53.8122 166.57 53.6562 166.53C53.5002 166.494 53.3562 166.442 53.2242 166.374C53.0922 166.306 52.9702 166.224 52.8582 166.128C52.7502 166.028 52.6462 165.918 52.5462 165.798L52.4802 166.212C52.4562 166.316 52.4142 166.39 52.3542 166.434C52.2982 166.478 52.2202 166.5 52.1202 166.5H51.1422V157.584H52.6242V161.1ZM61.9168 162.714C61.9168 162.522 61.8888 162.342 61.8328 162.174C61.7808 162.002 61.7008 161.852 61.5928 161.724C61.4848 161.596 61.3468 161.496 61.1788 161.424C61.0148 161.348 60.8228 161.31 60.6028 161.31C60.1748 161.31 59.8368 161.432 59.5888 161.676C59.3448 161.92 59.1888 162.266 59.1208 162.714H61.9168ZM59.0908 163.608C59.1148 163.924 59.1708 164.198 59.2588 164.43C59.3468 164.658 59.4628 164.848 59.6068 165C59.7508 165.148 59.9208 165.26 60.1168 165.336C60.3168 165.408 60.5368 165.444 60.7768 165.444C61.0168 165.444 61.2228 165.416 61.3948 165.36C61.5708 165.304 61.7228 165.242 61.8508 165.174C61.9828 165.106 62.0968 165.044 62.1928 164.988C62.2928 164.932 62.3888 164.904 62.4808 164.904C62.6048 164.904 62.6968 164.95 62.7568 165.042L63.1828 165.582C63.0188 165.774 62.8348 165.936 62.6308 166.068C62.4268 166.196 62.2128 166.3 61.9888 166.38C61.7688 166.456 61.5428 166.51 61.3108 166.542C61.0828 166.574 60.8608 166.59 60.6448 166.59C60.2168 166.59 59.8188 166.52 59.4508 166.38C59.0828 166.236 58.7628 166.026 58.4908 165.75C58.2188 165.47 58.0048 165.126 57.8488 164.718C57.6928 164.306 57.6147 163.83 57.6147 163.29C57.6147 162.87 57.6828 162.476 57.8188 162.108C57.9548 161.736 58.1488 161.414 58.4008 161.142C58.6568 160.866 58.9668 160.648 59.3308 160.488C59.6988 160.328 60.1128 160.248 60.5728 160.248C60.9608 160.248 61.3188 160.31 61.6468 160.434C61.9748 160.558 62.2568 160.74 62.4928 160.98C62.7288 161.216 62.9128 161.508 63.0448 161.856C63.1808 162.2 63.2487 162.594 63.2487 163.038C63.2487 163.262 63.2248 163.414 63.1768 163.494C63.1288 163.57 63.0368 163.608 62.9008 163.608H59.0908ZM68.2249 161.916C68.0569 161.712 67.8729 161.568 67.6729 161.484C67.4769 161.4 67.2649 161.358 67.0369 161.358C66.8129 161.358 66.6109 161.4 66.4309 161.484C66.2509 161.568 66.0969 161.696 65.9689 161.868C65.8409 162.036 65.7429 162.252 65.6749 162.516C65.6069 162.776 65.5729 163.084 65.5729 163.44C65.5729 163.8 65.6009 164.106 65.6569 164.358C65.7169 164.606 65.8009 164.81 65.9089 164.97C66.0169 165.126 66.1489 165.24 66.3049 165.312C66.4609 165.38 66.6349 165.414 66.8269 165.414C67.1349 165.414 67.3969 165.35 67.6129 165.222C67.8289 165.094 68.0329 164.912 68.2249 164.676V161.916ZM69.7069 157.584V166.5H68.8009C68.6049 166.5 68.4809 166.41 68.4289 166.23L68.3029 165.636C68.0549 165.92 67.7689 166.15 67.4449 166.326C67.1249 166.502 66.7509 166.59 66.3229 166.59C65.9869 166.59 65.6789 166.52 65.3989 166.38C65.1189 166.24 64.8769 166.038 64.6729 165.774C64.4729 165.506 64.3169 165.176 64.2049 164.784C64.0969 164.392 64.0429 163.944 64.0429 163.44C64.0429 162.984 64.1049 162.56 64.2289 162.168C64.3529 161.776 64.5309 161.436 64.7629 161.148C64.9949 160.86 65.2729 160.636 65.5969 160.476C65.9209 160.312 66.2849 160.23 66.6889 160.23C67.0329 160.23 67.3269 160.284 67.5709 160.392C67.8149 160.5 68.0329 160.646 68.2249 160.83V157.584H69.7069ZM72.7055 160.344V166.5H71.2175V160.344H72.7055ZM72.9095 158.55C72.9095 158.678 72.8835 158.798 72.8315 158.91C72.7795 159.022 72.7095 159.12 72.6215 159.204C72.5375 159.288 72.4375 159.356 72.3215 159.408C72.2055 159.456 72.0815 159.48 71.9495 159.48C71.8215 159.48 71.6995 159.456 71.5835 159.408C71.4715 159.356 71.3735 159.288 71.2895 159.204C71.2055 159.12 71.1375 159.022 71.0855 158.91C71.0375 158.798 71.0135 158.678 71.0135 158.55C71.0135 158.418 71.0375 158.294 71.0855 158.178C71.1375 158.062 71.2055 157.962 71.2895 157.878C71.3735 157.794 71.4715 157.728 71.5835 157.68C71.6995 157.628 71.8215 157.602 71.9495 157.602C72.0815 157.602 72.2055 157.628 72.3215 157.68C72.4375 157.728 72.5375 157.794 72.6215 157.878C72.7095 157.962 72.7795 158.062 72.8315 158.178C72.8835 158.294 72.9095 158.418 72.9095 158.55ZM78.1824 162.714C78.1824 162.522 78.1544 162.342 78.0984 162.174C78.0464 162.002 77.9664 161.852 77.8584 161.724C77.7504 161.596 77.6124 161.496 77.4444 161.424C77.2804 161.348 77.0884 161.31 76.8684 161.31C76.4404 161.31 76.1024 161.432 75.8544 161.676C75.6104 161.92 75.4544 162.266 75.3864 162.714H78.1824ZM75.3564 163.608C75.3804 163.924 75.4364 164.198 75.5244 164.43C75.6124 164.658 75.7284 164.848 75.8724 165C76.0164 165.148 76.1864 165.26 76.3824 165.336C76.5824 165.408 76.8024 165.444 77.0424 165.444C77.2824 165.444 77.4884 165.416 77.6604 165.36C77.8364 165.304 77.9884 165.242 78.1164 165.174C78.2484 165.106 78.3624 165.044 78.4584 164.988C78.5584 164.932 78.6544 164.904 78.7464 164.904C78.8704 164.904 78.9624 164.95 79.0224 165.042L79.4484 165.582C79.2844 165.774 79.1004 165.936 78.8964 166.068C78.6924 166.196 78.4784 166.3 78.2544 166.38C78.0344 166.456 77.8084 166.51 77.5764 166.542C77.3484 166.574 77.1264 166.59 76.9104 166.59C76.4824 166.59 76.0844 166.52 75.7164 166.38C75.3484 166.236 75.0284 166.026 74.7564 165.75C74.4844 165.47 74.2704 165.126 74.1144 164.718C73.9584 164.306 73.8804 163.83 73.8804 163.29C73.8804 162.87 73.9484 162.476 74.0844 162.108C74.2204 161.736 74.4144 161.414 74.6664 161.142C74.9224 160.866 75.2324 160.648 75.5964 160.488C75.9644 160.328 76.3784 160.248 76.8384 160.248C77.2264 160.248 77.5844 160.31 77.9124 160.434C78.2404 160.558 78.5224 160.74 78.7584 160.98C78.9944 161.216 79.1784 161.508 79.3104 161.856C79.4464 162.2 79.5144 162.594 79.5144 163.038C79.5144 163.262 79.4904 163.414 79.4424 163.494C79.3944 163.57 79.3024 163.608 79.1664 163.608H75.3564ZM82.0125 161.1C82.1365 160.976 82.2665 160.862 82.4025 160.758C82.5425 160.65 82.6885 160.56 82.8405 160.488C82.9965 160.412 83.1625 160.354 83.3385 160.314C83.5145 160.27 83.7065 160.248 83.9145 160.248C84.2505 160.248 84.5485 160.306 84.8085 160.422C85.0685 160.534 85.2845 160.694 85.4565 160.902C85.6325 161.106 85.7645 161.352 85.8525 161.64C85.9445 161.924 85.9905 162.238 85.9905 162.582V166.5H84.5085V162.582C84.5085 162.206 84.4225 161.916 84.2505 161.712C84.0785 161.504 83.8165 161.4 83.4645 161.4C83.2085 161.4 82.9685 161.458 82.7445 161.574C82.5205 161.69 82.3085 161.848 82.1085 162.048V166.5H80.6265V160.344H81.5325C81.7245 160.344 81.8505 160.434 81.9105 160.614L82.0125 161.1ZM91.81 161.646C91.766 161.702 91.722 161.746 91.678 161.778C91.638 161.81 91.578 161.826 91.498 161.826C91.422 161.826 91.348 161.804 91.276 161.76C91.204 161.712 91.118 161.66 91.018 161.604C90.918 161.544 90.798 161.492 90.658 161.448C90.522 161.4 90.352 161.376 90.148 161.376C89.888 161.376 89.66 161.424 89.464 161.52C89.268 161.612 89.104 161.746 88.972 161.922C88.844 162.098 88.748 162.312 88.684 162.564C88.62 162.812 88.588 163.094 88.588 163.41C88.588 163.738 88.622 164.03 88.69 164.286C88.762 164.542 88.864 164.758 88.996 164.934C89.128 165.106 89.288 165.238 89.476 165.33C89.664 165.418 89.876 165.462 90.112 165.462C90.348 165.462 90.538 165.434 90.682 165.378C90.83 165.318 90.954 165.254 91.054 165.186C91.154 165.114 91.24 165.05 91.312 164.994C91.388 164.934 91.472 164.904 91.564 164.904C91.684 164.904 91.774 164.95 91.834 165.042L92.26 165.582C92.096 165.774 91.918 165.936 91.726 166.068C91.534 166.196 91.334 166.3 91.126 166.38C90.922 166.456 90.71 166.51 90.49 166.542C90.274 166.574 90.058 166.59 89.842 166.59C89.462 166.59 89.104 166.52 88.768 166.38C88.432 166.236 88.138 166.028 87.886 165.756C87.634 165.484 87.434 165.152 87.286 164.76C87.142 164.364 87.07 163.914 87.07 163.41C87.07 162.958 87.134 162.54 87.262 162.156C87.394 161.768 87.586 161.434 87.838 161.154C88.09 160.87 88.402 160.648 88.774 160.488C89.146 160.328 89.574 160.248 90.058 160.248C90.518 160.248 90.92 160.322 91.264 160.47C91.612 160.618 91.924 160.83 92.2 161.106L91.81 161.646ZM97.0496 162.714C97.0496 162.522 97.0216 162.342 96.9656 162.174C96.9136 162.002 96.8336 161.852 96.7256 161.724C96.6176 161.596 96.4796 161.496 96.3116 161.424C96.1476 161.348 95.9556 161.31 95.7356 161.31C95.3076 161.31 94.9696 161.432 94.7216 161.676C94.4776 161.92 94.3216 162.266 94.2536 162.714H97.0496ZM94.2236 163.608C94.2476 163.924 94.3036 164.198 94.3916 164.43C94.4796 164.658 94.5956 164.848 94.7396 165C94.8836 165.148 95.0536 165.26 95.2496 165.336C95.4496 165.408 95.6696 165.444 95.9096 165.444C96.1496 165.444 96.3556 165.416 96.5276 165.36C96.7036 165.304 96.8556 165.242 96.9836 165.174C97.1156 165.106 97.2296 165.044 97.3256 164.988C97.4256 164.932 97.5216 164.904 97.6136 164.904C97.7376 164.904 97.8296 164.95 97.8896 165.042L98.3156 165.582C98.1516 165.774 97.9676 165.936 97.7636 166.068C97.5596 166.196 97.3456 166.3 97.1216 166.38C96.9016 166.456 96.6756 166.51 96.4436 166.542C96.2156 166.574 95.9936 166.59 95.7776 166.59C95.3496 166.59 94.9516 166.52 94.5836 166.38C94.2156 166.236 93.8956 166.026 93.6236 165.75C93.3516 165.47 93.1376 165.126 92.9816 164.718C92.8256 164.306 92.7476 163.83 92.7476 163.29C92.7476 162.87 92.8156 162.476 92.9516 162.108C93.0876 161.736 93.2816 161.414 93.5336 161.142C93.7896 160.866 94.0996 160.648 94.4636 160.488C94.8316 160.328 95.2456 160.248 95.7056 160.248C96.0936 160.248 96.4516 160.31 96.7796 160.434C97.1076 160.558 97.3896 160.74 97.6256 160.98C97.8616 161.216 98.0456 161.508 98.1776 161.856C98.3136 162.2 98.3816 162.594 98.3816 163.038C98.3816 163.262 98.3576 163.414 98.3096 163.494C98.2616 163.57 98.1696 163.608 98.0336 163.608H94.2236ZM103.444 166.518C103.376 166.702 103.266 166.84 103.114 166.932C102.966 167.024 102.814 167.07 102.658 167.07H102.028L105.532 158.106C105.596 157.938 105.694 157.81 105.826 157.722C105.958 157.63 106.112 157.584 106.288 157.584H106.924L103.444 166.518ZM28.8585 179.24C29.1585 179.24 29.4105 179.204 29.6145 179.132C29.8185 179.06 29.9805 178.964 30.1005 178.844C30.2245 178.724 30.3125 178.584 30.3645 178.424C30.4205 178.264 30.4485 178.094 30.4485 177.914C30.4485 177.726 30.4185 177.558 30.3585 177.41C30.2985 177.258 30.2045 177.13 30.0765 177.026C29.9485 176.918 29.7825 176.836 29.5785 176.78C29.3785 176.724 29.1365 176.696 28.8525 176.696H27.2265V179.24H28.8585ZM27.2265 173.072V175.58H28.5105C29.0625 175.58 29.4785 175.48 29.7585 175.28C30.0425 175.08 30.1845 174.762 30.1845 174.326C30.1845 173.874 30.0565 173.552 29.8005 173.36C29.5445 173.168 29.1445 173.072 28.6005 173.072H27.2265ZM28.6005 171.824C29.1685 171.824 29.6545 171.878 30.0585 171.986C30.4625 172.094 30.7925 172.248 31.0485 172.448C31.3085 172.648 31.4985 172.89 31.6185 173.174C31.7385 173.458 31.7985 173.778 31.7985 174.134C31.7985 174.338 31.7685 174.534 31.7085 174.722C31.6485 174.906 31.5545 175.08 31.4265 175.244C31.3025 175.404 31.1425 175.55 30.9465 175.682C30.7545 175.814 30.5245 175.926 30.2565 176.018C31.4485 176.286 32.0445 176.93 32.0445 177.95C32.0445 178.318 31.9745 178.658 31.8345 178.97C31.6945 179.282 31.4905 179.552 31.2225 179.78C30.9545 180.004 30.6245 180.18 30.2325 180.308C29.8405 180.436 29.3925 180.5 28.8885 180.5H25.6125V171.824H28.6005ZM37.1609 176.714C37.1609 176.522 37.1329 176.342 37.0769 176.174C37.0249 176.002 36.9449 175.852 36.8369 175.724C36.7289 175.596 36.5909 175.496 36.4229 175.424C36.2589 175.348 36.0669 175.31 35.8469 175.31C35.4189 175.31 35.0809 175.432 34.8329 175.676C34.5889 175.92 34.4329 176.266 34.3649 176.714H37.1609ZM34.3349 177.608C34.3589 177.924 34.4149 178.198 34.5029 178.43C34.5909 178.658 34.7069 178.848 34.8509 179C34.9949 179.148 35.1649 179.26 35.3609 179.336C35.5609 179.408 35.7809 179.444 36.0209 179.444C36.2609 179.444 36.4669 179.416 36.6389 179.36C36.8149 179.304 36.9669 179.242 37.0949 179.174C37.2269 179.106 37.3409 179.044 37.4369 178.988C37.5369 178.932 37.6329 178.904 37.7249 178.904C37.8489 178.904 37.9409 178.95 38.0009 179.042L38.4269 179.582C38.2629 179.774 38.0789 179.936 37.8749 180.068C37.6709 180.196 37.4569 180.3 37.2329 180.38C37.0129 180.456 36.7869 180.51 36.5549 180.542C36.3269 180.574 36.1049 180.59 35.8889 180.59C35.4609 180.59 35.0629 180.52 34.6949 180.38C34.3269 180.236 34.0069 180.026 33.7349 179.75C33.4629 179.47 33.2489 179.126 33.0929 178.718C32.9369 178.306 32.8589 177.83 32.8589 177.29C32.8589 176.87 32.9269 176.476 33.0629 176.108C33.1989 175.736 33.3929 175.414 33.6449 175.142C33.9009 174.866 34.2109 174.648 34.5749 174.488C34.9429 174.328 35.3569 174.248 35.8169 174.248C36.2049 174.248 36.5629 174.31 36.8909 174.434C37.2189 174.558 37.5009 174.74 37.7369 174.98C37.9729 175.216 38.1569 175.508 38.2889 175.856C38.4249 176.2 38.4929 176.594 38.4929 177.038C38.4929 177.262 38.4689 177.414 38.4209 177.494C38.3729 177.57 38.2809 177.608 38.1449 177.608H34.3349ZM41.087 175.004C41.327 174.78 41.591 174.598 41.879 174.458C42.167 174.318 42.505 174.248 42.893 174.248C43.229 174.248 43.527 174.306 43.787 174.422C44.047 174.534 44.263 174.694 44.435 174.902C44.611 175.106 44.743 175.352 44.831 175.64C44.923 175.924 44.969 176.238 44.969 176.582V180.5H43.487V176.582C43.487 176.206 43.401 175.916 43.229 175.712C43.057 175.504 42.795 175.4 42.443 175.4C42.187 175.4 41.947 175.458 41.723 175.574C41.499 175.69 41.287 175.848 41.087 176.048V180.5H39.605V171.584H41.087V175.004ZM49.6305 177.872C49.2025 177.892 48.8425 177.93 48.5505 177.986C48.2585 178.038 48.0245 178.106 47.8485 178.19C47.6725 178.274 47.5465 178.372 47.4705 178.484C47.3945 178.596 47.3565 178.718 47.3565 178.85C47.3565 179.11 47.4325 179.296 47.5845 179.408C47.7405 179.52 47.9425 179.576 48.1905 179.576C48.4945 179.576 48.7565 179.522 48.9765 179.414C49.2005 179.302 49.4185 179.134 49.6305 178.91V177.872ZM46.2345 175.202C46.9425 174.554 47.7945 174.23 48.7905 174.23C49.1505 174.23 49.4725 174.29 49.7565 174.41C50.0405 174.526 50.2805 174.69 50.4765 174.902C50.6725 175.11 50.8205 175.36 50.9205 175.652C51.0245 175.944 51.0765 176.264 51.0765 176.612V180.5H50.4045C50.2645 180.5 50.1565 180.48 50.0805 180.44C50.0045 180.396 49.9445 180.31 49.9005 180.182L49.7685 179.738C49.6125 179.878 49.4605 180.002 49.3125 180.11C49.1645 180.214 49.0105 180.302 48.8505 180.374C48.6905 180.446 48.5185 180.5 48.3345 180.536C48.1545 180.576 47.9545 180.596 47.7345 180.596C47.4745 180.596 47.2345 180.562 47.0145 180.494C46.7945 180.422 46.6045 180.316 46.4445 180.176C46.2845 180.036 46.1605 179.862 46.0725 179.654C45.9845 179.446 45.9405 179.204 45.9405 178.928C45.9405 178.772 45.9665 178.618 46.0185 178.466C46.0705 178.31 46.1545 178.162 46.2705 178.022C46.3905 177.882 46.5445 177.75 46.7325 177.626C46.9205 177.502 47.1505 177.394 47.4225 177.302C47.6985 177.21 48.0185 177.136 48.3825 177.08C48.7465 177.02 49.1625 176.984 49.6305 176.972V176.612C49.6305 176.2 49.5425 175.896 49.3665 175.7C49.1905 175.5 48.9365 175.4 48.6045 175.4C48.3645 175.4 48.1645 175.428 48.0045 175.484C47.8485 175.54 47.7105 175.604 47.5905 175.676C47.4705 175.744 47.3605 175.806 47.2605 175.862C47.1645 175.918 47.0565 175.946 46.9365 175.946C46.8325 175.946 46.7445 175.92 46.6725 175.868C46.6005 175.812 46.5425 175.748 46.4985 175.676L46.2345 175.202ZM57.8816 174.344L55.4396 180.5H54.0956L51.6536 174.344H52.8776C52.9896 174.344 53.0816 174.37 53.1536 174.422C53.2296 174.474 53.2796 174.54 53.3036 174.62L54.4916 177.908C54.5556 178.1 54.6116 178.288 54.6596 178.472C54.7076 178.656 54.7496 178.84 54.7856 179.024C54.8256 178.84 54.8696 178.656 54.9176 178.472C54.9656 178.288 55.0236 178.1 55.0916 177.908L56.3036 174.62C56.3316 174.54 56.3816 174.474 56.4536 174.422C56.5256 174.37 56.6116 174.344 56.7116 174.344H57.8816ZM60.2075 174.344V180.5H58.7195V174.344H60.2075ZM60.4115 172.55C60.4115 172.678 60.3855 172.798 60.3335 172.91C60.2815 173.022 60.2115 173.12 60.1235 173.204C60.0395 173.288 59.9395 173.356 59.8235 173.408C59.7075 173.456 59.5835 173.48 59.4515 173.48C59.3235 173.48 59.2015 173.456 59.0855 173.408C58.9735 173.356 58.8755 173.288 58.7915 173.204C58.7075 173.12 58.6395 173.022 58.5875 172.91C58.5395 172.798 58.5155 172.678 58.5155 172.55C58.5155 172.418 58.5395 172.294 58.5875 172.178C58.6395 172.062 58.7075 171.962 58.7915 171.878C58.8755 171.794 58.9735 171.728 59.0855 171.68C59.2015 171.628 59.3235 171.602 59.4515 171.602C59.5835 171.602 59.7075 171.628 59.8235 171.68C59.9395 171.728 60.0395 171.794 60.1235 171.878C60.2115 171.962 60.2815 172.062 60.3335 172.178C60.3855 172.294 60.4115 172.418 60.4115 172.55ZM64.4423 174.248C64.8983 174.248 65.3123 174.322 65.6843 174.47C66.0603 174.618 66.3803 174.828 66.6443 175.1C66.9123 175.372 67.1183 175.704 67.2623 176.096C67.4063 176.488 67.4783 176.926 67.4783 177.41C67.4783 177.898 67.4063 178.338 67.2623 178.73C67.1183 179.122 66.9123 179.456 66.6443 179.732C66.3803 180.008 66.0603 180.22 65.6843 180.368C65.3123 180.516 64.8983 180.59 64.4423 180.59C63.9823 180.59 63.5643 180.516 63.1883 180.368C62.8123 180.22 62.4903 180.008 62.2223 179.732C61.9583 179.456 61.7523 179.122 61.6043 178.73C61.4603 178.338 61.3883 177.898 61.3883 177.41C61.3883 176.926 61.4603 176.488 61.6043 176.096C61.7523 175.704 61.9583 175.372 62.2223 175.1C62.4903 174.828 62.8123 174.618 63.1883 174.47C63.5643 174.322 63.9823 174.248 64.4423 174.248ZM64.4423 179.45C64.9543 179.45 65.3323 179.278 65.5763 178.934C65.8243 178.59 65.9483 178.086 65.9483 177.422C65.9483 176.758 65.8243 176.252 65.5763 175.904C65.3323 175.556 64.9543 175.382 64.4423 175.382C63.9223 175.382 63.5363 175.558 63.2843 175.91C63.0363 176.258 62.9123 176.762 62.9123 177.422C62.9123 178.082 63.0363 178.586 63.2843 178.934C63.5363 179.278 63.9223 179.45 64.4423 179.45ZM70.007 175.412C70.199 175.044 70.427 174.756 70.691 174.548C70.955 174.336 71.267 174.23 71.627 174.23C71.911 174.23 72.139 174.292 72.311 174.416L72.215 175.526C72.195 175.598 72.165 175.65 72.125 175.682C72.089 175.71 72.039 175.724 71.975 175.724C71.915 175.724 71.825 175.714 71.705 175.694C71.589 175.674 71.475 175.664 71.363 175.664C71.199 175.664 71.053 175.688 70.925 175.736C70.797 175.784 70.681 175.854 70.577 175.946C70.477 176.034 70.387 176.142 70.307 176.27C70.231 176.398 70.159 176.544 70.091 176.708V180.5H68.609V174.344H69.479C69.631 174.344 69.737 174.372 69.797 174.428C69.857 174.48 69.897 174.576 69.917 174.716L70.007 175.412ZM76.2555 177.872C75.8275 177.892 75.4675 177.93 75.1755 177.986C74.8835 178.038 74.6495 178.106 74.4735 178.19C74.2975 178.274 74.1715 178.372 74.0955 178.484C74.0195 178.596 73.9815 178.718 73.9815 178.85C73.9815 179.11 74.0575 179.296 74.2095 179.408C74.3655 179.52 74.5675 179.576 74.8155 179.576C75.1195 179.576 75.3815 179.522 75.6015 179.414C75.8255 179.302 76.0435 179.134 76.2555 178.91V177.872ZM72.8595 175.202C73.5675 174.554 74.4195 174.23 75.4155 174.23C75.7755 174.23 76.0975 174.29 76.3815 174.41C76.6655 174.526 76.9055 174.69 77.1015 174.902C77.2975 175.11 77.4455 175.36 77.5455 175.652C77.6495 175.944 77.7015 176.264 77.7015 176.612V180.5H77.0295C76.8895 180.5 76.7815 180.48 76.7055 180.44C76.6295 180.396 76.5695 180.31 76.5255 180.182L76.3935 179.738C76.2375 179.878 76.0855 180.002 75.9375 180.11C75.7895 180.214 75.6355 180.302 75.4755 180.374C75.3155 180.446 75.1435 180.5 74.9595 180.536C74.7795 180.576 74.5795 180.596 74.3595 180.596C74.0995 180.596 73.8595 180.562 73.6395 180.494C73.4195 180.422 73.2295 180.316 73.0695 180.176C72.9095 180.036 72.7855 179.862 72.6975 179.654C72.6095 179.446 72.5655 179.204 72.5655 178.928C72.5655 178.772 72.5915 178.618 72.6435 178.466C72.6955 178.31 72.7795 178.162 72.8955 178.022C73.0155 177.882 73.1695 177.75 73.3575 177.626C73.5455 177.502 73.7755 177.394 74.0475 177.302C74.3235 177.21 74.6435 177.136 75.0075 177.08C75.3715 177.02 75.7875 176.984 76.2555 176.972V176.612C76.2555 176.2 76.1675 175.896 75.9915 175.7C75.8155 175.5 75.5615 175.4 75.2295 175.4C74.9895 175.4 74.7895 175.428 74.6295 175.484C74.4735 175.54 74.3355 175.604 74.2155 175.676C74.0955 175.744 73.9855 175.806 73.8855 175.862C73.7895 175.918 73.6815 175.946 73.5615 175.946C73.4575 175.946 73.3695 175.92 73.2975 175.868C73.2255 175.812 73.1675 175.748 73.1235 175.676L72.8595 175.202ZM80.5972 171.584V180.5H79.1152V171.584H80.5972ZM90.9225 173.15H88.3065V180.5H86.6925V173.15H84.0765V171.824H90.9225V173.15ZM92.0148 175.412C92.2068 175.044 92.4348 174.756 92.6988 174.548C92.9628 174.336 93.2748 174.23 93.6348 174.23C93.9188 174.23 94.1468 174.292 94.3188 174.416L94.2228 175.526C94.2028 175.598 94.1728 175.65 94.1328 175.682C94.0968 175.71 94.0468 175.724 93.9828 175.724C93.9228 175.724 93.8328 175.714 93.7128 175.694C93.5968 175.674 93.4828 175.664 93.3708 175.664C93.2068 175.664 93.0608 175.688 92.9328 175.736C92.8048 175.784 92.6888 175.854 92.5848 175.946C92.4848 176.034 92.3948 176.142 92.3148 176.27C92.2388 176.398 92.1668 176.544 92.0988 176.708V180.5H90.6168V174.344H91.4868C91.6388 174.344 91.7448 174.372 91.8048 174.428C91.8648 174.48 91.9048 174.576 91.9248 174.716L92.0148 175.412ZM98.2633 177.872C97.8353 177.892 97.4753 177.93 97.1833 177.986C96.8913 178.038 96.6573 178.106 96.4813 178.19C96.3053 178.274 96.1793 178.372 96.1033 178.484C96.0273 178.596 95.9893 178.718 95.9893 178.85C95.9893 179.11 96.0653 179.296 96.2173 179.408C96.3733 179.52 96.5753 179.576 96.8233 179.576C97.1273 179.576 97.3893 179.522 97.6093 179.414C97.8333 179.302 98.0513 179.134 98.2633 178.91V177.872ZM94.8673 175.202C95.5753 174.554 96.4273 174.23 97.4233 174.23C97.7833 174.23 98.1053 174.29 98.3893 174.41C98.6733 174.526 98.9133 174.69 99.1093 174.902C99.3053 175.11 99.4533 175.36 99.5533 175.652C99.6573 175.944 99.7093 176.264 99.7093 176.612V180.5H99.0373C98.8973 180.5 98.7893 180.48 98.7133 180.44C98.6373 180.396 98.5773 180.31 98.5333 180.182L98.4013 179.738C98.2453 179.878 98.0933 180.002 97.9453 180.11C97.7973 180.214 97.6433 180.302 97.4833 180.374C97.3233 180.446 97.1513 180.5 96.9673 180.536C96.7873 180.576 96.5873 180.596 96.3673 180.596C96.1073 180.596 95.8673 180.562 95.6473 180.494C95.4273 180.422 95.2373 180.316 95.0773 180.176C94.9173 180.036 94.7933 179.862 94.7053 179.654C94.6173 179.446 94.5733 179.204 94.5733 178.928C94.5733 178.772 94.5993 178.618 94.6513 178.466C94.7033 178.31 94.7873 178.162 94.9033 178.022C95.0233 177.882 95.1773 177.75 95.3653 177.626C95.5533 177.502 95.7833 177.394 96.0553 177.302C96.3313 177.21 96.6513 177.136 97.0153 177.08C97.3793 177.02 97.7953 176.984 98.2633 176.972V176.612C98.2633 176.2 98.1753 175.896 97.9993 175.7C97.8233 175.5 97.5693 175.4 97.2373 175.4C96.9973 175.4 96.7973 175.428 96.6373 175.484C96.4813 175.54 96.3433 175.604 96.2233 175.676C96.1033 175.744 95.9933 175.806 95.8933 175.862C95.7973 175.918 95.6893 175.946 95.5693 175.946C95.4653 175.946 95.3773 175.92 95.3053 175.868C95.2333 175.812 95.1753 175.748 95.1313 175.676L94.8673 175.202ZM102.641 174.344V180.5H101.153V174.344H102.641ZM102.845 172.55C102.845 172.678 102.819 172.798 102.767 172.91C102.715 173.022 102.645 173.12 102.557 173.204C102.473 173.288 102.373 173.356 102.257 173.408C102.141 173.456 102.017 173.48 101.885 173.48C101.757 173.48 101.635 173.456 101.519 173.408C101.407 173.356 101.309 173.288 101.225 173.204C101.141 173.12 101.073 173.022 101.021 172.91C100.973 172.798 100.949 172.678 100.949 172.55C100.949 172.418 100.973 172.294 101.021 172.178C101.073 172.062 101.141 171.962 101.225 171.878C101.309 171.794 101.407 171.728 101.519 171.68C101.635 171.628 101.757 171.602 101.885 171.602C102.017 171.602 102.141 171.628 102.257 171.68C102.373 171.728 102.473 171.794 102.557 171.878C102.645 171.962 102.715 172.062 102.767 172.178C102.819 172.294 102.845 172.418 102.845 172.55ZM105.538 175.1C105.662 174.976 105.792 174.862 105.928 174.758C106.068 174.65 106.214 174.56 106.366 174.488C106.522 174.412 106.688 174.354 106.864 174.314C107.04 174.27 107.232 174.248 107.44 174.248C107.776 174.248 108.074 174.306 108.334 174.422C108.594 174.534 108.81 174.694 108.982 174.902C109.158 175.106 109.29 175.352 109.378 175.64C109.47 175.924 109.516 176.238 109.516 176.582V180.5H108.034V176.582C108.034 176.206 107.948 175.916 107.776 175.712C107.604 175.504 107.342 175.4 106.99 175.4C106.734 175.4 106.494 175.458 106.27 175.574C106.046 175.69 105.834 175.848 105.634 176.048V180.5H104.152V174.344H105.058C105.25 174.344 105.376 174.434 105.436 174.614L105.538 175.1ZM112.461 174.344V180.5H110.973V174.344H112.461ZM112.665 172.55C112.665 172.678 112.639 172.798 112.587 172.91C112.535 173.022 112.465 173.12 112.377 173.204C112.293 173.288 112.193 173.356 112.077 173.408C111.961 173.456 111.837 173.48 111.705 173.48C111.577 173.48 111.455 173.456 111.339 173.408C111.227 173.356 111.129 173.288 111.045 173.204C110.961 173.12 110.893 173.022 110.841 172.91C110.793 172.798 110.769 172.678 110.769 172.55C110.769 172.418 110.793 172.294 110.841 172.178C110.893 172.062 110.961 171.962 111.045 171.878C111.129 171.794 111.227 171.728 111.339 171.68C111.455 171.628 111.577 171.602 111.705 171.602C111.837 171.602 111.961 171.628 112.077 171.68C112.193 171.728 112.293 171.794 112.377 171.878C112.465 171.962 112.535 172.062 112.587 172.178C112.639 172.294 112.665 172.418 112.665 172.55ZM115.358 175.1C115.482 174.976 115.612 174.862 115.748 174.758C115.888 174.65 116.034 174.56 116.186 174.488C116.342 174.412 116.508 174.354 116.684 174.314C116.86 174.27 117.052 174.248 117.26 174.248C117.596 174.248 117.894 174.306 118.154 174.422C118.414 174.534 118.63 174.694 118.802 174.902C118.978 175.106 119.11 175.352 119.198 175.64C119.29 175.924 119.336 176.238 119.336 176.582V180.5H117.854V176.582C117.854 176.206 117.768 175.916 117.596 175.712C117.424 175.504 117.162 175.4 116.81 175.4C116.554 175.4 116.314 175.458 116.09 175.574C115.866 175.69 115.654 175.848 115.454 176.048V180.5H113.972V174.344H114.878C115.07 174.344 115.196 174.434 115.256 174.614L115.358 175.1ZM122.996 177.272C123.18 177.272 123.34 177.248 123.476 177.2C123.612 177.148 123.724 177.078 123.812 176.99C123.904 176.902 123.972 176.796 124.016 176.672C124.064 176.548 124.088 176.412 124.088 176.264C124.088 175.96 123.996 175.72 123.812 175.544C123.632 175.364 123.36 175.274 122.996 175.274C122.632 175.274 122.358 175.364 122.174 175.544C121.994 175.72 121.904 175.96 121.904 176.264C121.904 176.408 121.926 176.542 121.97 176.666C122.018 176.79 122.086 176.898 122.174 176.99C122.266 177.078 122.38 177.148 122.516 177.2C122.656 177.248 122.816 177.272 122.996 177.272ZM124.67 180.776C124.67 180.656 124.634 180.558 124.562 180.482C124.49 180.406 124.392 180.348 124.268 180.308C124.144 180.264 123.998 180.232 123.83 180.212C123.666 180.192 123.49 180.178 123.302 180.17C123.118 180.158 122.926 180.148 122.726 180.14C122.53 180.132 122.338 180.116 122.15 180.092C121.986 180.184 121.852 180.292 121.748 180.416C121.648 180.54 121.598 180.684 121.598 180.848C121.598 180.956 121.624 181.056 121.676 181.148C121.732 181.244 121.818 181.326 121.934 181.394C122.054 181.462 122.208 181.514 122.396 181.55C122.584 181.59 122.814 181.61 123.086 181.61C123.362 181.61 123.6 181.588 123.8 181.544C124 181.504 124.164 181.446 124.292 181.37C124.424 181.298 124.52 181.21 124.58 181.106C124.64 181.006 124.67 180.896 124.67 180.776ZM126.146 174.554V175.106C126.146 175.282 126.04 175.39 125.828 175.43L125.276 175.532C125.36 175.744 125.402 175.976 125.402 176.228C125.402 176.532 125.34 176.808 125.216 177.056C125.096 177.3 124.928 177.508 124.712 177.68C124.496 177.852 124.24 177.986 123.944 178.082C123.652 178.174 123.336 178.22 122.996 178.22C122.876 178.22 122.76 178.214 122.648 178.202C122.536 178.19 122.426 178.174 122.318 178.154C122.126 178.27 122.03 178.4 122.03 178.544C122.03 178.668 122.086 178.76 122.198 178.82C122.314 178.876 122.466 178.916 122.654 178.94C122.842 178.964 123.056 178.98 123.296 178.988C123.536 178.992 123.782 179.004 124.034 179.024C124.286 179.044 124.532 179.08 124.772 179.132C125.012 179.18 125.226 179.258 125.414 179.366C125.602 179.474 125.752 179.622 125.864 179.81C125.98 179.994 126.038 180.232 126.038 180.524C126.038 180.796 125.97 181.06 125.834 181.316C125.702 181.572 125.508 181.8 125.252 182C125 182.2 124.688 182.36 124.316 182.48C123.948 182.604 123.528 182.666 123.056 182.666C122.592 182.666 122.188 182.62 121.844 182.528C121.5 182.44 121.214 182.32 120.986 182.168C120.758 182.02 120.588 181.848 120.476 181.652C120.364 181.456 120.308 181.252 120.308 181.04C120.308 180.752 120.394 180.512 120.566 180.32C120.742 180.124 120.982 179.968 121.286 179.852C121.122 179.768 120.992 179.656 120.896 179.516C120.8 179.376 120.752 179.192 120.752 178.964C120.752 178.872 120.768 178.778 120.8 178.682C120.836 178.582 120.886 178.484 120.95 178.388C121.018 178.292 121.102 178.202 121.202 178.118C121.302 178.03 121.42 177.952 121.556 177.884C121.244 177.716 120.998 177.492 120.818 177.212C120.642 176.932 120.554 176.604 120.554 176.228C120.554 175.924 120.614 175.65 120.734 175.406C120.858 175.158 121.028 174.948 121.244 174.776C121.464 174.6 121.722 174.466 122.018 174.374C122.318 174.282 122.644 174.236 122.996 174.236C123.26 174.236 123.508 174.264 123.74 174.32C123.972 174.372 124.184 174.45 124.376 174.554H126.146Z" fill="black"/>
</svg>
