<svg width="151" height="181" viewBox="0 0 151 181" fill="none" xmlns="http://www.w3.org/2000/svg">
<rect x="0.5" width="150" height="150" rx="75" fill="#BEC8FF"/>
<g clip-path="url(#clip0_542_9672)">
<path d="M65.0964 112.011C65.0964 112.68 56.2683 113.222 45.3783 113.222C34.4883 113.222 25.6602 112.68 25.6602 112.011C25.6602 111.342 34.4883 110.8 45.3783 110.8C56.2684 110.8 65.0964 111.342 65.0964 112.011Z" fill="#766780"/>
<path d="M59.431 48.5341C59.431 48.5341 59.6514 46.1278 59.431 44.749C59.2105 43.3702 58.2817 41.2072 57.5077 40.3421C56.7337 39.4769 56.3209 38.8281 57.7313 38.5306C59.1417 38.2332 60.5177 38.4495 61.0681 40.288C61.6185 42.1264 60.9627 43.8298 60.7402 44.8842C60.5177 45.9386 60.7402 47.7501 60.7402 47.7501L59.431 48.5341Z" fill="#5C4040"/>
<path d="M63.9184 47.1625C63.9019 47.0688 63.8703 46.9835 63.8266 46.9148L63.7543 46.8271C63.6997 46.7768 63.6375 46.7503 63.5741 46.7504C63.5263 46.747 63.4788 46.7637 63.4366 46.7989C63.3925 46.8212 63.3529 46.8612 63.3217 46.9148C63.2875 46.964 63.2621 47.0263 63.2478 47.0955C63.2255 47.162 63.2149 47.2367 63.2171 47.3118L63.2299 47.4609C63.2468 47.556 63.2775 47.6385 63.3217 47.7086L63.3939 47.7963C63.4485 47.8467 63.5108 47.8731 63.5741 47.873C63.6219 47.8764 63.6694 47.8597 63.7117 47.8246C63.7557 47.8023 63.7953 47.7623 63.8266 47.7087C63.8607 47.6595 63.8862 47.5973 63.9004 47.528C63.9227 47.4615 63.9333 47.3869 63.9311 47.3118L63.9184 47.1625Z" fill="#1A1A1A"/>
<path d="M55.1024 52.3047C55.1024 52.3047 55.4215 51.0098 56.1068 50.4613C56.1068 50.4613 53.1864 45.7098 53.4257 44.4783C53.665 43.2467 56.4913 41.9152 57.6665 42.469C58.8418 43.0229 57.9485 44.9375 57.2392 45.8836C56.5299 46.8297 58.0966 48.9428 58.0966 48.9428C58.0966 48.9428 59.8033 47.3333 61.2991 46.4936C62.7948 45.6539 63.0694 46.2984 63.2738 46.9268C63.4782 47.5551 63.6421 47.8711 64.7859 47.3223C65.9298 46.7735 68.9744 44.5748 69.4103 44.6106C69.8462 44.6463 69.4584 49.5912 69.2764 49.9129C69.0943 50.2346 67.1774 51.8464 65.7874 52.3048C64.3974 52.7634 63.755 53.5411 64.8241 54.3837C65.8932 55.2264 68.4913 52.8199 69.6098 52.3048C70.7283 51.7897 71.1592 52.3514 70.1644 53.8449C69.1696 55.3384 64.2914 59.1136 63.0623 60.7808C61.8333 62.4478 61.7873 62.5418 62.0667 64.4072C62.3461 66.2726 62.8018 67.9472 62.5812 70.1171C62.5812 70.1171 65.2014 67.1897 66.641 66.8143C68.0807 66.439 69.427 72.9642 69.9572 75.8791C70.4873 78.794 68.3149 79.1859 67.0328 78.4581C65.7508 77.7304 66.5673 75.7496 66.4968 75.0327C66.0724 70.7187 63.7976 78.7478 62.1923 79.0787C60.5869 79.4097 60.2291 76.8399 59.9609 76.1574C59.6926 75.475 56.9144 85.1646 55.8277 86.7397C54.741 88.3147 53.8205 89.3741 51.2919 89.8779C48.7634 90.3816 44.7035 87.5827 41.8188 88.0305C38.9342 88.4784 39.2347 88.9422 39.3553 90.1903C39.476 91.4384 39.2903 99.6183 35.3372 100.962C31.3841 102.305 29.9085 100.01 29.9085 100.01L28.3442 106.761C28.3442 106.761 29.4611 105.72 29.8885 106.616C30.3158 107.511 30.672 111.598 30.672 112.046C30.672 112.494 25.8809 112.718 25.5877 112.046C25.2944 111.374 25.793 102.585 26.256 97.827C26.719 93.0687 27.013 92.5789 28.0412 93.8874C29.0694 95.1959 29.0739 86.5125 30.9591 83.2689C32.8444 80.0254 34.1621 79.5775 34.8031 80.1933C34.8031 80.1933 35.3017 76.8345 39.0767 72.804C42.8517 68.7734 45.2378 68.3816 45.2378 68.3816C45.2378 68.3816 44.2762 65.3026 45.9144 62.7276C47.5526 60.1526 50.6025 60.2449 52.151 58.5763C53.6994 56.9076 54.4257 54.4741 55.1024 52.3047Z" fill="#6C4E4E"/>
<path d="M53.5955 89.0507C52.9977 89.4066 52.2635 89.683 51.2907 89.8769C49.2488 90.2839 46.2084 88.5375 43.5946 88.0859C43.2645 88.7086 43.0641 89.1492 43.0641 89.1492L42.6367 91.3883C42.6367 91.3883 44.7735 94.6352 46.5552 96.0347C46.5552 96.0347 44.5242 95.6429 44.0612 96.4825C43.5982 97.3224 46.839 111.597 47.2308 111.821C47.6225 112.045 51.2907 112.157 51.6112 111.653C51.9317 111.149 51.2682 108.108 50.4781 106.494C49.688 104.88 48.2405 106.559 48.1096 106.335C47.9787 106.111 47.4474 99.3832 47.9979 99.1924C48.5485 99.0017 49.6611 100.233 51.7936 99.5615C53.9261 98.8897 54.0069 94.6749 53.8192 91.5005C53.7563 90.4361 53.6913 89.6654 53.5955 89.0507Z" fill="#5C4040"/>
<path d="M41.8183 88.0302C38.9337 88.478 39.2342 88.9419 39.3548 90.1899C39.3901 90.555 39.3983 91.5154 39.2945 92.7222C39.9667 92.6758 40.9852 92.5091 41.7871 91.9572C41.7871 91.9572 43.3325 92.7781 46.5559 88.9294C44.9064 88.364 43.2231 87.8121 41.8183 88.0302Z" fill="#785C5C"/>
<path d="M56.6712 46.5439C56.6712 46.5439 56.3616 46.7332 55.9316 46.7332C55.5016 46.7332 57.1845 49.7881 57.1845 49.7881L57.7753 49.2374C57.7753 49.2374 56.74 47.7606 56.6712 46.5439Z" fill="#5C4040"/>
<path d="M62.2365 48.8497C62.2012 48.755 62.151 48.6761 62.0908 48.6207C62.0286 48.5633 61.9578 48.5332 61.8857 48.5335C61.7967 48.5252 61.7242 48.5842 61.6466 48.6388C61.6316 48.6495 61.6165 48.6601 61.6018 48.6719C61.5728 48.695 61.5462 48.7279 61.5201 48.7582C61.4663 48.8201 61.4137 48.8846 61.3623 48.9515C61.3497 48.9681 61.3372 48.9851 61.325 49.0022C61.304 49.0317 61.2865 49.0663 61.2699 49.1023C61.2618 49.116 61.2537 49.13 61.2459 49.1442C61.2288 49.1749 61.2123 49.2063 61.1963 49.2383C61.1565 49.2955 61.1269 49.3679 61.1104 49.4486C61.0844 49.526 61.072 49.6129 61.0745 49.7003C61.072 49.7877 61.0844 49.8746 61.1104 49.952C61.127 50.0326 61.1566 50.1051 61.1963 50.1623C61.2755 50.2766 61.3795 50.3615 61.4902 50.3536L61.6007 50.3303C61.6701 50.3003 61.7333 50.2424 61.7842 50.1623C61.8129 50.1108 61.8436 50.0623 61.875 50.0147C61.8928 49.994 61.9106 49.9728 61.9269 49.9484C61.9396 49.9291 61.9525 49.9104 61.9656 49.8921C61.9827 49.8681 62.0007 49.8459 62.0184 49.8233C62.0513 49.7864 62.0831 49.7474 62.1139 49.7062C62.1615 49.6407 62.2063 49.5929 62.2363 49.4941C62.2728 49.3963 62.2919 49.2851 62.2918 49.1718C62.2918 49.0567 62.2733 48.9493 62.2365 48.8497Z" fill="#1A1A1A"/>
<path d="M38.3057 78.2397C38.112 78.2397 33.0768 76.136 31.2446 72.1387C29.4124 68.1414 29.3078 62.9537 31.2446 60.5676C33.1814 58.1815 35.0189 58.8462 36.5209 59.3913C38.0229 59.9364 38.8332 59.165 39.5024 58.8846C39.625 57.078 37.9782 57.482 37.3536 57.2015C36.729 56.921 37.7551 55.1678 38.0674 54.9574C38.3797 54.747 34.5429 53.2042 32.6246 54.747C30.7062 56.2898 32.9842 53.1869 32.0928 53.1126C31.2014 53.0384 27.2085 54.7812 27.1817 60.0767C27.1549 65.3721 26.7455 64.41 26.4269 64.8454C26.1082 65.2807 25.3475 69.884 27.8428 73.0033C27.8428 73.0033 27.4494 73.6148 27.1372 73.8234C26.8249 74.0321 29.1513 76.3055 31.4234 76.1506C31.4234 76.1506 30.8847 77.5385 31.6432 77.8189C32.4016 78.0995 35.6584 79.7825 36.506 79.502C37.3536 79.2216 38.3057 78.2397 38.3057 78.2397Z" fill="#6C4E4E"/>
<path d="M69.2783 49.9117C69.3713 49.7772 69.9138 49.2739 70.4409 47.7144C70.9679 46.1548 71.0299 43.6694 70.4409 43.8643C69.8518 44.0593 69.11 44.7049 69.11 44.7049C69.11 44.7049 68.9217 44.9852 68.9527 45.5213C68.9837 46.0574 68.8654 50.5095 69.2783 49.9117Z" fill="#1A1A1A"/>
<path d="M56.7476 65.2998C56.6612 64.4748 56.3441 63.825 55.8574 63.4877C55.3798 63.1568 54.8518 63.0822 54.3371 63.015C53.7311 62.9358 53.1222 62.9094 52.5144 62.91C51.9067 62.9106 51.2991 62.9176 50.6918 62.8789C50.1001 62.8413 49.5226 62.7234 48.9386 62.5769C48.641 62.5023 48.3452 62.4081 48.0522 62.2969C47.7881 62.1968 47.699 62.7736 47.9423 62.9238C49.0147 63.5861 50.1874 63.6812 51.3277 63.7373C52.4703 63.7935 53.6216 63.7592 54.759 63.9593C55.1586 64.0296 55.6338 64.1397 55.938 64.5935C56.3051 65.1412 56.2508 66.1102 56.2586 66.8372C56.2781 68.6764 56.1793 70.5185 55.9577 72.3248C55.851 73.1943 55.7339 74.083 55.5464 74.9196C55.4672 75.2728 55.3584 75.6209 55.1851 75.8837C55.0197 76.1345 54.8012 76.2773 54.5844 76.3808C54.0438 76.6389 51.6266 77.404 52.2349 75.9602C52.5086 75.3104 52.6779 74.6629 52.668 73.9112C52.6559 72.9902 52.5908 72.0659 52.549 71.1472C52.5304 70.7387 52.5628 70.2034 52.425 69.8387C52.3044 69.5198 52.0649 69.4087 51.8415 69.417C51.5913 69.4263 51.3534 69.5758 51.1136 69.6722C50.8359 69.7838 50.5555 69.8689 50.2736 69.9495C49.7018 70.1129 49.1219 70.214 48.54 70.2007C48.0156 70.1889 47.488 70.1198 46.9747 69.9451C46.5433 69.7984 46.1065 69.5749 45.7597 69.1307C45.5929 68.9173 45.4541 68.655 45.3508 68.3585C45.2874 68.1775 45.1248 68.3364 45.1775 68.5177C45.5659 69.8545 46.5351 70.4639 47.4035 70.6814C48.592 70.9792 49.8393 70.9774 51.017 70.572C51.2889 70.4785 51.5543 70.3316 51.8265 70.2451C51.8751 70.2296 51.9712 70.2066 51.9967 70.2437C52.0547 70.3274 52.04 70.7474 52.0473 70.8917C52.096 71.8568 52.1623 72.8243 52.1902 73.7914C52.2012 74.1735 52.2012 74.5701 52.1163 74.934C52.039 75.2653 51.8233 75.4123 51.7076 75.7025C50.4291 78.9079 53.6408 77.5303 54.235 77.3407C54.7472 77.1773 55.2895 76.974 55.6451 76.3214C56.0087 75.6541 56.1434 74.7667 56.2769 73.9344C56.5798 72.0437 56.7546 70.1079 56.7985 68.1594C56.8198 67.219 56.8452 66.2316 56.7476 65.2998ZM60.8784 71.3468C60.6349 72.2224 60.3895 73.0979 60.1354 73.9659C60.0122 74.3863 59.8898 74.8071 59.7656 75.2267C59.6367 75.662 59.4683 76.0939 59.4176 76.572C59.3977 76.76 59.5388 76.9352 59.6367 76.7725C59.8483 76.4205 59.9609 75.9585 60.0913 75.526C60.2224 75.0927 60.3479 74.6554 60.4677 74.2142C60.7085 73.3247 60.932 72.4292 61.1329 71.5154C61.1837 71.2843 60.9419 71.1182 60.8784 71.3468ZM39.4393 90.8299C39.3952 89.9574 39.2957 89.0967 39.1598 88.2485C39.0254 87.4102 38.8633 86.5833 38.6984 85.7588C38.5342 84.9373 38.3638 84.1324 38.1312 83.3513C38.0829 83.1891 37.914 83.3037 37.9478 83.4728C38.1041 84.2566 38.2269 85.0596 38.36 85.8539C38.4975 86.6741 38.6311 87.4962 38.7372 88.3283C38.8403 89.1371 38.9233 89.9566 38.9536 90.7808C38.9685 91.1882 38.9733 91.598 38.9628 92.0058C38.9522 92.4211 38.9162 92.8328 38.9974 93.2378C39.0356 93.4285 39.1824 93.4406 39.2519 93.2901C39.4117 92.9436 39.4382 92.5184 39.4514 92.1039C39.4651 91.6789 39.4608 91.2541 39.4393 90.8299ZM62.4066 61.3329C61.3543 62.6935 60.428 64.9828 60.8475 67.1989C60.8971 67.4607 61.1501 67.352 61.1082 67.0859C60.9485 66.0737 61.1337 64.9917 61.451 64.0991C61.7754 63.1865 62.2396 62.4377 62.6028 61.5708C62.6861 61.372 62.5092 61.2002 62.4066 61.3329Z" fill="#5C4040"/>
<path d="M109.069 114.201C117.029 114.201 123.482 113.659 123.482 112.99C123.482 112.322 117.029 111.779 109.069 111.779C101.109 111.779 94.6562 112.322 94.6562 112.99C94.6562 113.659 101.109 114.201 109.069 114.201Z" fill="#766780"/>
<path d="M107.781 112.793C107.781 112.793 109.432 113.634 112.45 113.751C115.467 113.867 114.484 112.972 114.833 112.632C115.181 112.293 115.937 112.21 116.06 111.368C116.182 110.526 116.536 110.182 116.857 109.466C117.178 108.749 117.981 108.148 116.08 107.57C114.179 106.992 107.781 112.793 107.781 112.793Z" fill="#F99E8A"/>
<path d="M103.639 95.9533C103.639 95.9533 100.812 91.918 97.3636 94.9342C93.9148 97.9504 96.605 104.594 99.1678 107.809L104.761 109.802L106.526 113.676C106.526 113.676 108.035 113.835 109.645 113.219C110.475 112.901 111.221 112.125 112.222 111.636C116.505 109.542 121.707 108.494 122.2 102.446C122.739 95.8325 119.695 96.5643 119.695 96.5643L103.639 95.9533Z" fill="#6168AC"/>
<path d="M114.902 76.4957C114.902 76.4957 116.716 74.5474 118.798 76.2645C121.075 78.1423 123.934 83.5276 124.806 88.8749C125.637 93.965 124.968 96.4452 124.177 96.8446C122.052 97.9178 120.313 97.414 120.313 97.414C120.313 97.414 118.12 94.6342 115.41 96.1204C112.7 97.6065 110.648 99.4683 108.794 99.9381C108.794 99.9381 105.321 96.5328 103.709 94.5933C103.709 94.5933 103.35 91.7838 102.592 88.8925C101.821 85.9511 98.0819 83.2956 94.8535 74.3883C94.8535 74.3883 95.723 71.7046 98.0615 68.5679C98.0615 68.5679 99.6705 70.7244 100.516 71.6204C102.937 73.5538 103.888 74.7479 105.682 74.7785C107.475 74.8089 114.902 76.4957 114.902 76.4957Z" fill="#C191E8"/>
<path d="M119.696 96.5619C119.696 96.5619 117.608 93.8727 115.794 94.1251C114.552 94.2981 114.261 96.5619 113.662 97.2478C112.831 98.2008 113.141 98.963 114.114 98.1977C114.114 98.1977 114.786 97.6144 115.127 98.7019C115.467 99.7894 115.31 101.828 115.836 101.797C116.361 101.766 116.134 102.109 116.556 102.52C116.978 102.931 116.912 101.601 117.405 101.451C117.899 101.3 118.024 101.942 118.222 100.124C118.421 98.3053 118.377 98.5272 118.576 99.5831C118.775 100.639 119.437 100.347 119.194 99.0363C118.952 97.7258 119.107 96.9389 119.696 96.5619Z" fill="#F99E8A"/>
<path d="M115.51 92.8322C115.456 92.8324 115.403 92.8034 115.36 92.7502C115.318 92.6969 115.288 92.6226 115.276 92.5392C115.263 92.4558 115.27 92.3684 115.293 92.2913C115.317 92.2142 115.356 92.152 115.405 92.1148C115.84 91.7842 116.215 91.4834 116.611 91.1648C117.254 90.6481 117.919 90.1141 118.961 89.3523C120.99 87.8693 121.549 87.8369 122.882 88.3468C122.944 88.3705 122.998 88.4318 123.031 88.5173C123.064 88.6028 123.074 88.7055 123.059 88.8028C123.052 88.851 123.038 88.8964 123.02 88.9365C123.001 88.9766 122.978 89.0105 122.951 89.0363C122.924 89.062 122.894 89.0792 122.863 89.0867C122.831 89.0943 122.8 89.0921 122.769 89.0802C121.598 88.6334 121.171 88.569 119.164 90.0371C118.13 90.7929 117.469 91.3236 116.83 91.837C116.431 92.1576 116.054 92.4604 115.614 92.7946C115.582 92.8194 115.546 92.8323 115.51 92.8322Z" fill="#C191E8"/>
<path d="M118.992 91.429C118.96 91.429 118.929 91.4191 118.899 91.3996C118.87 91.3802 118.843 91.3518 118.821 91.3159C118.776 91.2444 118.751 91.1479 118.752 91.0478C118.753 90.9477 118.778 90.852 118.824 90.7818C119.292 90.0609 119.292 87.9101 119.292 87.2032C119.292 87.1031 119.317 87.0071 119.362 86.9363C119.407 86.8655 119.468 86.8257 119.532 86.8257C119.596 86.8257 119.657 86.8655 119.702 86.9363C119.747 87.0071 119.772 87.1031 119.772 87.2032C119.772 88.6813 119.702 90.4851 119.16 91.3211C119.115 91.3904 119.055 91.4291 118.992 91.429Z" fill="#91A8BA"/>
<path d="M105.731 110.611C105.731 110.611 106.702 112.838 106.61 113.478C106.444 114.625 103.844 111.509 103.844 111.509L105.731 110.611Z" fill="#1A1A1A"/>
<path d="M102.324 105.584C102.267 105.584 102.212 105.552 102.169 105.495C102.125 105.437 102.096 105.356 102.087 105.268C102.078 105.18 102.089 105.089 102.118 105.013C102.147 104.936 102.193 104.878 102.247 104.849C104.939 103.413 112.829 99.0878 114.436 97.8621C114.494 97.8184 114.56 97.8122 114.62 97.845C114.68 97.8778 114.73 97.9469 114.757 98.037C114.785 98.127 114.789 98.2308 114.768 98.3254C114.747 98.42 114.703 98.4977 114.646 98.5414C113.018 99.7828 105.101 104.123 102.401 105.564C102.376 105.577 102.35 105.584 102.324 105.584Z" fill="#434B9C"/>
<path d="M106.639 103.177C106.579 103.177 106.519 103.142 106.473 103.072C105.189 101.135 103.601 99.0375 101.564 98.1726C101.504 98.1443 101.453 98.0804 101.423 97.9944C101.392 97.9085 101.385 97.8073 101.401 97.7124C101.417 97.6174 101.456 97.5362 101.51 97.486C101.564 97.4358 101.628 97.4206 101.689 97.4435C103.831 98.353 105.478 100.524 106.805 102.527C106.84 102.579 106.864 102.647 106.874 102.72C106.884 102.794 106.88 102.871 106.862 102.941C106.844 103.01 106.813 103.07 106.774 103.113C106.734 103.155 106.687 103.177 106.639 103.177Z" fill="#434B9C"/>
<path d="M114.834 77.8551C114.659 77.7835 114.512 77.6968 114.398 77.5899C113.029 76.3043 114.615 71.2143 114.615 71.2143L110.156 68.8438L107.332 75.3971C107.332 75.3971 106.685 75.7179 105.613 76.1379C109.776 81.3297 113.899 78.9651 114.834 77.8551Z" fill="#F99E8A"/>
<path d="M125.467 62.4332C125.424 62.0843 125.33 61.7413 125.222 61.43C124.998 60.7805 124.667 60.2465 124.289 59.8128C123.901 59.3657 123.451 59.0639 122.995 58.8319C122.852 58.7592 122.647 58.6575 122.453 58.6303C122.684 57.3874 122.993 55.2956 121.78 53.6918C121.682 53.5624 121.549 53.4437 121.395 53.3355C120.976 52.7723 120.451 52.353 119.983 52.0558C119.412 51.6928 118.805 51.3828 118.313 50.7798C117.867 50.2332 117.557 49.4985 117.421 48.6335C117.402 48.5141 117.285 48.513 117.266 48.6335C116.983 50.4826 118.306 51.748 119.202 52.3667C119.298 52.4328 119.398 52.4998 119.499 52.5682C119.216 52.4968 119.026 52.4618 119.026 52.4618C119.026 52.4618 117.293 51.6558 116.798 49.3135C116.304 46.9712 114.495 47.3511 111.715 51.752C109.043 55.9827 110.446 58.6307 110.446 58.6307L111.768 67.2604L114.317 71.5721C114.317 71.5721 117.586 75.3949 118.601 70.4436C120.234 69.9249 121.182 69.9162 121.855 68.9674C122.723 67.7451 122.864 65.1175 122.864 65.1175C122.864 65.1175 124.107 64.9826 124.107 62.709C124.106 61.3676 123.652 60.0568 122.361 59.6903C122.283 59.6683 122.297 59.4865 122.348 59.1919C122.434 59.2317 122.52 59.2977 122.589 59.3469C122.764 59.471 122.94 59.5952 123.111 59.7327C123.446 60.0026 123.783 60.2941 124.073 60.6765C124.341 61.0292 124.564 61.444 124.723 61.9346C124.8 62.1722 124.852 62.4236 124.892 62.6825C124.933 62.9536 124.949 63.277 125.029 63.5237C125.108 63.766 125.33 63.7356 125.413 63.5237C125.531 63.2264 125.508 62.7628 125.467 62.4332Z" fill="#C22327"/>
<path d="M108.395 72.9269L109.991 69.0464L113.624 70.7898C112.916 72.8233 110.792 73.9947 108.395 72.9269Z" fill="#1A1A1A"/>
<path d="M110.337 55.747C109.769 56.7862 104.917 62.0079 107.23 68.5513C108.46 72.0308 113.083 73.5755 115.246 70.1999C115.246 70.1999 117.55 71.187 118.17 67.3826C118.626 64.5859 115.74 65.8792 115.74 65.8792C115.74 65.8792 115.813 65.4256 115.911 64.7757C116.003 64.1586 115.924 63.5111 115.694 62.99C114.719 60.7778 113.88 57.6312 114.499 55.8688C113.556 55.2141 113.098 54.2916 112.834 53.3306C112.834 53.3306 111.084 54.3798 110.337 55.747Z" fill="#F99E8A"/>
<path d="M112.422 63.0135C112.531 63.0099 112.627 63.0607 112.692 63.1839C112.701 63.1961 112.709 63.2086 112.717 63.2213C112.72 63.2255 112.724 63.2282 112.727 63.2337C112.73 63.2388 112.731 63.2441 112.733 63.2491C112.963 63.6681 112.702 64.3161 112.396 64.4372C112.336 64.4871 112.271 64.5164 112.205 64.4965C112.138 64.4769 112.078 64.4198 112.031 64.3423C112.025 64.3391 112.019 64.3372 112.013 64.3311C111.873 64.1893 111.855 63.96 111.906 63.7337C111.932 63.3506 112.163 63.0218 112.422 63.0135ZM108.905 58.5661C109.142 58.5041 109.365 58.7698 109.386 59.1487C109.388 59.1823 109.387 59.216 109.385 59.2495C109.381 59.3626 109.35 59.4691 109.298 59.5478C109.292 59.5577 109.286 59.5671 109.279 59.5761C109.277 59.5787 109.275 59.5821 109.273 59.5847C109.169 59.7111 109.061 59.836 108.928 59.8755C108.673 59.9517 108.479 59.5838 108.502 59.2037C108.522 58.8732 108.702 58.6191 108.905 58.5661Z" fill="#1A1A1A"/>
<path d="M109.201 62.3998C109.296 62.2845 109.441 62.3118 109.514 62.4634L109.729 62.9112C109.802 63.0623 109.785 63.2868 109.689 63.4033C109.594 63.5186 109.448 63.4913 109.376 63.3397L109.16 62.8919C109.087 62.7409 109.105 62.5163 109.201 62.3998Z" fill="#D65C48"/>
<path d="M113.768 60.4668C113.86 60.9352 113.998 61.3763 114.074 61.8529C114.151 62.3365 114.189 62.834 114.254 63.3216C114.313 63.7614 113.882 63.9434 113.822 63.4998C113.757 63.0125 113.72 62.514 113.642 62.0311C113.565 61.5551 113.428 61.1133 113.336 60.645C113.251 60.2138 113.683 60.0353 113.768 60.4668ZM109.419 56.2992C109.698 56.3277 109.898 56.5262 110.12 56.772C110.354 57.0301 110.125 57.632 109.889 57.3711C109.742 57.2085 109.603 57.0192 109.417 57.0002C109.131 56.9711 109.132 56.2699 109.419 56.2992Z" fill="#C22327"/>
<path d="M111.009 66.7103C111.197 67.0751 110.88 68.8978 109.71 69.0149C108.542 69.1317 107.751 66.1589 108.395 66.2673C108.944 66.3597 110.549 65.8149 111.009 66.7103Z" fill="white"/>
<path d="M105.732 110.612C105.732 110.612 104.072 106.439 101.734 105.519C101.734 105.519 97.9528 107.829 95.9982 108.064C95.9481 108.007 95.8952 107.957 95.8401 107.914C95.7326 107.832 95.6173 107.753 95.4945 107.758C95.4049 107.762 94.8156 108.032 94.9946 108.812C95.0113 108.885 95.1125 109.137 95.1408 109.193C95.2249 109.36 95.3261 109.502 95.438 109.622C95.6636 109.862 96.2572 110.123 96.2743 110.182C96.3477 110.437 96.4551 110.669 96.5819 110.865C96.7257 111.087 96.8278 111.244 97.1241 111.309C97.2388 111.335 97.3477 111.326 97.4987 111.666C97.6909 112.323 98.1855 112.314 98.2162 112.398C98.2376 112.46 98.3356 112.829 98.6109 112.897C99.0063 113.09 99.0241 113.204 99.1668 113.398C99.45 113.942 100.005 113.519 100.005 113.519C100.005 113.519 104.382 111.213 105.732 110.612Z" fill="#F99E8A"/>
<path d="M100.014 113.341C99.9846 113.341 99.956 113.329 99.9311 113.305C99.9061 113.282 99.8857 113.248 99.8721 113.207C99.7548 112.86 99.5285 112.605 99.2817 112.541C99.2509 112.533 99.2222 112.511 99.1992 112.478C99.1762 112.445 99.1599 112.402 99.1523 112.354C99.08 111.903 98.7583 111.565 98.4659 111.631C98.3829 111.652 98.3048 111.565 98.2867 111.437C98.2203 110.967 97.9067 110.611 97.6028 110.662C97.5631 110.668 97.5234 110.651 97.4914 110.614C97.4593 110.576 97.4372 110.522 97.4292 110.46C97.3976 110.208 97.2887 109.976 97.1306 109.825C96.9726 109.674 96.7915 109.628 96.6342 109.7C96.6127 109.71 96.59 109.713 96.5678 109.708C96.5456 109.703 96.5242 109.691 96.5052 109.672C96.4861 109.654 96.4698 109.629 96.4572 109.6C96.4445 109.571 96.4359 109.538 96.4319 109.503C96.384 109.088 96.2224 108.699 95.9996 108.464C95.9646 108.427 95.9406 108.369 95.9326 108.304C95.9246 108.238 95.9333 108.171 95.9569 108.116C95.9805 108.061 96.0171 108.022 96.0585 108.009C96.1 107.996 96.143 108.01 96.1783 108.046C96.431 108.315 96.6181 108.711 96.7088 109.169C96.9059 109.142 97.1138 109.22 97.2971 109.395C97.4894 109.579 97.6335 109.849 97.7061 110.156C98.0768 110.186 98.4224 110.577 98.5586 111.119C98.9375 111.128 99.2963 111.519 99.4319 112.077C99.7363 112.203 100.008 112.535 100.155 112.972C100.168 113.01 100.174 113.053 100.174 113.096C100.173 113.14 100.165 113.182 100.151 113.219C100.137 113.256 100.117 113.287 100.092 113.309C100.068 113.33 100.041 113.341 100.014 113.341Z" fill="#E07B62"/>
<path d="M102.723 93.3104C102.648 93.3103 102.576 93.269 102.519 93.1938C102.461 93.1187 102.422 93.0143 102.409 92.8987C101.754 87.3384 100.256 82.8553 100.24 82.8107C100.201 82.6928 100.192 82.5548 100.217 82.4271C100.242 82.2995 100.298 82.1926 100.373 82.13C100.448 82.0674 100.536 82.0543 100.617 82.0934C100.699 82.1326 100.767 82.2208 100.806 82.3388C100.87 82.5269 102.366 87.0045 103.038 92.7153C103.047 92.788 103.045 92.8628 103.033 92.9343C103.021 93.0058 103 93.0723 102.97 93.1291C102.939 93.1859 102.902 93.2316 102.859 93.263C102.817 93.2943 102.77 93.3105 102.723 93.3104Z" fill="#EA4550"/>
<path d="M95.3548 75.2592C95.3548 75.2592 92.8084 69.8234 91.429 68.1972C90.0558 66.5783 87.7836 64.9628 88.1152 64.0332C88.2634 63.6178 88.4572 63.7993 88.4572 63.7993C88.4572 63.7993 87.7755 63.2322 88.1907 62.2235C87.7405 60.1467 89.4423 61.6527 89.6063 61.8674C89.3217 61.6592 88.9616 60.3179 90.0059 60.7994C91.4468 61.4636 92.0746 64.2657 93.5156 62.8257C94.9566 61.3857 95.6488 61.2961 94.834 63.147C94.0193 64.9978 97.9925 69.926 97.9925 69.926C97.9925 69.926 97.3029 72.5768 95.3548 75.2592Z" fill="#F99E8A"/>
<path d="M90.4548 65.6248C90.4205 65.6248 90.3872 65.6075 90.3596 65.5754C89.7583 64.8737 89.0816 64.3477 88.3619 64.0225C88.3417 64.0134 88.3228 63.9981 88.3064 63.9775C88.2899 63.9569 88.2762 63.9314 88.2661 63.9024C88.2559 63.8735 88.2495 63.8417 88.2471 63.8089C88.2447 63.776 88.2465 63.7428 88.2524 63.711C88.2582 63.6793 88.2679 63.6496 88.281 63.6238C88.2941 63.5979 88.3104 63.5764 88.3288 63.5604C88.3472 63.5444 88.3674 63.5343 88.3883 63.5306C88.4092 63.5269 88.4303 63.5297 88.4505 63.5388C89.2071 63.8806 89.9183 64.4334 90.5504 65.1709C90.5775 65.2024 90.5975 65.2466 90.6077 65.2971C90.6178 65.3476 90.6176 65.4019 90.607 65.4521C90.5964 65.5024 90.576 65.5462 90.5487 65.5772C90.5214 65.6081 90.4885 65.6248 90.4548 65.6248ZM91.7662 65.0197C91.7364 65.0196 91.7072 65.0064 91.6819 64.9817C91.6566 64.957 91.6362 64.9217 91.623 64.8798C91.6097 64.8378 91.6042 64.7909 91.607 64.7443C91.6098 64.6977 91.6208 64.6532 91.6387 64.6159C92.0991 63.6622 92.8554 63.2135 93.4631 62.8531C93.4828 62.8415 93.5037 62.836 93.5247 62.837C93.5458 62.8381 93.5664 62.8456 93.5856 62.8593C93.6047 62.8729 93.622 62.8923 93.6364 62.9164C93.6508 62.9405 93.662 62.9688 93.6694 62.9997C93.6768 63.0306 93.6803 63.0635 93.6796 63.0966C93.679 63.1296 93.6742 63.1621 93.6655 63.1922C93.6569 63.2223 93.6445 63.2495 93.6292 63.2721C93.6139 63.2947 93.5958 63.3123 93.5762 63.324C93.0069 63.6617 92.2984 64.0817 91.894 64.9201C91.879 64.9511 91.8597 64.9762 91.8375 64.9935C91.8153 65.0107 91.7909 65.0197 91.7662 65.0197Z" fill="#E07B62"/>
<path d="M78.269 43.7738C80.302 43.7738 81.9501 41.1832 81.9501 37.9875C81.9501 34.7918 80.302 32.2012 78.269 32.2012C76.236 32.2012 74.5879 34.7918 74.5879 37.9875C74.5879 41.1832 76.236 43.7738 78.269 43.7738Z" fill="#F8AE44"/>
<path d="M78.5459 32.4603C78.6318 33.1274 78.8594 33.6706 79.0795 34.196C79.1177 34.2872 79.1558 34.3781 79.193 34.4695C79.4565 35.1177 79.6763 35.8074 79.8488 36.5272C80.0531 37.3794 80.2244 38.5709 79.8814 39.4079C79.6726 39.9176 79.2745 40.2438 78.8634 40.2438C78.8579 40.2438 78.8525 40.2438 78.8471 40.2435C78.4409 40.2352 78.0276 39.9188 77.7415 39.3971C77.5807 39.1036 77.4571 38.7507 77.3262 38.3768C77.2229 38.0819 77.116 37.7766 76.9851 37.4866C76.5079 36.4303 75.7559 35.7718 75.0226 35.7686C74.9702 35.7681 74.9181 35.7713 74.8663 35.7777C74.7745 36.1267 74.7048 36.489 74.6582 36.8594C74.7747 36.8044 74.8956 36.7761 75.0172 36.7754H75.0208C75.5507 36.7776 76.1033 37.2736 76.4628 38.0697C76.5726 38.3125 76.666 38.5797 76.765 38.8624C76.906 39.265 77.0518 39.6813 77.2564 40.0544C77.6604 40.7913 78.2519 41.2383 78.8386 41.2504C78.8468 41.2507 78.8548 41.2507 78.8629 41.2507C79.4867 41.2507 80.0959 40.7444 80.4199 39.9532C80.811 38.9988 80.8206 37.7268 80.4482 36.1725C80.26 35.3871 80.0202 34.6347 79.7327 33.9275C79.6939 33.8324 79.6542 33.7375 79.6144 33.6424C79.4364 33.2175 79.2685 32.8138 79.1937 32.3849C78.9737 32.296 78.7489 32.2394 78.5222 32.2158C78.5282 32.2967 78.5353 32.378 78.5459 32.4603Z" fill="#D69939"/>
<path d="M89.0189 56.7548C88.9738 56.7548 88.9297 56.735 88.8915 56.6974C88.8533 56.6599 88.8226 56.6063 88.8028 56.5426C87.7583 53.1751 85.9698 50.5029 84.2401 47.9186C83.5334 46.8627 82.8026 45.7709 82.1278 44.641C82.1057 44.605 82.0884 44.5625 82.0769 44.5159C82.0654 44.4693 82.0598 44.4195 82.0606 44.3695C82.0614 44.3195 82.0685 44.2703 82.0815 44.2247C82.0945 44.179 82.1132 44.1379 82.1364 44.1037C82.1596 44.0695 82.1869 44.0428 82.2167 44.0253C82.2465 44.0078 82.2782 43.9998 82.31 44.0017C82.3418 44.0037 82.373 44.0155 82.4019 44.0366C82.4307 44.0576 82.4566 44.0875 82.4781 44.1244C83.1434 45.2383 83.8692 46.3227 84.5711 47.3715C86.3316 50.0019 88.1521 52.7217 89.2346 56.2119C89.2524 56.2694 89.2606 56.3331 89.2585 56.397C89.2563 56.4609 89.2439 56.5229 89.2223 56.5772C89.2008 56.6315 89.1708 56.6762 89.1352 56.7073C89.0996 56.7383 89.0596 56.7547 89.0189 56.7548ZM91.1878 55.9894C91.1279 55.9894 91.068 55.9545 91.0214 55.8842L84.7608 46.4361C84.7166 46.3661 84.6915 46.2717 84.6909 46.1731C84.6904 46.0744 84.7144 45.9793 84.7579 45.9082C84.8014 45.837 84.8608 45.7954 84.9236 45.7923C84.9863 45.7891 85.0473 45.8247 85.0936 45.8914L91.3542 55.3395C91.3887 55.3917 91.4126 55.459 91.4226 55.5326C91.4326 55.6063 91.4284 55.6829 91.4105 55.7528C91.3926 55.8227 91.3619 55.8825 91.3222 55.9247C91.2825 55.9669 91.2357 55.9894 91.1878 55.9894Z" fill="#AEBFD1"/>
<path d="M119.694 96.563C119.327 96.7978 119.129 97.1919 119.09 97.7722C119.389 98.0379 120.049 98.9352 120.242 98.7729C120.588 98.4828 119.694 96.563 119.694 96.563Z" fill="black"/>
<path d="M95.3529 75.2611C95.3529 75.2611 95.04 76.0641 94.7825 75.7483C94.5251 75.4326 94.6379 73.7842 94.6379 73.7842L95.3529 75.2611Z" fill="#1A1A1A"/>
</g>
<path d="M11.917 172.967C12.2623 172.967 12.5633 172.925 12.82 172.841C13.0767 172.752 13.289 172.629 13.457 172.47C13.6297 172.307 13.758 172.111 13.842 171.882C13.926 171.649 13.968 171.39 13.968 171.105C13.968 170.834 13.926 170.589 13.842 170.37C13.758 170.151 13.632 169.964 13.464 169.81C13.296 169.656 13.0837 169.539 12.827 169.46C12.5703 169.376 12.267 169.334 11.917 169.334H10.51V172.967H11.917ZM11.917 167.878C12.5937 167.878 13.1793 167.957 13.674 168.116C14.1687 168.275 14.577 168.496 14.899 168.781C15.221 169.066 15.459 169.406 15.613 169.803C15.7717 170.2 15.851 170.634 15.851 171.105C15.851 171.595 15.7693 172.045 15.606 172.456C15.4427 172.862 15.1977 173.212 14.871 173.506C14.5443 173.8 14.1337 174.029 13.639 174.192C13.149 174.355 12.575 174.437 11.917 174.437H10.51V178H8.627V167.878H11.917ZM18.7446 167.598V178H17.0156V167.598H18.7446ZM24.2613 174.934C23.7619 174.957 23.3419 175.002 23.0013 175.067C22.6606 175.128 22.3876 175.207 22.1823 175.305C21.9769 175.403 21.8299 175.517 21.7413 175.648C21.6526 175.779 21.6083 175.921 21.6083 176.075C21.6083 176.378 21.6969 176.595 21.8743 176.726C22.0563 176.857 22.2919 176.922 22.5813 176.922C22.9359 176.922 23.2416 176.859 23.4983 176.733C23.7596 176.602 24.0139 176.406 24.2613 176.145V174.934ZM20.2993 171.819C21.1253 171.063 22.1193 170.685 23.2813 170.685C23.7013 170.685 24.0769 170.755 24.4083 170.895C24.7396 171.03 25.0196 171.222 25.2483 171.469C25.4769 171.712 25.6496 172.003 25.7663 172.344C25.8876 172.685 25.9483 173.058 25.9483 173.464V178H25.1643C25.0009 178 24.8749 177.977 24.7863 177.93C24.6976 177.879 24.6276 177.778 24.5763 177.629L24.4223 177.111C24.2403 177.274 24.0629 177.419 23.8903 177.545C23.7176 177.666 23.5379 177.769 23.3513 177.853C23.1646 177.937 22.9639 178 22.7493 178.042C22.5393 178.089 22.3059 178.112 22.0493 178.112C21.7459 178.112 21.4659 178.072 21.2093 177.993C20.9526 177.909 20.7309 177.785 20.5443 177.622C20.3576 177.459 20.2129 177.256 20.1103 177.013C20.0076 176.77 19.9563 176.488 19.9563 176.166C19.9563 175.984 19.9866 175.804 20.0473 175.627C20.1079 175.445 20.2059 175.272 20.3413 175.109C20.4813 174.946 20.6609 174.792 20.8803 174.647C21.0996 174.502 21.3679 174.376 21.6853 174.269C22.0073 174.162 22.3806 174.075 22.8053 174.01C23.2299 173.94 23.7153 173.898 24.2613 173.884V173.464C24.2613 172.983 24.1586 172.629 23.9533 172.4C23.7479 172.167 23.4516 172.05 23.0643 172.05C22.7843 172.05 22.5509 172.083 22.3643 172.148C22.1823 172.213 22.0213 172.288 21.8813 172.372C21.7413 172.451 21.6129 172.524 21.4963 172.589C21.3843 172.654 21.2583 172.687 21.1183 172.687C20.9969 172.687 20.8943 172.657 20.8103 172.596C20.7263 172.531 20.6586 172.456 20.6073 172.372L20.2993 171.819ZM33.8956 170.818L29.9826 179.974C29.9312 180.095 29.8636 180.186 29.7796 180.247C29.7002 180.312 29.5766 180.345 29.4086 180.345H28.1206L29.4646 177.461L26.5596 170.818H28.0786C28.2139 170.818 28.3189 170.851 28.3936 170.916C28.4729 170.981 28.5312 171.056 28.5686 171.14L30.0946 174.864C30.1459 174.99 30.1879 175.116 30.2206 175.242C30.2579 175.368 30.2929 175.496 30.3256 175.627C30.3676 175.496 30.4096 175.368 30.4516 175.242C30.4936 175.111 30.5402 174.983 30.5916 174.857L32.0336 171.14C32.0709 171.047 32.1316 170.97 32.2156 170.909C32.3042 170.848 32.4022 170.818 32.5096 170.818H33.8956ZM37.1484 178.112C36.5231 178.112 36.0424 177.937 35.7064 177.587C35.3751 177.232 35.2094 176.745 35.2094 176.124V172.113H34.4744C34.3811 172.113 34.3017 172.083 34.2364 172.022C34.1711 171.961 34.1384 171.87 34.1384 171.749V171.063L35.2934 170.874L35.6574 168.914C35.6807 168.821 35.7251 168.748 35.7904 168.697C35.8557 168.646 35.9397 168.62 36.0424 168.62H36.9384V170.881H38.8564V172.113H36.9384V176.005C36.9384 176.229 36.9921 176.404 37.0994 176.53C37.2114 176.656 37.3631 176.719 37.5544 176.719C37.6617 176.719 37.7504 176.707 37.8204 176.684C37.8951 176.656 37.9581 176.628 38.0094 176.6C38.0654 176.572 38.1144 176.546 38.1564 176.523C38.1984 176.495 38.2404 176.481 38.2824 176.481C38.3337 176.481 38.3757 176.495 38.4084 176.523C38.4411 176.546 38.4761 176.584 38.5134 176.635L39.0314 177.475C38.7794 177.685 38.4901 177.844 38.1634 177.951C37.8367 178.058 37.4984 178.112 37.1484 178.112ZM41.7554 170.818V178H40.0194V170.818H41.7554ZM41.9934 168.725C41.9934 168.874 41.963 169.014 41.9024 169.145C41.8417 169.276 41.76 169.39 41.6574 169.488C41.5594 169.586 41.4427 169.665 41.3074 169.726C41.172 169.782 41.0274 169.81 40.8734 169.81C40.724 169.81 40.5817 169.782 40.4464 169.726C40.3157 169.665 40.2014 169.586 40.1034 169.488C40.0054 169.39 39.926 169.276 39.8654 169.145C39.8094 169.014 39.7814 168.874 39.7814 168.725C39.7814 168.571 39.8094 168.426 39.8654 168.291C39.926 168.156 40.0054 168.039 40.1034 167.941C40.2014 167.843 40.3157 167.766 40.4464 167.71C40.5817 167.649 40.724 167.619 40.8734 167.619C41.0274 167.619 41.172 167.649 41.3074 167.71C41.4427 167.766 41.5594 167.843 41.6574 167.941C41.76 168.039 41.8417 168.156 41.9024 168.291C41.963 168.426 41.9934 168.571 41.9934 168.725ZM43.5181 178V170.818H44.5751C44.7991 170.818 44.9461 170.923 45.0161 171.133L45.1281 171.665C45.2541 171.525 45.3847 171.397 45.5201 171.28C45.6601 171.163 45.8071 171.063 45.9611 170.979C46.1197 170.895 46.2877 170.83 46.4651 170.783C46.6471 170.732 46.8454 170.706 47.0601 170.706C47.5127 170.706 47.8837 170.83 48.1731 171.077C48.4671 171.32 48.6864 171.644 48.8311 172.05C48.9431 171.812 49.0831 171.609 49.2511 171.441C49.4191 171.268 49.6034 171.128 49.8041 171.021C50.0047 170.914 50.2171 170.834 50.4411 170.783C50.6697 170.732 50.8984 170.706 51.1271 170.706C51.5237 170.706 51.8761 170.767 52.1841 170.888C52.4921 171.009 52.7511 171.187 52.9611 171.42C53.1711 171.653 53.3297 171.938 53.4371 172.274C53.5491 172.61 53.6051 172.995 53.6051 173.429V178H51.8761V173.429C51.8761 172.972 51.7757 172.629 51.5751 172.4C51.3744 172.167 51.0804 172.05 50.6931 172.05C50.5157 172.05 50.3501 172.08 50.1961 172.141C50.0467 172.202 49.9137 172.29 49.7971 172.407C49.6851 172.519 49.5964 172.661 49.5311 172.834C49.4657 173.007 49.4331 173.205 49.4331 173.429V178H47.6971V173.429C47.6971 172.948 47.5991 172.598 47.4031 172.379C47.2117 172.16 46.9294 172.05 46.5561 172.05C46.3041 172.05 46.0684 172.113 45.8491 172.239C45.6344 172.36 45.4337 172.528 45.2471 172.743V178H43.5181ZM59.8755 173.583C59.8755 173.359 59.8429 173.149 59.7775 172.953C59.7169 172.752 59.6235 172.577 59.4975 172.428C59.3715 172.279 59.2105 172.162 59.0145 172.078C58.8232 171.989 58.5992 171.945 58.3425 171.945C57.8432 171.945 57.4489 172.087 57.1595 172.372C56.8749 172.657 56.6929 173.06 56.6135 173.583H59.8755ZM56.5785 174.626C56.6065 174.995 56.6719 175.314 56.7745 175.585C56.8772 175.851 57.0125 176.073 57.1805 176.25C57.3485 176.423 57.5469 176.553 57.7755 176.642C58.0089 176.726 58.2655 176.768 58.5455 176.768C58.8255 176.768 59.0659 176.735 59.2665 176.67C59.4719 176.605 59.6492 176.532 59.7985 176.453C59.9525 176.374 60.0855 176.301 60.1975 176.236C60.3142 176.171 60.4262 176.138 60.5335 176.138C60.6782 176.138 60.7855 176.192 60.8555 176.299L61.3525 176.929C61.1612 177.153 60.9465 177.342 60.7085 177.496C60.4705 177.645 60.2209 177.767 59.9595 177.86C59.7029 177.949 59.4392 178.012 59.1685 178.049C58.9025 178.086 58.6435 178.105 58.3915 178.105C57.8922 178.105 57.4279 178.023 56.9985 177.86C56.5692 177.692 56.1959 177.447 55.8785 177.125C55.5612 176.798 55.3115 176.397 55.1295 175.921C54.9475 175.44 54.8565 174.885 54.8565 174.255C54.8565 173.765 54.9359 173.305 55.0945 172.876C55.2532 172.442 55.4795 172.066 55.7735 171.749C56.0722 171.427 56.4339 171.173 56.8585 170.986C57.2879 170.799 57.7709 170.706 58.3075 170.706C58.7602 170.706 59.1779 170.778 59.5605 170.923C59.9432 171.068 60.2722 171.28 60.5475 171.56C60.8229 171.835 61.0375 172.176 61.1915 172.582C61.3502 172.983 61.4295 173.443 61.4295 173.961C61.4295 174.222 61.4015 174.4 61.3455 174.493C61.2895 174.582 61.1822 174.626 61.0235 174.626H56.5785ZM69.9253 174.934C69.426 174.957 69.006 175.002 68.6653 175.067C68.3247 175.128 68.0517 175.207 67.8463 175.305C67.641 175.403 67.494 175.517 67.4053 175.648C67.3167 175.779 67.2723 175.921 67.2723 176.075C67.2723 176.378 67.361 176.595 67.5383 176.726C67.7203 176.857 67.956 176.922 68.2453 176.922C68.6 176.922 68.9057 176.859 69.1623 176.733C69.4237 176.602 69.678 176.406 69.9253 176.145V174.934ZM65.9633 171.819C66.7893 171.063 67.7833 170.685 68.9453 170.685C69.3653 170.685 69.741 170.755 70.0723 170.895C70.4037 171.03 70.6837 171.222 70.9123 171.469C71.141 171.712 71.3137 172.003 71.4303 172.344C71.5517 172.685 71.6123 173.058 71.6123 173.464V178H70.8283C70.665 178 70.539 177.977 70.4503 177.93C70.3617 177.879 70.2917 177.778 70.2403 177.629L70.0863 177.111C69.9043 177.274 69.727 177.419 69.5543 177.545C69.3817 177.666 69.202 177.769 69.0153 177.853C68.8287 177.937 68.628 178 68.4133 178.042C68.2033 178.089 67.97 178.112 67.7133 178.112C67.41 178.112 67.13 178.072 66.8733 177.993C66.6167 177.909 66.395 177.785 66.2083 177.622C66.0217 177.459 65.877 177.256 65.7743 177.013C65.6717 176.77 65.6203 176.488 65.6203 176.166C65.6203 175.984 65.6507 175.804 65.7113 175.627C65.772 175.445 65.87 175.272 66.0053 175.109C66.1453 174.946 66.325 174.792 66.5443 174.647C66.7637 174.502 67.032 174.376 67.3493 174.269C67.6713 174.162 68.0447 174.075 68.4693 174.01C68.894 173.94 69.3793 173.898 69.9253 173.884V173.464C69.9253 172.983 69.8227 172.629 69.6173 172.4C69.412 172.167 69.1157 172.05 68.7283 172.05C68.4483 172.05 68.215 172.083 68.0283 172.148C67.8463 172.213 67.6853 172.288 67.5453 172.372C67.4053 172.451 67.277 172.524 67.1603 172.589C67.0483 172.654 66.9223 172.687 66.7823 172.687C66.661 172.687 66.5583 172.657 66.4743 172.596C66.3903 172.531 66.3227 172.456 66.2713 172.372L65.9633 171.819ZM74.8577 171.7C75.0024 171.555 75.1541 171.422 75.3127 171.301C75.4761 171.175 75.6464 171.07 75.8237 170.986C76.0057 170.897 76.1994 170.83 76.4047 170.783C76.6101 170.732 76.8341 170.706 77.0767 170.706C77.4687 170.706 77.8164 170.774 78.1197 170.909C78.4231 171.04 78.6751 171.226 78.8757 171.469C79.0811 171.707 79.2351 171.994 79.3377 172.33C79.4451 172.661 79.4987 173.028 79.4987 173.429V178H77.7697V173.429C77.7697 172.99 77.6694 172.652 77.4687 172.414C77.2681 172.171 76.9624 172.05 76.5517 172.05C76.2531 172.05 75.9731 172.118 75.7117 172.253C75.4504 172.388 75.2031 172.573 74.9697 172.806V178H73.2407V170.818H74.2977C74.5217 170.818 74.6687 170.923 74.7387 171.133L74.8577 171.7ZM85.6511 172.652C85.4551 172.414 85.2404 172.246 85.0071 172.148C84.7784 172.05 84.5311 172.001 84.2651 172.001C84.0037 172.001 83.7681 172.05 83.5581 172.148C83.3481 172.246 83.1684 172.395 83.0191 172.596C82.8697 172.792 82.7554 173.044 82.6761 173.352C82.5967 173.655 82.5571 174.015 82.5571 174.43C82.5571 174.85 82.5897 175.207 82.6551 175.501C82.7251 175.79 82.8231 176.028 82.9491 176.215C83.0751 176.397 83.2291 176.53 83.4111 176.614C83.5931 176.693 83.7961 176.733 84.0201 176.733C84.3794 176.733 84.6851 176.658 84.9371 176.509C85.1891 176.36 85.4271 176.147 85.6511 175.872V172.652ZM87.3801 167.598V178H86.3231C86.0944 178 85.9497 177.895 85.8891 177.685L85.7421 176.992C85.4527 177.323 85.1191 177.592 84.7411 177.797C84.3677 178.002 83.9314 178.105 83.4321 178.105C83.0401 178.105 82.6807 178.023 82.3541 177.86C82.0274 177.697 81.7451 177.461 81.5071 177.153C81.2737 176.84 81.0917 176.455 80.9611 175.998C80.8351 175.541 80.7721 175.018 80.7721 174.43C80.7721 173.898 80.8444 173.403 80.9891 172.946C81.1337 172.489 81.3414 172.092 81.6121 171.756C81.8827 171.42 82.2071 171.159 82.5851 170.972C82.9631 170.781 83.3877 170.685 83.8591 170.685C84.2604 170.685 84.6034 170.748 84.8881 170.874C85.1727 171 85.4271 171.17 85.6511 171.385V167.598H87.3801ZM94.6537 169.376V172.183H98.1957V173.632H94.6537V176.495H99.1477V178H92.7637V167.878H99.1477V169.376H94.6537ZM106.955 178H105.289C105.163 178 105.061 177.967 104.981 177.902C104.907 177.837 104.844 177.762 104.792 177.678L103.273 175.179C103.25 175.258 103.222 175.333 103.189 175.403C103.161 175.473 103.129 175.538 103.091 175.599L101.747 177.678C101.696 177.757 101.633 177.832 101.558 177.902C101.484 177.967 101.39 178 101.278 178H99.7315L102.195 174.297L99.8295 170.818H101.495C101.621 170.818 101.715 170.837 101.775 170.874C101.836 170.907 101.89 170.963 101.936 171.042L103.441 173.436C103.493 173.277 103.565 173.121 103.658 172.967L104.869 171.077C104.972 170.904 105.105 170.818 105.268 170.818H106.857L104.498 174.22L106.955 178ZM112.157 173.583C112.157 173.359 112.124 173.149 112.059 172.953C111.998 172.752 111.905 172.577 111.779 172.428C111.653 172.279 111.492 172.162 111.296 172.078C111.104 171.989 110.88 171.945 110.624 171.945C110.124 171.945 109.73 172.087 109.441 172.372C109.156 172.657 108.974 173.06 108.895 173.583H112.157ZM108.86 174.626C108.888 174.995 108.953 175.314 109.056 175.585C109.158 175.851 109.294 176.073 109.462 176.25C109.63 176.423 109.828 176.553 110.057 176.642C110.29 176.726 110.547 176.768 110.827 176.768C111.107 176.768 111.347 176.735 111.548 176.67C111.753 176.605 111.93 176.532 112.08 176.453C112.234 176.374 112.367 176.301 112.479 176.236C112.595 176.171 112.707 176.138 112.815 176.138C112.959 176.138 113.067 176.192 113.137 176.299L113.634 176.929C113.442 177.153 113.228 177.342 112.99 177.496C112.752 177.645 112.502 177.767 112.241 177.86C111.984 177.949 111.72 178.012 111.45 178.049C111.184 178.086 110.925 178.105 110.673 178.105C110.173 178.105 109.709 178.023 109.28 177.86C108.85 177.692 108.477 177.447 108.16 177.125C107.842 176.798 107.593 176.397 107.411 175.921C107.229 175.44 107.138 174.885 107.138 174.255C107.138 173.765 107.217 173.305 107.376 172.876C107.534 172.442 107.761 172.066 108.055 171.749C108.353 171.427 108.715 171.173 109.14 170.986C109.569 170.799 110.052 170.706 110.589 170.706C111.041 170.706 111.459 170.778 111.842 170.923C112.224 171.068 112.553 171.28 112.829 171.56C113.104 171.835 113.319 172.176 113.473 172.582C113.631 172.983 113.711 173.443 113.711 173.961C113.711 174.222 113.683 174.4 113.627 174.493C113.571 174.582 113.463 174.626 113.305 174.626H108.86ZM116.639 172.064C116.863 171.635 117.129 171.299 117.437 171.056C117.745 170.809 118.109 170.685 118.529 170.685C118.861 170.685 119.127 170.757 119.327 170.902L119.215 172.197C119.192 172.281 119.157 172.342 119.11 172.379C119.068 172.412 119.01 172.428 118.935 172.428C118.865 172.428 118.76 172.416 118.62 172.393C118.485 172.37 118.352 172.358 118.221 172.358C118.03 172.358 117.86 172.386 117.71 172.442C117.561 172.498 117.426 172.58 117.304 172.687C117.188 172.79 117.083 172.916 116.989 173.065C116.901 173.214 116.817 173.385 116.737 173.576V178H115.008V170.818H116.023C116.201 170.818 116.324 170.851 116.394 170.916C116.464 170.977 116.511 171.089 116.534 171.252L116.639 172.064ZM125.171 172.337C125.12 172.402 125.068 172.454 125.017 172.491C124.97 172.528 124.9 172.547 124.807 172.547C124.718 172.547 124.632 172.521 124.548 172.47C124.464 172.414 124.364 172.353 124.247 172.288C124.13 172.218 123.99 172.157 123.827 172.106C123.668 172.05 123.47 172.022 123.232 172.022C122.929 172.022 122.663 172.078 122.434 172.19C122.205 172.297 122.014 172.454 121.86 172.659C121.711 172.864 121.599 173.114 121.524 173.408C121.449 173.697 121.412 174.026 121.412 174.395C121.412 174.778 121.452 175.118 121.531 175.417C121.615 175.716 121.734 175.968 121.888 176.173C122.042 176.374 122.229 176.528 122.448 176.635C122.667 176.738 122.915 176.789 123.19 176.789C123.465 176.789 123.687 176.756 123.855 176.691C124.028 176.621 124.172 176.546 124.289 176.467C124.406 176.383 124.506 176.308 124.59 176.243C124.679 176.173 124.777 176.138 124.884 176.138C125.024 176.138 125.129 176.192 125.199 176.299L125.696 176.929C125.505 177.153 125.297 177.342 125.073 177.496C124.849 177.645 124.616 177.767 124.373 177.86C124.135 177.949 123.888 178.012 123.631 178.049C123.379 178.086 123.127 178.105 122.875 178.105C122.432 178.105 122.014 178.023 121.622 177.86C121.23 177.692 120.887 177.449 120.593 177.132C120.299 176.815 120.066 176.427 119.893 175.97C119.725 175.508 119.641 174.983 119.641 174.395C119.641 173.868 119.716 173.38 119.865 172.932C120.019 172.479 120.243 172.09 120.537 171.763C120.831 171.432 121.195 171.173 121.629 170.986C122.063 170.799 122.562 170.706 123.127 170.706C123.664 170.706 124.133 170.792 124.534 170.965C124.94 171.138 125.304 171.385 125.626 171.707L125.171 172.337ZM128.572 170.818V178H126.836V170.818H128.572ZM128.81 168.725C128.81 168.874 128.779 169.014 128.719 169.145C128.658 169.276 128.576 169.39 128.474 169.488C128.376 169.586 128.259 169.665 128.124 169.726C127.988 169.782 127.844 169.81 127.69 169.81C127.54 169.81 127.398 169.782 127.263 169.726C127.132 169.665 127.018 169.586 126.92 169.488C126.822 169.39 126.742 169.276 126.682 169.145C126.626 169.014 126.598 168.874 126.598 168.725C126.598 168.571 126.626 168.426 126.682 168.291C126.742 168.156 126.822 168.039 126.92 167.941C127.018 167.843 127.132 167.766 127.263 167.71C127.398 167.649 127.54 167.619 127.69 167.619C127.844 167.619 127.988 167.649 128.124 167.71C128.259 167.766 128.376 167.843 128.474 167.941C128.576 168.039 128.658 168.156 128.719 168.291C128.779 168.426 128.81 168.571 128.81 168.725ZM134.716 172.218C134.67 172.293 134.621 172.346 134.569 172.379C134.518 172.407 134.453 172.421 134.373 172.421C134.289 172.421 134.198 172.398 134.1 172.351C134.007 172.304 133.897 172.253 133.771 172.197C133.645 172.136 133.501 172.083 133.337 172.036C133.179 171.989 132.99 171.966 132.77 171.966C132.43 171.966 132.161 172.038 131.965 172.183C131.774 172.328 131.678 172.517 131.678 172.75C131.678 172.904 131.727 173.035 131.825 173.142C131.928 173.245 132.061 173.336 132.224 173.415C132.392 173.494 132.581 173.567 132.791 173.632C133.001 173.693 133.214 173.76 133.428 173.835C133.648 173.91 133.862 173.996 134.072 174.094C134.282 174.187 134.469 174.309 134.632 174.458C134.8 174.603 134.933 174.778 135.031 174.983C135.134 175.188 135.185 175.436 135.185 175.725C135.185 176.07 135.122 176.39 134.996 176.684C134.875 176.973 134.693 177.225 134.45 177.44C134.208 177.65 133.907 177.816 133.547 177.937C133.193 178.054 132.782 178.112 132.315 178.112C132.068 178.112 131.825 178.089 131.587 178.042C131.354 178 131.128 177.939 130.908 177.86C130.694 177.781 130.493 177.687 130.306 177.58C130.124 177.473 129.963 177.356 129.823 177.23L130.222 176.572C130.274 176.493 130.334 176.432 130.404 176.39C130.474 176.348 130.563 176.327 130.67 176.327C130.778 176.327 130.878 176.357 130.971 176.418C131.069 176.479 131.181 176.544 131.307 176.614C131.433 176.684 131.58 176.749 131.748 176.81C131.921 176.871 132.138 176.901 132.399 176.901C132.605 176.901 132.78 176.878 132.924 176.831C133.074 176.78 133.195 176.714 133.288 176.635C133.386 176.556 133.456 176.465 133.498 176.362C133.545 176.255 133.568 176.145 133.568 176.033C133.568 175.865 133.517 175.727 133.414 175.62C133.316 175.513 133.183 175.419 133.015 175.34C132.852 175.261 132.663 175.191 132.448 175.13C132.238 175.065 132.021 174.995 131.797 174.92C131.578 174.845 131.361 174.759 131.146 174.661C130.936 174.558 130.747 174.43 130.579 174.276C130.416 174.122 130.283 173.933 130.18 173.709C130.082 173.485 130.033 173.214 130.033 172.897C130.033 172.603 130.092 172.323 130.208 172.057C130.325 171.791 130.495 171.56 130.719 171.364C130.948 171.163 131.23 171.005 131.566 170.888C131.907 170.767 132.299 170.706 132.742 170.706C133.237 170.706 133.687 170.788 134.093 170.951C134.499 171.114 134.838 171.329 135.108 171.595L134.716 172.218ZM141.114 173.583C141.114 173.359 141.081 173.149 141.016 172.953C140.955 172.752 140.862 172.577 140.736 172.428C140.61 172.279 140.449 172.162 140.253 172.078C140.061 171.989 139.837 171.945 139.581 171.945C139.081 171.945 138.687 172.087 138.398 172.372C138.113 172.657 137.931 173.06 137.852 173.583H141.114ZM137.817 174.626C137.845 174.995 137.91 175.314 138.013 175.585C138.115 175.851 138.251 176.073 138.419 176.25C138.587 176.423 138.785 176.553 139.014 176.642C139.247 176.726 139.504 176.768 139.784 176.768C140.064 176.768 140.304 176.735 140.505 176.67C140.71 176.605 140.887 176.532 141.037 176.453C141.191 176.374 141.324 176.301 141.436 176.236C141.552 176.171 141.664 176.138 141.772 176.138C141.916 176.138 142.024 176.192 142.094 176.299L142.591 176.929C142.399 177.153 142.185 177.342 141.947 177.496C141.709 177.645 141.459 177.767 141.198 177.86C140.941 177.949 140.677 178.012 140.407 178.049C140.141 178.086 139.882 178.105 139.63 178.105C139.13 178.105 138.666 178.023 138.237 177.86C137.807 177.692 137.434 177.447 137.117 177.125C136.799 176.798 136.55 176.397 136.368 175.921C136.186 175.44 136.095 174.885 136.095 174.255C136.095 173.765 136.174 173.305 136.333 172.876C136.491 172.442 136.718 172.066 137.012 171.749C137.31 171.427 137.672 171.173 138.097 170.986C138.526 170.799 139.009 170.706 139.546 170.706C139.998 170.706 140.416 170.778 140.799 170.923C141.181 171.068 141.51 171.28 141.786 171.56C142.061 171.835 142.276 172.176 142.43 172.582C142.588 172.983 142.668 173.443 142.668 173.961C142.668 174.222 142.64 174.4 142.584 174.493C142.528 174.582 142.42 174.626 142.262 174.626H137.817Z" fill="black"/>
<defs>
<clipPath id="clip0_542_9672">
<rect width="100" height="100" fill="white" transform="translate(25.5 25)"/>
</clipPath>
</defs>
</svg>
